<svg class="animated" id="freepik_stories-manicurist" xmlns="http://www.w3.org/2000/svg" xmlns:xlink="http://www.w3.org/1999/xlink" viewBox="0 0 500 500" version="1.1" xmlns:svgjs="http://svgjs.com/svgjs"><style>svg#freepik_stories-manicurist:not(.animated) .animable {opacity: 0;}svg#freepik_stories-manicurist.animated #freepik--Plant--inject-59 {animation: 6s Infinite  linear floating;animation-delay: 0s;}svg#freepik_stories-manicurist.animated #freepik--Lamp--inject-59 {animation: 3s Infinite  linear wind;animation-delay: 0s;}svg#freepik_stories-manicurist.animated #freepik--Shelf--inject-59 {animation: 6s Infinite  linear floating;animation-delay: 0s;}            @keyframes floating {                0% {                    opacity: 1;                    transform: translateY(0px);                }                50% {                    transform: translateY(-10px);                }                100% {                    opacity: 1;                    transform: translateY(0px);                }            }                    @keyframes wind {                0% {                    transform: rotate( 0deg );                }                25% {                    transform: rotate( 1deg );                }                75% {                    transform: rotate( -1deg );                }            }        </style><g id="freepik--Floor--inject-59" class="animable animator-active" style="transform-origin: 250px 341.19px;"><ellipse cx="250" cy="341.19" rx="225.94" ry="133.11" style="fill: rgb(245, 245, 245); transform-origin: 250px 341.19px;" id="el22gpp6i8hrb" class="animable"></ellipse></g><g id="freepik--Shadows--inject-59" class="animable" style="transform-origin: 228.721px 344.554px;"><path d="M391.22,394.22,322,354.28l71.44-41.35-95.42-55.09-83.67,48.43L192.5,293.63a24.46,24.46,0,0,0-24.86.25l-39.17,23.69a5.69,5.69,0,0,0,.1,9.79l24.72,14.27-58,33.58L190.7,430.3l70.24-40.66L327.29,428a24.44,24.44,0,0,0,24.86-.26L391.32,404A5.69,5.69,0,0,0,391.22,394.22Z" style="fill: rgb(224, 224, 224); transform-origin: 244.671px 344.554px;" id="elqwkqz9h9hn" class="animable"></path><ellipse cx="82.39" cy="354.41" rx="19" ry="11.19" style="fill: rgb(224, 224, 224); transform-origin: 82.39px 354.41px;" id="elwk33c70h5h9" class="animable"></ellipse></g><g id="freepik--Plant--inject-59" class="animable" style="transform-origin: 82.4px 310.6px;"><path d="M83,321.34s-13.5-13.18-5.81-35.28c4.3-12.38,18.58-21.47,26.71-22.33a38.3,38.3,0,0,0-6.36,10.71l-10.23,6.81,9.41-2.95-2,8.06s-8.75,5.29-10,6.45l9.44-2.47S93.33,313.15,83,321.34Z" style="fill: rgb(165, 42, 42); transform-origin: 89.361px 292.535px;" id="el2rcoa8z0tk2" class="animable"></path><g id="el9tv3sif26js"><path d="M83,321.34s-13.5-13.18-5.81-35.28c4.3-12.38,18.58-21.47,26.71-22.33a38.3,38.3,0,0,0-6.36,10.71l-10.23,6.81,9.41-2.95-2,8.06s-8.75,5.29-10,6.45l9.44-2.47S93.33,313.15,83,321.34Z" style="opacity: 0.4; transform-origin: 89.361px 292.535px;" class="animable"></path></g><path d="M83,321.34s-7-27.59,3.36-43.69C86.31,277.65,74.18,291.85,83,321.34Z" style="fill: rgb(255, 255, 255); transform-origin: 83.0735px 299.495px;" id="el81k2jht1xbs" class="animable"></path><path d="M98.41,325.08l-16.52-.21h-.17l-16.53.21s-.18,20.36,6.09,28.64h0c1.73,2.2,5.79,3.75,10.52,3.75s8.81-1.55,10.53-3.76C98.59,345.42,98.41,325.08,98.41,325.08Z" style="fill: rgb(55, 71, 79); transform-origin: 81.8px 341.17px;" id="el36bzt1yx32c" class="animable"></path><ellipse cx="81.8" cy="325.08" rx="16.61" ry="8.92" style="fill: rgb(69, 90, 100); transform-origin: 81.8px 325.08px;" id="elmsfxrwlc4a" class="animable"></ellipse><path d="M81.8,322.72c5.72,0,10.56,1.83,12.26,4.37a3.62,3.62,0,0,0,.66-2c0-3.52-5.78-6.38-12.92-6.38s-12.92,2.86-12.92,6.38a3.62,3.62,0,0,0,.66,2C71.25,324.55,76.09,322.72,81.8,322.72Z" style="fill: rgb(38, 50, 56); transform-origin: 81.8px 322.9px;" id="el4tmjb87hxbl" class="animable"></path><ellipse cx="81.8" cy="327.09" rx="12.26" ry="4.37" style="fill: rgb(224, 224, 224); transform-origin: 81.8px 327.09px;" id="elo5agp8pmb3" class="animable"></ellipse><path d="M82,328.19s-6.41-.25-11.9-8.75c-2.26-3.51-3.35-5.35-3.35-5.35l8.92-.66-10-2.5L61,303.71l8.3-.62s-6.18-2.16-10.59-2.19c0,0-7.65-13.52-9.89-15.45a43.37,43.37,0,0,1,30.22,15C91.58,315.34,83.87,328.57,82,328.19Z" style="fill: rgb(165, 42, 42); transform-origin: 67.4392px 306.824px;" id="elozduwf3fv9k" class="animable"></path><path d="M82,328.19s4-24.11-21.55-38.62C60.46,289.57,87,302.31,82,328.19Z" style="fill: rgb(255, 255, 255); transform-origin: 71.5386px 308.88px;" id="ely4r330vljm" class="animable"></path><path d="M82,328.19s5.79.38,11.55-6.78c2.37-3,3.53-4.5,3.53-4.5l-8-1.44,9.25-1.32,4.94-6.07-7.43-1.34s5.78-1.37,9.76-1c0,0,8.18-11.47,10.38-13a39.37,39.37,0,0,0-28.69,10.7C74.57,315.7,80.29,328.36,82,328.19Z" style="fill: rgb(165, 42, 42); transform-origin: 97.6063px 310.449px;" id="elaszzf9jjyw8" class="animable"></path><g id="el9z0u6skrne"><path d="M82,328.19s5.79.38,11.55-6.78c2.37-3,3.53-4.5,3.53-4.5l-8-1.44,9.25-1.32,4.94-6.07-7.43-1.34s5.78-1.37,9.76-1c0,0,8.18-11.47,10.38-13a39.37,39.37,0,0,0-28.69,10.7C74.57,315.7,80.29,328.36,82,328.19Z" style="opacity: 0.2; transform-origin: 97.6063px 310.449px;" class="animable"></path></g><path d="M82,328.19s-1.35-22.13,23.07-32.82C105.08,295.37,80,304.37,82,328.19Z" style="fill: rgb(255, 255, 255); transform-origin: 93.4782px 311.78px;" id="el2ubzlu3zhcc" class="animable"></path></g><g id="freepik--character-1--inject-59" class="animable" style="transform-origin: 245.64px 273.4px;"><path d="M163.69,280.59l10.78,65.79a2,2,0,0,0,2,1.72h0a2,2,0,0,0,2-2.28L171,278Z" style="fill: rgb(38, 50, 56); transform-origin: 171.09px 313.05px;" id="elhm8s4nvh5f" class="animable"></path><path d="M200.91,258.46l10.78,65.79a2,2,0,0,0,2,1.72h0a2,2,0,0,0,2-2.28l-7.56-67.87Z" style="fill: rgb(38, 50, 56); transform-origin: 208.31px 290.895px;" id="elcx2t226f63q" class="animable"></path><path d="M147.13,265.2l-10.64,56.7a1.73,1.73,0,0,1-3.41-.57l7.86-52.55Z" style="fill: rgb(38, 50, 56); transform-origin: 140.098px 294.239px;" id="el15d4i0e520c" class="animable"></path><path d="M184.77,244.05,174.19,300.4a1.73,1.73,0,0,1-3.41-.57l7.8-52.21Z" style="fill: rgb(38, 50, 56); transform-origin: 177.768px 272.914px;" id="elwj4n7owjuvm" class="animable"></path><path d="M181.7,239.76a15.1,15.1,0,0,1-8.9-12.3c-1.72-17.27-7.8-52.85-28.4-41-25.44,14.62-16.33,57.06-12.63,70.68a18.32,18.32,0,0,0,4.67,8.13c4.6,4.62,14.11,12.59,30.29,19.38A9.48,9.48,0,0,0,173,285c8-2.29,29-9.32,39.51-22.7a3.66,3.66,0,0,0-.61-5.12C207.65,253.83,198.07,247.06,181.7,239.76Z" style="fill: rgb(165, 42, 42); transform-origin: 170.201px 234.733px;" id="elots1xr02q6l" class="animable"></path><path d="M213.25,259.88a3.63,3.63,0,0,1-.75,2.44c-.56.71-1.16,1.4-1.77,2.08h0c-.34.37-.68.74-1,1.1l0,0c-.34.36-.7.71-1.06,1.05l0,0c-.37.35-.73.69-1.11,1l0,0c-.37.34-.76.67-1.15,1h0a78.7,78.7,0,0,1-19.59,11.52h0l-1.19.5-.13.05-1.1.44-.19.08-1,.4-.24.09-1,.36-.28.1-.88.32-.32.12-.81.29-.34.11-.75.26-.36.12-.69.23-.38.13-.62.2-.41.13-.53.16-.45.14-.44.14-.55.16-.28.08L173,285a9.48,9.48,0,0,1-6.26-.37c-16.18-6.79-25.69-14.76-30.29-19.38a18.32,18.32,0,0,1-4.67-8.13c-3.7-13.62-12.81-56.06,12.63-70.68.45-.26.89-.49,1.33-.7l.28-.14c.43-.21.86-.39,1.27-.55l.13,0c.4-.15.79-.28,1.18-.39l.18,0c.41-.12.82-.21,1.23-.29h.1a12.11,12.11,0,0,1,2.44-.18h0a9.78,9.78,0,0,1,2.32.36h0A15.13,15.13,0,0,0,141,185.58c-25.44,14.62-16.33,57.07-12.63,70.68l.62,2.34a22.2,22.2,0,0,0,7.94,11.86l6.6,5h0a103.72,103.72,0,0,0,23.21,13.22,9.51,9.51,0,0,0,6.29.39c8-2.29,29-9.32,39.51-22.71a3.71,3.71,0,0,0,.75-2h0v-4.53Z" style="fill: rgb(165, 42, 42); transform-origin: 168.503px 236.382px;" id="eleiiht7kxyis" class="animable"></path><g id="elyt8ix0g366"><path d="M213.25,259.88a3.63,3.63,0,0,1-.75,2.44c-.56.71-1.16,1.4-1.77,2.08h0c-.34.37-.68.74-1,1.1l0,0c-.34.36-.7.71-1.06,1.05l0,0c-.37.35-.73.69-1.11,1l0,0c-.37.34-.76.67-1.15,1h0a78.7,78.7,0,0,1-19.59,11.52h0l-1.19.5-.13.05-1.1.44-.19.08-1,.4-.24.09-1,.36-.28.1-.88.32-.32.12-.81.29-.34.11-.75.26-.36.12-.69.23-.38.13-.62.2-.41.13-.53.16-.45.14-.44.14-.55.16-.28.08L173,285a9.48,9.48,0,0,1-6.26-.37c-16.18-6.79-25.69-14.76-30.29-19.38a18.32,18.32,0,0,1-4.67-8.13c-3.7-13.62-12.81-56.06,12.63-70.68.45-.26.89-.49,1.33-.7l.28-.14c.43-.21.86-.39,1.27-.55l.13,0c.4-.15.79-.28,1.18-.39l.18,0c.41-.12.82-.21,1.23-.29h.1a12.11,12.11,0,0,1,2.44-.18h0a9.78,9.78,0,0,1,2.32.36h0A15.13,15.13,0,0,0,141,185.58c-25.44,14.62-16.33,57.07-12.63,70.68l.62,2.34a22.2,22.2,0,0,0,7.94,11.86l6.6,5h0a103.72,103.72,0,0,0,23.21,13.22,9.51,9.51,0,0,0,6.29.39c8-2.29,29-9.32,39.51-22.71a3.71,3.71,0,0,0,.75-2h0v-4.53Z" style="opacity: 0.3; transform-origin: 168.503px 236.382px;" class="animable"></path></g><path d="M238.73,317.63c-2.1-13.36-4.78-34.73-6.32-47.37q-.15-1.25-.42-2.46a26.2,26.2,0,0,0-12.36-16.74l-31.49-18.75-21.38-11.24s-5.69,16.49.92,26.56c5.5,8.39,29.79,18.8,37,22.3s7.37,4.46,7.22,9.14-.16,10.65,8.71,29.35c2.55,5.37,4.33,9.39,5.57,12.47A19.66,19.66,0,0,0,238.73,317.63Z" style="fill: rgb(165, 42, 42); transform-origin: 201.607px 271.013px;" id="ely21n0tafq5" class="animable"></path><path d="M229,329.6a2.45,2.45,0,0,0-1.56,2.09c0,1.48.06,4.79.08,6.2s-.83,4.85,4.07,7.7a35.62,35.62,0,0,1,8.54,6.94c.83.88,5.16,5.84,11.22,6s12.41-1.76,11.38-5.64c-.26-1-5.35-4.35-5.35-4.35Z" style="fill: rgb(38, 50, 56); transform-origin: 245.14px 344.07px;" id="el3t3h0s8z78m" class="animable"></path><g id="el5fi7qljqmfo"><path d="M238.73,317.63c-2.1-13.36-4.78-34.73-6.32-47.37a26.72,26.72,0,0,0-.71-3.67,26.15,26.15,0,0,0-12-15.5l-31.54-18.78-21.38-11.24s-5.69,16.49.92,26.56c5.5,8.39,29.79,18.8,37,22.3s7.37,4.46,7.22,9.14-.16,10.65,8.71,29.35c2.55,5.37,4.33,9.39,5.57,12.47A19.66,19.66,0,0,0,238.73,317.63Z" style="opacity: 0.7; transform-origin: 201.617px 271.012px;" class="animable"></path></g><path d="M229,331.78a3.08,3.08,0,0,0,.38,1.6A22.31,22.31,0,0,0,234.1,339c4.25,3.83,18.31,18.8,23.25,9.51,0,0-14.52-13.92-16.45-19.64a96.13,96.13,0,0,1-2.17-11.25,19.66,19.66,0,0,1-12.54,3.26C228.91,327.65,229,329.86,229,331.78Z" style="fill: rgb(148, 89, 89); transform-origin: 241.77px 334.56px;" id="elq4jrqb2nuc" class="animable"></path><path d="M216.11,332c-2.1-13.37-4.78-34.73-6.32-47.37a26.6,26.6,0,0,0-9.19-17.06l-37.79-32.13-18.46-3.7s-5.9,20.18.71,30.26c5.5,8.39,29.79,18.79,37,22.29s7.37,4.46,7.22,9.15-.16,10.65,8.72,29.35c2.54,5.37,4.32,9.39,5.56,12.47A19.79,19.79,0,0,0,216.11,332Z" style="fill: rgb(165, 42, 42); transform-origin: 179.018px 283.531px;" id="el0mbfjkcnnoa" class="animable"></path><path d="M206.35,344a2.45,2.45,0,0,0-1.56,2.09c0,1.47.06,4.78.08,6.19s-.83,4.86,4.07,7.71a35.4,35.4,0,0,1,8.54,6.94c.83.88,5.16,5.83,11.22,6s12.41-1.75,11.38-5.63c-.26-1-5.35-4.36-5.35-4.36Z" style="fill: rgb(38, 50, 56); transform-origin: 222.49px 358.47px;" id="eltcc0cvzow1r" class="animable"></path><g id="el4u00xn2gryq"><path d="M216.11,332c-2.1-13.37-4.78-34.73-6.32-47.37a26.6,26.6,0,0,0-9.19-17.06l-37.79-32.13-18.46-3.7s-5.9,20.18.71,30.26c5.5,8.39,29.79,18.79,37,22.29s7.37,4.46,7.22,9.15-.16,10.65,8.72,29.35c2.54,5.37,4.32,9.39,5.56,12.47A19.79,19.79,0,0,0,216.11,332Z" style="opacity: 0.7; transform-origin: 179.018px 283.531px;" class="animable"></path></g><path d="M206.37,346.15a3,3,0,0,0,.38,1.59,22.19,22.19,0,0,0,4.74,5.64c4.24,3.83,18.3,18.8,23.24,9.5,0,0-14.52-13.91-16.45-19.63A96.59,96.59,0,0,1,216.11,332a19.79,19.79,0,0,1-12.54,3.26C206.3,342,206.42,344.23,206.37,346.15Z" style="fill: rgb(148, 89, 89); transform-origin: 219.15px 348.938px;" id="elwyug2ckxtl" class="animable"></path><path d="M172.77,126.81h0a36.79,36.79,0,0,0-5.26-1,32.19,32.19,0,0,0-3.44-.27c-8.39-.25-14.64,2.86-18.16,8.5a19.34,19.34,0,0,0-1.91,4,27,27,0,0,0-1.35,9v9.25c0,3.12-3.45,7.67-4.62,9.57s-2.88,4.49-1.32,7.89,6,3,6,3,.4,6.09,11,5.25,25-5.41,28-6.6,4.3-8.93,1.08-11.47v-8.29s5.84-2.19,6.66-7.62c.64-4.22-1.43-6-1.43-6a8,8,0,0,0,4.7-7C193.26,129.63,185.58,130.26,172.77,126.81Z" style="fill: rgb(38, 50, 56); transform-origin: 164.416px 153.803px;" id="eluis54thlot" class="animable"></path><path d="M233.72,183.2s9.34-6.91,10.93-14.88l-4.09-7.26-2.43-1.68s2.74-7.88.49-9.43-3.92,5.1-5.52,8.32-3.49,7.12-3.49,7.12Z" style="fill: rgb(148, 89, 89); transform-origin: 237.13px 166.46px;" id="elcqjlclgonha" class="animable"></path><path d="M239.08,170.73l-4-2.71s-3.62-.61-1.37,1.76,2.78,5.64,1,10.67A17.68,17.68,0,0,0,239.08,170.73Z" style="fill: rgb(125, 66, 66); transform-origin: 236.027px 174.2px;" id="eluyyt94r9uzp" class="animable"></path><path d="M209,196.21l2.63,2.27,11.58-21.14,10.55,5.86s-11.5,34.66-18.23,35.21-16.24-9-16.24-9A14.56,14.56,0,0,1,209,196.21Z" style="fill: rgb(148, 89, 89); transform-origin: 216.525px 197.886px;" id="elbppdl2dfwet" class="animable"></path><path d="M177.61,174.44s9.34-.33,14.69,5.18S209,196.21,209,196.21a20.42,20.42,0,0,0-9.71,13.18L187,198.48Z" style="fill: rgb(165, 42, 42); transform-origin: 193.305px 191.913px;" id="elxbgpd9i58al" class="animable"></path><g id="elard10a5h90h"><path d="M177.61,174.44s9.34-.33,14.69,5.18S209,196.21,209,196.21a20.42,20.42,0,0,0-9.71,13.18L187,198.48Z" style="opacity: 0.6; transform-origin: 193.305px 191.913px;" class="animable"></path></g><path d="M246.13,175l3.94-6.71L237.9,161h0a2,2,0,0,0-1.92.2,6.11,6.11,0,0,0-2.76,4.77,2.05,2.05,0,0,0,.62,1.63v0l.1.06.2.11Z" style="fill: rgb(165, 42, 42); transform-origin: 241.642px 167.921px;" id="elh7ar0lvw08a" class="animable"></path><g id="els58m2veds2r"><path d="M246.13,175l3.94-6.71L237.9,161h0a2,2,0,0,0-1.92.2,6.11,6.11,0,0,0-2.76,4.77,2.05,2.05,0,0,0,.62,1.63v0l.1.06.2.11Z" style="opacity: 0.2; transform-origin: 241.642px 167.921px;" class="animable"></path></g><path d="M250.81,170a6.08,6.08,0,0,1-2.75,4.77c-1.52.88-2.75.17-2.75-1.59a6.08,6.08,0,0,1,2.75-4.77C249.58,167.52,250.81,168.23,250.81,170Z" style="fill: rgb(165, 42, 42); transform-origin: 248.06px 171.587px;" id="elbql7aarjas" class="animable"></path><path d="M259.37,176.71a2.41,2.41,0,0,1-1.08,1.87c-.6.34-1.08.06-1.08-.63a2.4,2.4,0,0,1,1.08-1.87C258.88,175.74,259.37,176,259.37,176.71Z" style="fill: rgb(69, 90, 100); transform-origin: 258.29px 177.328px;" id="el5trl5s5pi67" class="animable"></path><polygon points="249.09 170.26 259.05 176.01 257.52 178.65 247.47 172.83 249.09 170.26" style="fill: rgb(69, 90, 100); transform-origin: 253.26px 174.455px;" id="el32kt3bt9tgq" class="animable"></polygon><path d="M259.17,176.6a.69.69,0,0,0-.3.11,1.76,1.76,0,0,0-.83,1.44c.08,1.16,2.63,4.42,2.63,4.42L264.2,178A26.53,26.53,0,0,0,259.17,176.6Z" style="fill: rgb(165, 42, 42); transform-origin: 261.12px 179.585px;" id="elndv7qxhx6h" class="animable"></path><path d="M238.13,159.38s2.94-3.07,5,.39.36,10.94-2.38,7.78c-.89-1-.17-6.49-.17-6.49Z" style="fill: rgb(148, 89, 89); transform-origin: 241.086px 163.218px;" id="elalls73zcwd" class="animable"></path><path d="M241.4,160.94s2.94-3.08,5,.38.36,11-2.38,7.78c-.89-1-.17-6.48-.17-6.48Z" style="fill: rgb(148, 89, 89); transform-origin: 244.356px 164.78px;" id="el75vpq5y7nhg" class="animable"></path><path d="M244.34,162.64s2.54-2.66,4.31.34.31,9.46-2.06,6.72c-.77-.89-.15-5.6-.15-5.6Z" style="fill: rgb(148, 89, 89); transform-origin: 246.887px 165.957px;" id="elpc69pm8r9op" class="animable"></path><path d="M249.4,171a2.38,2.38,0,0,1-1.07,1.86c-.6.35-1.08.07-1.08-.62a2.38,2.38,0,0,1,1.08-1.87C248.92,170,249.4,170.27,249.4,171Z" style="fill: rgb(69, 90, 100); transform-origin: 248.325px 171.608px;" id="elebmavfg5hh" class="animable"></path><path d="M223.17,177.34s4.12-11.62,5.45-12.87,9.08-2.3,10.71-3,1.88,4.15-1.89,6.06a29.82,29.82,0,0,1-2.95,1.31,8.49,8.49,0,0,1,1.62,5.88,39.05,39.05,0,0,1-2.39,8.49Z" style="fill: rgb(148, 89, 89); transform-origin: 231.814px 172.306px;" id="el3xbwqtr2kz6" class="animable"></path><path d="M211.59,198.48s-2.67,5.25-3.09,8.45c0,0-1.21-5.41,1.61-9.73Z" style="fill: rgb(125, 66, 66); transform-origin: 209.916px 202.065px;" id="elfhk6exag9ft" class="animable"></path><path d="M156.67,176.48s-9.28,3-13,6.35l5.58,23.79-4.91,25.12s5.17,8.57,25.3,8.57c9.52,0,16.09-9.35,16.09-9.35s-3.47-6.59-3-10.31,1.86-13,1.86-13,5.62-2.34,5.62-10.55-12.58-22.71-12.58-22.71l-9.14,0Z" style="fill: rgb(165, 42, 42); transform-origin: 166.94px 207.35px;" id="el5fmv8b0892" class="animable"></path><g id="el64lvcg0cwzv"><path d="M156.67,176.48s-9.28,3-13,6.35l5.58,23.79-4.91,25.12s5.17,8.57,25.3,8.57c9.52,0,16.09-9.35,16.09-9.35s-3.47-6.59-3-10.31,1.86-13,1.86-13,5.62-2.34,5.62-10.55-12.58-22.71-12.58-22.71l-9.14,0Z" style="opacity: 0.5; transform-origin: 166.94px 207.35px;" class="animable"></path></g><path d="M152.22,128.82s-.74-5.67-1.73-5.7-1.49,4.79-1.49,4.79-4.51-1-4.2.38,5.46,3.4,5.46,3.4Z" style="fill: rgb(38, 50, 56); transform-origin: 148.502px 127.405px;" id="el8zspcd28xqp" class="animable"></path><path d="M156.67,176.48l4.77,4.76a8.17,8.17,0,0,0,9.78,1.32h0a4.16,4.16,0,0,0,1.18-6.24l-1.51-1.85v-19.9H156.67Z" style="fill: rgb(148, 89, 89); transform-origin: 165px 169.093px;" id="elzuga2npseij" class="animable"></path><path d="M156.67,157.14v.52a29.15,29.15,0,0,0,14.22,16.81V154.08H157.06Z" style="fill: rgb(125, 66, 66); transform-origin: 163.78px 164.275px;" id="el89pydtmov0a" class="animable"></path><path d="M170.69,130.86c5,.65,15.37,4.83,14.92,18.16s-3,23.4-9.88,23.51-22.08-6.84-22-24.17S165.78,130.23,170.69,130.86Z" style="fill: rgb(148, 89, 89); transform-origin: 169.677px 151.626px;" id="elzckjeh2asd" class="animable"></path><polygon points="175.85 154.44 174.85 162.2 179.58 161.39 175.85 154.44" style="fill: rgb(125, 66, 66); transform-origin: 177.215px 158.32px;" id="elc3vb8p5gavm" class="animable"></polygon><path d="M169.17,153.42a1.59,1.59,0,1,0,3.18.19,1.59,1.59,0,1,0-3.18-.19Z" style="fill: rgb(38, 50, 56); transform-origin: 170.76px 153.515px;" id="elxl22ke85hsg" class="animable"></path><path d="M179.71,152.94a1.6,1.6,0,1,0,1.69-1.5A1.59,1.59,0,0,0,179.71,152.94Z" style="fill: rgb(38, 50, 56); transform-origin: 181.307px 153.037px;" id="el26o5xt5pzdq" class="animable"></path><path d="M183.44,149.83l-3-2s1.27-1.17,2.41-.35A2.17,2.17,0,0,1,183.44,149.83Z" style="fill: rgb(38, 50, 56); transform-origin: 182.004px 148.509px;" id="elqlhv9sbra0s" class="animable"></path><path d="M177.31,163.7a6.8,6.8,0,0,1-4.29-1.15s-.3,2.27,1.6,2.7A2.46,2.46,0,0,0,177.31,163.7Z" style="fill: rgb(125, 66, 66); transform-origin: 175.156px 163.916px;" id="elpdc2nizhlef" class="animable"></path><path d="M182.88,137s-4.23,18-29,15.34c0,0-5.16-19,10.36-23S182.88,137,182.88,137Z" style="fill: rgb(38, 50, 56); transform-origin: 167.968px 140.556px;" id="elan39mkhbjiw" class="animable"></path><path d="M157.54,154.18s-1-5.31-4.71-5.12c-4.09.21-4.33,4.18-4.16,5.57.43,3.66,3.72,7.4,9.26,7.11Z" style="fill: rgb(148, 89, 89); transform-origin: 153.281px 155.405px;" id="elradq80zb2u" class="animable"></path><polygon points="380.45 315.38 296.91 266.09 296.91 189.91 381.98 236.43 380.45 315.38" style="fill: rgb(55, 71, 79); transform-origin: 339.445px 252.645px;" id="elxgguhegotaj" class="animable"></polygon><path d="M373.69,227.5a17.48,17.48,0,0,0-15.85.92l-132,76.19a67.14,67.14,0,0,0-33.57,58.14v60.93L106.94,374.4V313.47a67.15,67.15,0,0,1,33.57-58.14l132-76.19a17.53,17.53,0,0,1,17.69,0Z" style="fill: rgb(69, 90, 100); transform-origin: 240.315px 300.212px;" id="elmxbmwpddmll" class="animable"></path><path d="M197.19,421.18V363a64.05,64.05,0,0,1,32-55.47l125.91-72.7c7.65-4.73,12.89-5.14,17.51-3.13,5.82,2.52,7.81,8,7.81,17.75v65.89l3.92-2.59V243.74a17.69,17.69,0,0,0-26.53-15.32l-132,76.19a67.14,67.14,0,0,0-33.57,58.14v60.93Z" style="fill: rgb(38, 50, 56); transform-origin: 288.29px 324.866px;" id="eletwlutk9r88" class="animable"></path><path d="M202.92,228.93s4.74-3.87,6-4.82,2.79-3.28,3.72-2.52,1.18,3.6-.65,5.08Z" style="fill: rgb(148, 89, 89); transform-origin: 208.138px 225.185px;" id="elv0pjxzw2xh" class="animable"></path><path d="M212.6,219.93v14.5a2.89,2.89,0,0,0,1.71,2.38,9.07,9.07,0,0,0,8.24,0,2.89,2.89,0,0,0,1.71-2.38v-14.5Z" style="fill: rgb(165, 42, 42); transform-origin: 218.43px 228.865px;" id="elwwnyxn97h0s" class="animable"></path><g id="elizcutj592e8"><path d="M212.6,219.93v14.5a2.89,2.89,0,0,0,1.71,2.38,9.07,9.07,0,0,0,8.24,0,2.89,2.89,0,0,0,1.71-2.38v-14.5Z" style="fill: rgb(255, 255, 255); opacity: 0.3; transform-origin: 218.43px 228.865px;" class="animable"></path></g><path d="M222.55,217.57c2.27,1.32,2.27,3.45,0,4.76a9.13,9.13,0,0,1-8.24,0c-2.28-1.31-2.28-3.44,0-4.76A9.13,9.13,0,0,1,222.55,217.57Z" style="fill: rgb(165, 42, 42); transform-origin: 218.426px 219.95px;" id="eldgx19a796uc" class="animable"></path><g id="elxepe2i7fnw"><path d="M222.55,217.57c2.27,1.32,2.27,3.45,0,4.76a9.13,9.13,0,0,1-8.24,0c-2.28-1.31-2.28-3.44,0-4.76A9.13,9.13,0,0,1,222.55,217.57Z" style="fill: rgb(255, 255, 255); opacity: 0.5; transform-origin: 218.426px 219.95px;" class="animable"></path></g><path d="M214.8,215.54v4.13h0a1.8,1.8,0,0,0,1.06,1.48,5.68,5.68,0,0,0,5.14,0,1.8,1.8,0,0,0,1.06-1.48v-4.13Z" style="fill: rgb(165, 42, 42); transform-origin: 218.43px 218.652px;" id="elj1bzetvyc0p" class="animable"></path><g id="elk262lceauw"><path d="M214.8,215.54v4.13h0a1.8,1.8,0,0,0,1.06,1.48,5.68,5.68,0,0,0,5.14,0,1.8,1.8,0,0,0,1.06-1.48v-4.13Z" style="fill: rgb(255, 255, 255); opacity: 0.3; transform-origin: 218.43px 218.652px;" class="animable"></path></g><path d="M221,214.06c1.42.82,1.42,2.15,0,3a5.68,5.68,0,0,1-5.14,0c-1.42-.82-1.42-2.15,0-3A5.68,5.68,0,0,1,221,214.06Z" style="fill: rgb(165, 42, 42); transform-origin: 218.43px 215.56px;" id="el6qold74opf2" class="animable"></path><g id="el8itxfdwiea6"><path d="M221,214.06c1.42.82,1.42,2.15,0,3a5.68,5.68,0,0,1-5.14,0c-1.42-.82-1.42-2.15,0-3A5.68,5.68,0,0,1,221,214.06Z" style="fill: rgb(255, 255, 255); opacity: 0.5; transform-origin: 218.43px 215.56px;" class="animable"></path></g><path d="M220.34,214.44a1.17,1.17,0,0,1,0,2.21,4.24,4.24,0,0,1-3.83,0,1.17,1.17,0,0,1,0-2.21A4.24,4.24,0,0,1,220.34,214.44Z" style="fill: rgb(165, 42, 42); transform-origin: 218.425px 215.545px;" id="elnfcywluke5c" class="animable"></path><path d="M168.05,223.42l-2.3-6.48a10.74,10.74,0,0,0-7.86.72c-5.29,2.4-4.7,8.23-4.7,8.23a88.17,88.17,0,0,0,5.18,9.68c3.63,6.05,22.18,4.69,26.4,4.39s15.35-.8,15.35-.8l1.07-9.42Z" style="fill: rgb(148, 89, 89); transform-origin: 177.18px 228.404px;" id="el97qqoth6h9e" class="animable"></path><path d="M212.25,241.17c2.07-1,5.18,1,8.32-.76s6-6.93,4.78-8.25-9.56-5.52-12.54-6.09-11.62,3.67-11.62,3.67l-1.07,9.42C203.31,242.67,210.18,242.2,212.25,241.17Z" style="fill: rgb(148, 89, 89); transform-origin: 212.879px 233.968px;" id="elwnhb1mu829" class="animable"></path><path d="M145.51,181.54s5.59-2.54,10.66,10,9.58,25.37,9.58,25.37-10.1,1.32-12.56,8.95c0,0-11.15-26.65-13-31.7C137.56,187.11,142.31,183.38,145.51,181.54Z" style="fill: rgb(165, 42, 42); transform-origin: 152.588px 203.594px;" id="elafbgzpb5nbp" class="animable"></path><g id="el9mgxtq9iwn"><path d="M145.51,181.54s5.59-2.54,10.66,10,9.58,25.37,9.58,25.37-10.1,1.32-12.56,8.95c0,0-11.15-26.65-13-31.7C137.56,187.11,142.31,183.38,145.51,181.54Z" style="opacity: 0.6; transform-origin: 152.588px 203.594px;" class="animable"></path></g><path d="M106.94,313.47V374.4l85.36,49.28V362.75a67,67,0,0,1,8.43-32.54L115.6,280.5A67.12,67.12,0,0,0,106.94,313.47Z" style="fill: rgb(55, 71, 79); transform-origin: 153.835px 352.09px;" id="elmik6yf3ldec" class="animable"></path><path d="M185.27,274h0V261.7H173.82V274h0a2.79,2.79,0,0,0,1.66,2.42,9,9,0,0,0,8.11,0A2.82,2.82,0,0,0,185.27,274Z" style="fill: rgb(165, 42, 42); transform-origin: 179.545px 269.543px;" id="el1nccxispfc9" class="animable"></path><path d="M183.6,259.32c2.24,1.29,2.24,3.38,0,4.68a9,9,0,0,1-8.11,0c-2.23-1.3-2.23-3.39,0-4.68A8.92,8.92,0,0,1,183.6,259.32Z" style="fill: rgb(165, 42, 42); transform-origin: 179.549px 261.655px;" id="el7qa5amw55fk" class="animable"></path><g id="elju86qskh08n"><path d="M183.6,259.32c2.24,1.29,2.24,3.38,0,4.68a9,9,0,0,1-8.11,0c-2.23-1.3-2.23-3.39,0-4.68A8.92,8.92,0,0,1,183.6,259.32Z" style="opacity: 0.2; transform-origin: 179.549px 261.655px;" class="animable"></path></g><path d="M175.8,253.47v7.19a1.88,1.88,0,0,0,1.1,1.54,5.89,5.89,0,0,0,5.3,0,1.88,1.88,0,0,0,1.1-1.53h0v-7.2Z" style="fill: rgb(224, 224, 224); transform-origin: 179.55px 258.15px;" id="elj5l7tzf738" class="animable"></path><path d="M182.2,251.94c1.46.84,1.46,2.21,0,3.06a5.83,5.83,0,0,1-5.3,0c-1.47-.84-1.47-2.22,0-3.06A5.83,5.83,0,0,1,182.2,251.94Z" style="fill: rgb(245, 245, 245); transform-origin: 179.546px 253.47px;" id="el9tqtxhi2fjr" class="animable"></path><path d="M200.32,266.81h0v-12.3H188.87v12.3h0a2.78,2.78,0,0,0,1.67,2.41,8.9,8.9,0,0,0,8.1,0A2.78,2.78,0,0,0,200.32,266.81Z" style="fill: rgb(165, 42, 42); transform-origin: 194.595px 262.352px;" id="elq4jdpa7yrqm" class="animable"></path><g id="ell9y7am5mheh"><path d="M200.32,266.81h0v-12.3H188.87v12.3h0a2.78,2.78,0,0,0,1.67,2.41,8.9,8.9,0,0,0,8.1,0A2.78,2.78,0,0,0,200.32,266.81Z" style="opacity: 0.2; transform-origin: 194.595px 262.352px;" class="animable"></path></g><path d="M198.65,252.12c2.24,1.3,2.24,3.39,0,4.68a8.9,8.9,0,0,1-8.1,0c-2.24-1.29-2.24-3.38,0-4.68A9,9,0,0,1,198.65,252.12Z" style="fill: rgb(165, 42, 42); transform-origin: 194.6px 254.466px;" id="el9qydhggaaor" class="animable"></path><g id="elvvhnyhbb3n"><path d="M198.65,252.12c2.24,1.3,2.24,3.39,0,4.68a8.9,8.9,0,0,1-8.1,0c-2.24-1.29-2.24-3.38,0-4.68A9,9,0,0,1,198.65,252.12Z" style="opacity: 0.4; transform-origin: 194.6px 254.466px;" class="animable"></path></g><path d="M190.85,246.28v7.18A1.85,1.85,0,0,0,192,255a5.83,5.83,0,0,0,5.3,0,1.86,1.86,0,0,0,1.1-1.53h0v-7.19Z" style="fill: rgb(224, 224, 224); transform-origin: 194.625px 250.959px;" id="el3vwy2ceuiea" class="animable"></path><path d="M197.25,244.75c1.47.84,1.47,2.21,0,3.06a5.89,5.89,0,0,1-5.3,0c-1.47-.85-1.46-2.22,0-3.06A5.83,5.83,0,0,1,197.25,244.75Z" style="fill: rgb(245, 245, 245); transform-origin: 194.602px 246.276px;" id="elj5w1biysp1o" class="animable"></path><path d="M215.37,259.61h0v-12.3H203.92v12.3h0A2.81,2.81,0,0,0,205.6,262a9,9,0,0,0,8.11,0A2.78,2.78,0,0,0,215.37,259.61Z" style="fill: rgb(165, 42, 42); transform-origin: 209.645px 255.138px;" id="eltz7nrrkkli" class="animable"></path><g id="elf6ls13p3t3l"><path d="M215.37,259.61h0v-12.3H203.92v12.3h0A2.81,2.81,0,0,0,205.6,262a9,9,0,0,0,8.11,0A2.78,2.78,0,0,0,215.37,259.61Z" style="opacity: 0.4; transform-origin: 209.645px 255.138px;" class="animable"></path></g><path d="M213.71,244.93c2.23,1.29,2.23,3.39,0,4.68a9,9,0,0,1-8.11,0c-2.24-1.29-2.24-3.39,0-4.68A9,9,0,0,1,213.71,244.93Z" style="fill: rgb(165, 42, 42); transform-origin: 209.651px 247.27px;" id="elxa5luc56jjn" class="animable"></path><g id="eler60lxqqb2k"><path d="M213.71,244.93c2.23,1.29,2.23,3.39,0,4.68a9,9,0,0,1-8.11,0c-2.24-1.29-2.24-3.39,0-4.68A9,9,0,0,1,213.71,244.93Z" style="opacity: 0.6; transform-origin: 209.651px 247.27px;" class="animable"></path></g><path d="M205.91,239.08v7.19a1.85,1.85,0,0,0,1.09,1.54,5.89,5.89,0,0,0,5.3,0,1.85,1.85,0,0,0,1.1-1.53h0v-7.2Z" style="fill: rgb(224, 224, 224); transform-origin: 209.655px 243.76px;" id="elta1v7bqwd2d" class="animable"></path><path d="M212.3,237.55c1.47.85,1.47,2.22,0,3.06a5.83,5.83,0,0,1-5.3,0c-1.46-.84-1.46-2.21,0-3.06A5.89,5.89,0,0,1,212.3,237.55Z" style="fill: rgb(245, 245, 245); transform-origin: 209.654px 239.084px;" id="elgoiey1wmt8p" class="animable"></path><path d="M239.69,273.76,208,292a5.84,5.84,0,0,1-5.26-.22l-9.12-5.28c-1.55-.9-1.72-2.25-.37-3l31.64-18.27a5.87,5.87,0,0,1,5.26.21l9.12,5.28C240.87,271.62,241,273,239.69,273.76Z" style="fill: rgb(235, 235, 235); transform-origin: 216.46px 278.615px;" id="el1nhgopravdn" class="animable"></path><path d="M215.2,291.27h0a4.23,4.23,0,0,1-3.77-.16l-2.07-1.2c-1.12-.64-1.24-1.62-.27-2.17h0a4.17,4.17,0,0,1,3.76.15l2.08,1.2C216,289.73,216.17,290.71,215.2,291.27Z" style="fill: rgb(165, 42, 42); transform-origin: 212.137px 289.5px;" id="eleokpg74f7fm" class="animable"></path><path d="M221,287.8h0a4.17,4.17,0,0,1-3.77-.16l-2.08-1.2c-1.11-.64-1.23-1.61-.27-2.17h0a4.19,4.19,0,0,1,3.77.15l2.08,1.2C221.85,286.27,222,287.24,221,287.8Z" style="fill: rgb(165, 42, 42); transform-origin: 217.95px 286.034px;" id="elc0nhnvoohn" class="animable"></path><path d="M226.82,284.33h0a4.17,4.17,0,0,1-3.77-.16L221,283c-1.11-.64-1.24-1.61-.27-2.17h0a4.17,4.17,0,0,1,3.77.16l2.07,1.19C227.66,282.8,227.78,283.77,226.82,284.33Z" style="fill: rgb(165, 42, 42); transform-origin: 223.774px 282.58px;" id="elweqru0m8vz" class="animable"></path><path d="M232.62,280.86h0a4.17,4.17,0,0,1-3.76-.15l-2.08-1.2c-1.12-.65-1.24-1.62-.27-2.18h0a4.17,4.17,0,0,1,3.77.16l2.07,1.2C233.47,279.33,233.59,280.3,232.62,280.86Z" style="fill: rgb(165, 42, 42); transform-origin: 229.565px 279.096px;" id="elel4qd60nfxc" class="animable"></path><path d="M238.43,277.39h0a4.2,4.2,0,0,1-3.77-.15l-2.07-1.2c-1.12-.65-1.24-1.62-.27-2.18h0a4.21,4.21,0,0,1,3.76.16l2.08,1.2C239.27,275.86,239.4,276.84,238.43,277.39Z" style="fill: rgb(165, 42, 42); transform-origin: 235.373px 275.629px;" id="el0xf6k4r5f0e" class="animable"></path><g id="elq1q22e031yd"><path d="M215.2,291.27h0a4.23,4.23,0,0,1-3.77-.16l-2.07-1.2c-1.12-.64-1.24-1.62-.27-2.17h0a4.17,4.17,0,0,1,3.76.15l2.08,1.2C216,289.73,216.17,290.71,215.2,291.27Z" style="fill: rgb(255, 255, 255); opacity: 0.7; transform-origin: 212.137px 289.5px;" class="animable"></path></g><g id="eln84flsyoaqn"><path d="M221,287.8h0a4.17,4.17,0,0,1-3.77-.16l-2.08-1.2c-1.11-.64-1.23-1.61-.27-2.17h0a4.19,4.19,0,0,1,3.77.15l2.08,1.2C221.85,286.27,222,287.24,221,287.8Z" style="fill: rgb(255, 255, 255); opacity: 0.5; transform-origin: 217.95px 286.034px;" class="animable"></path></g><g id="elk49us0rvwp"><path d="M226.82,284.33h0a4.17,4.17,0,0,1-3.77-.16L221,283c-1.11-.64-1.24-1.61-.27-2.17h0a4.17,4.17,0,0,1,3.77.16l2.07,1.19C227.66,282.8,227.78,283.77,226.82,284.33Z" style="fill: rgb(255, 255, 255); opacity: 0.3; transform-origin: 223.774px 282.58px;" class="animable"></path></g><g id="elhdowd71ktbj"><path d="M232.62,280.86h0a4.17,4.17,0,0,1-3.76-.15l-2.08-1.2c-1.12-.65-1.24-1.62-.27-2.18h0a4.17,4.17,0,0,1,3.77.16l2.07,1.2C233.47,279.33,233.59,280.3,232.62,280.86Z" style="fill: rgb(255, 255, 255); opacity: 0.1; transform-origin: 229.565px 279.096px;" class="animable"></path></g><path d="M201.64,283h0a4.2,4.2,0,0,1-3.77-.15l-2.07-1.2c-1.12-.65-1.24-1.62-.27-2.18h0a4.15,4.15,0,0,1,3.76.16l2.08,1.2C202.49,281.51,202.61,282.48,201.64,283Z" style="fill: rgb(165, 42, 42); transform-origin: 198.585px 281.235px;" id="el6lf0er1sk9t" class="animable"></path><path d="M207.45,279.57h0a4.2,4.2,0,0,1-3.77-.15l-2.08-1.2c-1.11-.65-1.23-1.62-.27-2.18h0a4.23,4.23,0,0,1,3.77.16l2.08,1.2C208.29,278,208.41,279,207.45,279.57Z" style="fill: rgb(165, 42, 42); transform-origin: 204.39px 277.809px;" id="eldmkdwzu47f7" class="animable"></path><path d="M213.26,276.11h0a4.23,4.23,0,0,1-3.77-.16l-2.08-1.2c-1.11-.64-1.23-1.62-.27-2.18h0a4.23,4.23,0,0,1,3.77.16l2.08,1.2C214.1,274.57,214.22,275.55,213.26,276.11Z" style="fill: rgb(165, 42, 42); transform-origin: 210.2px 274.34px;" id="elafyiybkaivt" class="animable"></path><path d="M219.06,272.64h0a4.21,4.21,0,0,1-3.76-.16l-2.08-1.2c-1.12-.64-1.24-1.62-.27-2.17h0a4.2,4.2,0,0,1,3.77.15l2.07,1.2C219.91,271.11,220,272.08,219.06,272.64Z" style="fill: rgb(165, 42, 42); transform-origin: 215.999px 270.871px;" id="ell38oyct3nsf" class="animable"></path><path d="M224.87,269.17h0a4.17,4.17,0,0,1-3.77-.16l-2.07-1.2c-1.12-.64-1.24-1.61-.27-2.17h0a4.17,4.17,0,0,1,3.76.15l2.08,1.2C225.72,267.64,225.84,268.61,224.87,269.17Z" style="fill: rgb(165, 42, 42); transform-origin: 221.815px 267.404px;" id="elx7ggh2a5qpd" class="animable"></path><path d="M201.64,283h0a4.2,4.2,0,0,1-3.77-.15l-2.07-1.2c-1.12-.65-1.24-1.62-.27-2.18h0a4.15,4.15,0,0,1,3.76.16l2.08,1.2C202.49,281.51,202.61,282.48,201.64,283Z" style="fill: rgb(165, 42, 42); transform-origin: 198.585px 281.235px;" id="el48hn6hj44f" class="animable"></path><g id="elddff1w8qqoo"><path d="M207.45,279.57h0a4.2,4.2,0,0,1-3.77-.15l-2.08-1.2c-1.11-.65-1.23-1.62-.27-2.18h0a4.23,4.23,0,0,1,3.77.16l2.08,1.2C208.29,278,208.41,279,207.45,279.57Z" style="opacity: 0.2; transform-origin: 204.39px 277.809px;" class="animable"></path></g><g id="el4hdajvlswzn"><path d="M213.26,276.11h0a4.23,4.23,0,0,1-3.77-.16l-2.08-1.2c-1.11-.64-1.23-1.62-.27-2.18h0a4.23,4.23,0,0,1,3.77.16l2.08,1.2C214.1,274.57,214.22,275.55,213.26,276.11Z" style="opacity: 0.4; transform-origin: 210.2px 274.34px;" class="animable"></path></g><g id="el28robnlbjjq"><path d="M219.06,272.64h0a4.21,4.21,0,0,1-3.76-.16l-2.08-1.2c-1.12-.64-1.24-1.62-.27-2.17h0a4.2,4.2,0,0,1,3.77.15l2.07,1.2C219.91,271.11,220,272.08,219.06,272.64Z" style="opacity: 0.6; transform-origin: 215.999px 270.871px;" class="animable"></path></g><g id="ely7uxtkljiz"><path d="M224.87,269.17h0a4.17,4.17,0,0,1-3.77-.16l-2.07-1.2c-1.12-.64-1.24-1.61-.27-2.17h0a4.17,4.17,0,0,1,3.76.15l2.08,1.2C225.72,267.64,225.84,268.61,224.87,269.17Z" style="opacity: 0.8; transform-origin: 221.815px 267.404px;" class="animable"></path></g></g><g id="freepik--character-2--inject-59" class="animable" style="transform-origin: 320.631px 306.458px;"><path d="M283.4,354.58s-5.08-.11-6.6,0-6.19,2.14-4.69,6.36,8,7.41,12.53,7.89,10.57.48,13.5,1.3,9.22,3.11,14.46-1.11c2.69-2.17.68-9.13.44-10.24s-.44-2.33-.44-2.33Z" style="fill: rgb(69, 90, 100); transform-origin: 292.902px 363.01px;" id="el6ohgw08b35" class="animable"></path><path d="M299.47,350.52v1c0,1-3.14,2.06-8,2.53s-8.05.53-8.05.53-2.46,2.91-1.14,5.27,5,2.25,8.41,2.25,10.57,1.36,13.62-1.84,8.31-3.81,8.31-3.81l-.21-4.34Z" style="fill: rgb(255, 168, 167); transform-origin: 297.255px 356.454px;" id="el4a1v4toxzxd" class="animable"></path><path d="M321.75,285.19s-18.83-6.87-22.28,6.66,0,58.67,0,58.67,4.73,4.8,12.92,1.59c0,0,3.1-17.34,6-23.58s.27-16.29-.45-20.92Z" style="fill: rgb(165, 42, 42); transform-origin: 309.843px 318.331px;" id="elkpykinwcmi8" class="animable"></path><g id="el1a03jokfodg"><path d="M321.75,285.19s-18.83-6.87-22.28,6.66,0,58.67,0,58.67,4.73,4.8,12.92,1.59c0,0,3.1-17.34,6-23.58s.27-16.29-.45-20.92Z" style="opacity: 0.5; transform-origin: 309.843px 318.331px;" class="animable"></path></g><path d="M255.55,370.94s-5.08-.11-6.61,0-6.18,2.14-4.68,6.36,8,7.41,12.53,7.9,10.56.48,13.49,1.29,9.23,3.12,14.47-1.11c2.69-2.16.68-9.13.43-10.24s-.43-2.32-.43-2.32Z" style="fill: rgb(69, 90, 100); transform-origin: 265.051px 379.371px;" id="elh4nxko4uef7" class="animable"></path><path d="M271.61,366.88v1c0,1-3.13,2.07-8,2.54s-8,.52-8,.52-2.47,2.92-1.14,5.27,5,2.25,8.4,2.25,10.57,1.36,13.62-1.83,8.32-3.81,8.32-3.81l-.22-4.34Z" style="fill: rgb(255, 168, 167); transform-origin: 269.443px 372.814px;" id="eleplor50yhd" class="animable"></path><path d="M298.65,295.12s-19.1-5.34-22.55,8.19-4.49,63.57-4.49,63.57,4.74,4.8,12.92,1.6c0,0,3.1-17.35,6-23.58s4.76-21.21,4-25.83Z" style="fill: rgb(165, 42, 42); transform-origin: 285.13px 331.83px;" id="el1uv9d5qi0nt" class="animable"></path><g id="elakh0zfyc0bn"><path d="M298.65,295.12s-19.1-5.34-22.55,8.19-4.49,63.57-4.49,63.57,4.74,4.8,12.92,1.6c0,0,3.1-17.35,6-23.58s4.76-21.21,4-25.83Z" style="opacity: 0.5; transform-origin: 285.13px 331.83px;" class="animable"></path></g><path d="M325,349.41l12.47,76.82a2.06,2.06,0,0,0,2,1.72h0a2.05,2.05,0,0,0,2-2.28l-9.25-78.9Z" style="fill: rgb(38, 50, 56); transform-origin: 333.241px 387.36px;" id="elb50akliferj" class="animable"></path><path d="M306.11,333.65l-13.76,65.24a2,2,0,0,1-2.1,1.62h0a2,2,0,0,1-1.93-2.37L299,330.68Z" style="fill: rgb(38, 50, 56); transform-origin: 297.198px 365.597px;" id="el2ly0jf8xn1" class="animable"></path><path d="M348.16,309.88,334.4,375.12a2.06,2.06,0,0,1-2.1,1.63h0a2.05,2.05,0,0,1-1.93-2.37L341,306.91Z" style="fill: rgb(38, 50, 56); transform-origin: 339.252px 341.831px;" id="elu1pg2g0nyw" class="animable"></path><path d="M369.2,336.73,380,402.53a2.06,2.06,0,0,0,2,1.72h0a2.06,2.06,0,0,0,2-2.28l-7.57-67.88Z" style="fill: rgb(38, 50, 56); transform-origin: 376.606px 369.17px;" id="ela2g4p8rycn9" class="animable"></path><path d="M291.57,325l.61,1.66c1.43,2.95,4.05,5.65,7.74,8.16,14,9.52,27.28,19.65,33.39,13.25s16.16-35.25,18.55-43.63c.43-1.53.92-3,1.44-4.4l-12.86-4.28a21.66,21.66,0,0,0-18.67,2.4l-25.49,16.61c-3.14,2-4.56,4.66-4.6,5.61l-.07,4Z" style="fill: rgb(165, 42, 42); transform-origin: 322.435px 322.363px;" id="eltn1gz37g5pj" class="animable"></path><path d="M321.75,285.19l58.19,19.29s2.29,20.49-23.6,31.2L314,306.91S313.34,286.35,321.75,285.19Z" style="fill: rgb(165, 42, 42); transform-origin: 346.99px 310.435px;" id="el73bj50wk1mg" class="animable"></path><g id="el1qdz6h22g3c"><path d="M321.75,285.19l58.19,19.29s2.29,20.49-23.6,31.2L314,306.91S313.34,286.35,321.75,285.19Z" style="opacity: 0.5; transform-origin: 346.99px 310.435px;" class="animable"></path></g><polygon points="298.65 295.12 332.72 304.74 335.51 301.79 299.11 293.48 298.65 295.12" style="fill: rgb(165, 42, 42); transform-origin: 317.08px 299.11px;" id="els2g26xxgqk" class="animable"></polygon><g id="eltj6wpugw98h"><polygon points="298.65 295.12 332.72 304.74 335.51 301.79 299.11 293.48 298.65 295.12" style="opacity: 0.7; transform-origin: 317.08px 299.11px;" class="animable"></polygon></g><path d="M369.2,310.93s2.26,28.88-31.16,28.88c-19.76,0-48.08-24.41-48.08-24.41l2.52-11,6.17-9.29,34.07,9.62Z" style="fill: rgb(165, 42, 42); transform-origin: 329.596px 317.46px;" id="elb77w2feho6u" class="animable"></path><g id="elcf0sz9y6b6"><path d="M369.2,310.93s2.26,28.88-31.16,28.88c-19.76,0-48.08-24.41-48.08-24.41l2.52-11,6.17-9.29,34.07,9.62Z" style="opacity: 0.5; transform-origin: 329.596px 317.46px;" class="animable"></path></g><path d="M335.51,241.28,306,225.83s-8.82,1.32-8.82,7.91c0,0,21.84,16.67,28.89,20.85S335.51,241.28,335.51,241.28Z" style="fill: rgb(255, 168, 167); transform-origin: 316.345px 240.533px;" id="el9vjareegsz8" class="animable"></path><path d="M297.15,233.74s-9.61-2.14-12.43-4.71c-2.11-1.92-5.25-1.27-5.65-2.89s5-2.8,7.56-1.06c0,0-2.13-3.18-4.72-4.28-.91-.38-1.8-.73-2.71-1.1-3-1.23,3.27-5,4.08-5.46a10.09,10.09,0,0,1,8.91-.8c6.26,2.27,13.78,12.39,13.78,12.39Z" style="fill: rgb(255, 168, 167); transform-origin: 292.181px 223.249px;" id="elytocbehscaj" class="animable"></path><path d="M377.39,286.8a72.22,72.22,0,0,1-.35-18.05c.64-6,1.35-13.38,1.35-16.29h0c.14-8.35-3.71-18.39-8.51-21L363,232.69l-15.27,4.22-7.12,1.49s-14,13.64-14,29.64a9.81,9.81,0,0,0,.23,2l0,.05,0,.06c1.31,5.9,7.49,10,7.49,10a77.5,77.5,0,0,1,.85,12.27,28.3,28.3,0,0,1-2.54,12.27s5.7,12.92,22.92,12.92c11.88,0,21.42-8.45,24.3-13.18Z" style="fill: rgb(165, 42, 42); transform-origin: 353.235px 274.535px;" id="elu26scdze9qn" class="animable"></path><g id="elv41dzp7v1el"><path d="M377.39,286.8a72.22,72.22,0,0,1-.35-18.05c.64-6,1.35-13.38,1.35-16.29h0c.14-8.35-3.71-18.39-8.51-21L363,232.69l-15.27,4.22-7.12,1.49s-14,13.64-14,29.64a9.81,9.81,0,0,0,.23,2l0,.05,0,.06c1.31,5.9,7.49,10,7.49,10a77.5,77.5,0,0,1,.85,12.27,28.3,28.3,0,0,1-2.54,12.27s5.7,12.92,22.92,12.92c11.88,0,21.42-8.45,24.3-13.18Z" style="fill: rgb(255, 255, 255); opacity: 0.6; transform-origin: 353.235px 274.535px;" class="animable"></path></g><path d="M359.35,237.09c-5.24,1.66-11.58-.18-11.58-.18v-17.7h15.12v14.3A5.27,5.27,0,0,1,359.35,237.09Z" style="fill: rgb(255, 168, 167); transform-origin: 355.33px 228.497px;" id="elo2lr2g4fgo" class="animable"></path><polygon points="335.61 207.76 335.61 216.15 330.7 214.64 335.61 207.76" style="fill: rgb(242, 143, 143); transform-origin: 333.155px 211.955px;" id="elmiibb6ujoea" class="animable"></polygon><path d="M361.5,185.91c-3.27-.85-14.71-3.18-24.88,5.32-2.24,1.87-4.82,6.87-5.65,13.12a16.84,16.84,0,0,0,4.16,2.26Z" style="fill: rgb(224, 224, 224); transform-origin: 346.235px 195.788px;" id="el717iytzx5z3" class="animable"></path><path d="M354.34,189.36c-5-.55-15.92,1.07-18.59,14s-2.59,23.21,4.05,24.93,22.84-1.45,26.8-18.15S359.22,189.89,354.34,189.36Z" style="fill: rgb(255, 168, 167); transform-origin: 350.765px 208.987px;" id="elxt7rwz7xicm" class="animable"></path><path d="M340.53,192.51s-1.73,6.78.92,12.1a11,11,0,0,1,.57,8.81,13,13,0,0,1-2.29,4s3.54-.61,5.09-5.22a35.51,35.51,0,0,1,2.6,7.78c.46,3.18,2.37,5.86,8.29,7.5,2.88.8,6.56.43,8.46-.75,0,0,5.8-3.95,8.13-7.19s7.37-14.7,2.14-23.68S356,179.33,340.53,192.51Z" style="fill: rgb(224, 224, 224); transform-origin: 358.231px 206.655px;" id="elh5dbknofw5o" class="animable"></path><path d="M345.2,212.17s.66-5.51,4.49-5.56c4.2-.06,4.72,4,4.64,5.43-.2,3.78-2.49,7.46-9.13,5.35Z" style="fill: rgb(255, 168, 167); transform-origin: 349.769px 212.308px;" id="elejvy61latxm" class="animable"></path><path d="M371.81,224.08a4.36,4.36,0,1,1-4.36-4.37A4.36,4.36,0,0,1,371.81,224.08Z" style="fill: rgb(165, 42, 42); transform-origin: 367.45px 224.07px;" id="el17nv1gg748e" class="animable"></path><path d="M367.83,227.66a5,5,0,0,1-1.76-2.7,3.57,3.57,0,0,1,.8-3.45,3.6,3.6,0,0,1,2.66-1.07,16,16,0,0,1,4.82.73c4.6,1.6,8.19,8.33,3.39,18.89-1.42,3.13-1.83,7.78.89,9.47a.36.36,0,0,1-.19.67c-4,0-12.73-1.12-10.2-10.32C370.49,231.72,369.15,228.74,367.83,227.66Z" style="fill: rgb(224, 224, 224); transform-origin: 372.968px 235.319px;" id="elwb6dr9bmmw9" class="animable"></path><path d="M340.53,192.51s-4.41,3.29-3.67,14.62c0,0,2.59,1.27,4.57.88,0,0-.45-6.13,2-10.87Z" style="fill: rgb(224, 224, 224); transform-origin: 340.103px 200.297px;" id="el91ll2n2w3yk" class="animable"></path><path d="M317.3,247.16l-22,9.18L271,243.91s-8.82,1.32-8.82,7.91c0,0,21.84,16.67,28.89,20.85S335,258.23,335,258.23Z" style="fill: rgb(255, 168, 167); transform-origin: 298.59px 258.596px;" id="elv8yl30d52zh" class="animable"></path><path d="M308.66,250a20.43,20.43,0,0,0,5.76,18.13s32.64-9.88,30.29-23.29c-1-5.56-4.06-6.42-4.06-6.42s-2.6-1-12.74,3.3S308.66,250,308.66,250Z" style="fill: rgb(165, 42, 42); transform-origin: 326.587px 253.225px;" id="eltb9wsbs8us" class="animable"></path><g id="elrdhh2lez39k"><path d="M308.66,250a20.43,20.43,0,0,0,5.76,18.13s32.64-9.88,30.29-23.29c-1-5.56-4.06-6.42-4.06-6.42s-2.6-1-12.74,3.3S308.66,250,308.66,250Z" style="fill: rgb(255, 255, 255); opacity: 0.4; transform-origin: 326.587px 253.225px;" class="animable"></path></g><path d="M271,243.91s-1.23-5.34-3.9-7.17c-3.46-2.37-3.76-2.12-5.23-3.91-.93-1.15-2.22-.9-2.17,1.18a4.34,4.34,0,0,0,1.75,3.24s-5.84-3.8-9.4-3-11.3,5-8.08,7.94c1.46,1.34,5.85.66,8.6,3.29s3.65,4.82,9.61,6.34Z" style="fill: rgb(255, 168, 167); transform-origin: 257.102px 241.984px;" id="eljfh4rh73lra" class="animable"></path><path d="M291.68,320.34s-.78,5.44-.78,6.51,0,5,7.05,10.69,22.77,15.54,29.86,16.56c16.43,2.35,23.26-57.79,41.44-72.38,15.54-12.47,24.26-11.9,24.26-11.9a15,15,0,0,0-3.08-2.06c-3.67-1.88-31.21,5.53-40,36.41-2.33,8.18-12.15,36.35-18.11,42.6s-18.94-3.64-32.61-12.94C294,329.93,291.68,325.41,291.68,320.34Z" style="fill: rgb(165, 42, 42); transform-origin: 342.205px 310.827px;" id="elvugtr9quqdo" class="animable"></path><g id="elcikfn9amfqb"><path d="M291.68,320.34s-.78,5.44-.78,6.51,0,5,7.05,10.69,22.77,15.54,29.86,16.56c16.43,2.35,23.26-57.79,41.44-72.38,15.54-12.47,24.26-11.9,24.26-11.9a15,15,0,0,0-3.08-2.06c-3.67-1.88-31.21,5.53-40,36.41-2.33,8.18-12.15,36.35-18.11,42.6s-18.94-3.64-32.61-12.94C294,329.93,291.68,325.41,291.68,320.34Z" style="opacity: 0.3; transform-origin: 342.205px 310.827px;" class="animable"></path></g><path d="M393.51,269.82s-8.72-.57-24.26,11.9c-18.18,14.59-25,74.73-41.44,72.38,9.65,3.65,27.83-6.92,44.78-15.82s17.72-12.08,21.39-27.2C401.85,278.7,396.42,271.79,393.51,269.82Z" style="fill: rgb(165, 42, 42); transform-origin: 362.934px 312.328px;" id="elbrpn4tuisrb" class="animable"></path></g><g id="freepik--Lamp--inject-59" class="animable" style="transform-origin: 259.298px 158.105px;"><ellipse cx="275.21" cy="196.39" rx="18.06" ry="10.43" style="fill: rgb(165, 42, 42); transform-origin: 275.21px 196.39px;" id="eluj8bqqrif5" class="animable"></ellipse><path d="M288,203.76c-7.05,4.07-18.49,4.07-25.54,0-3.44-2-5.19-4.57-5.27-7.17v2.28c-.09,2.74,1.66,5.49,5.27,7.57,7.05,4.08,18.49,4.08,25.54,0,3.53-2,5.29-4.7,5.29-7.37v-2.68h0C293.27,199.06,291.51,201.72,288,203.76Z" style="fill: rgb(165, 42, 42); transform-origin: 275.238px 202.945px;" id="el8bk70k9p2aa" class="animable"></path><g id="elmn49j8bndt"><path d="M288,203.76c-7.05,4.07-18.49,4.07-25.54,0-3.44-2-5.19-4.57-5.27-7.17v2.28c-.09,2.74,1.66,5.49,5.27,7.57,7.05,4.08,18.49,4.08,25.54,0,3.53-2,5.29-4.7,5.29-7.37v-2.68h0C293.27,199.06,291.51,201.72,288,203.76Z" style="opacity: 0.2; transform-origin: 275.238px 202.945px;" class="animable"></path></g><path d="M269.07,198.05c1.3.74,1.3,2,0,2.71a5.19,5.19,0,0,1-4.7,0c-1.3-.75-1.3-2,0-2.71A5.19,5.19,0,0,1,269.07,198.05Z" style="fill: rgb(165, 42, 42); transform-origin: 266.72px 199.405px;" id="eldkh00c1pead" class="animable"></path><g id="eljbqlfqvt48"><path d="M269.07,198.05c1.3.74,1.3,2,0,2.71a5.19,5.19,0,0,1-4.7,0c-1.3-.75-1.3-2,0-2.71A5.19,5.19,0,0,1,269.07,198.05Z" style="opacity: 0.3; transform-origin: 266.72px 199.405px;" class="animable"></path></g><path d="M280.72,128.08,246,109.72c-2.84-1.5-5.37,2.81-2.53,4.32l33.77,17.84v60.17c0,3.22,5,3.22,5,0V131.23C282.21,129.3,281.64,128.57,280.72,128.08Z" style="fill: rgb(165, 42, 42); transform-origin: 262.233px 151.936px;" id="el48ssjma1chv" class="animable"></path><g id="el9ro30bdk0r"><path d="M280.72,128.08,246,109.72c-2.84-1.5-5.37,2.81-2.53,4.32l33.77,17.84v60.17c0,3.22,5,3.22,5,0V131.23C282.21,129.3,281.64,128.57,280.72,128.08Z" style="fill: rgb(255, 255, 255); opacity: 0.3; transform-origin: 262.233px 151.936px;" class="animable"></path></g><path d="M253.47,118h0a5.39,5.39,0,0,0-.77-4.29,15.47,15.47,0,0,0-12.12-7c-2.16,0-3.69.74-4.45,1.93h0l0,0-.09.16-10.11,17,20.89,11.64,6.59-19.27a1.46,1.46,0,0,0,.07-.19Z" style="fill: rgb(165, 42, 42); transform-origin: 239.776px 122.075px;" id="elds0m3622kpj" class="animable"></path><g id="elsglfo0a81u"><path d="M253.47,118h0a5.39,5.39,0,0,0-.77-4.29,15.47,15.47,0,0,0-12.12-7c-2.16,0-3.69.74-4.45,1.93h0l0,0-.09.16-10.11,17,20.89,11.64,6.59-19.27a1.46,1.46,0,0,0,.07-.19Z" style="fill: rgb(255, 255, 255); opacity: 0.7; transform-origin: 239.776px 122.075px;" class="animable"></path></g><path d="M246,131.89c2.7,4.68.52,8.47-4.88,8.47s-12-3.79-14.67-8.47-.51-8.47,4.89-8.47S243.34,127.21,246,131.89Z" style="fill: rgb(165, 42, 42); transform-origin: 236.233px 131.89px;" id="elie4o33jgyul" class="animable"></path><g id="eltldof0kkdbn"><path d="M246,131.89c2.7,4.68.52,8.47-4.88,8.47s-12-3.79-14.67-8.47-.51-8.47,4.89-8.47S243.34,127.21,246,131.89Z" style="fill: rgb(255, 255, 255); opacity: 0.5; transform-origin: 236.233px 131.89px;" class="animable"></path></g><path d="M243.89,132.09c2.2,3.59.57,6.41-3.64,6.3a15.63,15.63,0,0,1-11.61-6.7c-2.19-3.59-.56-6.41,3.65-6.3A15.58,15.58,0,0,1,243.89,132.09Z" style="fill: rgb(165, 42, 42); transform-origin: 236.268px 131.89px;" id="el85oid51gm16" class="animable"></path><g id="elee0wq1ckkm4"><path d="M243.89,132.09c2.2,3.59.57,6.41-3.64,6.3a15.63,15.63,0,0,1-11.61-6.7c-2.19-3.59-.56-6.41,3.65-6.3A15.58,15.58,0,0,1,243.89,132.09Z" style="fill: rgb(255, 255, 255); opacity: 0.3; transform-origin: 236.268px 131.89px;" class="animable"></path></g><g style="clip-path: url(&quot;#freepik--clip-path--inject-59&quot;); transform-origin: 237.6px 129.5px;" id="elnoaz1gwyprt" class="animable"><path d="M242.6,129.5a5,5,0,1,1-5-5A5,5,0,0,1,242.6,129.5Z" style="fill: rgb(255, 255, 255); transform-origin: 237.6px 129.5px;" id="el4s5rhascj2" class="animable"></path></g></g><g id="freepik--Shelf--inject-59" class="animable" style="transform-origin: 355.425px 129.485px;"><polygon points="420.15 184.14 416.83 182.22 416.83 150.42 420.15 152.34 420.15 184.14" style="fill: rgb(55, 71, 79); transform-origin: 418.49px 167.28px;" id="elg5zfp3ptc2q" class="animable"></polygon><polygon points="420.15 184.14 423.47 182.22 423.47 150.42 420.15 152.34 420.15 184.14" style="fill: rgb(38, 50, 56); transform-origin: 421.81px 167.28px;" id="elmau0aag2dre" class="animable"></polygon><polygon points="394.69 187.92 287.38 125.96 287.38 123.33 394.69 185.29 394.69 187.92" style="fill: rgb(55, 71, 79); transform-origin: 341.035px 155.625px;" id="el9w402jqjll8" class="animable"></polygon><polygon points="394.69 187.92 394.69 185.29 423.47 168.67 423.47 171.3 394.69 187.92" style="fill: rgb(38, 50, 56); transform-origin: 409.08px 178.295px;" id="elidvdy43rw4" class="animable"></polygon><polygon points="394.69 185.29 287.38 123.33 316.16 106.71 423.47 168.67 394.69 185.29" style="fill: rgb(69, 90, 100); transform-origin: 355.425px 146px;" id="elojx5qhhldqd" class="animable"></polygon><path d="M321,127h0v-12.3H309.5V127h0a2.78,2.78,0,0,0,1.66,2.42,9,9,0,0,0,8.11,0A2.78,2.78,0,0,0,321,127Z" style="fill: rgb(165, 42, 42); transform-origin: 315.25px 122.543px;" id="el88cieaxamay" class="animable"></path><path d="M319.29,112.33c2.24,1.29,2.24,3.39,0,4.68a9,9,0,0,1-8.11,0c-2.24-1.29-2.24-3.39,0-4.68A9,9,0,0,1,319.29,112.33Z" style="fill: rgb(165, 42, 42); transform-origin: 315.235px 114.67px;" id="elhuebsm9708l" class="animable"></path><g id="elaozx62qxb5k"><path d="M319.29,112.33c2.24,1.29,2.24,3.39,0,4.68a9,9,0,0,1-8.11,0c-2.24-1.29-2.24-3.39,0-4.68A9,9,0,0,1,319.29,112.33Z" style="opacity: 0.2; transform-origin: 315.235px 114.67px;" class="animable"></path></g><path d="M311.49,106.48v7.19a1.85,1.85,0,0,0,1.09,1.54,5.91,5.91,0,0,0,5.31,0,1.86,1.86,0,0,0,1.09-1.53h0v-7.2Z" style="fill: rgb(224, 224, 224); transform-origin: 315.235px 111.16px;" id="eltb1u6ax7zw" class="animable"></path><path d="M317.89,105c1.46.85,1.46,2.22,0,3.06a5.85,5.85,0,0,1-5.31,0c-1.46-.84-1.46-2.21,0-3.06A5.91,5.91,0,0,1,317.89,105Z" style="fill: rgb(245, 245, 245); transform-origin: 315.235px 106.534px;" id="elu6d88dn84j9" class="animable"></path><path d="M337,136.23h0v-12.3H325.54v12.3h0a2.81,2.81,0,0,0,1.67,2.42,9,9,0,0,0,8.11,0A2.78,2.78,0,0,0,337,136.23Z" style="fill: rgb(165, 42, 42); transform-origin: 331.27px 131.773px;" id="elkuwlqg5hli" class="animable"></path><g id="elfiui48rg2tk"><path d="M337,136.23h0v-12.3H325.54v12.3h0a2.81,2.81,0,0,0,1.67,2.42,9,9,0,0,0,8.11,0A2.78,2.78,0,0,0,337,136.23Z" style="fill: rgb(255, 255, 255); opacity: 0.2; transform-origin: 331.27px 131.773px;" class="animable"></path></g><path d="M335.33,121.55c2.24,1.29,2.24,3.39,0,4.68a9,9,0,0,1-8.11,0c-2.24-1.29-2.24-3.39,0-4.68A9,9,0,0,1,335.33,121.55Z" style="fill: rgb(165, 42, 42); transform-origin: 331.275px 123.89px;" id="el8sx47czzez9" class="animable"></path><path d="M335.33,121.55c2.24,1.29,2.24,3.39,0,4.68a9,9,0,0,1-8.11,0c-2.24-1.29-2.24-3.39,0-4.68A9,9,0,0,1,335.33,121.55Z" style="fill: rgb(165, 42, 42); transform-origin: 331.275px 123.89px;" id="elw60u20uso0p" class="animable"></path><path d="M327.53,115.7v7.19a1.85,1.85,0,0,0,1.09,1.54,5.89,5.89,0,0,0,5.3,0,1.85,1.85,0,0,0,1.1-1.53h0v-7.2Z" style="fill: rgb(224, 224, 224); transform-origin: 331.275px 120.38px;" id="el3zkjtedg7ng" class="animable"></path><path d="M333.92,114.17c1.47.85,1.47,2.22,0,3.06a5.83,5.83,0,0,1-5.3,0c-1.46-.84-1.46-2.21,0-3.06A5.89,5.89,0,0,1,333.92,114.17Z" style="fill: rgb(245, 245, 245); transform-origin: 331.274px 115.704px;" id="elj8rq4nsza6" class="animable"></path><path d="M353,145.45h0v-12.3H341.58v12.3h0a2.81,2.81,0,0,0,1.67,2.42,9,9,0,0,0,8.1,0A2.77,2.77,0,0,0,353,145.45Z" style="fill: rgb(165, 42, 42); transform-origin: 347.29px 140.991px;" id="eljmarfw6mdeh" class="animable"></path><g id="el9prsxdfh5oo"><path d="M353,145.45h0v-12.3H341.58v12.3h0a2.81,2.81,0,0,0,1.67,2.42,9,9,0,0,0,8.1,0A2.77,2.77,0,0,0,353,145.45Z" style="fill: rgb(255, 255, 255); opacity: 0.4; transform-origin: 347.29px 140.991px;" class="animable"></path></g><path d="M351.36,130.77c2.24,1.29,2.24,3.39,0,4.68a9,9,0,0,1-8.1,0c-2.24-1.29-2.24-3.39,0-4.68A9,9,0,0,1,351.36,130.77Z" style="fill: rgb(165, 42, 42); transform-origin: 347.31px 133.11px;" id="el1y4wh0hefr4i" class="animable"></path><g id="elx77al95hpq"><path d="M351.36,130.77c2.24,1.29,2.24,3.39,0,4.68a9,9,0,0,1-8.1,0c-2.24-1.29-2.24-3.39,0-4.68A9,9,0,0,1,351.36,130.77Z" style="fill: rgb(255, 255, 255); opacity: 0.2; transform-origin: 347.31px 133.11px;" class="animable"></path></g><path d="M343.56,124.92v7.19a1.88,1.88,0,0,0,1.1,1.54,5.89,5.89,0,0,0,5.3,0,1.87,1.87,0,0,0,1.1-1.53h0v-7.2Z" style="fill: rgb(224, 224, 224); transform-origin: 347.31px 129.6px;" id="elqqiastpjfep" class="animable"></path><path d="M350,123.39c1.47.85,1.47,2.22,0,3.06a5.83,5.83,0,0,1-5.3,0c-1.46-.84-1.46-2.21,0-3.06A5.89,5.89,0,0,1,350,123.39Z" style="fill: rgb(245, 245, 245); transform-origin: 347.354px 124.924px;" id="elaw0efs1q2jt" class="animable"></path><path d="M369.07,154.67h0v-12.3H357.62v12.3h0a2.78,2.78,0,0,0,1.67,2.42,9,9,0,0,0,8.1,0A2.78,2.78,0,0,0,369.07,154.67Z" style="fill: rgb(165, 42, 42); transform-origin: 363.345px 150.211px;" id="el2h77ri5raps" class="animable"></path><g id="eloxrbgqyzje"><path d="M369.07,154.67h0v-12.3H357.62v12.3h0a2.78,2.78,0,0,0,1.67,2.42,9,9,0,0,0,8.1,0A2.78,2.78,0,0,0,369.07,154.67Z" style="fill: rgb(255, 255, 255); opacity: 0.6; transform-origin: 363.345px 150.211px;" class="animable"></path></g><path d="M367.4,140c2.24,1.29,2.24,3.39,0,4.68a9,9,0,0,1-8.1,0c-2.24-1.29-2.24-3.39,0-4.68A9,9,0,0,1,367.4,140Z" style="fill: rgb(165, 42, 42); transform-origin: 363.35px 142.34px;" id="el9ov8j0cb5km" class="animable"></path><g id="elw1lg277jm2p"><path d="M367.4,140c2.24,1.29,2.24,3.39,0,4.68a9,9,0,0,1-8.1,0c-2.24-1.29-2.24-3.39,0-4.68A9,9,0,0,1,367.4,140Z" style="fill: rgb(255, 255, 255); opacity: 0.4; transform-origin: 363.35px 142.34px;" class="animable"></path></g><path d="M359.6,134.14v7.19a1.86,1.86,0,0,0,1.1,1.54,5.89,5.89,0,0,0,5.3,0,1.87,1.87,0,0,0,1.1-1.53h0v-7.2Z" style="fill: rgb(224, 224, 224); transform-origin: 363.35px 138.82px;" id="elf9zgvyzlosn" class="animable"></path><path d="M366,132.61c1.47.85,1.47,2.22,0,3.06a5.83,5.83,0,0,1-5.3,0c-1.46-.84-1.46-2.21,0-3.06A5.89,5.89,0,0,1,366,132.61Z" style="fill: rgb(245, 245, 245); transform-origin: 363.354px 134.144px;" id="el9f0obaul7o6" class="animable"></path><path d="M385.11,163.89h0v-12.3H373.66v12.3h0a2.76,2.76,0,0,0,1.67,2.42,9,9,0,0,0,8.1,0A2.8,2.8,0,0,0,385.11,163.89Z" style="fill: rgb(165, 42, 42); transform-origin: 379.385px 159.431px;" id="el84ob12yg28u" class="animable"></path><g id="ele9wclr1pitb"><path d="M385.11,163.89h0v-12.3H373.66v12.3h0a2.76,2.76,0,0,0,1.67,2.42,9,9,0,0,0,8.1,0A2.8,2.8,0,0,0,385.11,163.89Z" style="fill: rgb(255, 255, 255); opacity: 0.8; transform-origin: 379.385px 159.431px;" class="animable"></path></g><path d="M383.44,149.21c2.24,1.29,2.24,3.39,0,4.68a9,9,0,0,1-8.1,0c-2.24-1.29-2.24-3.39,0-4.68A9,9,0,0,1,383.44,149.21Z" style="fill: rgb(165, 42, 42); transform-origin: 379.39px 151.55px;" id="el44o560d5hxp" class="animable"></path><g id="elthwyd3rt7f"><path d="M383.44,149.21c2.24,1.29,2.24,3.39,0,4.68a9,9,0,0,1-8.1,0c-2.24-1.29-2.24-3.39,0-4.68A9,9,0,0,1,383.44,149.21Z" style="fill: rgb(255, 255, 255); opacity: 0.6; transform-origin: 379.39px 151.55px;" class="animable"></path></g><path d="M375.64,143.36v7.19a1.85,1.85,0,0,0,1.1,1.54,5.83,5.83,0,0,0,5.3,0,1.87,1.87,0,0,0,1.1-1.53h0v-7.2Z" style="fill: rgb(224, 224, 224); transform-origin: 379.39px 148.044px;" id="elmjaayqvnykm" class="animable"></path><path d="M382,141.83c1.46.85,1.46,2.22,0,3.06a5.83,5.83,0,0,1-5.3,0c-1.47-.84-1.47-2.21,0-3.06A5.89,5.89,0,0,1,382,141.83Z" style="fill: rgb(245, 245, 245); transform-origin: 379.346px 143.364px;" id="elcpabnvnufat" class="animable"></path><path d="M401.15,173.11h0v-12.3H389.69v12.3h0a2.77,2.77,0,0,0,1.66,2.42,9,9,0,0,0,8.11,0A2.8,2.8,0,0,0,401.15,173.11Z" style="fill: rgb(165, 42, 42); transform-origin: 395.42px 168.653px;" id="eltm8ysqhebg" class="animable"></path><g id="elnabm19qlly"><path d="M401.15,173.11h0v-12.3H389.69v12.3h0a2.77,2.77,0,0,0,1.66,2.42,9,9,0,0,0,8.11,0A2.8,2.8,0,0,0,401.15,173.11Z" style="fill: rgb(255, 255, 255); opacity: 0.9; transform-origin: 395.42px 168.653px;" class="animable"></path></g><path d="M399.48,158.43c2.24,1.29,2.24,3.39,0,4.68a9,9,0,0,1-8.11,0c-2.24-1.29-2.24-3.39,0-4.68A9,9,0,0,1,399.48,158.43Z" style="fill: rgb(165, 42, 42); transform-origin: 395.425px 160.77px;" id="el4mjzxe4jyj9" class="animable"></path><g id="elne8hjpe44hi"><path d="M399.48,158.43c2.24,1.29,2.24,3.39,0,4.68a9,9,0,0,1-8.11,0c-2.24-1.29-2.24-3.39,0-4.68A9,9,0,0,1,399.48,158.43Z" style="fill: rgb(255, 255, 255); opacity: 0.8; transform-origin: 395.425px 160.77px;" class="animable"></path></g><path d="M391.68,152.58v7.19a1.85,1.85,0,0,0,1.1,1.54,5.83,5.83,0,0,0,5.3,0,1.87,1.87,0,0,0,1.1-1.53h0v-7.2Z" style="fill: rgb(224, 224, 224); transform-origin: 395.43px 157.264px;" id="elsl64feq9epm" class="animable"></path><path d="M398.08,151.05c1.46.85,1.46,2.22,0,3.06a5.83,5.83,0,0,1-5.3,0c-1.47-.84-1.47-2.21,0-3.06A5.89,5.89,0,0,1,398.08,151.05Z" style="fill: rgb(245, 245, 245); transform-origin: 395.426px 152.584px;" id="elyd0mi4421nm" class="animable"></path><polygon points="420.15 170.59 416.83 168.67 416.83 136.87 420.15 138.79 420.15 170.59" style="fill: rgb(55, 71, 79); transform-origin: 418.49px 153.73px;" id="elczamjayzghq" class="animable"></polygon><polygon points="420.15 170.59 423.47 168.67 423.47 136.87 420.15 138.79 420.15 170.59" style="fill: rgb(38, 50, 56); transform-origin: 421.81px 153.73px;" id="elmunmwppxmcj" class="animable"></polygon><polygon points="394.69 154.65 287.38 92.69 287.38 90.06 394.69 152.02 394.69 154.65" style="fill: rgb(55, 71, 79); transform-origin: 341.035px 122.355px;" id="eldrmq7aqofe" class="animable"></polygon><polygon points="394.69 154.65 394.69 152.02 423.47 135.4 423.47 138.03 394.69 154.65" style="fill: rgb(38, 50, 56); transform-origin: 409.08px 145.025px;" id="elnt9cd374f8" class="animable"></polygon><polygon points="394.69 152.02 287.38 90.06 316.16 73.45 423.47 135.4 394.69 152.02" style="fill: rgb(69, 90, 100); transform-origin: 355.425px 112.735px;" id="elc1n2dygxka7" class="animable"></polygon><path d="M321,93.75h0V81.45H309.5v12.3h0a2.77,2.77,0,0,0,1.66,2.41,8.92,8.92,0,0,0,8.11,0A2.77,2.77,0,0,0,321,93.75Z" style="fill: rgb(165, 42, 42); transform-origin: 315.25px 89.2925px;" id="el6n5qcn863ai" class="animable"></path><path d="M319.29,79.06c2.24,1.29,2.24,3.39,0,4.68a9,9,0,0,1-8.11,0c-2.24-1.29-2.24-3.39,0-4.68A9,9,0,0,1,319.29,79.06Z" style="fill: rgb(165, 42, 42); transform-origin: 315.235px 81.4px;" id="el86s9qvk7vdl" class="animable"></path><g id="elskt2es713en"><path d="M319.29,79.06c2.24,1.29,2.24,3.39,0,4.68a9,9,0,0,1-8.11,0c-2.24-1.29-2.24-3.39,0-4.68A9,9,0,0,1,319.29,79.06Z" style="fill: rgb(255, 255, 255); opacity: 0.2; transform-origin: 315.235px 81.4px;" class="animable"></path></g><path d="M311.49,73.21V80.4a1.84,1.84,0,0,0,1.09,1.54,5.85,5.85,0,0,0,5.31,0A1.84,1.84,0,0,0,319,80.41h0v-7.2Z" style="fill: rgb(224, 224, 224); transform-origin: 315.245px 77.8936px;" id="elbk5rn2d6gi6" class="animable"></path><path d="M317.89,71.68c1.46.85,1.46,2.22,0,3.07a5.91,5.91,0,0,1-5.31,0c-1.46-.85-1.46-2.22,0-3.07A5.91,5.91,0,0,1,317.89,71.68Z" style="fill: rgb(245, 245, 245); transform-origin: 315.235px 73.215px;" id="elayydhg6sg2w" class="animable"></path><path d="M337,103h0V90.67H325.54V103h0a2.8,2.8,0,0,0,1.67,2.41,8.92,8.92,0,0,0,8.11,0A2.77,2.77,0,0,0,337,103Z" style="fill: rgb(165, 42, 42); transform-origin: 331.27px 98.5275px;" id="el1gm74mpwxbn" class="animable"></path><g id="elgtn1is4yuei"><path d="M337,103h0V90.67H325.54V103h0a2.8,2.8,0,0,0,1.67,2.41,8.92,8.92,0,0,0,8.11,0A2.77,2.77,0,0,0,337,103Z" style="opacity: 0.2; transform-origin: 331.27px 98.5275px;" class="animable"></path></g><path d="M335.33,88.28c2.24,1.29,2.24,3.39,0,4.68a9,9,0,0,1-8.11,0c-2.24-1.29-2.24-3.39,0-4.68A9,9,0,0,1,335.33,88.28Z" style="fill: rgb(165, 42, 42); transform-origin: 331.275px 90.62px;" id="el0adph1wqf3u" class="animable"></path><path d="M335.33,88.28c2.24,1.29,2.24,3.39,0,4.68a9,9,0,0,1-8.11,0c-2.24-1.29-2.24-3.39,0-4.68A9,9,0,0,1,335.33,88.28Z" style="fill: rgb(165, 42, 42); transform-origin: 331.275px 90.62px;" id="elp8a37prw06a" class="animable"></path><path d="M327.53,82.43v7.19a1.84,1.84,0,0,0,1.09,1.54,5.83,5.83,0,0,0,5.3,0,1.84,1.84,0,0,0,1.1-1.53h0v-7.2Z" style="fill: rgb(224, 224, 224); transform-origin: 331.275px 87.1135px;" id="el7lc9nj1haqq" class="animable"></path><path d="M333.92,80.9c1.47.85,1.47,2.22,0,3.07a5.89,5.89,0,0,1-5.3,0c-1.46-.85-1.46-2.22,0-3.07A5.89,5.89,0,0,1,333.92,80.9Z" style="fill: rgb(245, 245, 245); transform-origin: 331.274px 82.435px;" id="elvny36981px" class="animable"></path><path d="M353,112.19h0V99.89H341.58v12.3h0a2.8,2.8,0,0,0,1.67,2.41,8.9,8.9,0,0,0,8.1,0A2.76,2.76,0,0,0,353,112.19Z" style="fill: rgb(165, 42, 42); transform-origin: 347.29px 107.732px;" id="elk6l9ckt02kd" class="animable"></path><g id="ellllhtu7xamm"><path d="M353,112.19h0V99.89H341.58v12.3h0a2.8,2.8,0,0,0,1.67,2.41,8.9,8.9,0,0,0,8.1,0A2.76,2.76,0,0,0,353,112.19Z" style="opacity: 0.4; transform-origin: 347.29px 107.732px;" class="animable"></path></g><path d="M351.36,97.5c2.24,1.3,2.24,3.39,0,4.68a8.9,8.9,0,0,1-8.1,0c-2.24-1.29-2.24-3.38,0-4.68A9,9,0,0,1,351.36,97.5Z" style="fill: rgb(165, 42, 42); transform-origin: 347.31px 99.8461px;" id="elt9lqmy3304" class="animable"></path><g id="eln2sidlo1oye"><path d="M351.36,97.5c2.24,1.3,2.24,3.39,0,4.68a8.9,8.9,0,0,1-8.1,0c-2.24-1.29-2.24-3.38,0-4.68A9,9,0,0,1,351.36,97.5Z" style="opacity: 0.2; transform-origin: 347.31px 99.8461px;" class="animable"></path></g><path d="M343.56,91.66v7.18a1.87,1.87,0,0,0,1.1,1.54,5.83,5.83,0,0,0,5.3,0,1.86,1.86,0,0,0,1.1-1.53h0V91.66Z" style="fill: rgb(224, 224, 224); transform-origin: 347.31px 96.3385px;" id="elyf3nxifn3lh" class="animable"></path><path d="M350,90.12c1.47.85,1.47,2.22,0,3.07a5.89,5.89,0,0,1-5.3,0c-1.46-.85-1.46-2.22,0-3.07A5.89,5.89,0,0,1,350,90.12Z" style="fill: rgb(245, 245, 245); transform-origin: 347.354px 91.655px;" id="el2xq4zuytmnn" class="animable"></path><path d="M369.07,121.41h0v-12.3H357.62v12.3h0a2.78,2.78,0,0,0,1.67,2.41,8.9,8.9,0,0,0,8.1,0A2.78,2.78,0,0,0,369.07,121.41Z" style="fill: rgb(165, 42, 42); transform-origin: 363.345px 116.952px;" id="eloa4rxoms8af" class="animable"></path><g id="ellv66s7r0b6q"><path d="M369.07,121.41h0v-12.3H357.62v12.3h0a2.78,2.78,0,0,0,1.67,2.41,8.9,8.9,0,0,0,8.1,0A2.78,2.78,0,0,0,369.07,121.41Z" style="opacity: 0.6; transform-origin: 363.345px 116.952px;" class="animable"></path></g><path d="M367.4,106.72c2.24,1.3,2.24,3.39,0,4.68a8.9,8.9,0,0,1-8.1,0c-2.24-1.29-2.24-3.38,0-4.68A9,9,0,0,1,367.4,106.72Z" style="fill: rgb(165, 42, 42); transform-origin: 363.35px 109.066px;" id="el0raojftpv3q" class="animable"></path><g id="el7xgqlolo65q"><path d="M367.4,106.72c2.24,1.3,2.24,3.39,0,4.68a8.9,8.9,0,0,1-8.1,0c-2.24-1.29-2.24-3.38,0-4.68A9,9,0,0,1,367.4,106.72Z" style="opacity: 0.4; transform-origin: 363.35px 109.066px;" class="animable"></path></g><path d="M359.6,100.88v7.18a1.85,1.85,0,0,0,1.1,1.54,5.83,5.83,0,0,0,5.3,0,1.86,1.86,0,0,0,1.1-1.53h0v-7.19Z" style="fill: rgb(224, 224, 224); transform-origin: 363.35px 105.559px;" id="eljb83rrgvbs" class="animable"></path><path d="M366,99.34c1.47.85,1.47,2.22,0,3.07a5.89,5.89,0,0,1-5.3,0c-1.46-.85-1.46-2.22,0-3.07A5.89,5.89,0,0,1,366,99.34Z" style="fill: rgb(245, 245, 245); transform-origin: 363.354px 100.875px;" id="elt0gbludx5dq" class="animable"></path><path d="M385.11,130.63h0v-12.3H373.66v12.3h0a2.76,2.76,0,0,0,1.67,2.41,8.9,8.9,0,0,0,8.1,0A2.8,2.8,0,0,0,385.11,130.63Z" style="fill: rgb(165, 42, 42); transform-origin: 379.385px 126.172px;" id="el1wmx6ppou45" class="animable"></path><g id="eldlkzkcbtmsn"><path d="M385.11,130.63h0v-12.3H373.66v12.3h0a2.76,2.76,0,0,0,1.67,2.41,8.9,8.9,0,0,0,8.1,0A2.8,2.8,0,0,0,385.11,130.63Z" style="opacity: 0.7; transform-origin: 379.385px 126.172px;" class="animable"></path></g><path d="M383.44,115.94c2.24,1.3,2.24,3.39,0,4.68a8.9,8.9,0,0,1-8.1,0c-2.24-1.29-2.24-3.38,0-4.68A9,9,0,0,1,383.44,115.94Z" style="fill: rgb(165, 42, 42); transform-origin: 379.39px 118.286px;" id="elsinxfp92yi" class="animable"></path><g id="eltscr6osng5l"><path d="M383.44,115.94c2.24,1.3,2.24,3.39,0,4.68a8.9,8.9,0,0,1-8.1,0c-2.24-1.29-2.24-3.38,0-4.68A9,9,0,0,1,383.44,115.94Z" style="opacity: 0.6; transform-origin: 379.39px 118.286px;" class="animable"></path></g><path d="M375.64,110.1v7.18a1.85,1.85,0,0,0,1.1,1.54,5.83,5.83,0,0,0,5.3,0,1.86,1.86,0,0,0,1.1-1.53h0V110.1Z" style="fill: rgb(224, 224, 224); transform-origin: 379.39px 114.779px;" id="elrpu8xyi8ai" class="animable"></path><path d="M382,108.56c1.46.85,1.46,2.22,0,3.07a5.89,5.89,0,0,1-5.3,0c-1.47-.85-1.47-2.22,0-3.07A5.89,5.89,0,0,1,382,108.56Z" style="fill: rgb(245, 245, 245); transform-origin: 379.346px 110.095px;" id="elit52wt1ia5l" class="animable"></path><path d="M401.15,139.85h0v-12.3H389.69v12.3h0a2.77,2.77,0,0,0,1.66,2.41,8.92,8.92,0,0,0,8.11,0A2.8,2.8,0,0,0,401.15,139.85Z" style="fill: rgb(165, 42, 42); transform-origin: 395.42px 135.392px;" id="el0m62uwp4fanc" class="animable"></path><g id="elrq7mkgcrad9"><path d="M401.15,139.85h0v-12.3H389.69v12.3h0a2.77,2.77,0,0,0,1.66,2.41,8.92,8.92,0,0,0,8.11,0A2.8,2.8,0,0,0,401.15,139.85Z" style="opacity: 0.8; transform-origin: 395.42px 135.392px;" class="animable"></path></g><path d="M399.48,125.16c2.24,1.3,2.24,3.39,0,4.68a8.92,8.92,0,0,1-8.11,0c-2.24-1.29-2.24-3.38,0-4.68A9,9,0,0,1,399.48,125.16Z" style="fill: rgb(165, 42, 42); transform-origin: 395.425px 127.505px;" id="el2heig2dotly" class="animable"></path><g id="el2gt5kiiaito"><path d="M399.48,125.16c2.24,1.3,2.24,3.39,0,4.68a8.92,8.92,0,0,1-8.11,0c-2.24-1.29-2.24-3.38,0-4.68A9,9,0,0,1,399.48,125.16Z" style="opacity: 0.7; transform-origin: 395.425px 127.505px;" class="animable"></path></g><path d="M391.68,119.32v7.18a1.85,1.85,0,0,0,1.1,1.54,5.83,5.83,0,0,0,5.3,0,1.86,1.86,0,0,0,1.1-1.53h0v-7.19Z" style="fill: rgb(224, 224, 224); transform-origin: 395.43px 123.999px;" id="elywatrigydj" class="animable"></path><path d="M398.08,117.79c1.46.84,1.46,2.21,0,3.06a5.89,5.89,0,0,1-5.3,0c-1.47-.85-1.47-2.22,0-3.06A5.83,5.83,0,0,1,398.08,117.79Z" style="fill: rgb(245, 245, 245); transform-origin: 395.426px 119.316px;" id="ela0jjco2nr49" class="animable"></path><polygon points="420.15 184.14 416.83 182.22 416.83 150.42 420.15 152.34 420.15 184.14" style="fill: rgb(55, 71, 79); transform-origin: 418.49px 167.28px;" id="elg2lkijr5gm" class="animable"></polygon><polygon points="420.15 184.14 423.47 182.22 423.47 150.42 420.15 152.34 420.15 184.14" style="fill: rgb(38, 50, 56); transform-origin: 421.81px 167.28px;" id="elqdm36so28wb" class="animable"></polygon><polygon points="394.69 187.92 287.38 125.96 287.38 123.33 394.69 185.29 394.69 187.92" style="fill: rgb(55, 71, 79); transform-origin: 341.035px 155.625px;" id="eltgowv21h2ap" class="animable"></polygon><polygon points="394.69 187.92 394.69 185.29 423.47 168.67 423.47 171.3 394.69 187.92" style="fill: rgb(38, 50, 56); transform-origin: 409.08px 178.295px;" id="el7kvpr3o4luk" class="animable"></polygon><polygon points="394.69 185.29 287.38 123.33 316.16 106.71 423.47 168.67 394.69 185.29" style="fill: rgb(69, 90, 100); transform-origin: 355.425px 146px;" id="elwfmordhsj2h" class="animable"></polygon><path d="M321,127h0v-12.3H309.5V127h0a2.78,2.78,0,0,0,1.66,2.42,9,9,0,0,0,8.11,0A2.78,2.78,0,0,0,321,127Z" style="fill: rgb(165, 42, 42); transform-origin: 315.25px 122.543px;" id="els6qzwrekczd" class="animable"></path><path d="M319.29,112.33c2.24,1.29,2.24,3.39,0,4.68a9,9,0,0,1-8.11,0c-2.24-1.29-2.24-3.39,0-4.68A9,9,0,0,1,319.29,112.33Z" style="fill: rgb(165, 42, 42); transform-origin: 315.235px 114.67px;" id="el9fk4mn5uhrd" class="animable"></path><g id="el9ipyx7j7209"><path d="M319.29,112.33c2.24,1.29,2.24,3.39,0,4.68a9,9,0,0,1-8.11,0c-2.24-1.29-2.24-3.39,0-4.68A9,9,0,0,1,319.29,112.33Z" style="opacity: 0.2; transform-origin: 315.235px 114.67px;" class="animable"></path></g><path d="M311.49,106.48v7.19a1.85,1.85,0,0,0,1.09,1.54,5.91,5.91,0,0,0,5.31,0,1.86,1.86,0,0,0,1.09-1.53h0v-7.2Z" style="fill: rgb(224, 224, 224); transform-origin: 315.235px 111.16px;" id="elc1lanqqdt9" class="animable"></path><path d="M317.89,105c1.46.85,1.46,2.22,0,3.06a5.85,5.85,0,0,1-5.31,0c-1.46-.84-1.46-2.21,0-3.06A5.91,5.91,0,0,1,317.89,105Z" style="fill: rgb(245, 245, 245); transform-origin: 315.235px 106.534px;" id="el49ny81jllxo" class="animable"></path><path d="M337,136.23h0v-12.3H325.54v12.3h0a2.81,2.81,0,0,0,1.67,2.42,9,9,0,0,0,8.11,0A2.78,2.78,0,0,0,337,136.23Z" style="fill: rgb(165, 42, 42); transform-origin: 331.27px 131.773px;" id="elymeugq7h5uc" class="animable"></path><g id="el70dloelq52l"><path d="M337,136.23h0v-12.3H325.54v12.3h0a2.81,2.81,0,0,0,1.67,2.42,9,9,0,0,0,8.11,0A2.78,2.78,0,0,0,337,136.23Z" style="fill: rgb(255, 255, 255); opacity: 0.2; transform-origin: 331.27px 131.773px;" class="animable"></path></g><path d="M335.33,121.55c2.24,1.29,2.24,3.39,0,4.68a9,9,0,0,1-8.11,0c-2.24-1.29-2.24-3.39,0-4.68A9,9,0,0,1,335.33,121.55Z" style="fill: rgb(165, 42, 42); transform-origin: 331.275px 123.89px;" id="el525cfh0gzdf" class="animable"></path><path d="M335.33,121.55c2.24,1.29,2.24,3.39,0,4.68a9,9,0,0,1-8.11,0c-2.24-1.29-2.24-3.39,0-4.68A9,9,0,0,1,335.33,121.55Z" style="fill: rgb(165, 42, 42); transform-origin: 331.275px 123.89px;" id="el2kalic6827l" class="animable"></path><path d="M327.53,115.7v7.19a1.85,1.85,0,0,0,1.09,1.54,5.89,5.89,0,0,0,5.3,0,1.85,1.85,0,0,0,1.1-1.53h0v-7.2Z" style="fill: rgb(224, 224, 224); transform-origin: 331.275px 120.38px;" id="els2zv703o0ok" class="animable"></path><path d="M333.92,114.17c1.47.85,1.47,2.22,0,3.06a5.83,5.83,0,0,1-5.3,0c-1.46-.84-1.46-2.21,0-3.06A5.89,5.89,0,0,1,333.92,114.17Z" style="fill: rgb(245, 245, 245); transform-origin: 331.274px 115.704px;" id="elz7wlyz0em3o" class="animable"></path><path d="M353,145.45h0v-12.3H341.58v12.3h0a2.81,2.81,0,0,0,1.67,2.42,9,9,0,0,0,8.1,0A2.77,2.77,0,0,0,353,145.45Z" style="fill: rgb(165, 42, 42); transform-origin: 347.29px 140.991px;" id="elld4z7cnfo7r" class="animable"></path><g id="elbaa94jsxo88"><path d="M353,145.45h0v-12.3H341.58v12.3h0a2.81,2.81,0,0,0,1.67,2.42,9,9,0,0,0,8.1,0A2.77,2.77,0,0,0,353,145.45Z" style="fill: rgb(255, 255, 255); opacity: 0.4; transform-origin: 347.29px 140.991px;" class="animable"></path></g><path d="M351.36,130.77c2.24,1.29,2.24,3.39,0,4.68a9,9,0,0,1-8.1,0c-2.24-1.29-2.24-3.39,0-4.68A9,9,0,0,1,351.36,130.77Z" style="fill: rgb(165, 42, 42); transform-origin: 347.31px 133.11px;" id="elajrjtnf1n6v" class="animable"></path><g id="eli49rrjpm8bs"><path d="M351.36,130.77c2.24,1.29,2.24,3.39,0,4.68a9,9,0,0,1-8.1,0c-2.24-1.29-2.24-3.39,0-4.68A9,9,0,0,1,351.36,130.77Z" style="fill: rgb(255, 255, 255); opacity: 0.2; transform-origin: 347.31px 133.11px;" class="animable"></path></g><path d="M343.56,124.92v7.19a1.88,1.88,0,0,0,1.1,1.54,5.89,5.89,0,0,0,5.3,0,1.87,1.87,0,0,0,1.1-1.53h0v-7.2Z" style="fill: rgb(224, 224, 224); transform-origin: 347.31px 129.6px;" id="elas7trvg9qsg" class="animable"></path><path d="M350,123.39c1.47.85,1.47,2.22,0,3.06a5.83,5.83,0,0,1-5.3,0c-1.46-.84-1.46-2.21,0-3.06A5.89,5.89,0,0,1,350,123.39Z" style="fill: rgb(245, 245, 245); transform-origin: 347.354px 124.924px;" id="elw0obxpk8mgn" class="animable"></path><path d="M369.07,154.67h0v-12.3H357.62v12.3h0a2.78,2.78,0,0,0,1.67,2.42,9,9,0,0,0,8.1,0A2.78,2.78,0,0,0,369.07,154.67Z" style="fill: rgb(165, 42, 42); transform-origin: 363.345px 150.211px;" id="el6mxey4yotxo" class="animable"></path><g id="elmlx5tdushk"><path d="M369.07,154.67h0v-12.3H357.62v12.3h0a2.78,2.78,0,0,0,1.67,2.42,9,9,0,0,0,8.1,0A2.78,2.78,0,0,0,369.07,154.67Z" style="fill: rgb(255, 255, 255); opacity: 0.6; transform-origin: 363.345px 150.211px;" class="animable"></path></g><path d="M367.4,140c2.24,1.29,2.24,3.39,0,4.68a9,9,0,0,1-8.1,0c-2.24-1.29-2.24-3.39,0-4.68A9,9,0,0,1,367.4,140Z" style="fill: rgb(165, 42, 42); transform-origin: 363.35px 142.34px;" id="elb8e92eukmh" class="animable"></path><g id="elj1nr4oeulj"><path d="M367.4,140c2.24,1.29,2.24,3.39,0,4.68a9,9,0,0,1-8.1,0c-2.24-1.29-2.24-3.39,0-4.68A9,9,0,0,1,367.4,140Z" style="fill: rgb(255, 255, 255); opacity: 0.4; transform-origin: 363.35px 142.34px;" class="animable"></path></g><path d="M359.6,134.14v7.19a1.86,1.86,0,0,0,1.1,1.54,5.89,5.89,0,0,0,5.3,0,1.87,1.87,0,0,0,1.1-1.53h0v-7.2Z" style="fill: rgb(224, 224, 224); transform-origin: 363.35px 138.82px;" id="eln3j9kadown" class="animable"></path><path d="M366,132.61c1.47.85,1.47,2.22,0,3.06a5.83,5.83,0,0,1-5.3,0c-1.46-.84-1.46-2.21,0-3.06A5.89,5.89,0,0,1,366,132.61Z" style="fill: rgb(245, 245, 245); transform-origin: 363.354px 134.144px;" id="elsysjv7fw12" class="animable"></path><path d="M385.11,163.89h0v-12.3H373.66v12.3h0a2.76,2.76,0,0,0,1.67,2.42,9,9,0,0,0,8.1,0A2.8,2.8,0,0,0,385.11,163.89Z" style="fill: rgb(165, 42, 42); transform-origin: 379.385px 159.431px;" id="elqdl3784uqdf" class="animable"></path><g id="elcqnwh6hi5l7"><path d="M385.11,163.89h0v-12.3H373.66v12.3h0a2.76,2.76,0,0,0,1.67,2.42,9,9,0,0,0,8.1,0A2.8,2.8,0,0,0,385.11,163.89Z" style="fill: rgb(255, 255, 255); opacity: 0.8; transform-origin: 379.385px 159.431px;" class="animable"></path></g><path d="M383.44,149.21c2.24,1.29,2.24,3.39,0,4.68a9,9,0,0,1-8.1,0c-2.24-1.29-2.24-3.39,0-4.68A9,9,0,0,1,383.44,149.21Z" style="fill: rgb(165, 42, 42); transform-origin: 379.39px 151.55px;" id="elzqad87gy5b" class="animable"></path><g id="elelbyugb55z7"><path d="M383.44,149.21c2.24,1.29,2.24,3.39,0,4.68a9,9,0,0,1-8.1,0c-2.24-1.29-2.24-3.39,0-4.68A9,9,0,0,1,383.44,149.21Z" style="fill: rgb(255, 255, 255); opacity: 0.6; transform-origin: 379.39px 151.55px;" class="animable"></path></g><path d="M375.64,143.36v7.19a1.85,1.85,0,0,0,1.1,1.54,5.83,5.83,0,0,0,5.3,0,1.87,1.87,0,0,0,1.1-1.53h0v-7.2Z" style="fill: rgb(224, 224, 224); transform-origin: 379.39px 148.044px;" id="el6nyl3lsk7ua" class="animable"></path><path d="M382,141.83c1.46.85,1.46,2.22,0,3.06a5.83,5.83,0,0,1-5.3,0c-1.47-.84-1.47-2.21,0-3.06A5.89,5.89,0,0,1,382,141.83Z" style="fill: rgb(245, 245, 245); transform-origin: 379.346px 143.364px;" id="el32cbka5c8xo" class="animable"></path><path d="M401.15,173.11h0v-12.3H389.69v12.3h0a2.77,2.77,0,0,0,1.66,2.42,9,9,0,0,0,8.11,0A2.8,2.8,0,0,0,401.15,173.11Z" style="fill: rgb(165, 42, 42); transform-origin: 395.42px 168.653px;" id="eliknyctmvqd9" class="animable"></path><g id="els30cae9a5e"><path d="M401.15,173.11h0v-12.3H389.69v12.3h0a2.77,2.77,0,0,0,1.66,2.42,9,9,0,0,0,8.11,0A2.8,2.8,0,0,0,401.15,173.11Z" style="fill: rgb(255, 255, 255); opacity: 0.9; transform-origin: 395.42px 168.653px;" class="animable"></path></g><path d="M399.48,158.43c2.24,1.29,2.24,3.39,0,4.68a9,9,0,0,1-8.11,0c-2.24-1.29-2.24-3.39,0-4.68A9,9,0,0,1,399.48,158.43Z" style="fill: rgb(165, 42, 42); transform-origin: 395.425px 160.77px;" id="elfgwhh4gd5b" class="animable"></path><g id="elo5psah171xc"><path d="M399.48,158.43c2.24,1.29,2.24,3.39,0,4.68a9,9,0,0,1-8.11,0c-2.24-1.29-2.24-3.39,0-4.68A9,9,0,0,1,399.48,158.43Z" style="fill: rgb(255, 255, 255); opacity: 0.8; transform-origin: 395.425px 160.77px;" class="animable"></path></g><path d="M391.68,152.58v7.19a1.85,1.85,0,0,0,1.1,1.54,5.83,5.83,0,0,0,5.3,0,1.87,1.87,0,0,0,1.1-1.53h0v-7.2Z" style="fill: rgb(224, 224, 224); transform-origin: 395.43px 157.264px;" id="el0gfcrlfnszqp" class="animable"></path><path d="M398.08,151.05c1.46.85,1.46,2.22,0,3.06a5.83,5.83,0,0,1-5.3,0c-1.47-.84-1.47-2.21,0-3.06A5.89,5.89,0,0,1,398.08,151.05Z" style="fill: rgb(245, 245, 245); transform-origin: 395.426px 152.584px;" id="elth6ygynndgc" class="animable"></path><polygon points="420.15 170.59 416.83 168.67 416.83 136.87 420.15 138.79 420.15 170.59" style="fill: rgb(55, 71, 79); transform-origin: 418.49px 153.73px;" id="elqkr6eh3pjoq" class="animable"></polygon><polygon points="420.15 170.59 423.47 168.67 423.47 136.87 420.15 138.79 420.15 170.59" style="fill: rgb(38, 50, 56); transform-origin: 421.81px 153.73px;" id="elnfe0rkczyg" class="animable"></polygon><polygon points="394.69 154.65 287.38 92.69 287.38 90.06 394.69 152.02 394.69 154.65" style="fill: rgb(55, 71, 79); transform-origin: 341.035px 122.355px;" id="el6xiwyzwrf9c" class="animable"></polygon><polygon points="394.69 154.65 394.69 152.02 423.47 135.4 423.47 138.03 394.69 154.65" style="fill: rgb(38, 50, 56); transform-origin: 409.08px 145.025px;" id="el2o5u9m7bmrs" class="animable"></polygon><polygon points="394.69 152.02 287.38 90.06 316.16 73.45 423.47 135.4 394.69 152.02" style="fill: rgb(69, 90, 100); transform-origin: 355.425px 112.735px;" id="el0kvmy7e1o2b" class="animable"></polygon><path d="M321,93.75h0V81.45H309.5v12.3h0a2.77,2.77,0,0,0,1.66,2.41,8.92,8.92,0,0,0,8.11,0A2.77,2.77,0,0,0,321,93.75Z" style="fill: rgb(165, 42, 42); transform-origin: 315.25px 89.2925px;" id="elomsbsbkh3eb" class="animable"></path><path d="M319.29,79.06c2.24,1.29,2.24,3.39,0,4.68a9,9,0,0,1-8.11,0c-2.24-1.29-2.24-3.39,0-4.68A9,9,0,0,1,319.29,79.06Z" style="fill: rgb(165, 42, 42); transform-origin: 315.235px 81.4px;" id="elgcdo2cmm9rb" class="animable"></path><g id="elzzhr321lq2h"><path d="M319.29,79.06c2.24,1.29,2.24,3.39,0,4.68a9,9,0,0,1-8.11,0c-2.24-1.29-2.24-3.39,0-4.68A9,9,0,0,1,319.29,79.06Z" style="fill: rgb(255, 255, 255); opacity: 0.2; transform-origin: 315.235px 81.4px;" class="animable"></path></g><path d="M311.49,73.21V80.4a1.84,1.84,0,0,0,1.09,1.54,5.85,5.85,0,0,0,5.31,0A1.84,1.84,0,0,0,319,80.41h0v-7.2Z" style="fill: rgb(224, 224, 224); transform-origin: 315.245px 77.8936px;" id="elk9dm6a8vx6" class="animable"></path><path d="M317.89,71.68c1.46.85,1.46,2.22,0,3.07a5.91,5.91,0,0,1-5.31,0c-1.46-.85-1.46-2.22,0-3.07A5.91,5.91,0,0,1,317.89,71.68Z" style="fill: rgb(245, 245, 245); transform-origin: 315.235px 73.215px;" id="elfwdia4ks8e" class="animable"></path><path d="M337,103h0V90.67H325.54V103h0a2.8,2.8,0,0,0,1.67,2.41,8.92,8.92,0,0,0,8.11,0A2.77,2.77,0,0,0,337,103Z" style="fill: rgb(165, 42, 42); transform-origin: 331.27px 98.5275px;" id="elo36l1kyolxm" class="animable"></path><g id="el46zn28rutql"><path d="M337,103h0V90.67H325.54V103h0a2.8,2.8,0,0,0,1.67,2.41,8.92,8.92,0,0,0,8.11,0A2.77,2.77,0,0,0,337,103Z" style="opacity: 0.2; transform-origin: 331.27px 98.5275px;" class="animable"></path></g><path d="M335.33,88.28c2.24,1.29,2.24,3.39,0,4.68a9,9,0,0,1-8.11,0c-2.24-1.29-2.24-3.39,0-4.68A9,9,0,0,1,335.33,88.28Z" style="fill: rgb(165, 42, 42); transform-origin: 331.275px 90.62px;" id="eled7965v1d5j" class="animable"></path><path d="M335.33,88.28c2.24,1.29,2.24,3.39,0,4.68a9,9,0,0,1-8.11,0c-2.24-1.29-2.24-3.39,0-4.68A9,9,0,0,1,335.33,88.28Z" style="fill: rgb(165, 42, 42); transform-origin: 331.275px 90.62px;" id="elmef3jm27ro" class="animable"></path><path d="M327.53,82.43v7.19a1.84,1.84,0,0,0,1.09,1.54,5.83,5.83,0,0,0,5.3,0,1.84,1.84,0,0,0,1.1-1.53h0v-7.2Z" style="fill: rgb(224, 224, 224); transform-origin: 331.275px 87.1135px;" id="elaq2n9xv3aa4" class="animable"></path><path d="M333.92,80.9c1.47.85,1.47,2.22,0,3.07a5.89,5.89,0,0,1-5.3,0c-1.46-.85-1.46-2.22,0-3.07A5.89,5.89,0,0,1,333.92,80.9Z" style="fill: rgb(245, 245, 245); transform-origin: 331.274px 82.435px;" id="eltw4c79m9elj" class="animable"></path><path d="M353,112.19h0V99.89H341.58v12.3h0a2.8,2.8,0,0,0,1.67,2.41,8.9,8.9,0,0,0,8.1,0A2.76,2.76,0,0,0,353,112.19Z" style="fill: rgb(165, 42, 42); transform-origin: 347.29px 107.732px;" id="elvojiuw3ubj" class="animable"></path><g id="el4vxart9zil7"><path d="M353,112.19h0V99.89H341.58v12.3h0a2.8,2.8,0,0,0,1.67,2.41,8.9,8.9,0,0,0,8.1,0A2.76,2.76,0,0,0,353,112.19Z" style="opacity: 0.4; transform-origin: 347.29px 107.732px;" class="animable"></path></g><path d="M351.36,97.5c2.24,1.3,2.24,3.39,0,4.68a8.9,8.9,0,0,1-8.1,0c-2.24-1.29-2.24-3.38,0-4.68A9,9,0,0,1,351.36,97.5Z" style="fill: rgb(165, 42, 42); transform-origin: 347.31px 99.8461px;" id="el6vy784lnexk" class="animable"></path><g id="elrhtnf0n4lui"><path d="M351.36,97.5c2.24,1.3,2.24,3.39,0,4.68a8.9,8.9,0,0,1-8.1,0c-2.24-1.29-2.24-3.38,0-4.68A9,9,0,0,1,351.36,97.5Z" style="opacity: 0.2; transform-origin: 347.31px 99.8461px;" class="animable"></path></g><path d="M343.56,91.66v7.18a1.87,1.87,0,0,0,1.1,1.54,5.83,5.83,0,0,0,5.3,0,1.86,1.86,0,0,0,1.1-1.53h0V91.66Z" style="fill: rgb(224, 224, 224); transform-origin: 347.31px 96.3385px;" id="elbjq3035voce" class="animable"></path><path d="M350,90.12c1.47.85,1.47,2.22,0,3.07a5.89,5.89,0,0,1-5.3,0c-1.46-.85-1.46-2.22,0-3.07A5.89,5.89,0,0,1,350,90.12Z" style="fill: rgb(245, 245, 245); transform-origin: 347.354px 91.655px;" id="elg47zi5bkds6" class="animable"></path><path d="M369.07,121.41h0v-12.3H357.62v12.3h0a2.78,2.78,0,0,0,1.67,2.41,8.9,8.9,0,0,0,8.1,0A2.78,2.78,0,0,0,369.07,121.41Z" style="fill: rgb(165, 42, 42); transform-origin: 363.345px 116.952px;" id="elaoptu3zxpm" class="animable"></path><g id="elumrv4qmjwtd"><path d="M369.07,121.41h0v-12.3H357.62v12.3h0a2.78,2.78,0,0,0,1.67,2.41,8.9,8.9,0,0,0,8.1,0A2.78,2.78,0,0,0,369.07,121.41Z" style="opacity: 0.6; transform-origin: 363.345px 116.952px;" class="animable"></path></g><path d="M367.4,106.72c2.24,1.3,2.24,3.39,0,4.68a8.9,8.9,0,0,1-8.1,0c-2.24-1.29-2.24-3.38,0-4.68A9,9,0,0,1,367.4,106.72Z" style="fill: rgb(165, 42, 42); transform-origin: 363.35px 109.066px;" id="elchc0k8xzmph" class="animable"></path><g id="eltjku4m4vh2"><path d="M367.4,106.72c2.24,1.3,2.24,3.39,0,4.68a8.9,8.9,0,0,1-8.1,0c-2.24-1.29-2.24-3.38,0-4.68A9,9,0,0,1,367.4,106.72Z" style="opacity: 0.4; transform-origin: 363.35px 109.066px;" class="animable"></path></g><path d="M359.6,100.88v7.18a1.85,1.85,0,0,0,1.1,1.54,5.83,5.83,0,0,0,5.3,0,1.86,1.86,0,0,0,1.1-1.53h0v-7.19Z" style="fill: rgb(224, 224, 224); transform-origin: 363.35px 105.559px;" id="elxd3dycr1olp" class="animable"></path><path d="M366,99.34c1.47.85,1.47,2.22,0,3.07a5.89,5.89,0,0,1-5.3,0c-1.46-.85-1.46-2.22,0-3.07A5.89,5.89,0,0,1,366,99.34Z" style="fill: rgb(245, 245, 245); transform-origin: 363.354px 100.875px;" id="ele6muhaxl5gc" class="animable"></path><path d="M385.11,130.63h0v-12.3H373.66v12.3h0a2.76,2.76,0,0,0,1.67,2.41,8.9,8.9,0,0,0,8.1,0A2.8,2.8,0,0,0,385.11,130.63Z" style="fill: rgb(165, 42, 42); transform-origin: 379.385px 126.172px;" id="elbf5t6bj6ftm" class="animable"></path><g id="el3czo2ynjbn3"><path d="M385.11,130.63h0v-12.3H373.66v12.3h0a2.76,2.76,0,0,0,1.67,2.41,8.9,8.9,0,0,0,8.1,0A2.8,2.8,0,0,0,385.11,130.63Z" style="opacity: 0.7; transform-origin: 379.385px 126.172px;" class="animable"></path></g><path d="M383.44,115.94c2.24,1.3,2.24,3.39,0,4.68a8.9,8.9,0,0,1-8.1,0c-2.24-1.29-2.24-3.38,0-4.68A9,9,0,0,1,383.44,115.94Z" style="fill: rgb(165, 42, 42); transform-origin: 379.39px 118.286px;" id="elcnm6et159oq" class="animable"></path><g id="elngr8dwqh0b"><path d="M383.44,115.94c2.24,1.3,2.24,3.39,0,4.68a8.9,8.9,0,0,1-8.1,0c-2.24-1.29-2.24-3.38,0-4.68A9,9,0,0,1,383.44,115.94Z" style="opacity: 0.6; transform-origin: 379.39px 118.286px;" class="animable"></path></g><path d="M375.64,110.1v7.18a1.85,1.85,0,0,0,1.1,1.54,5.83,5.83,0,0,0,5.3,0,1.86,1.86,0,0,0,1.1-1.53h0V110.1Z" style="fill: rgb(224, 224, 224); transform-origin: 379.39px 114.779px;" id="elscey7np88g" class="animable"></path><path d="M382,108.56c1.46.85,1.46,2.22,0,3.07a5.89,5.89,0,0,1-5.3,0c-1.47-.85-1.47-2.22,0-3.07A5.89,5.89,0,0,1,382,108.56Z" style="fill: rgb(245, 245, 245); transform-origin: 379.346px 110.095px;" id="el36pjywyriwp" class="animable"></path><path d="M401.15,139.85h0v-12.3H389.69v12.3h0a2.77,2.77,0,0,0,1.66,2.41,8.92,8.92,0,0,0,8.11,0A2.8,2.8,0,0,0,401.15,139.85Z" style="fill: rgb(165, 42, 42); transform-origin: 395.42px 135.392px;" id="elx1w7qs2ye08" class="animable"></path><g id="elvbuhfllw23"><path d="M401.15,139.85h0v-12.3H389.69v12.3h0a2.77,2.77,0,0,0,1.66,2.41,8.92,8.92,0,0,0,8.11,0A2.8,2.8,0,0,0,401.15,139.85Z" style="opacity: 0.8; transform-origin: 395.42px 135.392px;" class="animable"></path></g><path d="M399.48,125.16c2.24,1.3,2.24,3.39,0,4.68a8.92,8.92,0,0,1-8.11,0c-2.24-1.29-2.24-3.38,0-4.68A9,9,0,0,1,399.48,125.16Z" style="fill: rgb(165, 42, 42); transform-origin: 395.425px 127.505px;" id="elf1bmjhrnfk" class="animable"></path><g id="elwrjkg0ipf6a"><path d="M399.48,125.16c2.24,1.3,2.24,3.39,0,4.68a8.92,8.92,0,0,1-8.11,0c-2.24-1.29-2.24-3.38,0-4.68A9,9,0,0,1,399.48,125.16Z" style="opacity: 0.7; transform-origin: 395.425px 127.505px;" class="animable"></path></g><path d="M391.68,119.32v7.18a1.85,1.85,0,0,0,1.1,1.54,5.83,5.83,0,0,0,5.3,0,1.86,1.86,0,0,0,1.1-1.53h0v-7.19Z" style="fill: rgb(224, 224, 224); transform-origin: 395.43px 123.999px;" id="el4yuqd0hpays" class="animable"></path><path d="M398.08,117.79c1.46.84,1.46,2.21,0,3.06a5.89,5.89,0,0,1-5.3,0c-1.47-.85-1.47-2.22,0-3.06A5.83,5.83,0,0,1,398.08,117.79Z" style="fill: rgb(245, 245, 245); transform-origin: 395.426px 119.316px;" id="el3z2ahll3znl" class="animable"></path></g><defs>     <filter id="active" height="200%">         <feMorphology in="SourceAlpha" result="DILATED" operator="dilate" radius="2"></feMorphology>                <feFlood flood-color="#32DFEC" flood-opacity="1" result="PINK"></feFlood>        <feComposite in="PINK" in2="DILATED" operator="in" result="OUTLINE"></feComposite>        <feMerge>            <feMergeNode in="OUTLINE"></feMergeNode>            <feMergeNode in="SourceGraphic"></feMergeNode>        </feMerge>    </filter>    <filter id="hover" height="200%">        <feMorphology in="SourceAlpha" result="DILATED" operator="dilate" radius="2"></feMorphology>                <feFlood flood-color="#ff0000" flood-opacity="0.5" result="PINK"></feFlood>        <feComposite in="PINK" in2="DILATED" operator="in" result="OUTLINE"></feComposite>        <feMerge>            <feMergeNode in="OUTLINE"></feMergeNode>            <feMergeNode in="SourceGraphic"></feMergeNode>        </feMerge>            <feColorMatrix type="matrix" values="0   0   0   0   0                0   1   0   0   0                0   0   0   0   0                0   0   0   1   0 "></feColorMatrix>    </filter></defs><defs><clipPath id="freepik--clip-path--inject-59"><path d="M243.89,132.09c2.2,3.59.57,6.41-3.64,6.3a15.63,15.63,0,0,1-11.61-6.7c-2.19-3.59-.56-6.41,3.65-6.3A15.58,15.58,0,0,1,243.89,132.09Z" style="fill:none"></path></clipPath></defs></svg>