<svg class="animated" id="freepik_stories-eyes" xmlns="http://www.w3.org/2000/svg" viewBox="0 0 500 500" version="1.1" xmlns:xlink="http://www.w3.org/1999/xlink" xmlns:svgjs="http://svgjs.com/svgjs"><style>svg#freepik_stories-eyes:not(.animated) .animable {opacity: 0;}svg#freepik_stories-eyes.animated #freepik--background-complete--inject-36 {animation: 3s Infinite  linear floating;animation-delay: 0s;}svg#freepik_stories-eyes.animated #freepik--Plants--inject-36 {animation: 6s Infinite  linear floating;animation-delay: 0s;}            @keyframes floating {                0% {                    opacity: 1;                    transform: translateY(0px);                }                50% {                    transform: translateY(-10px);                }                100% {                    opacity: 1;                    transform: translateY(0px);                }            }        </style><g id="freepik--background-complete--inject-36" class="animable" style="transform-origin: 249.978px 244.298px;"><path d="M169.42,165.53c-13-10.73-26.36-21.83-42.18-28.21a71.54,71.54,0,0,0-55,.88.44.44,0,0,1-.35-.81c30-13.68,59.18-5.54,84.67,13.45,28.7,21.38,54.84,51.18,94.27,44,.75-.14,1.1,1,.36,1.3C220.79,206.35,191.39,183.6,169.42,165.53Z" style="fill: rgb(219, 219, 219); transform-origin: 161.612px 164.623px;" id="el9tuztwtz93u" class="animable"></path><path d="M183.89,186.38c-22.12-9.16-45-12.7-68.51-6.5-.4.11-.59-.59-.19-.71,19.61-5.78,39.54-5.78,59,.73,21.87,7.33,42.46,20.75,66.45,17.79a.31.31,0,0,1,.09.62C220.54,202.65,202.07,193.91,183.89,186.38Z" style="fill: rgb(219, 219, 219); transform-origin: 177.983px 187.194px;" id="eljx3v4xfjvvb" class="animable"></path><path d="M200,185.12c-17.95-6.17-29.88-22-39.14-37.69-11.79-20-24.31-37.26-47.76-43.9-.46-.13-.36-.87.12-.76,19.61,4.67,33.69,16.55,44.27,33.4,5.68,9,10.53,18.65,17.18,27,7.25,9.14,16.11,15,25.89,21C201.15,184.55,200.57,185.31,200,185.12Z" style="fill: rgb(219, 219, 219); transform-origin: 156.805px 143.954px;" id="el7v2rs4pqa3x" class="animable"></path><path d="M204.31,189.11S200.25,158.5,187,151,204.31,189.11,204.31,189.11Z" style="fill: rgb(219, 219, 219); transform-origin: 193.99px 169.638px;" id="elqsdvo88is8f" class="animable"></path><path d="M142.88,145.12s-26.06,16.56-40.29,11.25S142.88,145.12,142.88,145.12Z" style="fill: rgb(219, 219, 219); transform-origin: 121.55px 151.27px;" id="elfhthk755tsk" class="animable"></path><path d="M423.4,252.26a26.32,26.32,0,0,1,1.22,4.91,1.46,1.46,0,0,1,0,.22,22.15,22.15,0,0,1,.22,4.32,31.44,31.44,0,0,1,2.41-3.63c4.74-6.34,16.89-18.73,38.63-17.7,2.66.14-.7-21.08-17.18-26.38-3.54-1.13-14.18,10.4-14.18,10.4s-.5-15.4-4.76-16.43-20,.89-31.88,14.69C396.62,224.16,417.57,235.62,423.4,252.26Z" style="fill: rgb(235, 235, 235); transform-origin: 432.261px 234.723px;" id="elxexs7tymf48" class="animable"></path><path d="M429.48,240.64a136.21,136.21,0,0,0-4.83,16.75,22.15,22.15,0,0,1,.22,4.32,31.44,31.44,0,0,1,2.41-3.63c2.63-7.42,6.6-14,13.7-19,.13-.1,0-.32-.14-.24-6.77,4.15-11.31,10.42-14.3,17.5.91-5.23,1.94-10.43,3.21-15.61C429.81,240.54,429.53,240.47,429.48,240.64Z" style="fill: rgb(255, 255, 255); transform-origin: 432.842px 250.266px;" id="elscu5g0txzg" class="animable"></path><path d="M420,235.19a49.15,49.15,0,0,1,3.44,17.07,26.32,26.32,0,0,1,1.22,4.91,54.31,54.31,0,0,0-4.28-22.08C420.25,234.85,419.86,235,420,235.19Z" style="fill: rgb(255, 255, 255); transform-origin: 422.319px 246.068px;" id="el5s8psxk5x9a" class="animable"></path><path d="M366.47,105a25.39,25.39,0,0,1-4.37,2.56.82.82,0,0,1-.21.1,23.06,23.06,0,0,1-4.07,1.43,30.73,30.73,0,0,1,4.16,1.28c7.42,2.76,22.73,10.93,27.87,32.07.62,2.6,20-6.62,20.46-23.92.09-3.72-14-10.67-14-10.67s14.63-4.82,14.42-9.2-6.51-19-23.08-26.44C385.88,71.41,380.79,94.74,366.47,105Z" style="fill: rgb(235, 235, 235); transform-origin: 384.276px 107.532px;" id="elmd5k7t0bkvp" class="animable"></path><path d="M379.33,107.58a137.13,137.13,0,0,0-17.44.1,23.06,23.06,0,0,1-4.07,1.43,30.73,30.73,0,0,1,4.16,1.28c7.86.43,15.33,2.37,22.09,7.78a.14.14,0,0,0,.2-.2c-5.89-5.32-13.18-7.91-20.82-8.78,5.27-.6,10.56-1.08,15.88-1.32A.15.15,0,0,0,379.33,107.58Z" style="fill: rgb(255, 255, 255); transform-origin: 371.066px 112.781px;" id="elfy0a76ahid5" class="animable"></path><path d="M381.87,96.91a48.81,48.81,0,0,1-15.4,8.11,25.39,25.39,0,0,1-4.37,2.56,54.26,54.26,0,0,0,20-10.33C382.29,97.1,382.07,96.75,381.87,96.91Z" style="fill: rgb(255, 255, 255); transform-origin: 372.136px 102.225px;" id="el8ps815s97m6" class="animable"></path><path d="M187.34,382.7a14,14,0,0,1,.11,2.75.57.57,0,0,1,0,.12,11.53,11.53,0,0,1-.35,2.31,16.55,16.55,0,0,1,1.67-1.66A24.07,24.07,0,0,1,211.2,381c1.4.36,1.93-11.27-6.25-15.88-1.75-1-8.66,4-8.66,4s1.42-8.22-.73-9.24-10.73-1.71-18.52,4.33C176.19,364.87,186.06,373.24,187.34,382.7Z" style="fill: rgb(235, 235, 235); transform-origin: 194.504px 373.542px;" id="elpzwe80163w" class="animable"></path><path d="M191.83,377.2a74.07,74.07,0,0,0-4.39,8.37,11.53,11.53,0,0,1-.35,2.31,16.55,16.55,0,0,1,1.67-1.66,20.2,20.2,0,0,1,9.35-8.6c.08,0,0-.17-.05-.14a19.76,19.76,0,0,0-9.5,7.73c1.05-2.68,2.17-5.33,3.41-7.93A.08.08,0,0,0,191.83,377.2Z" style="fill: rgb(255, 255, 255); transform-origin: 192.617px 382.52px;" id="elh7zx9nbjy3o" class="animable"></path><path d="M187.37,373.27a26.42,26.42,0,0,1,0,9.43,14,14,0,0,1,.11,2.75,29.61,29.61,0,0,0,.14-12.19C187.57,373.12,187.34,373.13,187.37,373.27Z" style="fill: rgb(255, 255, 255); transform-origin: 187.777px 379.305px;" id="elhg6vskxuxx6" class="animable"></path><path d="M385.06,295.16a13.81,13.81,0,0,1-2.67-.63l-.12,0a11.91,11.91,0,0,1-2.13-1,16.21,16.21,0,0,1,1.15,2.06,24.06,24.06,0,0,1-1.06,23c-.72,1.25,10.34,4.89,17-1.73,1.42-1.43-1.5-9.41-1.5-9.41s7.55,3.58,9.1,1.78,4.54-9.88.83-19C405.24,289.23,394.52,296.48,385.06,295.16Z" style="fill: rgb(235, 235, 235); transform-origin: 393.791px 305.426px;" id="el6w8jwddatg9" class="animable"></path><path d="M389.15,301a74,74,0,0,0-6.88-6.49,11.91,11.91,0,0,1-2.13-1,16.21,16.21,0,0,1,1.15,2.06,20,20,0,0,1,5.76,11.31c0,.09.15.09.15,0a19.75,19.75,0,0,0-4.88-11.23c2.29,1.73,4.54,3.52,6.72,5.42C389.12,301.16,389.22,301,389.15,301Z" style="fill: rgb(255, 255, 255); transform-origin: 384.657px 300.229px;" id="elrn3jgyekuai" class="animable"></path><path d="M394.14,297.74a26.64,26.64,0,0,1-9.08-2.58,13.81,13.81,0,0,1-2.67-.63,29.41,29.41,0,0,0,11.7,3.42C394.23,298,394.28,297.75,394.14,297.74Z" style="fill: rgb(255, 255, 255); transform-origin: 388.307px 296.243px;" id="el2rgn604wddn" class="animable"></path><path d="M292.11,105.06a14,14,0,0,1,2.51,1.1l.11.06a12.42,12.42,0,0,1,1.92,1.33,16.28,16.28,0,0,1-.76-2.23,24.08,24.08,0,0,1,5.19-22.44c.94-1.09-9.29-6.67-17-1.35-1.66,1.15-.23,9.53-.23,9.53s-6.77-4.88-8.63-3.4S269,96.56,271,106.21C271.19,107.25,283,102.06,292.11,105.06Z" style="fill: rgb(235, 235, 235); transform-origin: 285.813px 93.4081px;" id="elmushe0etgma" class="animable"></path><path d="M289.13,98.6a73.51,73.51,0,0,0,5.6,7.62,12.42,12.42,0,0,1,1.92,1.33,16.28,16.28,0,0,1-.76-2.23,20,20,0,0,1-3.62-12.17c0-.09-.14-.11-.15,0a19.71,19.71,0,0,0,2.77,11.93c-1.94-2.12-3.83-4.29-5.63-6.54C289.2,98.43,289.08,98.53,289.13,98.6Z" style="fill: rgb(255, 255, 255); transform-origin: 292.884px 100.312px;" id="ele9hpr2di2xj" class="animable"></path><path d="M283.64,100.89a26.49,26.49,0,0,1,8.47,4.17,14,14,0,0,1,2.51,1.1,29.52,29.52,0,0,0-10.89-5.47C283.59,100.65,283.51,100.85,283.64,100.89Z" style="fill: rgb(255, 255, 255); transform-origin: 289.097px 103.422px;" id="elyzqt95dewpj" class="animable"></path><path d="M102,301.43a13.15,13.15,0,0,1,1.88-2,.24.24,0,0,1,.09-.08,12.38,12.38,0,0,1,1.89-1.38,16.48,16.48,0,0,1-2.35,0A24.07,24.07,0,0,1,84,285.6c-.73-1.25-9.38,6.54-6.93,15.59.53,1.95,8.91,3.39,8.91,3.39s-6.85,4.76-6.07,7,6.32,8.85,16.08,10.16C97.07,321.89,96.11,309,102,301.43Z" style="fill: rgb(235, 235, 235); transform-origin: 91.2472px 303.605px;" id="elincryhsnuij" class="animable"></path><path d="M94.88,302.09a74.72,74.72,0,0,0,9-2.74,12.38,12.38,0,0,1,1.89-1.38,16.48,16.48,0,0,1-2.35,0,20.13,20.13,0,0,1-12.68-.62.07.07,0,1,0-.07.13,19.72,19.72,0,0,0,12.17,1.34c-2.65,1.13-5.32,2.19-8,3.14A.08.08,0,0,0,94.88,302.09Z" style="fill: rgb(255, 255, 255); transform-origin: 98.2006px 299.716px;" id="eljmbunkyfd8" class="animable"></path><path d="M95.21,308a26.7,26.7,0,0,1,6.74-6.6,13.15,13.15,0,0,1,1.88-2,29.45,29.45,0,0,0-8.78,8.45C95,308,95.13,308.14,95.21,308Z" style="fill: rgb(255, 255, 255); transform-origin: 99.4344px 303.729px;" id="elca7y2pxfmjc" class="animable"></path><path d="M141.45,407.32a8.69,8.69,0,0,1,.29-1.68s0-.05,0-.08a7.76,7.76,0,0,1,.52-1.36,10.25,10.25,0,0,1-1.24.8,14.93,14.93,0,0,1-14.29.23c-.81-.4-2.64,6.59,1.73,10.45.93.83,5.77-1.29,5.77-1.29s-1.93,4.82-.75,5.71,6.29,2.43,11.81-.22C145.91,419.59,141,413.23,141.45,407.32Z" style="fill: rgb(235, 235, 235); transform-origin: 135.498px 412.78px;" id="elkr6jfsf7kod" class="animable"></path><path d="M138,410.07a43.74,43.74,0,0,0,3.75-4.51,7.76,7.76,0,0,1,.52-1.36,10.25,10.25,0,0,1-1.24.8,12.46,12.46,0,0,1-6.79,4c-.05,0-.05.1,0,.09a12.25,12.25,0,0,0,6.77-3.45c-1,1.48-2,2.95-3.1,4.37C137.89,410.06,138,410.12,138,410.07Z" style="fill: rgb(255, 255, 255); transform-origin: 138.236px 407.144px;" id="elalw04oqbyu" class="animable"></path><path d="M140.21,413a16.29,16.29,0,0,1,1.24-5.72,8.69,8.69,0,0,1,.29-1.68,18.22,18.22,0,0,0-1.67,7.38C140.07,413.11,140.2,413.13,140.21,413Z" style="fill: rgb(255, 255, 255); transform-origin: 140.905px 409.344px;" id="elm9sy2p43shk" class="animable"></path><path d="M46.29,281.71a8.76,8.76,0,0,1,1.4,1l.06.05a7.66,7.66,0,0,1,1,1,10.17,10.17,0,0,1-.2-1.45,15,15,0,0,1,5.84-13.06c.71-.55-4.86-5.17-10.2-2.85-1.15.5-1.28,5.78-1.28,5.78s-3.54-3.79-4.85-3.1-4.87,4.67-4.8,10.79C33.28,280.55,41.12,278.79,46.29,281.71Z" style="fill: rgb(235, 235, 235); transform-origin: 43.8552px 274.756px;" id="elur0p69frgsc" class="animable"></path><path d="M45.25,277.42a45.08,45.08,0,0,0,2.5,5.31,7.66,7.66,0,0,1,1,1,10.17,10.17,0,0,1-.2-1.45,12.45,12.45,0,0,1-.75-7.85c0-.06-.07-.09-.09,0A12.26,12.26,0,0,0,48,282c-.93-1.52-1.83-3.07-2.65-4.66A0,0,0,1,0,45.25,277.42Z" style="fill: rgb(255, 255, 255); transform-origin: 47px 279.052px;" id="elchcnngto0hq" class="animable"></path><path d="M41.63,278.15a16.43,16.43,0,0,1,4.66,3.56,8.76,8.76,0,0,1,1.4,1,18.34,18.34,0,0,0-6-4.64C41.63,278,41.55,278.12,41.63,278.15Z" style="fill: rgb(255, 255, 255); transform-origin: 44.6432px 280.379px;" id="el354fgycj4py" class="animable"></path><path d="M97.75,166.89a8.78,8.78,0,0,1,.1-1.7.22.22,0,0,1,0-.08,7.12,7.12,0,0,1,.36-1.41,11.46,11.46,0,0,1-1.14.93,14.94,14.94,0,0,1-14.18,1.85c-.84-.3-1.86,6.85,2.91,10.19,1,.72,5.59-1.93,5.59-1.93s-1.37,5-.1,5.75,6.53,1.7,11.71-1.56C103.57,178.58,98,172.81,97.75,166.89Z" style="fill: rgb(235, 235, 235); transform-origin: 92.6092px 172.461px;" id="elb24ukc7o3qj" class="animable"></path><path d="M94.64,170a45.07,45.07,0,0,0,3.22-4.91,7.12,7.12,0,0,1,.36-1.41,11.46,11.46,0,0,1-1.14.93,12.46,12.46,0,0,1-6.29,4.75c-.05,0,0,.1,0,.09a12.3,12.3,0,0,0,6.34-4.21c-.81,1.59-1.66,3.17-2.59,4.7C94.53,170,94.61,170.07,94.64,170Z" style="fill: rgb(255, 255, 255); transform-origin: 94.4939px 166.855px;" id="elq0v7uoku2ea" class="animable"></path><path d="M97.17,172.71a16.47,16.47,0,0,1,.58-5.82,8.78,8.78,0,0,1,.1-1.7,18.32,18.32,0,0,0-.82,7.52A.07.07,0,0,0,97.17,172.71Z" style="fill: rgb(255, 255, 255); transform-origin: 97.3948px 168.985px;" id="el5n7ff3xmtkf" class="animable"></path><path d="M71.38,139.87a8.29,8.29,0,0,1,.74-1.53l0-.06a8.06,8.06,0,0,1,.87-1.17,10.2,10.2,0,0,1-1.4.42,14.94,14.94,0,0,1-13.8-3.75c-.66-.61-4.36,5.6-1.25,10.52.68,1.06,5.91.37,5.91.37s-3.19,4.09-2.31,5.27S65.55,154,71.58,153C72.24,152.91,69.3,145.43,71.38,139.87Z" style="fill: rgb(235, 235, 235); transform-origin: 64.1511px 143.473px;" id="elzlgomw5z4o" class="animable"></path><path d="M67.3,141.57a47.08,47.08,0,0,0,4.86-3.29,8.06,8.06,0,0,1,.87-1.17,10.2,10.2,0,0,1-1.4.42,12.47,12.47,0,0,1-7.64,2,0,0,0,0,0,0,.09,12.21,12.21,0,0,0,7.46-1.44c-1.36,1.16-2.75,2.28-4.19,3.34A.05.05,0,0,0,67.3,141.57Z" style="fill: rgb(255, 255, 255); transform-origin: 68.51px 139.34px;" id="elsrynikoh14c" class="animable"></path><path d="M68.59,145a16.36,16.36,0,0,1,2.79-5.16,8.29,8.29,0,0,1,.74-1.53A18.17,18.17,0,0,0,68.47,145C68.44,145.05,68.56,145.11,68.59,145Z" style="fill: rgb(255, 255, 255); transform-origin: 70.2926px 141.686px;" id="elce28wkegqwv" class="animable"></path><path d="M389.77,372.88a8.35,8.35,0,0,1,1-1.41l0-.06a7.64,7.64,0,0,1,1-1,10.93,10.93,0,0,1-1.45.21,15,15,0,0,1-13.09-5.75c-.56-.7-5.14,4.89-2.78,10.22.5,1.14,5.78,1.24,5.78,1.24s-3.76,3.57-3.06,4.87,4.7,4.83,10.82,4.72C388.7,385.89,386.89,378.06,389.77,372.88Z" style="fill: rgb(235, 235, 235); transform-origin: 382.775px 375.366px;" id="el9xjo7751b19" class="animable"></path><path d="M385.49,374a46.72,46.72,0,0,0,5.29-2.54,7.64,7.64,0,0,1,1-1,10.93,10.93,0,0,1-1.45.21,12.49,12.49,0,0,1-7.84.81c-.06,0-.08.07,0,.08a12.19,12.19,0,0,0,7.6-.32c-1.52.94-3.06,1.85-4.64,2.69A0,0,0,0,0,385.49,374Z" style="fill: rgb(255, 255, 255); transform-origin: 387.109px 372.23px;" id="el1pmbvx24ent" class="animable"></path><path d="M386.25,377.56a16.22,16.22,0,0,1,3.52-4.68,8.35,8.35,0,0,1,1-1.41,18.28,18.28,0,0,0-4.59,6C386.1,377.56,386.21,377.64,386.25,377.56Z" style="fill: rgb(255, 255, 255); transform-origin: 388.461px 374.531px;" id="el13o9gb2jdwog" class="animable"></path><path d="M352.37,300.31c13.3-10.39,27-21,36.7-35a71.58,71.58,0,0,0,11.1-53.86.44.44,0,0,1,.86-.16c6.84,32.23-7.46,59-31.54,79.71-27.11,23.37-61.88,42.41-63.46,82.45,0,.76-1.27.84-1.35.07C301.35,341.58,329.94,317.83,352.37,300.31Z" style="fill: rgb(219, 219, 219); transform-origin: 353.578px 292.519px;" id="elawnz0xlsuq" class="animable"></path><path d="M328.87,309.9c13.74-19.59,22.19-41.2,21.24-65.45,0-.41.7-.45.73,0,1.38,20.4-3,39.85-13.54,57.41-11.91,19.76-29.48,36.94-31.81,61a.32.32,0,0,1-.63-.05C305,342.14,317.57,326,328.87,309.9Z" style="fill: rgb(219, 219, 219); transform-origin: 327.974px 303.616px;" id="elhk36dtp0wqs" class="animable"></path><path d="M326.58,325.93c9.93-16.18,28-24.37,45.31-30,22-7.17,41.65-15.62,53.23-37.06.23-.43.93-.17.71.28-8.82,18.13-23.48,29.28-42.22,35.95-10.06,3.57-20.49,6.22-30.13,10.89-10.5,5.08-18.11,12.46-26.12,20.7C326.9,327.15,326.29,326.42,326.58,325.93Z" style="fill: rgb(219, 219, 219); transform-origin: 376.188px 292.743px;" id="el6sgj4tcj7mq" class="animable"></path><path d="M321.76,329.24s30.76,2.7,40.94-8.57S321.76,329.24,321.76,329.24Z" style="fill: rgb(219, 219, 219); transform-origin: 342.901px 323.365px;" id="el8oxtpynh5za" class="animable"></path><path d="M378.06,278.85s-10.5-29-2.22-41.77S378.06,278.85,378.06,278.85Z" style="fill: rgb(219, 219, 219); transform-origin: 376.429px 256.996px;" id="el2r6w0ik8qm4" class="animable"></path><path d="M107.06,106.65a24.65,24.65,0,0,1,4.54-2.26.58.58,0,0,1,.21-.08,22.26,22.26,0,0,1,4.16-1.16,30.33,30.33,0,0,1-4.06-1.56c-7.22-3.25-22-12.41-25.68-33.86-.45-2.63-20.43,5.28-22,22.51-.34,3.7,13.23,11.58,13.23,11.58s-14.92,3.83-15,8.22S67.68,129.4,83.72,138C85.46,138.89,92.09,116,107.06,106.65Z" style="fill: rgb(235, 235, 235); transform-origin: 89.2146px 102.63px;" id="elvnn07dcslvh" class="animable"></path><path d="M94.4,103.24a137.22,137.22,0,0,0,17.41,1.07,22.26,22.26,0,0,1,4.16-1.16,30.33,30.33,0,0,1-4.06-1.56c-7.82-1-15.14-3.39-21.53-9.24-.13-.11-.33.06-.21.19,5.52,5.71,12.62,8.77,20.19,10.15-5.3.25-10.61.38-15.93.26A.15.15,0,0,0,94.4,103.24Z" style="fill: rgb(255, 255, 255); transform-origin: 103.052px 98.3125px;" id="el6lv59leo4ko" class="animable"></path><path d="M91.16,113.71a48.94,48.94,0,0,1,15.9-7.06,24.65,24.65,0,0,1,4.54-2.26,54.19,54.19,0,0,0-20.63,9C90.76,113.5,90.94,113.87,91.16,113.71Z" style="fill: rgb(255, 255, 255); transform-origin: 101.238px 109.07px;" id="elgsysfv9918u" class="animable"></path><path d="M157.28,134.73a13.32,13.32,0,0,1,0,2.75.53.53,0,0,1,0,.12,12.1,12.1,0,0,1-.47,2.29,15.58,15.58,0,0,1,1.76-1.57,24.05,24.05,0,0,1,22.68-4c1.38.44,2.53-11.15-5.39-16.19-1.7-1.08-8.86,3.5-8.86,3.5s1.86-8.14-.23-9.26-10.63-2.29-18.73,3.32C147.11,116.33,156.51,125.21,157.28,134.73Z" style="fill: rgb(235, 235, 235); transform-origin: 165.107px 125.664px;" id="el3m0n3mqufd7" class="animable"></path><path d="M162.07,129.48a72.44,72.44,0,0,0-4.84,8.12,12.1,12.1,0,0,1-.47,2.29,15.58,15.58,0,0,1,1.76-1.57,20,20,0,0,1,9.79-8.08c.08,0,.05-.17,0-.14a19.73,19.73,0,0,0-9.9,7.2c1.19-2.61,2.45-5.2,3.83-7.74A.08.08,0,0,0,162.07,129.48Z" style="fill: rgb(255, 255, 255); transform-origin: 162.56px 134.658px;" id="eldvda5gcb60v" class="animable"></path><path d="M157.82,125.32a26.54,26.54,0,0,1-.54,9.41,13.32,13.32,0,0,1,0,2.75,29.5,29.5,0,0,0,.8-12.17C158,125.18,157.8,125.18,157.82,125.32Z" style="fill: rgb(255, 255, 255); transform-origin: 157.83px 131.347px;" id="elz92ej5qzqkh" class="animable"></path></g><g id="freepik--Character--inject-36" class="animable" style="transform-origin: 250.005px 241.91px;"><polygon points="14.38 206.27 485.63 65.8 321.26 418.02 14.38 206.27" style="fill: rgb(255, 196, 192); transform-origin: 250.005px 241.91px;" id="elzment64y0pb" class="animable"></polygon><path d="M241.76,274.43c-2.83-5.33-27.19-34.4-56.32-37.72S125,262,124,264.91s26.79,35.26,54.49,36,55.12-21.1,58.31-22.48S246.06,282.51,241.76,274.43Z" style="fill: rgb(255, 255, 255); transform-origin: 183.611px 268.685px;" id="elivdbyfe03g" class="animable"></path><path d="M154.57,293.47c-17.72-10-31.23-26.54-30.53-28.56.57-1.66,11.3-12,25.89-19.7C136,258.24,130.2,272.92,154.57,293.47Z" style="fill: rgb(235, 235, 235); transform-origin: 139.292px 269.34px;" id="elb4cp8xhv72s" class="animable"></path><path d="M236.84,278.45c-1.42.61-7.62,5.27-16.51,10.19,9-5.44,12.86-13.05,9.36-20.37S224.47,257.62,217.2,250c13.49,9.58,22.87,21.23,24.56,24.42C246.06,282.51,240,277.07,236.84,278.45Z" style="fill: rgb(255, 255, 255); transform-origin: 230.225px 269.32px;" id="elrekl3xmmuw" class="animable"></path><path d="M236.84,278.45c-1.42.61-7.62,5.27-16.51,10.19,9-5.44,12.86-13.05,9.36-20.37S224.47,257.62,217.2,250c13.49,9.58,22.87,21.23,24.56,24.42C246.06,282.51,240,277.07,236.84,278.45Z" style="fill: rgb(235, 235, 235); transform-origin: 230.225px 269.32px;" id="elg2hazbx135" class="animable"></path><path d="M240.7,273.6c-12.37-14-36.25-35.92-61.43-35.5s-45.74,22-55.26,28c-8.26,5.21-21.25,1.25-29-4,0,0,15,9.5,29.11-.52s28.21-27.41,56.38-26.83c35.5.73,61,38.87,61,38.87" style="fill: rgb(38, 50, 56); transform-origin: 168.255px 254.178px;" id="el5n9sg400xk3" class="animable"></path><path d="M96,255.35a36,36,0,0,0,9,4.1c.78.23,1.56.48,2.36.64a23.52,23.52,0,0,0,2.39.49c.8.1,1.59.28,2.4.35l2.43.17c.81,0,1.62,0,2.44,0,.4,0,.81,0,1.22,0l1.21-.11c.81-.07,1.63-.1,2.44-.21s1.61-.28,2.42-.41c.41-.06.82-.11,1.22-.19l1.2-.3,2.41-.57c1.6-.44,3.16-1,4.81-1.42-1.46.83-3,1.64-4.49,2.34l-2.37.91-1.2.43c-.41.13-.82.22-1.23.33-.83.21-1.66.42-2.49.61s-1.69.24-2.54.36l-1.28.16c-.42,0-.85,0-1.28,0-.86,0-1.72.06-2.58,0a30.76,30.76,0,0,1-10-2.18A23.77,23.77,0,0,1,96,255.35Z" style="fill: rgb(38, 50, 56); transform-origin: 114.975px 259.203px;" id="elewt03o0j3hl" class="animable"></path><path d="M98.35,248.54a40.32,40.32,0,0,0,9.84,5c.87.3,1.72.61,2.61.83a26.3,26.3,0,0,0,2.65.66c.89.16,1.77.41,2.67.52l2.71.34c.9.09,1.81.1,2.72.16.46,0,.91.06,1.36.06l1.37,0c.91,0,1.83,0,2.74-.08s1.82-.21,2.73-.29c.46,0,.92-.08,1.37-.14l1.36-.25,2.73-.48c1.81-.37,3.59-.89,5.44-1.25-1.69.78-3.42,1.55-5.18,2.2l-2.72.81-1.36.39c-.46.1-.93.17-1.39.26-.94.17-1.87.34-2.81.49s-1.89.15-2.84.23l-1.43.09c-.47,0-1,0-1.42,0-1,0-1.91,0-2.86-.12a36.24,36.24,0,0,1-11-2.89A27.36,27.36,0,0,1,98.35,248.54Z" style="fill: rgb(38, 50, 56); transform-origin: 119.5px 253.315px;" id="el97vniq52zhw" class="animable"></path><path d="M109.05,242.57a40.65,40.65,0,0,0,10.77,4.28c.93.21,1.86.46,2.81.59a24.73,24.73,0,0,0,2.83.41c1,.07,1.9.23,2.86.25l2.86,0c1,0,1.91-.11,2.86-.16.48,0,1-.05,1.43-.1l1.42-.23c1-.15,1.91-.24,2.85-.43s1.86-.46,2.81-.67c.46-.11.94-.2,1.4-.33l1.38-.45,2.78-.87c1.83-.65,3.62-1.43,5.49-2.08-1.66,1-3.35,2.07-5.11,3l-2.72,1.2-1.37.58c-.47.17-.94.31-1.42.46-.95.3-1.9.6-2.86.87s-2,.4-2.93.61l-1.48.26c-.49.07-1,.09-1.49.14-1,.07-2,.19-3,.21a36.5,36.5,0,0,1-11.84-1.79A28.29,28.29,0,0,1,109.05,242.57Z" style="fill: rgb(38, 50, 56); transform-origin: 131.325px 246.342px;" id="ellzcwht3klvc" class="animable"></path><path d="M101.71,245.06a36.65,36.65,0,0,0,9.52,4.73,36.26,36.26,0,0,0,5.09,1.32c.86.11,1.72.32,2.59.41l2.61.2c.87.06,1.75,0,2.62,0,.44,0,.88,0,1.31,0l1.31-.13c.87-.09,1.75-.13,2.62-.26s1.73-.33,2.6-.48c.44-.08.88-.14,1.31-.23l1.28-.36,2.59-.67c1.7-.52,3.37-1.17,5.12-1.68-1.55.91-3.14,1.81-4.78,2.6l-2.54,1-1.29.49c-.43.14-.88.24-1.32.36q-1.32.36-2.67.69c-.9.18-1.82.27-2.73.41l-1.37.18c-.46,0-.92,0-1.38,0-.93,0-1.85.07-2.78,0a31.21,31.21,0,0,1-10.74-2.47A25.13,25.13,0,0,1,101.71,245.06Z" style="fill: rgb(38, 50, 56); transform-origin: 121.995px 249.366px;" id="el2d95ku5f1rx" class="animable"></path><path d="M126.2,228.52a35.59,35.59,0,0,0,8,6.55,33.07,33.07,0,0,0,4.55,2.33c.8.3,1.57.67,2.38.94l2.44.73c.82.24,1.66.37,2.49.56.42.08.83.18,1.25.25l1.28.14c.85.09,1.69.24,2.55.29s1.71,0,2.57.06c.43,0,.87,0,1.3,0l1.29-.08,2.6-.13c1.73-.16,3.45-.45,5.23-.59-1.67.57-3.36,1.12-5.08,1.56l-2.63.46-1.32.22c-.44.05-.89.05-1.34.08-.89.06-1.79.1-2.68.13s-1.8-.11-2.7-.16l-1.34-.11c-.45-.06-.89-.16-1.33-.24-.89-.19-1.79-.31-2.66-.55a29.84,29.84,0,0,1-9.72-4.63A24.3,24.3,0,0,1,126.2,228.52Z" style="fill: rgb(38, 50, 56); transform-origin: 145.165px 235.272px;" id="elxkj7mhn4kko" class="animable"></path><path d="M117.32,234.27a35.58,35.58,0,0,0,8.81,5.45,35,35,0,0,0,4.82,1.71c.83.19,1.64.45,2.48.61l2.52.41c.84.13,1.69.15,2.54.23.43,0,.85.07,1.28.08l1.28,0c.85,0,1.71,0,2.56,0s1.71-.19,2.57-.27c.42,0,.86-.07,1.28-.14l1.27-.25,2.56-.47c1.7-.38,3.37-.89,5.11-1.26-1.58.78-3.18,1.55-4.83,2.21l-2.54.8-1.29.39c-.43.11-.87.17-1.31.26-.88.17-1.76.33-2.65.48s-1.79.13-2.69.2l-1.35.06c-.45,0-.9,0-1.35-.06-.9-.07-1.8-.07-2.7-.2a29.54,29.54,0,0,1-10.24-3.32A24,24,0,0,1,117.32,234.27Z" style="fill: rgb(38, 50, 56); transform-origin: 136.86px 239.52px;" id="eli47f8wk2cao" class="animable"></path><path d="M132.07,275.74a15.62,15.62,0,0,0-3.16-.55,20.83,20.83,0,0,0-3.16,0,23.71,23.71,0,0,0-3.13.5c-1,.23-2.07.54-3.12.84.47-.28,1-.54,1.43-.8a14.27,14.27,0,0,1,1.53-.6,13.66,13.66,0,0,1,3.23-.68A10.82,10.82,0,0,1,132.07,275.74Z" style="fill: rgb(38, 50, 56); transform-origin: 125.785px 275.46px;" id="el9r66junfo8" class="animable"></path><path d="M156.57,294.91a15.89,15.89,0,0,0-3.16-.56,19.61,19.61,0,0,0-3.16,0,24.1,24.1,0,0,0-3.14.49c-1,.23-2.06.54-3.11.85.46-.29.94-.55,1.43-.8a13.54,13.54,0,0,1,1.53-.61,14.07,14.07,0,0,1,3.23-.68A10.85,10.85,0,0,1,156.57,294.91Z" style="fill: rgb(38, 50, 56); transform-origin: 150.285px 294.617px;" id="eloz1uuyhzee8" class="animable"></path><path d="M130.52,274.57a11.44,11.44,0,0,0-2.9-2,9.86,9.86,0,0,0-3.29-1c-.29,0-.58,0-.86,0a4.94,4.94,0,0,0-.86,0c-.29,0-.58,0-.86.07l-.86.15c-.58.09-1.12.3-1.7.44s-1.11.41-1.69.59c.5-.33,1-.64,1.55-.93a12.46,12.46,0,0,1,1.7-.66,9.21,9.21,0,0,1,3.66-.37A8.44,8.44,0,0,1,130.52,274.57Z" style="fill: rgb(38, 50, 56); transform-origin: 124.01px 272.692px;" id="elroxuw6foqn" class="animable"></path><path d="M219.5,298.2a11.66,11.66,0,0,0-2.9-2,9.89,9.89,0,0,0-3.3-.94,8.11,8.11,0,0,0-.86,0,4,4,0,0,0-.85,0c-.29,0-.58,0-.87.06l-.85.16c-.58.08-1.13.3-1.7.43s-1.11.42-1.69.59c.5-.32,1-.63,1.55-.93a12.46,12.46,0,0,1,1.7-.66,9.54,9.54,0,0,1,3.65-.37A8.45,8.45,0,0,1,219.5,298.2Z" style="fill: rgb(38, 50, 56); transform-origin: 212.99px 296.35px;" id="elz81kuia9ar8" class="animable"></path><path d="M132.51,276.54a12.45,12.45,0,0,0-2.06.54,16.18,16.18,0,0,0-1.92.8,19.17,19.17,0,0,0-1.8,1.05c-.59.39-1.17.8-1.77,1.22a7.32,7.32,0,0,1,1.41-1.68,8.62,8.62,0,0,1,1.83-1.26A6.6,6.6,0,0,1,132.51,276.54Z" style="fill: rgb(38, 50, 56); transform-origin: 128.735px 278.29px;" id="eli8ndsj7058o" class="animable"></path><path d="M211.19,300.42a9.86,9.86,0,0,0-2-1.69,8.54,8.54,0,0,0-2.3-1.05,10,10,0,0,0-2.51-.38c-.43,0-.86,0-1.3,0s-.87.1-1.33.11c.41-.17.84-.32,1.27-.47a9.88,9.88,0,0,1,1.34-.24,7.49,7.49,0,0,1,2.74.24A6.33,6.33,0,0,1,211.19,300.42Z" style="fill: rgb(38, 50, 56); transform-origin: 206.47px 298.542px;" id="eld5le3gew7hw" class="animable"></path><path d="M161.13,301.89a14.88,14.88,0,0,0-.88-1.94,16,16,0,0,0-2.48-3.34c-.48-.52-1-1-1.5-1.54a7.84,7.84,0,0,1,1.9,1.1,8.65,8.65,0,0,1,1.55,1.59A6.56,6.56,0,0,1,161.13,301.89Z" style="fill: rgb(38, 50, 56); transform-origin: 158.7px 298.48px;" id="eliqb7q9wecdj" class="animable"></path><path d="M229.08,289.56a9.86,9.86,0,0,0-1.87-1.74,4.21,4.21,0,0,0-4.53-.43c-.39.16-.73.41-1.11.6s-.7.5-1.08.73c.26-.35.56-.67.85-1a8.83,8.83,0,0,1,1.06-.83,4.14,4.14,0,0,1,5.18.49A5.76,5.76,0,0,1,229.08,289.56Z" style="fill: rgb(38, 50, 56); transform-origin: 224.785px 287.881px;" id="elzhjknfd36rb" class="animable"></path><path d="M191.86,304.15a11,11,0,0,0-1.44-2.11,4.47,4.47,0,0,0-1.95-1.32,4.39,4.39,0,0,0-2.36,0c-.4.08-.79.25-1.2.37s-.78.36-1.2.51c.33-.29.68-.55,1-.84a8.4,8.4,0,0,1,1.2-.6,4,4,0,0,1,4.94,1.55A5.86,5.86,0,0,1,191.86,304.15Z" style="fill: rgb(38, 50, 56); transform-origin: 187.785px 301.997px;" id="elqmn5mnliq5" class="animable"></path><path d="M149,290.48a14.1,14.1,0,0,0-2.13-.17,15.87,15.87,0,0,0-2.07.13,18.09,18.09,0,0,0-2.05.4c-.69.16-1.37.37-2.08.56a7.85,7.85,0,0,1,1.89-1.12,8.38,8.38,0,0,1,2.14-.58A6.62,6.62,0,0,1,149,290.48Z" style="fill: rgb(38, 50, 56); transform-origin: 144.835px 290.509px;" id="elwsqd1hkyu9o" class="animable"></path><path d="M133.73,225a35.7,35.7,0,0,0,7.85,6.76,34.35,34.35,0,0,0,4.5,2.44c.79.32,1.55.71,2.35,1l2.42.79c.81.26,1.65.41,2.48.62.41.09.83.21,1.24.29l1.27.17c.85.11,1.69.28,2.55.35s1.71.07,2.57.13c.43,0,.86.07,1.29.07l1.29-.05,2.61-.07c1.73-.11,3.46-.36,5.24-.45-1.68.52-3.38,1-5.12,1.43l-2.64.39-1.32.19c-.45,0-.89,0-1.34,0-.9,0-1.79.05-2.69.06s-1.79-.15-2.69-.23l-1.34-.14c-.45-.07-.88-.19-1.33-.28-.87-.21-1.77-.35-2.63-.61a29.64,29.64,0,0,1-9.6-4.88A24.15,24.15,0,0,1,133.73,225Z" style="fill: rgb(38, 50, 56); transform-origin: 152.56px 232.06px;" id="ellklcxfj5ic" class="animable"></path><path d="M149.4,223.37a35.78,35.78,0,0,0,7.86,6.76,36.16,36.16,0,0,0,4.49,2.44c.8.31,1.56.7,2.36,1l2.42.8c.81.26,1.65.41,2.48.62.41.09.82.21,1.24.28l1.27.17c.85.12,1.69.28,2.54.35s1.72.08,2.58.14c.43,0,.86.06,1.29.06l1.29,0,2.61-.06c1.73-.11,3.46-.36,5.24-.46-1.68.53-3.38,1-5.12,1.43l-2.64.4-1.32.18c-.45,0-.9,0-1.34.06-.9,0-1.8.05-2.69.05s-1.79-.15-2.69-.22l-1.34-.14c-.45-.08-.89-.19-1.33-.28-.87-.21-1.77-.35-2.63-.62a29.62,29.62,0,0,1-9.6-4.87A24.28,24.28,0,0,1,149.4,223.37Z" style="fill: rgb(38, 50, 56); transform-origin: 168.235px 230.48px;" id="elxdgw575t9fk" class="animable"></path><path d="M204.55,229.12a46.62,46.62,0,0,0,3.47,7.51,60,60,0,0,0,4.52,6.81c.86,1.06,1.67,2.16,2.62,3.15.45.51.89,1,1.36,1.54s1,1,1.43,1.47l.71.75.75.71,1.5,1.44c1,1,2.07,1.84,3.07,2.85-1.25-.64-2.48-1.32-3.68-2.08a37.84,37.84,0,0,1-3.41-2.51,39.34,39.34,0,0,1-5.93-6.1,36.18,36.18,0,0,1-4.34-7.34A23.43,23.43,0,0,1,204.55,229.12Z" style="fill: rgb(38, 50, 56); transform-origin: 214.265px 242.235px;" id="el4yxmmdbh2ka" class="animable"></path><path d="M192,223.56a47,47,0,0,0,4.4,7,59.3,59.3,0,0,0,5.35,6.17c1,.94,1.93,1.93,3,2.79.52.45,1,.92,1.55,1.36s1.08.84,1.61,1.28l.8.65.84.6,1.66,1.24c1.12.82,2.29,1.56,3.41,2.43-1.32-.47-2.63-1-3.91-1.58a40.61,40.61,0,0,1-3.7-2.07,39.41,39.41,0,0,1-6.67-5.28,36.6,36.6,0,0,1-5.23-6.73A23.33,23.33,0,0,1,192,223.56Z" style="fill: rgb(38, 50, 56); transform-origin: 203.31px 235.32px;" id="elhtvll7etwe" class="animable"></path><path d="M180.43,217.93a31.09,31.09,0,0,0,3.22,7.38,32.28,32.28,0,0,0,4.8,6.27c.45.48,1,.91,1.42,1.37.25.22.48.46.73.67l.78.62c.52.41,1,.85,1.55,1.24s1.1.74,1.65,1.13c.27.19.54.39.82.57l.87.5,1.73,1c1.18.67,2.41,1.24,3.61,1.95a40.79,40.79,0,0,1-4-1l-1.93-.77-1-.41c-.31-.15-.61-.33-.92-.49a27.38,27.38,0,0,1-6.76-5,25,25,0,0,1-4.76-6.95A18.76,18.76,0,0,1,180.43,217.93Z" style="fill: rgb(38, 50, 56); transform-origin: 191.02px 229.28px;" id="elkdw3idt0gf" class="animable"></path><path d="M158.34,218.83a36.43,36.43,0,0,0,10.77,11c.73.43,1.42.94,2.16,1.35l2.28,1.16c.76.38,1.57.66,2.35,1,.39.16.78.34,1.18.48l1.23.37c.82.24,1.63.53,2.46.74s1.68.34,2.52.53c.42.08.84.2,1.26.26l1.29.16,2.58.34c1.73.15,3.48.18,5.25.36-1.74.26-3.5.5-5.27.62l-2.67,0-1.34,0c-.45,0-.89-.11-1.33-.16q-1.34-.17-2.67-.36c-.88-.17-1.74-.43-2.62-.64l-1.3-.35c-.43-.14-.85-.32-1.27-.48-.83-.34-1.7-.62-2.51-1a29.77,29.77,0,0,1-8.73-6.31A24.28,24.28,0,0,1,158.34,218.83Z" style="fill: rgb(38, 50, 56); transform-origin: 176.005px 228.015px;" id="el6r6sndsmcm2" class="animable"></path><g id="ely4ivflb4zt"><circle cx="183.71" cy="267.78" r="28.33" style="fill: rgb(165, 42, 42); transform-origin: 183.71px 267.78px; transform: rotate(-23.79deg);" class="animable"></circle></g><g id="elcnga9on2m6w"><g style="opacity: 0.1; transform-origin: 183.725px 267.78px;" class="animable"><path d="M209.72,268.32c0,.54-17.33-.08-17.39.45s17,3.79,16.85,4.31-17-3.26-17.17-2.75,16,6.86,15.76,7.35-16.12-6.35-16.37-5.88,14.43,9.69,14.14,10.14-14.68-9.22-15-8.8,12.41,12.17,12,12.56S189.82,274,189.42,274.31s10,14.23,9.54,14.55S188.58,275,188.12,275.25s7.2,15.82,6.71,16.05-7.65-15.55-8.15-15.37,4.15,16.88,3.63,17-4.64-16.7-5.17-16.61,1,17.35.43,17.39-1.5-17.27-2-17.28-2.22,17.24-2.74,17.18,1.66-17.25,1.14-17.36-5.34,16.54-5.85,16.38,4.83-16.64,4.33-16.85-8.31,15.27-8.78,15,7.82-15.47,7.37-15.76-11,13.48-11.4,13.15,10.53-13.78,10.14-14.14-13.26,11.24-13.61,10.83,12.87-11.61,12.55-12-15.09,8.63-15.36,8.17,14.78-9.06,14.55-9.54-16.42,5.7-16.61,5.2,16.2-6.18,16.06-6.7-17.19,2.57-17.28,2,17.06-3.07,17-3.61-17.37-.63-17.35-1.17,17.33.08,17.39-.45-17-3.79-16.86-4.31,17,3.26,17.18,2.75-16-6.86-15.77-7.35,16.13,6.35,16.38,5.88-14.43-9.69-14.14-10.14,14.68,9.21,15,8.8-12.41-12.18-12-12.56S177.61,261.6,178,261.25,168,247,168.47,246.7s10.38,13.88,10.84,13.61-7.2-15.82-6.71-16.05,7.65,15.55,8.15,15.37-4.15-16.88-3.63-17,4.64,16.7,5.17,16.61-1-17.35-.43-17.39,1.49,17.27,2,17.28,2.22-17.24,2.75-17.18-1.67,17.25-1.15,17.36,5.35-16.54,5.86-16.38-4.83,16.64-4.34,16.84,8.32-15.26,8.79-15-7.82,15.47-7.38,15.76,11-13.48,11.4-13.15-10.52,13.77-10.13,14.14,13.25-11.24,13.61-10.84-12.87,11.62-12.56,12,15.1-8.62,15.37-8.16-14.78,9.06-14.55,9.54,16.42-5.7,16.6-5.2-16.19,6.17-16.06,6.69,17.19-2.56,17.28-2-17.06,3.07-17,3.61S209.73,267.78,209.72,268.32Z" id="elgdszwrs0fff" class="animable" style="transform-origin: 183.725px 267.78px;"></path></g></g><g id="el60adre8s3mr"><g style="opacity: 0.1; transform-origin: 183.72px 267.795px;" class="animable"><path d="M205.61,274.52c-.14.45-15-4.4-15.21-4S204.22,278,204,278.42s-14-7.08-14.23-6.7S202,281.62,201.7,282s-12.42-9.55-12.74-9.22,10.17,12,9.82,12.29S188.33,273.37,188,273.64s7.8,13.64,7.4,13.88-8.13-13.4-8.55-13.2,5.17,14.84,4.73,15-5.54-14.66-6-14.54,2.36,15.53,1.91,15.61S184.69,275,184.22,275s-.53,15.7-1,15.69.14-15.67-.32-15.72-3.43,15.33-3.89,15.24,3-15.38,2.58-15.52S175.41,289.14,175,289s5.76-14.58,5.35-14.79-8.72,13.07-9.1,12.82,8.35-13.25,8-13.54-11,11.23-11.32,10.91,10.66-11.48,10.36-11.83-12.87,9-13.14,8.65,12.59-9.33,12.35-9.73S163.19,278,163,277.55s14.08-6.87,13.92-7.31-15.25,3.79-15.36,3.34,15.1-4.17,15-4.63-15.68.92-15.72.46,15.62-1.32,15.63-1.78-15.59-2-15.53-2.46,15.58,1.59,15.68,1.14-14.95-4.82-14.82-5.27,15,4.4,15.22,4-13.82-7.47-13.61-7.88,14,7.09,14.23,6.7-12.21-9.89-11.92-10.25,12.42,9.55,12.74,9.21-10.17-12-9.82-12.28,10.45,11.68,10.82,11.41-7.79-13.64-7.4-13.88,8.14,13.39,8.56,13.2-5.17-14.84-4.74-15,5.55,14.66,6,14.54-2.37-15.54-1.91-15.61,2.76,15.42,3.22,15.39.54-15.7,1-15.69-.15,15.67.32,15.72,3.43-15.33,3.88-15.24-3,15.38-2.57,15.52,6.17-14.45,6.6-14.28-5.76,14.57-5.36,14.79,8.72-13.07,9.11-12.82-8.36,13.25-8,13.54,11-11.24,11.32-10.92S188.85,262.67,189.16,263s12.86-9,13.14-8.65-12.59,9.33-12.36,9.73,14.3-6.51,14.5-6.09-14.08,6.87-13.92,7.31,15.24-3.79,15.36-3.34-15.1,4.17-15,4.63,15.69-.92,15.72-.46S191,267.46,191,267.93s15.58,2,15.53,2.46-15.59-1.6-15.68-1.14S205.75,274.07,205.61,274.52Z" id="el0fqa9koo791v" class="animable" style="transform-origin: 183.72px 267.795px;"></path></g></g><g id="elk743km73af"><g style="opacity: 0.1; transform-origin: 183.905px 267.96px;" class="animable"><polygon points="202.03 268.12 201.56 269.19 204.05 270.64 201.16 271.32 198.66 271.77 201.58 273.73 199.75 274.22 200.8 275.88 200.63 277.1 201.34 278.93 198.08 278.14 195.52 277.42 198.06 281.03 198.18 282.87 195.25 281.37 192.92 280.07 194.91 284.77 191.63 281.54 192.46 285.36 189.79 282.13 189.2 283.28 189.26 287.09 187.11 283.04 186.85 287.38 185.31 284.01 184.39 285.92 183.24 288.64 182.15 286.43 180.71 288.51 180.22 284.56 179.28 284.08 178.56 282.99 177.45 283.16 175.71 284.49 175.89 281.84 175.47 280.68 173.11 282.38 173.54 280.12 169.65 282.91 172.64 278.31 171.92 277.72 168.15 279.38 166.73 278.92 168.67 276.38 169.81 274.65 166.82 274.9 169.25 272.86 167.62 272.38 166.77 271.53 163.76 270.96 167.84 269.33 164.97 268.48 166.81 267.39 164.79 266.2 166.16 265.24 164.13 263.74 168.66 263.7 168.28 262.59 165.51 260.41 170.33 261.4 168.02 259.1 171.02 259.73 167.6 256.14 169.02 255.76 169.59 254.73 171.2 254.74 171.97 253.97 174.25 255.18 172.93 251.47 175.9 254.26 176.23 252.81 177.38 252.94 176.91 248.75 178.22 248.89 179.87 250.83 181.07 251.73 181.72 248.34 182.86 247.28 184.06 248.95 185.12 249.94 185.89 252.18 187.55 248.78 188.48 249.83 189.12 251.45 191.43 248.49 191.72 250.8 192.1 252.46 193.49 252.23 192.74 255.16 193.58 255.61 195.53 254.9 195.24 256.64 197.36 256.1 199.83 255.61 198.81 257.75 197.32 259.87 202.16 258.52 198.91 261.25 203.14 260.81 200.25 262.94 203.66 263.25 200.6 264.99 203.76 265.72 200.48 267.07 202.03 268.12" id="el5vj04iq20oe" class="animable" style="transform-origin: 183.905px 267.96px;"></polygon></g></g><g id="eljvu7zvjuovi"><g style="opacity: 0.1; transform-origin: 183.905px 267.96px;" class="animable"><polygon points="169.74 268.08 170.11 268.92 168.16 270.06 170.42 270.59 172.38 270.94 170.1 272.47 171.53 272.85 170.7 274.15 170.84 275.1 170.28 276.54 172.83 275.91 174.83 275.36 172.85 278.17 172.75 279.61 175.04 278.44 176.86 277.43 175.31 281.1 177.87 278.57 177.22 281.56 179.31 279.04 179.77 279.93 179.72 282.91 181.4 279.75 181.6 283.14 182.81 280.5 183.53 281.99 184.43 284.12 185.28 282.39 186.4 284.02 186.78 280.93 187.52 280.56 188.08 279.71 188.95 279.84 190.31 280.88 190.17 278.81 190.49 277.9 192.34 279.23 192 277.46 195.04 279.64 192.71 276.05 193.27 275.59 196.22 276.89 197.33 276.52 195.81 274.54 194.92 273.18 197.25 273.39 195.35 271.79 196.63 271.41 197.29 270.75 199.65 270.31 196.46 269.03 198.7 268.37 197.26 267.51 198.84 266.59 197.77 265.83 199.36 264.66 195.82 264.63 196.11 263.76 198.28 262.06 194.51 262.83 196.32 261.04 193.97 261.53 196.65 258.72 195.54 258.42 195.09 257.62 193.84 257.63 193.23 257.03 191.45 257.97 192.48 255.07 190.16 257.26 189.91 256.12 189.01 256.22 189.37 252.95 188.35 253.06 187.06 254.58 186.12 255.28 185.61 252.63 184.72 251.8 183.79 253.1 182.96 253.88 182.35 255.63 181.06 252.98 180.33 253.79 179.83 255.06 178.03 252.75 177.8 254.55 177.5 255.84 176.42 255.67 177 257.95 176.35 258.31 174.82 257.75 175.05 259.12 173.39 258.7 171.46 258.31 172.26 259.98 173.42 261.64 169.64 260.58 172.18 262.72 168.88 262.37 171.14 264.04 168.47 264.28 170.86 265.64 168.39 266.21 170.96 267.26 169.74 268.08" id="eltmgfrfp0nb" class="animable" style="transform-origin: 183.905px 267.96px;"></polygon></g></g><path d="M195,268a11.27,11.27,0,1,1-11-11.5A11.27,11.27,0,0,1,195,268Z" style="fill: rgb(38, 50, 56); transform-origin: 183.732px 267.767px;" id="el61m06hezcsv" class="animable"></path><path d="M205.35,254.48a11.27,11.27,0,1,1-11-11.5A11.27,11.27,0,0,1,205.35,254.48Z" style="fill: rgb(255, 255, 255); transform-origin: 194.082px 254.247px;" id="elhu95b0rvflb" class="animable"></path><path d="M236.84,278.45s-32.79,24.22-58.31,22.48S132.05,277.32,124,266.07c0,0,20.71,34.16,54.5,35.8C209.28,303.36,236.84,278.45,236.84,278.45Z" style="fill: rgb(38, 50, 56); transform-origin: 180.42px 284.002px;" id="elx1qqfh518t" class="animable"></path><path d="M240.52,207.57c5.1.37,7.74-27.16,5.85-28.64s-47.86-11.55-66.82-14.31-44.36,7.26-57.21,15.93-41.92,33.69-41.92,33.69,54.75-21.31,67.2-23.59C173.43,185.92,231.21,206.91,240.52,207.57Z" style="fill: rgb(38, 50, 56); transform-origin: 163.701px 189.197px;" id="el9cmb0jbf6xw" class="animable"></path><path d="M239.68,207.33c2.33-.46,3.8-2.17,4.86-4a30,30,0,0,0,2.47-6.1c.68-2.12,1.21-4.31,1.76-6.5s1-4.42,1.71-6.65a38.07,38.07,0,0,1-.17,6.92,37.35,37.35,0,0,1-1.39,6.82,20.91,20.91,0,0,1-3.08,6.38,9.4,9.4,0,0,1-2.68,2.46A5.33,5.33,0,0,1,239.68,207.33Z" style="fill: rgb(38, 50, 56); transform-origin: 245.122px 195.734px;" id="elzayq2hxv5d" class="animable"></path><path d="M243.33,207.22a13.48,13.48,0,0,0,2.81-2.44,20.87,20.87,0,0,0,2.05-2.94c.62-1,1.2-2.13,1.79-3.24a37.39,37.39,0,0,1,1.9-3.39,13.43,13.43,0,0,1-.44,3.95,14.39,14.39,0,0,1-1.53,3.71,10.37,10.37,0,0,1-2.73,3.07A6.19,6.19,0,0,1,243.33,207.22Z" style="fill: rgb(38, 50, 56); transform-origin: 247.61px 201.215px;" id="el3b408tllw33" class="animable"></path><path d="M77.78,218.93a66.27,66.27,0,0,1,8.83-4.14c1.52-.58,3-1.13,4.61-1.6a28.7,28.7,0,0,1,4.77-1.1c-1.52.59-3,1.23-4.51,1.83L87,215.72C84,216.88,80.92,218,77.78,218.93Z" style="fill: rgb(38, 50, 56); transform-origin: 86.885px 215.51px;" id="elew5elyrmwgd" class="animable"></path><path d="M243.88,174.79c.18,2.12.23,4.24.25,6.36s0,4.24-.12,6.36-.24,4.24-.48,6.35a42,42,0,0,1-1.08,6.29c.06-1.07.14-2.12.17-3.18s.11-2.11.14-3.16l.25-6.34c.11-2.11.2-4.23.35-6.34S243.65,176.91,243.88,174.79Z" style="fill: rgb(255, 196, 192); transform-origin: 243.293px 187.47px;" id="elj1onogxe9n" class="animable"></path><path d="M78.12,215.9c1.77-1.19,3.6-2.27,5.44-3.32s3.71-2,5.6-3,3.82-1.85,5.78-2.67a42.92,42.92,0,0,1,6-2.13c-1,.47-1.91.91-2.85,1.4s-1.9.94-2.83,1.43l-5.66,2.87c-1.89.94-3.78,1.89-5.7,2.79S80.08,215.07,78.12,215.9Z" style="fill: rgb(255, 196, 192); transform-origin: 89.53px 210.34px;" id="ellx3u19epjxo" class="animable"></path><path d="M241.11,189.81a53.64,53.64,0,0,1-.12,6.71c-.09,1.11-.21,2.23-.39,3.33a16.59,16.59,0,0,1-.79,3.27c.2-1.1.31-2.21.41-3.31l.27-3.33C240.68,194.26,240.84,192,241.11,189.81Z" style="fill: rgb(255, 196, 192); transform-origin: 240.487px 196.465px;" id="elemzb9kxy3w" class="animable"></path><path d="M337.52,198.55c-5,.89-10.52-26.22-8.79-27.88s36.67-17.06,55.34-21.36c25.56-5.87,41.48,40.2,41.48,40.2S411.47,172.82,398.83,173C379.24,173.38,346.71,196.93,337.52,198.55Z" style="fill: rgb(38, 50, 56); transform-origin: 376.978px 173.682px;" id="elc6u970drc0r" class="animable"></path><path d="M338.32,198.22a5.26,5.26,0,0,1-3.52-.33,9.06,9.06,0,0,1-2.92-2.17,20.61,20.61,0,0,1-3.73-6,39.62,39.62,0,0,1-3-13.51c.9,2.14,1.62,4.3,2.39,6.43s1.53,4.25,2.42,6.29a30.42,30.42,0,0,0,3.09,5.81C334.32,196.46,336,198,338.32,198.22Z" style="fill: rgb(38, 50, 56); transform-origin: 331.735px 187.296px;" id="elf3xkqyifk0e" class="animable"></path><path d="M334.69,198.49a6.16,6.16,0,0,1-4-.88,10.3,10.3,0,0,1-3-2.77,14.57,14.57,0,0,1-1.91-3.53,13.06,13.06,0,0,1-.84-3.88c.85,1,1.54,2.12,2.24,3.18s1.39,2.06,2.11,3a21.85,21.85,0,0,0,2.35,2.72A13.43,13.43,0,0,0,334.69,198.49Z" style="fill: rgb(38, 50, 56); transform-origin: 329.815px 192.983px;" id="elabb38qd8s3" class="animable"></path><path d="M425.52,191.05a61.21,61.21,0,0,1-6.39-4.33c-2-1.56-4-3.18-6-4.91a35.79,35.79,0,0,1,6.56,4.11A46.9,46.9,0,0,1,425.52,191.05Z" style="fill: rgb(38, 50, 56); transform-origin: 419.325px 186.43px;" id="el6rmnc0mvge8" class="animable"></path><path d="M323.88,263.61c3.25-13.69,14.62-37.72,33.95-45.86,23.1-9.74,35.65,14.61,35.65,14.61s-3,8.11-6.12,15.38-11.23,24.28-25,27.57-30.3-6.64-33.07-8.77S322.38,269.94,323.88,263.61Z" style="fill: rgb(255, 255, 255); transform-origin: 358.521px 245.711px;" id="elbnj0gxga3o" class="animable"></path><path d="M345.78,274.32a58,58,0,0,1-16.51-7.78c-2.77-2.12-6.89,3.4-5.39-2.93a84.38,84.38,0,0,1,12.63-27.49c-4.59,8.54-7.41,18-6.22,23.66S339.17,271.21,345.78,274.32Z" style="fill: rgb(235, 235, 235); transform-origin: 334.67px 255.22px;" id="el5j6z7zad1zu" class="animable"></path><path d="M393.48,232.36s-3,8.12-6.12,15.37c-.33.76-.7,1.62-1.15,2.57,2.25-6,3.18-14.18,2.42-17.94s-6.81-14.19-18.53-16.85C385.34,216.56,393.48,232.36,393.48,232.36Z" style="fill: rgb(235, 235, 235); transform-origin: 381.79px 232.905px;" id="elgdha279si0l" class="animable"></path><g id="ele6llsvzjxq4"><ellipse cx="353.19" cy="249.93" rx="25.15" ry="17.58" style="fill: rgb(165, 42, 42); transform-origin: 353.19px 249.93px; transform: rotate(-88.81deg);" class="animable"></ellipse></g><g id="el26dhscp945j"><g style="opacity: 0.1; transform-origin: 353.205px 249.96px;" class="animable"><path d="M369.33,250.26c0,.48-10.76,0-10.8.5S369,254,369,254.49s-10.55-2.8-10.65-2.35,9.88,6,9.75,6.44-10-5.55-10.13-5.13,8.9,8.53,8.72,8.93-9.06-8.1-9.27-7.73,7.64,10.74,7.41,11.08-7.85-10.35-8.1-10,6.11,12.58,5.84,12.86-6.37-12.26-6.66-12,4.38,14,4.08,14.22-4.66-13.77-5-13.6,2.48,15,2.16,15.08-2.79-14.8-3.12-14.72.5,15.41.17,15.44-.83-15.32-1.17-15.33-1.47,15.32-1.8,15.27,1.13-15.32.81-15.42-3.41,14.72-3.72,14.58,3.08-14.81,2.78-15-5.25,13.6-5.54,13.38,4.94-13.78,4.67-14-6.89,12-7.15,11.73,6.61-12.29,6.37-12.61-8.29,10-8.51,9.7,8.05-10.39,7.86-10.77-9.42,7.74-9.58,7.33,9.22-8.12,9.08-8.55S338.08,258.41,338,258s10.08-5.57,10-6-10.68,2.37-10.73,1.9,10.6-2.82,10.58-3.3-10.78-.46-10.77-.94,10.76,0,10.8-.5-10.51-3.27-10.44-3.73,10.55,2.8,10.65,2.35-9.88-6-9.75-6.44,10,5.55,10.13,5.13-8.9-8.53-8.72-8.92,9.06,8.09,9.27,7.72-7.63-10.74-7.4-11.08,7.84,10.35,8.1,10-6.12-12.58-5.85-12.86,6.37,12.26,6.66,12-4.38-14-4.08-14.22,4.66,13.77,5,13.6-2.49-15-2.16-15.08,2.78,14.8,3.11,14.72-.5-15.41-.17-15.44.84,15.32,1.17,15.33,1.48-15.32,1.8-15.27-1.13,15.33-.81,15.42,3.41-14.72,3.73-14.58-3.09,14.81-2.79,15,5.25-13.6,5.54-13.38-4.94,13.78-4.66,14,6.89-12,7.14-11.73-6.6,12.29-6.37,12.61,8.3-10.05,8.51-9.7-8.05,10.39-7.86,10.77,9.42-7.74,9.59-7.33-9.23,8.12-9.09,8.55,10.23-5.16,10.34-4.71-10.09,5.57-10,6,10.69-2.37,10.74-1.9-10.61,2.82-10.59,3.3S369.34,249.78,369.33,250.26Z" id="elf1618ofm4g" class="animable" style="transform-origin: 353.205px 249.96px;"></path></g></g><g id="elmm9fs8fa9n"><g style="opacity: 0.1; transform-origin: 353.175px 249.86px;" class="animable"><path d="M366.75,255.79c-.09.4-9.31-3.82-9.42-3.45s8.53,6.56,8.4,6.92-8.64-6.21-8.79-5.87,7.52,8.72,7.34,9-7.66-8.41-7.86-8.11,6.25,10.58,6,10.85-6.42-10.31-6.66-10.06,4.77,12.06,4.52,12.27-5-11.84-5.24-11.66,3.13,13.14,2.86,13.28-3.37-13-3.65-12.87,1.39,13.78,1.1,13.85-1.62-13.68-1.91-13.65-.42,13.95-.71,13.94.18-13.91-.11-14-2.22,13.64-2.5,13.55,2-13.67,1.68-13.79-3.91,12.87-4.17,12.71,3.66-13,3.4-13.15-5.48,11.65-5.72,11.43,5.26-11.81,5-12.07-6.88,10-7.09,9.76,6.68-10.26,6.5-10.57-8,8.08-8.21,7.75,7.87-8.35,7.73-8.71-8.92,5.87-9,5.5,8.78-6.18,8.69-6.57-9.49,3.45-9.56,3,9.4-3.79,9.35-4.2-9.74.91-9.76.5,9.7-1.25,9.71-1.67-9.66-1.68-9.63-2.1,9.67,1.33,9.73.93-9.25-4.2-9.16-4.6,9.31,3.83,9.42,3.45-8.54-6.56-8.41-6.92,8.64,6.21,8.8,5.87-7.52-8.72-7.34-9,7.65,8.41,7.85,8.11-6.24-10.58-6-10.85,6.42,10.31,6.65,10.06-4.76-12.06-4.51-12.27,5,11.84,5.24,11.66-3.14-13.14-2.86-13.28,3.36,13,3.64,12.87-1.39-13.78-1.1-13.85,1.63,13.68,1.91,13.65.43-14,.72-13.94-.18,13.91.11,14S356,229.91,356.23,230s-2,13.67-1.68,13.79,3.91-12.87,4.18-12.71-3.66,13-3.41,13.15,5.48-11.65,5.72-11.43-5.26,11.81-5,12.07,6.88-10,7.08-9.76-6.68,10.26-6.49,10.57,8-8.08,8.2-7.75-7.87,8.35-7.72,8.71,8.91-5.87,9-5.49-8.78,6.18-8.68,6.56,9.48-3.45,9.55-3-9.39,3.79-9.35,4.2,9.74-.91,9.76-.5-9.7,1.26-9.71,1.67,9.66,1.68,9.63,2.1-9.67-1.33-9.73-.93S366.84,255.39,366.75,255.79Z" id="elqx1iyv5rhyi" class="animable" style="transform-origin: 353.175px 249.86px;"></path></g></g><g id="elvs2vbyvfti"><g style="opacity: 0.1; transform-origin: 353.19px 250.095px;" class="animable"><polygon points="364.4 250.23 364.11 251.17 365.65 252.44 363.86 253.04 362.31 253.43 364.12 255.14 362.99 255.57 363.64 257.03 363.53 258.09 363.97 259.7 361.96 259 360.37 258.38 361.94 261.53 362.02 263.14 360.21 261.83 358.77 260.69 360 264.8 357.96 261.98 358.48 265.32 356.83 262.5 356.46 263.5 356.5 266.83 355.17 263.29 355.01 267.09 354.06 264.14 353.49 265.81 352.78 268.19 352.11 266.26 351.22 268.07 350.91 264.62 350.33 264.2 349.89 263.25 349.2 263.4 348.12 264.56 348.23 262.24 347.98 261.23 346.51 262.71 346.78 260.74 344.38 263.17 346.23 259.15 345.78 258.63 343.45 260.09 342.57 259.68 343.77 257.47 344.48 255.94 342.63 256.17 344.13 254.39 343.12 253.96 342.6 253.22 340.73 252.72 343.26 251.29 341.49 250.55 342.62 249.59 341.37 248.56 342.22 247.72 340.97 246.4 343.77 246.37 343.53 245.4 341.81 243.49 344.8 244.35 343.37 242.34 345.22 242.89 343.11 239.75 343.99 239.42 344.34 238.52 345.33 238.52 345.81 237.85 347.22 238.91 346.4 235.66 348.24 238.11 348.44 236.84 349.15 236.95 348.87 233.28 349.68 233.41 350.7 235.11 351.44 235.89 351.84 232.93 352.54 232 353.29 233.46 353.94 234.32 354.42 236.28 355.44 233.32 356.02 234.23 356.42 235.65 357.85 233.06 358.02 235.08 358.26 236.53 359.12 236.33 358.66 238.89 359.17 239.29 360.38 238.66 360.2 240.19 361.51 239.72 363.04 239.28 362.41 241.16 361.49 243.02 364.48 241.83 362.47 244.23 365.08 243.84 363.3 245.71 365.41 245.97 363.52 247.5 365.47 248.13 363.44 249.31 364.4 250.23" id="el3wp7px2jbxo" class="animable" style="transform-origin: 353.19px 250.095px;"></polygon></g></g><g id="elocrw2olnpcd"><g style="opacity: 0.1; transform-origin: 353.195px 250.095px;" class="animable"><polygon points="344.43 250.2 344.66 250.94 343.46 251.93 344.85 252.39 346.06 252.7 344.65 254.04 345.54 254.38 345.03 255.51 345.11 256.34 344.77 257.6 346.34 257.05 347.58 256.57 346.35 259.03 346.29 260.29 347.71 259.26 348.83 258.38 347.87 261.59 349.46 259.38 349.06 261.99 350.35 259.79 350.63 260.57 350.6 263.18 351.64 260.41 351.77 263.38 352.51 261.07 352.96 262.37 353.51 264.23 354.04 262.72 354.74 264.14 354.97 261.45 355.43 261.12 355.77 260.37 356.31 260.49 357.15 261.4 357.07 259.59 357.27 258.79 358.41 259.95 358.2 258.41 360.08 260.32 358.63 257.18 358.99 256.77 360.81 257.91 361.49 257.59 360.56 255.86 360 254.67 361.45 254.84 360.27 253.45 361.06 253.12 361.47 252.54 362.93 252.15 360.95 251.03 362.34 250.45 361.45 249.7 362.43 248.89 361.77 248.24 362.75 247.21 360.56 247.19 360.74 246.42 362.08 244.93 359.75 245.61 360.87 244.04 359.42 244.47 361.07 242.01 360.39 241.75 360.11 241.05 359.33 241.05 358.96 240.53 357.86 241.35 358.5 238.82 357.06 240.73 356.9 239.74 356.35 239.82 356.57 236.96 355.94 237.06 355.14 238.38 354.56 239 354.25 236.68 353.7 235.96 353.12 237.1 352.61 237.77 352.23 239.3 351.43 236.98 350.98 237.7 350.67 238.8 349.56 236.78 349.42 238.36 349.23 239.49 348.56 239.34 348.92 241.34 348.52 241.65 347.57 241.16 347.72 242.36 346.69 241.99 345.5 241.65 345.99 243.11 346.71 244.56 344.37 243.64 345.94 245.51 343.9 245.21 345.3 246.67 343.65 246.87 345.12 248.07 343.6 248.56 345.19 249.49 344.43 250.2" id="elt1ya6x50t38" class="animable" style="transform-origin: 353.195px 250.095px;"></polygon></g></g><g id="elt0xfc5bpbyh"><ellipse cx="353.19" cy="249.93" rx="10.01" ry="6.99" style="fill: rgb(38, 50, 56); transform-origin: 353.19px 249.93px; transform: rotate(-88.81deg);" class="animable"></ellipse></g><g id="elwxw4u3ulzjn"><ellipse cx="360.01" cy="236.9" rx="10.01" ry="6.99" style="fill: rgb(255, 255, 255); transform-origin: 360.01px 236.9px; transform: rotate(-88.8542deg);" class="animable"></ellipse></g><path d="M323.84,262.84c5.77-10.72,18.37-42.83,38.6-46.57,13.86-2.56,27.19,13.1,33,16.84,5,3.26,11.93-.31,15.84-4.5,0,0-7.57,7.64-16.24,1.29s-18-18.75-33.49-16c-24.62,4.43-38.11,49-38.11,49" style="fill: rgb(38, 50, 56); transform-origin: 367.36px 238.204px;" id="elfwqyo450xpa" class="animable"></path><path d="M410.15,223.85a11.51,11.51,0,0,1-3.87,4.51,13.39,13.39,0,0,1-5.62,2.34c-.5.1-1,.1-1.53.16l-.77,0-.76-.05c-.51,0-1-.06-1.52-.14s-1-.21-1.48-.33a18.06,18.06,0,0,1-2.81-1,24.78,24.78,0,0,1-2.54-1.53c1,.15,1.91.41,2.85.6l1.4.22a9.16,9.16,0,0,0,1.38.19q.71,0,1.38.12c.46,0,.92,0,1.37,0h.68l.68-.08a12.21,12.21,0,0,0,1.34-.15,17.66,17.66,0,0,0,5.14-1.7A22.5,22.5,0,0,0,410.15,223.85Z" style="fill: rgb(38, 50, 56); transform-origin: 399.7px 227.355px;" id="elt1tjz1h4t2f" class="animable"></path><path d="M408.87,218.7a13.69,13.69,0,0,1-4.17,5.1,15.77,15.77,0,0,1-6.07,2.92,16.87,16.87,0,0,1-6.71.2l-.82-.13-.81-.22-1.58-.48a26.92,26.92,0,0,1-3-1.4c1.1.09,2.14.32,3.2.45l1.57.14.78.08h.78c.52,0,1,0,1.55,0s1-.09,1.54-.13l.76,0,.75-.14a11.06,11.06,0,0,0,1.5-.3l1.47-.38c.47-.18.94-.37,1.43-.53a24.27,24.27,0,0,0,2.76-1.35A25.9,25.9,0,0,0,408.87,218.7Z" style="fill: rgb(38, 50, 56); transform-origin: 397.29px 222.932px;" id="eltn9axdxyalc" class="animable"></path><path d="M403.16,215.34a13.5,13.5,0,0,1-5,4.81,16,16,0,0,1-6.75,2.13,17.91,17.91,0,0,1-7-.93,23.09,23.09,0,0,1-3.19-1.38c-1-.6-1.95-1.24-2.86-1.92,1.12.29,2.17.69,3.24,1l1.61.4a11.39,11.39,0,0,0,1.61.38c.54.08,1.07.17,1.6.28s1.08.09,1.62.14a8.58,8.58,0,0,0,1.6.07c.53,0,1.07,0,1.6-.05a20.13,20.13,0,0,0,6.21-1.53A23.22,23.22,0,0,0,403.16,215.34Z" style="fill: rgb(38, 50, 56); transform-origin: 390.76px 218.83px;" id="el5zu0qej347u" class="animable"></path><path d="M406.14,216.83a12.59,12.59,0,0,1-4.06,4.94,13.78,13.78,0,0,1-6,2.61,15,15,0,0,1-6.53-.38,7.73,7.73,0,0,1-1.54-.51l-1.48-.62a28.51,28.51,0,0,1-2.7-1.69c1.05.21,2,.52,3,.76l1.51.29a9.66,9.66,0,0,0,1.49.25c.5,0,1,.09,1.49.16s1,0,1.48,0l.73,0,.73-.07a11.49,11.49,0,0,0,1.45-.19l1.44-.28c.46-.15.92-.31,1.39-.45s.9-.37,1.36-.55.88-.45,1.33-.66A23.47,23.47,0,0,0,406.14,216.83Z" style="fill: rgb(38, 50, 56); transform-origin: 394.985px 220.703px;" id="elwgkkramfcj" class="animable"></path><path d="M391.21,206.41a14.13,14.13,0,0,1-2.72,5.72,14.33,14.33,0,0,1-5,4.13,13.58,13.58,0,0,1-6.32,1.5,15.47,15.47,0,0,1-3.19-.3,21.57,21.57,0,0,1-3-1c1.06-.06,2.08,0,3.1,0l1.51-.1a8,8,0,0,0,1.47-.18,17.28,17.28,0,0,0,5.54-1.72,19,19,0,0,0,4.74-3.38A31.42,31.42,0,0,0,391.21,206.41Z" style="fill: rgb(38, 50, 56); transform-origin: 381.095px 212.085px;" id="ellgk5jeiz1ls" class="animable"></path><path d="M396.61,210a13,13,0,0,1-3.44,5.25,13.36,13.36,0,0,1-5.58,3.22,8.52,8.52,0,0,1-1.59.36,7.29,7.29,0,0,1-1.61.18h-1.62c-.54-.06-1.07-.14-1.6-.22l-.78-.13-.77-.22-1.5-.49a26,26,0,0,1-2.78-1.43c1.05.11,2,.34,3,.48l1.49.15c.25,0,.49.05.73.09h.74c.49,0,1,0,1.46,0l1.44-.15a7.41,7.41,0,0,0,1.41-.23,8.5,8.5,0,0,0,1.39-.33,17,17,0,0,0,5.15-2.51A25.86,25.86,0,0,0,396.61,210Z" style="fill: rgb(38, 50, 56); transform-origin: 385.975px 214.505px;" id="elicaqknk00b" class="animable"></path><path d="M386.74,204.29a14.34,14.34,0,0,1-2.58,5.81,14.72,14.72,0,0,1-4.88,4.29,13.69,13.69,0,0,1-6.28,1.72,14.94,14.94,0,0,1-3.21-.19,21.83,21.83,0,0,1-3.05-.87c1.07-.1,2.09,0,3.1-.11a26.25,26.25,0,0,0,3-.38,17.41,17.41,0,0,0,5.49-1.92A19.55,19.55,0,0,0,383,209.1,31.79,31.79,0,0,0,386.74,204.29Z" style="fill: rgb(38, 50, 56); transform-origin: 376.74px 210.209px;" id="eldbd7k2o492s" class="animable"></path><path d="M380,203.58a14.3,14.3,0,0,1-2.58,5.8,14.75,14.75,0,0,1-4.88,4.3,13.68,13.68,0,0,1-6.28,1.71,14.94,14.94,0,0,1-3.21-.19,21.83,21.83,0,0,1-3.05-.87c1.07-.1,2.09,0,3.1-.11a24.18,24.18,0,0,0,3-.38,17.17,17.17,0,0,0,5.49-1.92,19.29,19.29,0,0,0,4.65-3.54A31.21,31.21,0,0,0,380,203.58Z" style="fill: rgb(38, 50, 56); transform-origin: 370px 209.494px;" id="elcopkahtnh86" class="animable"></path><path d="M373.37,201.33a15.42,15.42,0,0,1-1.75,6.25,16.56,16.56,0,0,1-4.11,5.18,10.18,10.18,0,0,1-1.35,1c-.48.29-.93.63-1.43.87a15.52,15.52,0,0,1-3.13,1.16,15,15,0,0,1-3.25.48,19.2,19.2,0,0,1-3.23-.23c1.05-.31,2.09-.43,3.08-.74a24.27,24.27,0,0,0,2.91-1,18.1,18.1,0,0,0,5.12-3.08,22.35,22.35,0,0,0,4.06-4.44A35.94,35.94,0,0,0,373.37,201.33Z" style="fill: rgb(38, 50, 56); transform-origin: 364.245px 208.801px;" id="el956sfsh02vm" class="animable"></path><path d="M389.2,244a3.47,3.47,0,0,1,1.29-1,4.44,4.44,0,0,1,1.57-.4,4.77,4.77,0,0,1,1.6.17c.27.07.51.18.76.27a7.76,7.76,0,0,1,.69.4c-.52-.11-1-.23-1.52-.29a7.53,7.53,0,0,0-1.5-.05A7,7,0,0,0,389.2,244Z" style="fill: rgb(38, 50, 56); transform-origin: 392.155px 243.295px;" id="eldwq2tggq9dk" class="animable"></path><path d="M380.61,261.27a2.67,2.67,0,0,1,.76-1.13,2.22,2.22,0,0,1,2.66-.29,5.58,5.58,0,0,1,.56.39c.15.17.31.33.45.5a10,10,0,0,0-1.17-.54,2.78,2.78,0,0,0-1.17-.15A3.56,3.56,0,0,0,380.61,261.27Z" style="fill: rgb(38, 50, 56); transform-origin: 382.825px 260.403px;" id="elltncy6tio2" class="animable"></path><path d="M389.86,243.15a4.29,4.29,0,0,1,.87-1.63,3.73,3.73,0,0,1,1.52-1.13,3.17,3.17,0,0,1,1.9-.15,4.63,4.63,0,0,1,.89.29,7.91,7.91,0,0,1,.79.48,7.91,7.91,0,0,0-1.74-.39,3.47,3.47,0,0,0-1.66.24A5.87,5.87,0,0,0,389.86,243.15Z" style="fill: rgb(38, 50, 56); transform-origin: 392.845px 241.654px;" id="elle8a567sw0k" class="animable"></path><path d="M369.29,273.16a4.92,4.92,0,0,1,3.28-2.6,5.42,5.42,0,0,1,2.16-.05,9.17,9.17,0,0,1,1,.27c.33.14.65.28,1,.44a13.61,13.61,0,0,0-2.05-.32,6.37,6.37,0,0,0-2,.15A6.54,6.54,0,0,0,369.29,273.16Z" style="fill: rgb(38, 50, 56); transform-origin: 373.01px 271.792px;" id="eludr3xvlgj8h" class="animable"></path><path d="M386.24,250.9a1.86,1.86,0,0,1,.8-.91,2.37,2.37,0,0,1,1.22-.3,3.06,3.06,0,0,1,1.2.28,5.45,5.45,0,0,1,.53.29c.15.12.32.24.46.37l-1.12-.3a5.71,5.71,0,0,0-1.08-.14A2.89,2.89,0,0,0,386.24,250.9Z" style="fill: rgb(38, 50, 56); transform-origin: 388.345px 250.295px;" id="elpxv7gc298eq" class="animable"></path><path d="M385.71,251.75a1.75,1.75,0,0,1,1.07-.56,2.28,2.28,0,0,1,1.24.14,3.16,3.16,0,0,1,1,.69l.39.46c.1.17.21.33.3.51l-.94-.68a5.54,5.54,0,0,0-1-.51A2.89,2.89,0,0,0,385.71,251.75Z" style="fill: rgb(38, 50, 56); transform-origin: 387.71px 252.075px;" id="elkzropxzyme" class="animable"></path><path d="M338.53,276.4a3.25,3.25,0,0,1,.77-1.39,3.91,3.91,0,0,1,1.32-.95,4.19,4.19,0,0,1,1.59-.33,7.16,7.16,0,0,1,.8,0c.26.06.52.12.77.2a12.77,12.77,0,0,0-1.54.14,6.24,6.24,0,0,0-1.42.4A5.59,5.59,0,0,0,338.53,276.4Z" style="fill: rgb(38, 50, 56); transform-origin: 341.155px 275.059px;" id="elme71ktak6qh" class="animable"></path><path d="M379,263.52a2.93,2.93,0,0,1,.84-1,4.16,4.16,0,0,1,1.14-.65,4.63,4.63,0,0,1,1.26-.3,4.27,4.27,0,0,1,1.29.07,20.49,20.49,0,0,0-2.37.69A9.27,9.27,0,0,0,379,263.52Z" style="fill: rgb(38, 50, 56); transform-origin: 381.265px 262.535px;" id="elda9j5pwwjh" class="animable"></path><path d="M336.06,274a3.37,3.37,0,0,1,.7-1.4,2.42,2.42,0,0,1,3-.67,6.45,6.45,0,0,1,.68.41c.19.18.39.35.56.54a9.43,9.43,0,0,0-1.37-.59,2.8,2.8,0,0,0-1.37-.08A4,4,0,0,0,336.06,274Z" style="fill: rgb(38, 50, 56); transform-origin: 338.53px 272.835px;" id="elji3zr68vcx" class="animable"></path><path d="M356,278.86a5,5,0,0,1,.4-2,3.12,3.12,0,0,1,1.41-1.61,2.87,2.87,0,0,1,2.15-.13,7.63,7.63,0,0,1,1,.41c.29.2.58.38.86.59-.34-.11-.64-.25-1-.37a8.55,8.55,0,0,0-1-.26,2.84,2.84,0,0,0-1.83.2,3.29,3.29,0,0,0-1.3,1.34A8.29,8.29,0,0,0,356,278.86Z" style="fill: rgb(38, 50, 56); transform-origin: 358.91px 276.915px;" id="elt4t039m21b" class="animable"></path><path d="M381.81,258.91a2.94,2.94,0,0,1,1-.81,4.56,4.56,0,0,1,1.24-.43,4.72,4.72,0,0,1,1.3,0,4.39,4.39,0,0,1,1.25.3,21.39,21.39,0,0,0-2.46.23A9.51,9.51,0,0,0,381.81,258.91Z" style="fill: rgb(38, 50, 56); transform-origin: 384.205px 258.268px;" id="el43fe622g0qx" class="animable"></path><path d="M328.47,266.14s19.32,13.19,33.87,9.17c16.22-4.48,26-28.27,31.14-42.95,0,0-10.38,40.15-31.49,44.06C342.8,280,328.47,266.14,328.47,266.14Z" style="fill: rgb(38, 50, 56); transform-origin: 360.975px 254.685px;" id="ellzp0pcpbhi" class="animable"></path><g id="el057jpr9b0s55"><g style="opacity: 0.2; transform-origin: 305.635px 254.505px;" class="animable"><path d="M326.53,141.15c-.74,2.37-1.3,4.78-1.86,7.2s-1.1,4.83-1.62,7.25q-1.53,7.28-2.85,14.58-2.73,14.59-4.83,29.28c-1.35,9.8-2.57,19.61-3.24,29.44s-1.05,19.72.12,29.39a50.57,50.57,0,0,0,1.35,7.1,29,29,0,0,0,1.14,3.37,20.76,20.76,0,0,0,1.64,3.12,63.87,63.87,0,0,0,9,11.59c6.9,7.11,15.36,12.71,24.32,17.31,2.24,1.15,4.53,2.23,6.84,3.28l3.48,1.59c.6.28,1.13.51,1.8.89a3.54,3.54,0,0,1,1.58,1.9,7.18,7.18,0,0,1-.08,4.17,21,21,0,0,1-1.42,3.61,42.88,42.88,0,0,1-4,6.46,75.4,75.4,0,0,1-10.32,11.11,62.36,62.36,0,0,1-12.43,8.73,68,68,0,0,0,11.91-9.26,73.53,73.53,0,0,0,9.7-11.34,45.59,45.59,0,0,0,3.68-6.36,18.76,18.76,0,0,0,1.2-3.36,5.54,5.54,0,0,0,0-3.15,1.69,1.69,0,0,0-.8-.92c-.44-.22-1.09-.5-1.65-.74l-3.52-1.49c-2.35-1-4.69-2.06-7-3.18a92.08,92.08,0,0,1-25.29-17.39,63.22,63.22,0,0,1-5.12-5.74,58.11,58.11,0,0,1-4.4-6.29,24.08,24.08,0,0,1-1.85-3.49,29.6,29.6,0,0,1-1.26-3.68,53.27,53.27,0,0,1-1.47-7.49,113,113,0,0,1-.71-15c.06-5,.31-10,.72-14.92.85-9.91,2.12-19.77,3.75-29.57s3.53-19.54,5.69-29.23q1.67-7.26,3.52-14.47C323.55,150.63,324.8,145.81,326.53,141.15Z" id="ell6qvjcmt9r9" class="animable" style="transform-origin: 336.11px 241.835px;"></path><path d="M298.8,312.73c-2.19,3.06-4.42,6-6.53,9-1,1.52-2.1,3-3,4.55A22.14,22.14,0,0,0,287,331a5,5,0,0,0-.33,2.11,4.38,4.38,0,0,0,.81,1.88,15.38,15.38,0,0,0,3.76,3.47,81.7,81.7,0,0,0,9.74,5.51,34.49,34.49,0,0,1-11-3.62,15.78,15.78,0,0,1-4.78-3.77,6.74,6.74,0,0,1-1.45-3.12,7.65,7.65,0,0,1,.4-3.31c1.4-3.87,3.79-6.85,6.27-9.71A54.34,54.34,0,0,1,298.8,312.73Z" id="elt0pljy4ocqj" class="animable" style="transform-origin: 292.346px 328.35px;"></path><path d="M304.75,339.9a.26.26,0,0,1-.22-.27.89.89,0,0,1,.14-.35,3.65,3.65,0,0,1,.47-.57,14.25,14.25,0,0,1,1.08-1c.76-.62,1.56-1.17,2.36-1.72a57.78,57.78,0,0,1,5-3,54.18,54.18,0,0,1,10.91-4.41,24.16,24.16,0,0,1,3-.59,11.28,11.28,0,0,1,3.18,0,5.14,5.14,0,0,1,1.67.56,2.76,2.76,0,0,1,1.32,1.5,3.21,3.21,0,0,1,0,1.84,6.34,6.34,0,0,1-.63,1.48,16.44,16.44,0,0,1-3.94,4.43,16.73,16.73,0,0,1-5,3,20.79,20.79,0,0,0,4.37-3.64,17.71,17.71,0,0,0,3.23-4.41,3,3,0,0,0,.35-2.1c-.17-.43-.81-.74-1.66-.83a14.82,14.82,0,0,0-5.35.65,51,51,0,0,0-5.42,1.75c-1.8.65-3.56,1.4-5.33,2.15s-3.5,1.57-5.21,2.43c-.87.42-1.71.87-2.54,1.35-.42.24-.82.49-1.21.76a3.91,3.91,0,0,0-.54.45C304.64,339.51,304.47,339.79,304.75,339.9Z" id="elj0bdnq9hr4" class="animable" style="transform-origin: 319.162px 334.339px;"></path><path d="M306.31,338c6.38-2.29,25.2-6.22,23.24-1.21,0,0,8.31-8.44-.23-7.94S306.31,338,306.31,338Z" id="eldkp066awkvp" class="animable" style="transform-origin: 319.743px 333.414px;"></path><path d="M317.92,346.34c-.34,1.9-.8,3.73-1.28,5.55-.21.91-.48,1.81-.67,2.7a18,18,0,0,0-.48,2.58,11.43,11.43,0,0,0,.35,2.49c.19.89.45,1.78.68,2.68.49,1.81,1,3.63,1.4,5.52a27.69,27.69,0,0,1-3.91-7.71,9.8,9.8,0,0,1-.51-3.09,12.68,12.68,0,0,1,.65-3c.31-.92.63-1.83,1-2.71A30.06,30.06,0,0,1,317.92,346.34Z" id="elbk0ng3ogwx9" class="animable" style="transform-origin: 315.71px 357.1px;"></path><path d="M327.14,349.77a12.94,12.94,0,0,1,2.21,3.78,10.93,10.93,0,0,1,.81,4.46,7.61,7.61,0,0,1-.18,1.23l-.31,1c-.23.68-.43,1.36-.7,2a23.2,23.2,0,0,1-1.83,3.92,23.59,23.59,0,0,1,.32-4.31c.09-.71.25-1.39.37-2.09l.23-1a6.08,6.08,0,0,0,.11-.87,19.33,19.33,0,0,0-.32-3.93C327.62,352.6,327.35,351.22,327.14,349.77Z" id="el0orz9cvhx4lq" class="animable" style="transform-origin: 328.651px 357.965px;"></path><path d="M247.6,210.34A39.7,39.7,0,0,1,261.23,221a70.41,70.41,0,0,1,9.52,14.57c.61,1.32,1.24,2.63,1.82,4l1.62,4,1.38,4.13c.42,1.39.77,2.8,1.15,4.2a58.58,58.58,0,0,1,1.76,17.22,82.23,82.23,0,0,0-3.27-16.81A99.74,99.74,0,0,0,269,236.43,85,85,0,0,0,260,222,48.29,48.29,0,0,0,247.6,210.34Z" id="ele9k8bts8lta" class="animable" style="transform-origin: 263.072px 239.73px;"></path></g></g><g id="el0llbn3lgz03"><g style="opacity: 0.1; transform-origin: 259.295px 255.113px;" class="animable"><path d="M236.27,282.3a18.24,18.24,0,0,0-1.61,1.89l-1.53,1.95q-1.55,2-3.16,3.86a69.69,69.69,0,0,1-7.08,7.09,59,59,0,0,1-17.13,10.46,61.81,61.81,0,0,1-9.69,2.84,63.55,63.55,0,0,1-10,1.06,67.42,67.42,0,0,1-19.76-2.67A90.52,90.52,0,0,0,186,309.9a73.29,73.29,0,0,0,9.7-1.37,62.09,62.09,0,0,0,9.34-2.84,65.29,65.29,0,0,0,16.87-9.8,89.23,89.23,0,0,0,7.36-6.55c1.18-1.16,2.33-2.34,3.47-3.54A35.45,35.45,0,0,1,236.27,282.3Z" id="elw2mo24g7ele" class="animable" style="transform-origin: 201.29px 296.878px;"></path><path d="M330.29,270.27a78.61,78.61,0,0,0,14,6.44,57.43,57.43,0,0,0,14.88,3.1,28.35,28.35,0,0,0,7.48-.42,30,30,0,0,0,7.13-2.41,40.94,40.94,0,0,0,12.19-9.2,31.91,31.91,0,0,1-5.13,5.89,32.89,32.89,0,0,1-6.39,4.61,27.4,27.4,0,0,1-15.39,3.49,47.7,47.7,0,0,1-15.34-3.53,53.53,53.53,0,0,1-7-3.48A43.7,43.7,0,0,1,330.29,270.27Z" id="elq32yr3y1fj" class="animable" style="transform-origin: 358.13px 274.808px;"></path><path d="M239.68,267c-3.44-7.64-7.08-15.11-11.22-22.29L226.9,242l-1.64-2.63c-.52-.9-1.11-1.75-1.68-2.62s-1.11-1.75-1.73-2.58c-2.34-3.43-4.93-6.66-7.58-9.92a59.12,59.12,0,0,1,8.83,9,83.09,83.09,0,0,1,7.09,10.45A100.69,100.69,0,0,1,235.75,255,76.07,76.07,0,0,1,239.68,267Z" id="el5hwmzbx23zu" class="animable" style="transform-origin: 226.975px 245.625px;"></path><path d="M122,254.17a228.94,228.94,0,0,1,18.61-23A84.33,84.33,0,0,1,151.56,221c.51-.37,1.07-.7,1.6-1a12.48,12.48,0,0,1,1.68-1,22.19,22.19,0,0,1,3.61-1.35,47.32,47.32,0,0,1,7.4-1.41,114.27,114.27,0,0,1,29.68,1.18c9.74,1.62,19.47,4.16,28.19,8.83a81.63,81.63,0,0,0-14-4.61A136,136,0,0,0,195.3,219c-4.85-.63-9.73-1.07-14.62-1.22a100.09,100.09,0,0,0-14.6.48,45.32,45.32,0,0,0-7.1,1.3,19.08,19.08,0,0,0-3.3,1.21,10.59,10.59,0,0,0-1.52.87c-.5.32-1,.6-1.5,1a90.58,90.58,0,0,0-10.93,9.67c-3.45,3.48-6.79,7.09-10.06,10.76S125.19,250.41,122,254.17Z" id="elkqvpqxdk1v" class="animable" style="transform-origin: 172.86px 234.971px;"></path><path d="M323.56,255.91a53.65,53.65,0,0,1,2.81-12.44,78.86,78.86,0,0,1,12-22.5c1.24-1.74,2.68-3.32,4.06-4.93s3-3.06,4.5-4.52c-1.2,1.76-2.54,3.39-3.73,5.13s-2.44,3.43-3.56,5.22l-1.71,2.64-1.62,2.69c-.56.88-1.07,1.8-1.58,2.72s-1.06,1.81-1.51,2.75l-1.47,2.78-1.37,2.82c-.9,1.89-1.75,3.81-2.56,5.74A115.2,115.2,0,0,0,323.56,255.91Z" id="elf1kq0d8o1n8" class="animable" style="transform-origin: 335.245px 233.715px;"></path><path d="M342,211.74a75.56,75.56,0,0,1,14.66-8.88,54.45,54.45,0,0,1,8.13-3,29.58,29.58,0,0,1,8.73-1.08,10.94,10.94,0,0,1,2.29.31,13.14,13.14,0,0,1,2.18.79,18.68,18.68,0,0,1,3.79,2.39,38.46,38.46,0,0,1,6,6.27,72.58,72.58,0,0,1,8.81,14.71c-1.54-2.4-3.09-4.78-4.79-7.06s-3.39-4.53-5.23-6.65a41.35,41.35,0,0,0-6-5.77c-2.18-1.65-4.58-3-7.2-3a28.06,28.06,0,0,0-8.16.91,60.3,60.3,0,0,0-8,2.58q-3.93,1.56-7.74,3.45C347,209,344.46,210.33,342,211.74Z" id="elqd8e68ohdgr" class="animable" style="transform-origin: 369.295px 211.01px;"></path></g></g><path d="M330.58,168.23c1,3.67,1.68,7.37,2.41,11.06l1.07,5.55c.37,1.84.71,3.69,1.17,5.53A31.07,31.07,0,0,1,333.3,185c-.51-1.83-.92-3.68-1.29-5.54A81.61,81.61,0,0,1,330.58,168.23Z" style="fill: rgb(255, 196, 192); transform-origin: 332.905px 179.3px;" id="elmnq6gjdofp" class="animable"></path><path d="M335.66,181.37c.55,1.94,1,3.89,1.47,5.84.23,1,.49,1.94.73,2.91a26.49,26.49,0,0,0,.9,2.87,12.21,12.21,0,0,1-1.26-2.75,30.17,30.17,0,0,1-.85-2.91c-.23-1-.45-2-.61-3S335.73,182.37,335.66,181.37Z" style="fill: rgb(255, 196, 192); transform-origin: 337.21px 187.18px;" id="eljz513pnkui" class="animable"></path><path d="M421.49,185.74c-1.25-1.59-2.41-3.22-3.61-4.83-.58-.81-1.19-1.61-1.79-2.41a26.39,26.39,0,0,0-1.93-2.3,13.15,13.15,0,0,1,2.23,2.05c.67.76,1.3,1.55,1.9,2.36s1.16,1.65,1.69,2.5A29.8,29.8,0,0,1,421.49,185.74Z" style="fill: rgb(255, 196, 192); transform-origin: 417.825px 180.97px;" id="el4hwnavfb1ne" class="animable"></path></g><g id="freepik--Plants--inject-36" class="animable animator-active" style="transform-origin: 249.992px 252.637px;"><path d="M295.18,126.72c16.86-.9,34.18-1.7,50.15-7.69a71.59,71.59,0,0,0,40-37.78c.22-.51,1-.15.8.37-12.86,30.33-39.9,44.05-71.53,47.26-35.6,3.62-75-.7-99.24,31.22-.46.6-1.53,0-1.15-.72C229.72,131.32,266.77,128.23,295.18,126.72Z" style="fill: rgb(69, 90, 100); transform-origin: 300.146px 120.675px;" id="elhsbgrbhnay7" class="animable"></path><path d="M270.43,121.12c22.49-8.19,41.79-21.06,54.9-41.48.22-.34.84,0,.62.39-10.55,17.51-25.25,31-44,39.3-21.09,9.37-45.33,13.38-61,31.76a.31.31,0,0,1-.48-.39C232.41,133.88,251.93,127.85,270.43,121.12Z" style="fill: rgb(69, 90, 100); transform-origin: 273.205px 115.344px;" id="el8njjgnv4p69" class="animable"></path><path d="M379.16,90.05c.18,1.22.31,2.48.42,3.79a48.62,48.62,0,0,1,3.64-3.61c5.42-4.9,16.4-13,29.27-12.46,7.12.3-3.36-15.84-13.37-19.43-2.71-1-9.77,7.9-9.77,7.9s-.19-11.53-3.06-12.32-13.55-3.22-20.86,1.56C361.1,58.32,375.86,66.11,379.16,90.05Z" style="fill: rgb(165, 42, 42); transform-origin: 389.735px 73.2195px;" id="elt5ve4y9ww9" class="animable"></path><path d="M314.22,59.56c-2.33,1.73,6.52,12.39,5.12,27.14-.06.84-.19,1.69-.33,2.56,0,0,.57-.39,1.56-1,0,0,0,0,0,0,4.34-2.71,16.73-9.88,26.3-9.36,4,.22-2.85-12.42-8.47-14.12-1.83-.56-9,5.88-9,5.88s2.7-8.45,1.45-9.85S318.61,56.33,314.22,59.56Z" style="fill: rgb(165, 42, 42); transform-origin: 330.947px 73.6979px;" id="elhskmuqe7zh5" class="animable"></path><path d="M259.37,133c17.41-7.57,36.9-3.94,54.32,1.36,22.17,6.74,43.09,11.06,64.87.12.43-.22.85.39.42.63-17.62,9.81-36,10.56-55.2,5.28-10.29-2.84-20.36-6.64-30.93-8.34-11.52-1.84-22-.15-33.28,2C258.93,134.13,258.85,133.18,259.37,133Z" style="fill: rgb(69, 90, 100); transform-origin: 319.094px 136.159px;" id="el2xz88cmxqwf" class="animable"></path><path d="M376.77,135a11.72,11.72,0,0,1-1.13,1.35,14.88,14.88,0,0,1,2-.17,42.56,42.56,0,0,1,18.06,3.69c2.16.91,4.4-6.95,2.48-11.88-.74-1.87-8.51-.92-8.51-.92s4.52-5,4-6.45-7.67-5.79-14-4.19C377.23,117,382.07,127.62,376.77,135Z" style="fill: rgb(165, 42, 42); transform-origin: 387.274px 128.012px;" id="el6l5kepusxi" class="animable"></path><path d="M376.77,135a11.72,11.72,0,0,1-1.13,1.35,14.88,14.88,0,0,1,2-.17c3.84-1.61,7.65-2.89,12-2.58.12,0,.14-.17,0-.19a19.44,19.44,0,0,0-9,.94,29.44,29.44,0,0,0,5.18-4c.07-.06,0-.15-.09-.11a72.47,72.47,0,0,1-6.92,4.3,25.94,25.94,0,0,0,6.09-8.82,0,0,0,1,0-.06,0A22.64,22.64,0,0,1,376.77,135Z" style="fill: rgb(255, 255, 255); transform-origin: 382.689px 131.035px;" id="el43bss7sa54w" class="animable"></path><path d="M379.15,71.45a45.69,45.69,0,0,1,0,18.6c.18,1.22.31,2.48.42,3.79a48.62,48.62,0,0,1,3.64-3.61,40.88,40.88,0,0,1,13.55-12.61c.22-.11.05-.39-.15-.32-6.1,2.2-10.95,6.68-14.63,12a56.2,56.2,0,0,0,4.15-16.61c0-.31-.4-.31-.46,0A65.52,65.52,0,0,1,381,88.29a43.06,43.06,0,0,0-1.51-16.91A.17.17,0,0,0,379.15,71.45Z" style="fill: rgb(255, 255, 255); transform-origin: 388.005px 82.5407px;" id="elfowy83fa1nw" class="animable"></path><path d="M323,73a30.8,30.8,0,0,1-3.64,13.69c-.06.84-.19,1.69-.33,2.56,0,0,.57-.39,1.56-1,0,0,0,0,0,0,.19-.23.36-.46.54-.69,4.13-4.26,8.85-8,14.23-9.22a.09.09,0,0,0,0-.17c-3.89.15-7.72,2.13-11.17,4.88a70.14,70.14,0,0,0,4.35-8.33s0-.08-.05,0a100.9,100.9,0,0,1-7.18,10.89A33.64,33.64,0,0,0,323.15,73C323.15,72.91,323,72.91,323,73Z" style="fill: rgb(255, 255, 255); transform-origin: 327.225px 81.0913px;" id="el88kmyrtdl67" class="animable"></path><path d="M253.52,132.9s23.67,19.83,38.47,16.43S253.52,132.9,253.52,132.9Z" style="fill: rgb(69, 90, 100); transform-origin: 274.054px 141.311px;" id="el9hf6olu0t0j" class="animable"></path><path d="M328.53,123.85s8-29.82,22.11-35.51S328.53,123.85,328.53,123.85Z" style="fill: rgb(69, 90, 100); transform-origin: 341.216px 105.825px;" id="elka6w4h2bsx" class="animable"></path><path d="M228.69,429c15.09-12.85,36.08-26.32,56.69-27.28-18.2-3.39-38.11-2.07-55.57.49-20.1,2.95-40.25,7.06-60.67,6.26s-39-7.82-57.65-15.76c-.19-.08,0-.37.15-.29,22.9,9.21,46.33,15,71.13,13.32,17.31-1.15,34.33-4.7,51.49-7.12-11.54.4-23,.33-34.13-3.41A70.24,70.24,0,0,1,159.27,359c-.21-.45.55-.83.79-.39C169.94,376.4,187,390,206.9,394.5c16.8,3.84,34.3,0,51.21,1.91,30.64-.69,64.29,8,77.1,38.78.23.54-.66,1-.92.46-8.41-16.73-22.13-26.25-38-31.25-24-3.62-46.79,12.61-67.17,25.24A.4.4,0,0,1,228.69,429Z" style="fill: rgb(69, 90, 100); transform-origin: 223.329px 397.153px;" id="el727vkp7myv4" class="animable"></path><path d="M162.08,366.05c1.06.48,2.15,1,3.27,1.65,0,0-.16-1-.25-2.8A59.89,59.89,0,0,1,171.83,335c2-3.83-15.8-5.89-21.65-1.8-3.56,2.46.64,10.37.35,10.67s-6.26-5.25-9.17-4.3-9.45,15-6.65,25.21C135,365.74,144.38,357.8,162.08,366.05Z" style="fill: rgb(165, 42, 42); transform-origin: 153.007px 349.33px;" id="elr2b4g9vsc6" class="animable"></path><path d="M122.17,399.84a21,21,0,0,1,4.27-.41h.19a19.51,19.51,0,0,1,3.64.35,26.48,26.48,0,0,1-2.73-2.46c-4.72-4.77-13.57-16.49-10-34.57.45-2.21-17.74-2.05-24.24,11.09-1.39,2.82,6.93,13.17,6.93,13.17s-12.95-1.51-14.35,1.93-1.76,16.9,8.31,28.54C95.3,418.74,107.52,402.64,122.17,399.84Z" style="fill: rgb(165, 42, 42); transform-origin: 107.712px 389.617px;" id="el3m3a54duyak" class="animable"></path><path d="M235.58,452.36c2.41-.77-7.59-7.67-5.55-22.77a5.22,5.22,0,0,1,.07-.57,1.23,1.23,0,0,1,.05-.25c.06-.4.12-.8.21-1.22a20.19,20.19,0,0,1-1.87.89c-3.42,1.4-11,3.61-17.37-.74-2.69-1.83-3.45,9.94,3.29,15.51,1.33,1.08,7-2.5,7-2.5s-1.13,5.67-.13,7.74S231.4,453.69,235.58,452.36Z" style="fill: rgb(165, 42, 42); transform-origin: 222.56px 440.092px;" id="el2t35iqnl3da" class="animable"></path><path d="M165.35,367.7s-.16-1-.25-2.8a33.94,33.94,0,0,1-2.47-19.26.08.08,0,1,0-.16,0,38,38,0,0,0,.27,18.39,53.7,53.7,0,0,1-6.48-10.8.15.15,0,0,0-.28.11,58,58,0,0,0,5.7,11.39,35.62,35.62,0,0,0-6.21-3.27c-.14-.07-.23.14-.09.21a38.21,38.21,0,0,1,6.7,4.41C163.14,366.53,164.23,367.09,165.35,367.7Z" style="fill: rgb(255, 255, 255); transform-origin: 160.33px 356.63px;" id="el9qphi1xrun" class="animable"></path><path d="M113.21,393.29a115.85,115.85,0,0,0,13.42,6.14,19.51,19.51,0,0,1,3.64.35,26.48,26.48,0,0,1-2.73-2.46c-5.89-3.14-10.93-7.29-14.2-13.85-.07-.13-.27-.06-.22.08,2.62,6.19,7.3,10.78,12.86,14.17-4.26-1.42-8.49-2.94-12.67-4.65A.12.12,0,0,0,113.21,393.29Z" style="fill: rgb(255, 255, 255); transform-origin: 121.691px 391.591px;" id="elrjqccxfvmjo" class="animable"></path><path d="M107.45,400.58a41.58,41.58,0,0,1,14.72-.74,21,21,0,0,1,4.27-.41,46,46,0,0,0-19,.82C107.2,400.29,107.24,400.64,107.45,400.58Z" style="fill: rgb(255, 255, 255); transform-origin: 116.858px 399.696px;" id="elob85kr41gnh" class="animable"></path><path d="M223.08,437.87a35.6,35.6,0,0,1,7.07-9.1c.06-.4.12-.8.21-1.22a20.19,20.19,0,0,1-1.87.89c-3.26,2.06-6.84,3.37-10.91,2.84a.07.07,0,0,0,0,.14c3.51.7,7.54-.28,11.16-2.15a23.65,23.65,0,0,0-5.75,8.55A.06.06,0,0,0,223.08,437.87Z" style="fill: rgb(255, 255, 255); transform-origin: 223.935px 432.714px;" id="elsveh90p5n1b" class="animable"></path><path d="M226.89,439.36a23.92,23.92,0,0,1,3.14-9.77,5.22,5.22,0,0,1,.07-.57,15.85,15.85,0,0,0-3.43,10.34C226.68,439.48,226.87,439.48,226.89,439.36Z" style="fill: rgb(255, 255, 255); transform-origin: 228.381px 434.235px;" id="elfk23gqddho" class="animable"></path><path d="M316.36,412.78s-13.28-28.9-28.55-32.26S316.36,412.78,316.36,412.78Z" style="fill: rgb(69, 90, 100); transform-origin: 300.47px 396.538px;" id="elfdb1jn7wgui" class="animable"></path><path d="M258.11,396.41s-25.82-26-33.58-19.86C217.63,382,258.11,396.41,258.11,396.41Z" style="fill: rgb(69, 90, 100); transform-origin: 240.924px 386.011px;" id="el3v9f6jpi5od" class="animable"></path></g><defs>     <filter id="active" height="200%">         <feMorphology in="SourceAlpha" result="DILATED" operator="dilate" radius="2"></feMorphology>                <feFlood flood-color="#32DFEC" flood-opacity="1" result="PINK"></feFlood>        <feComposite in="PINK" in2="DILATED" operator="in" result="OUTLINE"></feComposite>        <feMerge>            <feMergeNode in="OUTLINE"></feMergeNode>            <feMergeNode in="SourceGraphic"></feMergeNode>        </feMerge>    </filter>    <filter id="hover" height="200%">        <feMorphology in="SourceAlpha" result="DILATED" operator="dilate" radius="2"></feMorphology>                <feFlood flood-color="#ff0000" flood-opacity="0.5" result="PINK"></feFlood>        <feComposite in="PINK" in2="DILATED" operator="in" result="OUTLINE"></feComposite>        <feMerge>            <feMergeNode in="OUTLINE"></feMergeNode>            <feMergeNode in="SourceGraphic"></feMergeNode>        </feMerge>            <feColorMatrix type="matrix" values="0   0   0   0   0                0   1   0   0   0                0   0   0   0   0                0   0   0   1   0 "></feColorMatrix>    </filter></defs></svg>