<svg class="animated" id="freepik_stories-hairdresser" xmlns="http://www.w3.org/2000/svg" xmlns:xlink="http://www.w3.org/1999/xlink" viewBox="0 0 500 500" version="1.1" xmlns:svgjs="http://svgjs.com/svgjs"><style>svg#freepik_stories-hairdresser:not(.animated) .animable {opacity: 0;}svg#freepik_stories-hairdresser.animated #freepik--background-complete--inject-144 {animation: 6s Infinite  linear floating;animation-delay: 0s;}svg#freepik_stories-hairdresser.animated #freepik--character-1--inject-144 {animation: 6s Infinite  linear shake;animation-delay: 0s;}            @keyframes floating {                0% {                    opacity: 1;                    transform: translateY(0px);                }                50% {                    transform: translateY(-10px);                }                100% {                    opacity: 1;                    transform: translateY(0px);                }            }                    @keyframes shake {                10%, 90% {                    transform: translate3d(-1px, 0, 0);                  }                  20%, 80% {                    transform: translate3d(2px, 0, 0);                  }                  30%, 50%, 70% {                    transform: translate3d(-4px, 0, 0);                  }                  40%, 60% {                    transform: translate3d(4px, 0, 0);                  }            }        </style><g id="freepik--background-complete--inject-144" class="animable" style="transform-origin: 250px 228.23px;"><rect y="382.4" width="500" height="0.25" style="fill: rgb(235, 235, 235); transform-origin: 250px 382.525px;" id="el0jhc85dlrs1r" class="animable"></rect><rect x="90.46" y="391.92" width="24.87" height="0.25" style="fill: rgb(235, 235, 235); transform-origin: 102.895px 392.045px;" id="elp42es0zmwk" class="animable"></rect><rect x="152.33" y="389.21" width="27.5" height="0.25" style="fill: rgb(235, 235, 235); transform-origin: 166.08px 389.335px;" id="elcrtgihj0g4l" class="animable"></rect><rect x="47.67" y="401.21" width="58.11" height="0.25" style="fill: rgb(235, 235, 235); transform-origin: 76.725px 401.335px;" id="elxw36noddm9n" class="animable"></rect><rect x="428.3" y="399.53" width="21.6" height="0.25" style="fill: rgb(235, 235, 235); transform-origin: 439.1px 399.655px;" id="el5lzsyy2u4oy" class="animable"></rect><rect x="214.79" y="391.14" width="27.93" height="0.25" style="fill: rgb(235, 235, 235); transform-origin: 228.755px 391.265px;" id="elvj7m7p5w1jq" class="animable"></rect><rect x="300.67" y="395.31" width="70.22" height="0.25" style="fill: rgb(235, 235, 235); transform-origin: 335.78px 395.435px;" id="elbxv5v0w5oaj" class="animable"></rect><path d="M237,337.8H43.91a5.71,5.71,0,0,1-5.7-5.71V60.66A5.71,5.71,0,0,1,43.91,55H237a5.71,5.71,0,0,1,5.71,5.71V332.09A5.71,5.71,0,0,1,237,337.8ZM43.91,55.2a5.46,5.46,0,0,0-5.45,5.46V332.09a5.46,5.46,0,0,0,5.45,5.46H237a5.47,5.47,0,0,0,5.46-5.46V60.66A5.47,5.47,0,0,0,237,55.2Z" style="fill: rgb(235, 235, 235); transform-origin: 140.46px 196.4px;" id="el3v8vh6wvzey" class="animable"></path><path d="M453.31,337.8H260.21a5.72,5.72,0,0,1-5.71-5.71V60.66A5.72,5.72,0,0,1,260.21,55h193.1A5.71,5.71,0,0,1,459,60.66V332.09A5.71,5.71,0,0,1,453.31,337.8ZM260.21,55.2a5.47,5.47,0,0,0-5.46,5.46V332.09a5.47,5.47,0,0,0,5.46,5.46h193.1a5.47,5.47,0,0,0,5.46-5.46V60.66a5.47,5.47,0,0,0-5.46-5.46Z" style="fill: rgb(235, 235, 235); transform-origin: 356.75px 196.4px;" id="elfhbxoyt6s7" class="animable"></path><rect x="20.89" y="245.94" width="458.22" height="120.4" style="fill: rgb(245, 245, 245); transform-origin: 250px 306.14px;" id="elldw15laium" class="animable"></rect><polyline points="455.14 270.33 465.44 261.54 395.38 261.54 405.69 270.33" style="fill: rgb(240, 240, 240); transform-origin: 430.41px 265.935px;" id="eljauqsca9gt" class="animable"></polyline><polygon points="455.14 270.33 455.14 345.03 465.44 353.83 465.44 261.54 455.14 270.33" style="fill: rgb(224, 224, 224); transform-origin: 460.29px 307.685px;" id="elu6v8271z3w8" class="animable"></polygon><polygon points="395.38 261.54 395.38 353.83 405.69 345.03 405.69 270.33 395.38 261.54" style="fill: rgb(250, 250, 250); transform-origin: 400.535px 307.685px;" id="el65smp13c8lt" class="animable"></polygon><polygon points="455.14 345.03 405.69 345.03 395.38 353.83 465.44 353.83 455.14 345.03" style="fill: rgb(240, 240, 240); transform-origin: 430.41px 349.43px;" id="elzifm4h9q7i" class="animable"></polygon><rect x="405.69" y="270.33" width="49.45" height="74.7" style="fill: rgb(255, 255, 255); transform-origin: 430.415px 307.68px;" id="elusnodcqzqn" class="animable"></rect><polyline points="334.87 270.33 345.17 261.54 275.11 261.54 285.41 270.33" style="fill: rgb(240, 240, 240); transform-origin: 310.14px 265.935px;" id="eltmtuzjgicda" class="animable"></polyline><polygon points="334.87 270.33 334.87 345.03 345.17 353.83 345.17 261.54 334.87 270.33" style="fill: rgb(224, 224, 224); transform-origin: 340.02px 307.685px;" id="el8jrzbsuq5u5" class="animable"></polygon><polygon points="275.11 261.54 275.11 353.83 285.41 345.03 285.41 270.33 275.11 261.54" style="fill: rgb(250, 250, 250); transform-origin: 280.26px 307.685px;" id="elmxm6hj4tdp8" class="animable"></polygon><polygon points="334.87 345.03 285.41 345.03 275.11 353.83 345.17 353.83 334.87 345.03" style="fill: rgb(240, 240, 240); transform-origin: 310.14px 349.43px;" id="eliq3szaq6zdr" class="animable"></polygon><rect x="285.41" y="270.33" width="49.45" height="74.7" style="fill: rgb(255, 255, 255); transform-origin: 310.135px 307.68px;" id="elinmcgcioffc" class="animable"></rect><polyline points="214.59 270.33 224.89 261.54 154.83 261.54 165.13 270.33" style="fill: rgb(240, 240, 240); transform-origin: 189.86px 265.935px;" id="el1qbzivysj72" class="animable"></polyline><polygon points="214.59 270.33 214.59 345.03 224.89 353.83 224.89 261.54 214.59 270.33" style="fill: rgb(224, 224, 224); transform-origin: 219.74px 307.685px;" id="eled8h1lanzep" class="animable"></polygon><polygon points="154.83 261.54 154.83 353.83 165.13 345.03 165.13 270.33 154.83 261.54" style="fill: rgb(250, 250, 250); transform-origin: 159.98px 307.685px;" id="elysziulaclca" class="animable"></polygon><polygon points="214.59 345.03 165.13 345.03 154.83 353.83 224.89 353.83 214.59 345.03" style="fill: rgb(240, 240, 240); transform-origin: 189.86px 349.43px;" id="elbt3wcepawwt" class="animable"></polygon><rect x="165.14" y="270.33" width="49.45" height="74.7" style="fill: rgb(255, 255, 255); transform-origin: 189.865px 307.68px;" id="elfdwv0z8zet5" class="animable"></rect><polyline points="94.31 270.33 104.61 261.54 34.56 261.54 44.86 270.33" style="fill: rgb(240, 240, 240); transform-origin: 69.585px 265.935px;" id="el36wle3t3xdo" class="animable"></polyline><polygon points="94.31 270.33 94.31 345.03 104.61 353.83 104.61 261.54 94.31 270.33" style="fill: rgb(224, 224, 224); transform-origin: 99.46px 307.685px;" id="elg2k33o9j0ms" class="animable"></polygon><polygon points="34.56 261.54 34.56 353.83 44.86 345.03 44.86 270.33 34.56 261.54" style="fill: rgb(250, 250, 250); transform-origin: 39.71px 307.685px;" id="eltdiic7ksmi8" class="animable"></polygon><polygon points="94.31 345.03 44.86 345.03 34.56 353.83 104.61 353.83 94.31 345.03" style="fill: rgb(240, 240, 240); transform-origin: 69.585px 349.43px;" id="eldybdsu7z0hr" class="animable"></polygon><rect x="44.86" y="270.33" width="49.45" height="74.7" style="fill: rgb(255, 255, 255); transform-origin: 69.585px 307.68px;" id="elryfcevm03ln" class="animable"></rect><rect x="58.56" y="79.58" width="73.9" height="95.82" style="fill: rgb(235, 235, 235); transform-origin: 95.51px 127.49px;" id="elrbvd17bcguh" class="animable"></rect><g id="eldaccofn61hm"><rect x="132.46" y="79.58" width="2.21" height="95.82" style="fill: rgb(224, 224, 224); transform-origin: 133.565px 127.49px; transform: rotate(180deg);" class="animable"></rect></g><g id="ele8874rk2me9"><rect x="54.6" y="97.54" width="81.82" height="59.9" style="fill: rgb(250, 250, 250); transform-origin: 95.51px 127.49px; transform: rotate(90deg);" class="animable"></rect></g><rect x="147.24" y="167.83" width="158.91" height="5.14" style="fill: rgb(224, 224, 224); transform-origin: 226.695px 170.4px;" id="elge4dnr7th2q" class="animable"></rect><path d="M221.74,138.84v-5.47a1.84,1.84,0,0,0-1.84-1.85h-1.42a1.85,1.85,0,0,0-1.85,1.85v5.47a1.85,1.85,0,0,1-.63,1.39l-4.51,3.94a1.84,1.84,0,0,0-.63,1.39V166a1.84,1.84,0,0,0,1.84,1.85h13a1.84,1.84,0,0,0,1.84-1.85V145.56a1.84,1.84,0,0,0-.63-1.39l-4.51-3.94A1.86,1.86,0,0,1,221.74,138.84Z" style="fill: rgb(245, 245, 245); transform-origin: 219.2px 149.685px;" id="elqfxo08b1z3" class="animable"></path><rect x="216.13" y="128.91" width="6.11" height="8.78" rx="0.75" style="fill: rgb(230, 230, 230); transform-origin: 219.185px 133.3px;" id="elhlbywgu7njt" class="animable"></rect><rect x="215.74" y="127.8" width="6.89" height="4.92" rx="0.6" style="fill: rgb(230, 230, 230); transform-origin: 219.185px 130.26px;" id="elwwxv3f8i1hq" class="animable"></rect><rect x="210.86" y="149.68" width="16.67" height="13.58" style="fill: rgb(235, 235, 235); transform-origin: 219.195px 156.47px;" id="el0bqnh788hpjl" class="animable"></rect><path d="M224.79,150.27a5.61,5.61,0,1,1-5.6-5.6A5.61,5.61,0,0,1,224.79,150.27Z" style="fill: rgb(235, 235, 235); transform-origin: 219.18px 150.28px;" id="elhte3npa6i5s" class="animable"></path><path d="M195,125.68v-4.14a1.39,1.39,0,0,0-1.4-1.4h-1.07a1.39,1.39,0,0,0-1.4,1.4v4.14a1.43,1.43,0,0,1-.48,1.06l-3.42,3a1.39,1.39,0,0,0-.48,1.06v35.65a1.4,1.4,0,0,0,1.4,1.4H198a1.4,1.4,0,0,0,1.4-1.4V130.78a1.39,1.39,0,0,0-.48-1.06l-3.42-3A1.43,1.43,0,0,1,195,125.68Z" style="fill: rgb(245, 245, 245); transform-origin: 193.075px 143.995px;" id="elxg9z8mbubx" class="animable"></path><rect x="190.78" y="118.16" width="4.63" height="6.65" rx="0.57" style="fill: rgb(230, 230, 230); transform-origin: 193.095px 121.485px;" id="el0l0l1dpkbnpk" class="animable"></rect><rect x="190.48" y="117.32" width="5.22" height="3.73" rx="0.45" style="fill: rgb(230, 230, 230); transform-origin: 193.09px 119.185px;" id="elcz3yj2iugnu" class="animable"></rect><rect x="187.93" y="133.9" width="10.33" height="30.47" style="fill: rgb(235, 235, 235); transform-origin: 193.095px 149.135px;" id="elvbd508pouyp" class="animable"></rect><path d="M197.34,136.2a4.25,4.25,0,1,1-4.25-4.25A4.24,4.24,0,0,1,197.34,136.2Z" style="fill: rgb(235, 235, 235); transform-origin: 193.09px 136.2px;" id="elqg7t4qm1q9r" class="animable"></path><path d="M279.31,142.27v-3.18a1.4,1.4,0,0,0-1.4-1.4h-1.08a1.4,1.4,0,0,0-1.4,1.4v3.18a1.37,1.37,0,0,1-.48,1l-3.42,3a1.42,1.42,0,0,0-.48,1.05v19.07a1.4,1.4,0,0,0,1.4,1.4h9.84a1.4,1.4,0,0,0,1.4-1.4V147.36a1.42,1.42,0,0,0-.48-1.05l-3.43-3A1.39,1.39,0,0,1,279.31,142.27Z" style="fill: rgb(245, 245, 245); transform-origin: 277.37px 152.74px;" id="el6l2065b0amh" class="animable"></path><rect x="275.05" y="137.1" width="4.63" height="2.97" rx="0.38" style="fill: rgb(230, 230, 230); transform-origin: 277.365px 138.585px;" id="eln742y8vfd9" class="animable"></rect><rect x="274.76" y="136.73" width="5.22" height="1.66" rx="0.3" style="fill: rgb(230, 230, 230); transform-origin: 277.37px 137.56px;" id="elx1qmco08gvc" class="animable"></rect><rect x="272.2" y="150.49" width="10.33" height="13.88" style="fill: rgb(235, 235, 235); transform-origin: 277.365px 157.43px;" id="elev12p4znkze" class="animable"></rect><path d="M281.62,152.78a4.25,4.25,0,1,1-4.25-4.25A4.25,4.25,0,0,1,281.62,152.78Z" style="fill: rgb(235, 235, 235); transform-origin: 277.37px 152.78px;" id="elcn81l1b3b8t" class="animable"></path><path d="M245.82,133.23v-5.47a1.84,1.84,0,0,0-1.85-1.84h-.42a1.84,1.84,0,0,0-1.85,1.84v5.47a1.84,1.84,0,0,1-.63,1.39l-4.51,3.94a1.85,1.85,0,0,0-.63,1.39v26a1.84,1.84,0,0,0,1.84,1.85h12a1.84,1.84,0,0,0,1.84-1.85V140a1.85,1.85,0,0,0-.63-1.39l-4.51-3.94A1.84,1.84,0,0,1,245.82,133.23Z" style="fill: rgb(235, 235, 235); transform-origin: 243.77px 146.86px;" id="elmkqsbo71qq9" class="animable"></path><rect x="241.2" y="123.31" width="5.11" height="8.78" rx="0.75" style="fill: rgb(245, 245, 245); transform-origin: 243.755px 127.7px;" id="elgtt9g18bwwf" class="animable"></rect><rect x="240.82" y="122.2" width="5.89" height="4.92" rx="0.6" style="fill: rgb(245, 245, 245); transform-origin: 243.765px 124.66px;" id="el8ic05rvqxnb" class="animable"></rect><rect x="235.93" y="144.07" width="15.67" height="19.19" style="fill: rgb(245, 245, 245); transform-origin: 243.765px 153.665px;" id="elcedzba5wcvf" class="animable"></rect><circle cx="243.26" cy="144.67" r="5.6" style="fill: rgb(245, 245, 245); transform-origin: 243.26px 144.67px;" id="elz2tj81z7r4p" class="animable"></circle><path d="M173.09,139.26v-4.52a1.52,1.52,0,0,0-1.52-1.52h-.35a1.52,1.52,0,0,0-1.52,1.52v4.52a1.53,1.53,0,0,1-.52,1.15l-3.73,3.25a1.53,1.53,0,0,0-.52,1.15V166.3a1.53,1.53,0,0,0,1.52,1.53h9.89a1.54,1.54,0,0,0,1.53-1.53V144.81a1.51,1.51,0,0,0-.53-1.15l-3.72-3.25A1.51,1.51,0,0,1,173.09,139.26Z" style="fill: rgb(235, 235, 235); transform-origin: 171.4px 150.525px;" id="elv84bggya4g" class="animable"></path><rect x="169.29" y="131.06" width="4.22" height="7.25" rx="0.62" style="fill: rgb(245, 245, 245); transform-origin: 171.4px 134.685px;" id="ele5hhkze7fv5" class="animable"></rect><rect x="168.97" y="130.14" width="4.86" height="4.06" rx="0.49" style="fill: rgb(245, 245, 245); transform-origin: 171.4px 132.17px;" id="el1emyygh9qrs" class="animable"></rect><rect x="164.93" y="148.21" width="12.94" height="15.85" style="fill: rgb(245, 245, 245); transform-origin: 171.4px 156.135px;" id="elbph8jaigwwr" class="animable"></rect><path d="M175.61,148.7a4.63,4.63,0,1,1-4.63-4.63A4.63,4.63,0,0,1,175.61,148.7Z" style="fill: rgb(245, 245, 245); transform-origin: 170.98px 148.7px;" id="elt9s5umowa4l" class="animable"></path></g><g id="freepik--Shadow--inject-144" class="animable" style="transform-origin: 250px 416.24px;"><ellipse id="freepik--path--inject-144" cx="250" cy="416.24" rx="193.89" ry="11.32" style="fill: rgb(245, 245, 245); transform-origin: 250px 416.24px;" class="animable"></ellipse></g><g id="freepik--character-1--inject-144" class="animable animator-active" style="transform-origin: 154.536px 256.312px;"><path d="M157,103.93c8,5.35,7,19.09.37,24.89C146.75,115.78,157,103.93,157,103.93Z" style="fill: rgb(38, 50, 56); transform-origin: 157.613px 116.375px;" id="elyd2hjvmqnkf" class="animable"></path><g id="elq2t4empbb9c"><path d="M157,103.93c8,5.35,7,19.09.37,24.89C146.75,115.78,157,103.93,157,103.93Z" style="fill: rgb(255, 255, 255); opacity: 0.4; transform-origin: 157.613px 116.375px;" class="animable"></path></g><polygon points="177.09 391.04 160.24 391.2 161.63 411.1 175.71 410.98 177.09 391.04" style="fill: rgb(255, 195, 189); transform-origin: 168.665px 401.07px;" id="elwnwhs26x3i" class="animable"></polygon><g id="elp4jekgdddm"><polygon points="177.08 391.05 160.23 391.21 161.01 402.35 176.32 402.22 177.08 391.05" style="opacity: 0.2; transform-origin: 168.655px 396.7px;" class="animable"></polygon></g><path d="M151.34,331.71c-6.55-25.25-19.12-55.35-8.29-79.67l47-.15S188.79,302,187,325.56c-1.83,24.5-8.62,72.32-8.62,72.32l-19.3.05S148.15,359.23,151.34,331.71Z" style="fill: rgb(38, 50, 56); transform-origin: 164.43px 324.91px;" id="ellxabo93ypo" class="animable"></path><polygon points="157.56 398.61 179.64 398.61 180.85 388.77 155.53 389.94 157.56 398.61" style="fill: rgb(165, 42, 42); transform-origin: 168.19px 393.69px;" id="elx11n0ipsbn" class="animable"></polygon><g id="eloymdhoj33z"><path d="M149.14,323.71c-3.67-12.83-8.07-26.58-9.69-40C150,287.27,157.84,297.5,149.14,323.71Z" style="opacity: 0.2; transform-origin: 146.164px 303.71px;" class="animable"></path></g><path d="M160,408a.69.69,0,0,1,.9-.65c4.45,1.67,12.3.39,15.26-.19a2.64,2.64,0,0,1,2,.4c3.53,2.29,11.31,3.69,11.31,3.69s1.46,2.87,1.1,5.07l-31.25,0A53.26,53.26,0,0,0,160,408Z" style="fill: rgb(38, 50, 56); transform-origin: 174.974px 411.714px;" id="elhcptsixddaq" class="animable"></path><polygon points="120.81 391.04 103.94 391.2 103.2 411.1 117.29 410.98 120.81 391.04" style="fill: rgb(255, 195, 189); transform-origin: 112.005px 401.07px;" id="el1for3qkzd0g" class="animable"></polygon><path d="M102.07,408a.72.72,0,0,1,.93-.65c4.4,1.67,12.28.39,15.26-.19a2.59,2.59,0,0,1,2,.4c3.47,2.29,9.91,3.69,9.91,3.69s1.39,2.87,1,5.07l-30,0A52.84,52.84,0,0,0,102.07,408Z" style="fill: rgb(38, 50, 56); transform-origin: 116.205px 411.712px;" id="elbe6azmxucqa" class="animable"></path><g id="elxx4wavgf53"><polygon points="120.8 391.05 103.93 391.21 103.52 402.35 118.84 402.22 120.8 391.05" style="opacity: 0.2; transform-origin: 112.16px 396.7px;" class="animable"></polygon></g><path d="M102.46,322.75c-1.36-25.53-5.73-59.12,2.83-70.86h55.05S145.73,302,140.27,325.56c-5.66,24.5-19.56,72.32-19.56,72.32l-18.23.05S95.6,351.89,102.46,322.75Z" style="fill: rgb(38, 50, 56); transform-origin: 129.878px 324.91px;" id="elkpm2bnm1v" class="animable"></path><polygon points="100.49 398.61 122.43 398.61 124.36 389.48 100.2 389.87 100.49 398.61" style="fill: rgb(165, 42, 42); transform-origin: 112.28px 394.045px;" id="el7byyiruiygd" class="animable"></polygon><path d="M179.28,161.1l5.43,11.45c1.81,3.84,3.67,7.65,5.51,11.42.93,1.89,1.87,3.76,2.83,5.59s1.89,3.68,2.87,5.45,2,3.48,3,5.12,2,3.17,2.91,4.38l-8.34-3.67a5.6,5.6,0,0,0,3.22-.23,24.43,24.43,0,0,0,5.27-2.32,60.21,60.21,0,0,0,5.75-3.7c1-.69,2-1.39,2.92-2.13l1.46-1.11c.47-.34,1-.78,1.39-1l1.12-.7a6,6,0,0,1,8.24,1.94,6.06,6.06,0,0,1,.41,5.54c-.36.82-.63,1.43-1,2.13s-.65,1.32-1,2c-.7,1.28-1.43,2.56-2.23,3.8s-1.66,2.47-2.59,3.67-1.93,2.36-3,3.52a40.28,40.28,0,0,1-3.53,3.33,31.65,31.65,0,0,1-4.24,3.08,26.06,26.06,0,0,1-11.83,3.9,9.59,9.59,0,0,1-7.65-2.95l-.68-.72a71.35,71.35,0,0,1-5.06-6c-1.49-2-2.82-4-4.12-5.91s-2.52-3.93-3.73-5.89-2.31-3.95-3.42-5.93c-2.24-4-4.29-8-6.29-12-1-2-2-4-2.88-6.09s-1.83-4.05-2.73-6.25A12,12,0,0,1,179.24,161Z" style="fill: rgb(255, 195, 189); transform-origin: 189.999px 188.238px;" id="elpnar0wlagp" class="animable"></path><path d="M214,190.39l2.81,6.52c5.19,5.36,10.93-2.51,10.93-2.51l4.29-2.66a3.77,3.77,0,0,0,1.18-4.73l-1.93-4.57a3.92,3.92,0,0,0-4.9-2.44l-4.07,1.69a7.73,7.73,0,0,0-3,2.26Z" style="fill: rgb(255, 195, 189); transform-origin: 223.8px 189.296px;" id="elz65yhfe18vs" class="animable"></path><path d="M222,195.36h0a1.78,1.78,0,0,1-1.53-2l1-7.4a1.78,1.78,0,0,1,2-1.53h0a1.78,1.78,0,0,1,1.53,2l-1,7.39A1.79,1.79,0,0,1,222,195.36Z" style="fill: rgb(38, 50, 56); transform-origin: 222.735px 189.894px;" id="eld5pvnudc6t7" class="animable"></path><path d="M233.11,176.69l-5.33,26.51a3.48,3.48,0,0,1-6.3,1.24h0a3.53,3.53,0,0,1-.57-2.19l2.09-27a5.14,5.14,0,0,1,2.58-4.06h0A5.12,5.12,0,0,1,233.11,176.69Z" style="fill: rgb(165, 42, 42); transform-origin: 227.059px 188.255px;" id="elhanvxrmo6mq" class="animable"></path><path d="M232.59,179.76l-7.41-1.49a1,1,0,0,1-.74-1.35l2.65-7.18a1.44,1.44,0,0,1,1.57-.89l7.41,1.49a1,1,0,0,1,.74,1.36l-2.65,7.17A1.43,1.43,0,0,1,232.59,179.76Z" style="fill: rgb(38, 50, 56); transform-origin: 230.627px 174.306px;" id="elp2v6ntp1ege" class="animable"></path><path d="M168.29,149.52c10.57,4.31,25.37,27.67,25.37,27.67-1.27,8.92-12.54,21.58-20.47,22.25,0,0-12.5-14.28-16.76-24.39C151.27,162.82,146.89,140.82,168.29,149.52Z" style="fill: rgb(165, 42, 42); transform-origin: 172.926px 173.488px;" id="elc01wo1558d5" class="animable"></path><path d="M161.28,147.62a212.23,212.23,0,0,0-46.87.75c-9,1.26-15.34,6.85-14.25,25.27,2.21,37.35-3,66.78,1.75,80.21,0,0,77.4,16.93,90.65.53,4.79-45-11.34-82.28-18.7-97.82A15.73,15.73,0,0,0,161.28,147.62Z" style="fill: rgb(165, 42, 42); transform-origin: 146.635px 204.102px;" id="elmcg4xovm9w" class="animable"></path><path d="M147.24,146.75c12-.21,23.3.2,28.86,8.32s22.64,49.4,18.86,92.31c-6.58,4-17.29,3.23-17.29,3.23S185.53,164,147.24,146.75Z" style="fill: rgb(38, 50, 56); transform-origin: 171.37px 198.691px;" id="el1monsuudb9h" class="animable"></path><path d="M156.08,151.88c-1.79-1.76-3.66-.74-4.53-3.38a9.14,9.14,0,0,1,1-6.09l-21.33-11.5c.42,7.84.73,14-2.74,17.16-1,5.85,8.55,14.4,23.1,13.74C161.94,161.35,158.67,154.41,156.08,151.88Z" style="fill: rgb(255, 195, 189); transform-origin: 143.553px 146.378px;" id="eltbc1gsaqrni" class="animable"></path><path d="M97.06,158.09c4.43-8,13.86-12.2,28.77-12.2,11.27,0,19.11,30.73,19.8,58.21S147,251,147,251c-15.09,3.76-47.56-3.59-53.93-7.63C93.05,243.34,82.5,184.47,97.06,158.09Z" style="fill: rgb(38, 50, 56); transform-origin: 118.179px 198.965px;" id="elnzlftwoybf" class="animable"></path><g id="elagk69lx2ez"><path d="M152.22,143.08l-16.84-4.21c4.25,6.69,11.92,10.36,16,8.74A9.17,9.17,0,0,1,152.22,143.08Z" style="opacity: 0.2; transform-origin: 143.8px 143.43px;" class="animable"></path></g><path d="M129,118.51c.66,11,1.34,18.54,7.74,23.22,12.72,9.31,20.39,3.3,23-7.76,2.4-10,.93-26.35-9.9-30.68A15.26,15.26,0,0,0,129,118.51Z" style="fill: rgb(255, 195, 189); transform-origin: 144.848px 124.268px;" id="el9crddn8hl95" class="animable"></path><g id="el04d2l0zl55as"><path d="M142.47,120.81a5,5,0,0,0-3.75-.7A9.81,9.81,0,0,0,142.47,120.81Z" style="opacity: 0.2; transform-origin: 140.595px 120.407px;" class="animable"></path></g><g id="el65afqy3qdz7"><path d="M142.25,121.69a4.12,4.12,0,0,0-3.45.24A8,8,0,0,0,142.25,121.69Z" style="opacity: 0.2; transform-origin: 140.525px 121.719px;" class="animable"></path></g><g id="ela2xgsfacmdg"><path d="M157.67,120.81s1-1.27,1.87-.7A2.79,2.79,0,0,1,157.67,120.81Z" style="opacity: 0.2; transform-origin: 158.605px 120.386px;" class="animable"></path></g><g id="elkmo3zan8ch"><path d="M157.78,121.69a1.18,1.18,0,0,1,1.72.24A2.16,2.16,0,0,1,157.78,121.69Z" style="opacity: 0.2; transform-origin: 158.64px 121.716px;" class="animable"></path></g><path d="M131.73,130.91c0,4.66-1.91,7.88-1.46,10.63s6.24,8.11,15.71,10.63a64.27,64.27,0,0,0,14.77,2.07s-2-2.84,0-8.35-.71-12.21-.71-12.21-14.27-2.5-17.13-1.22c-6.64-1.22-7.69-8-6.64-12.17s-.29-9.82-.29-9.82-7.57.26-11.73,1.6c0,.64,1.83,1.17,1.83,1.17s-2.56,5.17,1.92,11S131.73,130.91,131.73,130.91Z" style="fill: rgb(38, 50, 56); transform-origin: 142.868px 132.355px;" id="elyxal9aeu1xg" class="animable"></path><g id="el0m9b0su9m04"><path d="M131.73,130.91c0,4.66-1.91,7.88-1.46,10.63s6.24,8.11,15.71,10.63a64.27,64.27,0,0,0,14.77,2.07s-2-2.84,0-8.35-.71-12.21-.71-12.21-14.27-2.5-17.13-1.22c-6.64-1.22-7.69-8-6.64-12.17s-.29-9.82-.29-9.82-7.57.26-11.73,1.6c0,.64,1.83,1.17,1.83,1.17s-2.56,5.17,1.92,11S131.73,130.91,131.73,130.91Z" style="fill: rgb(255, 255, 255); opacity: 0.4; transform-origin: 142.868px 132.355px;" class="animable"></path></g><path d="M153.85,129.39c3.34.14,8.5,3.35,9.07,6.53-1.31.57-5.86-1.12-5.86-1.12a12.6,12.6,0,0,1,2.25,3.8c-2.36,0-5.74-3-6.32-4.41-1.65,2.21-6.79,3.41-9.71,3.5.56-.92,1.88-3.37,1.88-3.37a37,37,0,0,1-7.61.26C139.56,131.83,146.77,129.08,153.85,129.39Z" style="fill: rgb(38, 50, 56); transform-origin: 150.235px 133.983px;" id="elf5m4uxv8er5" class="animable"></path><path d="M123.78,128.93a10.41,10.41,0,0,0,6.12,5.17c3.53,1.09,4.12-1.79,3.25-5.17-.79-3-2.27-7.52-5.86-7.13S122.25,125.89,123.78,128.93Z" style="fill: rgb(255, 195, 189); transform-origin: 128.341px 128.055px;" id="el2ke3r01xlum" class="animable"></path><path d="M128.94,134a1.76,1.76,0,1,0,1.76-1.76A1.76,1.76,0,0,0,128.94,134Z" style="fill: rgb(38, 50, 56); transform-origin: 130.7px 134px;" id="eluvp6xh166bd" class="animable"></path><path d="M125.24,111.26c6,2,18-.48,24.11-3s10.16,2.61,4.68,5.37c4.22,1.56,14.24-4,11.89-10.56-1.17-5-7.5-8.35-13.7-6S139,98.82,133.1,97.8c-9.17-1.58-9.7,8.13-8,9.35-1.6.67-3.73-.46-3.73-.46A5.88,5.88,0,0,0,125.24,111.26Z" style="fill: rgb(38, 50, 56); transform-origin: 143.821px 105.099px;" id="elnc9uxpwpvq" class="animable"></path><path d="M126.69,107.56c-3.15.44-4.94-1.68-6-4.87A15.3,15.3,0,0,1,126.69,107.56Z" style="fill: rgb(38, 50, 56); transform-origin: 123.69px 105.154px;" id="elfabwg5cpssa" class="animable"></path><path d="M144.61,121.27c0,.9.48,1.62,1.07,1.62s1.07-.74,1.07-1.64-.48-1.62-1.07-1.62S144.62,120.37,144.61,121.27Z" style="fill: rgb(38, 50, 56); transform-origin: 145.68px 121.26px;" id="el9m2erkve0il" class="animable"></path><path d="M154.47,121.22c0,.9.48,1.62,1.07,1.62s1.07-.74,1.07-1.64-.48-1.63-1.07-1.62S154.48,120.32,154.47,121.22Z" style="fill: rgb(38, 50, 56); transform-origin: 155.54px 121.21px;" id="elbwkpk2tzb1o" class="animable"></path><path d="M151.91,121.41l-.34,7.76a4.76,4.76,0,0,0,5.13.23C155.78,125,151.91,121.41,151.91,121.41Z" style="fill: rgb(237, 132, 126); transform-origin: 154.135px 125.725px;" id="el1704vn6v75r" class="animable"></path><path d="M142,118.05a.61.61,0,0,1-.26-.08.53.53,0,0,1-.17-.73,5.35,5.35,0,0,1,4.11-2.59.53.53,0,0,1,0,1.06h0a4.22,4.22,0,0,0-3.23,2.08A.55.55,0,0,1,142,118.05Z" style="fill: rgb(38, 50, 56); transform-origin: 143.85px 116.35px;" id="eluiatbivfu19" class="animable"></path><path d="M161,118.85a.53.53,0,0,1-.41-.28,4.16,4.16,0,0,0-3-2.3.53.53,0,1,1,.11-1,5.21,5.21,0,0,1,3.87,2.86.53.53,0,0,1-.23.71A.54.54,0,0,1,161,118.85Z" style="fill: rgb(38, 50, 56); transform-origin: 159.288px 117.047px;" id="elndaefffhzaq" class="animable"></path><path d="M112.23,177.32l-2.81,4.23c-1,1.49-1.94,3-2.86,4.48-1.89,3-3.65,6-5.33,9.07-.83,1.52-1.63,3.05-2.36,4.57s-1.47,3-2.1,4.53a54.43,54.43,0,0,0-2.93,8.71l.06-2.42a5.16,5.16,0,0,0,.68,3.31A23.58,23.58,0,0,0,96,216.44c.59.93,1.29,1.85,2,2.81a72.21,72.21,0,0,0,5.07,5.71c.92.94,1.87,1.9,2.84,2.83l1.47,1.41c.46.46,1,1,1.38,1.35l.7.77a6,6,0,0,1-6.17,9.78c-.91-.27-1.61-.49-2.39-.76s-1.51-.54-2.25-.82c-1.48-.6-3-1.22-4.39-1.93s-2.88-1.45-4.29-2.3-2.8-1.76-4.19-2.75a40.68,40.68,0,0,1-8-7.52,27.79,27.79,0,0,1-3.41-5.46,24,24,0,0,1-2.14-7.19,6.5,6.5,0,0,1,0-1.46l.1-1a62.89,62.89,0,0,1,2.86-13.55c.66-2.11,1.41-4.15,2.19-6.15s1.68-3.94,2.57-5.85,1.84-3.78,2.83-5.61,2-3.65,3.09-5.41,2.16-3.53,3.34-5.24c.58-.85,1.16-1.71,1.78-2.56L92,164.3c.33-.45.61-.82,1-1.38a12,12,0,0,1,19.47,14Z" style="fill: rgb(255, 195, 189); transform-origin: 93.322px 199.832px;" id="el4142e4vpkuy" class="animable"></path><path d="M109.05,149.86C89,154.65,78.48,176.53,78.48,176.53c1.74,7.56,17.94,21,26.36,21.12,0,0,13.14-15.1,18-27.06C127.24,159.51,120.82,147.05,109.05,149.86Z" style="fill: rgb(165, 42, 42); transform-origin: 101.356px 173.554px;" id="ellc4omsb1j6t" class="animable"></path><path d="M127.7,240.85l10.75,2.8a5.15,5.15,0,0,0,4.16-.71l-14.13-3.68-.75-.46.66-.43,14-4.05a5.13,5.13,0,0,0-4.18-.6l-10.67,3.08-1.3,1.09-2.78-1.71a2.31,2.31,0,0,0,1.22-1.44,2,2,0,0,0,0-1.12,4,4,0,0,0-3-2.49c-2-.52-4,.23-4.36,1.7a2.13,2.13,0,0,0,0,1.12,4,4,0,0,0,3,2.48,4.81,4.81,0,0,0,2,.11l2.84,2.28-2.86,2.41a4.85,4.85,0,0,0-2,.17c-1.82.52-3,1.91-3,3.25a3.05,3.05,0,0,0-1.23,3.15l0,0,.88-.27v0a1.94,1.94,0,0,1,.65-2c.69,1.09,2.41,1.56,4.16,1.06,2-.58,3.31-2.23,2.89-3.68a2.32,2.32,0,0,0-1.27-1.41l2.83-1.84Zm-7.11-5.31a3.17,3.17,0,0,1-2.31-1.85,1.23,1.23,0,0,1,0-.63,1.56,1.56,0,0,1,1-1,3.76,3.76,0,0,1,2.24-.07,3.2,3.2,0,0,1,2.3,1.85,1.27,1.27,0,0,1,0,.64C123.58,235.46,122.09,235.94,120.59,235.54Zm3.26,7.69c.28,1-.76,2.11-2.25,2.54s-3,0-3.26-1,.76-2.11,2.25-2.54S123.58,242.28,123.85,243.23Z" style="fill: rgb(255, 255, 255); transform-origin: 129.305px 239.383px;" id="elhxwebkf6ucj" class="animable"></path><path d="M106,229.78l-4.31,5.65c-2.13,7.16,7.54,8.3,7.54,8.3l4.43,2.43a3.77,3.77,0,0,0,4.7-1.28l3-3.93a3.92,3.92,0,0,0-.28-5.46l-3.47-2.73a7.8,7.8,0,0,0-3.46-1.54Z" style="fill: rgb(255, 195, 189); transform-origin: 111.859px 238.147px;" id="elhw431bw9v" class="animable"></path></g><g id="freepik--character-2--inject-144" class="animable" style="transform-origin: 299.285px 287.57px;"><path d="M289.17,215.4c.81-.62-.77-2.48-2.33-2.74-21.54-3.67-39,10-42.09,21.38-4,14.85,13.56,33.86,5.35,52.22s-14.11,34.91-2.21,51.31c2.55-13.24,38-4.66,62.42-5.72s32.79-7.77,15.75-23.78C309.74,292.76,269.81,230.23,289.17,215.4Z" style="fill: rgb(165, 42, 42); transform-origin: 288.091px 274.811px;" id="elw363q0j87hi" class="animable"></path><path d="M289.41,187.74l1.69,7s2.81,0,4.09-1.62C293.4,189.74,289.41,187.74,289.41,187.74Z" style="fill: rgb(237, 137, 62); transform-origin: 292.3px 191.24px;" id="elpbg8xipzxx" class="animable"></path><path d="M289.6,186.37c.2.83.81,1.39,1.35,1.25s.81-.93.61-1.76-.82-1.39-1.36-1.25S289.39,185.54,289.6,186.37Z" style="fill: rgb(38, 50, 56); transform-origin: 290.577px 186.115px;" id="ela3vjwnneyqd" class="animable"></path><path d="M290.26,181a.5.5,0,0,1-.47-.05,3.94,3.94,0,0,0-3.58-.55.49.49,0,0,1-.65-.27.52.52,0,0,1,.27-.66,4.94,4.94,0,0,1,4.53.64.51.51,0,0,1,.13.7A.53.53,0,0,1,290.26,181Z" style="fill: rgb(38, 50, 56); transform-origin: 288.051px 180.111px;" id="elc3hq3n537s" class="animable"></path><path d="M293.27,216.31a9.35,9.35,0,0,0-4.74-4,8.72,8.72,0,0,1-.51-5.84l-22.32-5.63c2.21,7.13,3.95,12.76,1.47,16.44,4.47,2.37,12.64,6.6,21.23,5.83S294.86,219.26,293.27,216.31Z" style="fill: rgb(255, 181, 115); transform-origin: 280.213px 212.021px;" id="elx3zcckqa508" class="animable"></path><path d="M260.76,190c3.17,10,5.55,16.77,12.53,19.59,13.88,5.6,19.54-1.71,19.42-12.51-.1-9.73-5.28-24.49-16.26-26A14.49,14.49,0,0,0,260.76,190Z" style="fill: rgb(255, 181, 115); transform-origin: 276.368px 191.236px;" id="elc8uz01jwagl" class="animable"></path><path d="M282.18,191.88a14.05,14.05,0,0,0,5.91-2.56s-5-5.11-4.63-7.79,3.53-2.9,4.14-7.34c0,0,3.08-.22,4.7-1.65-4.55-.38-8.09-1.73-14.56,0s-12.11,5.34-13.69,9.33c-5.5-.68-10.69-.78-12.12-2.46a9.22,9.22,0,0,0,1.76,6.37s-2,3.84-1.28,6.47c1.73-2.78,3.16-2.7,3.16-2.7s1.33,12.56,11.92,17.44c5.13,1.51,10.95-1.5,10.95-1.5S286.62,198.51,282.18,191.88Z" style="fill: rgb(38, 50, 56); transform-origin: 272.093px 189.547px;" id="elz720qvrvybr" class="animable"></path><path d="M284.13,174c5.4-4.68,6.46-12.65,5.28-14.32-5.42,5.82-9.17,5.25-12.82,7.05a10,10,0,0,0,1.56-6.41s-5.25,6.92-12.79,8.26-8.38,3.65-8.38,3.65.69-3.27-.67-5.48c-3.93,5.4-2.05,8.33-.54,9.86-1.18.75-3.51-.06-3.51-.06s2,7.31,8.59,8.36C267.89,187.76,284.13,174,284.13,174Z" style="fill: rgb(38, 50, 56); transform-origin: 271.052px 172.489px;" id="el0uyle1tdmr8c" class="animable"></path><path d="M279.19,194.08a8.76,8.76,0,0,0,5.57,3.73c3,.57,4.31-2.21,3.27-4.93-.93-2.45-3.64-5.71-6.58-5S277.64,191.7,279.19,194.08Z" style="fill: rgb(255, 181, 115); transform-origin: 283.408px 192.833px;" id="el5mimshwi1v4" class="animable"></path><polygon points="348.48 389.39 332.65 383.87 332.15 397.4 345.37 402.03 348.48 389.39" style="fill: rgb(255, 181, 115); transform-origin: 340.315px 392.95px;" id="eluplrvuyfsuk" class="animable"></polygon><g id="el8cbhcb4g3m"><polygon points="348.47 389.39 332.64 383.87 332.36 391.45 346.74 396.47 348.47 389.39" style="opacity: 0.2; transform-origin: 340.415px 390.17px;" class="animable"></polygon></g><path d="M327.73,403.3l1.71.51a3.18,3.18,0,0,0,2.93-.61h0l.71,1a3.16,3.16,0,0,0,1.69,1.2L355,410.34c1-1.88.51-4.87.51-4.87s-7-1.6-8.42-5.29a.76.76,0,0,0-.66-.52c-2.1-.18-10.29-1-14.28-3.79a1,1,0,0,0-1.46.52A52.32,52.32,0,0,1,327.73,403.3Z" id="elwarjg7hfh3h" class="animable" style="transform-origin: 341.68px 403.033px;"></path><path d="M249,297.93l.11,14.56c.17,21.48,18.38,40.66,40.12,42.27,12.7.94,29.85-2.73,39.75-2.92,1.44,15-.49,23,.39,36.61l20.92,4.65c5.73-17.32,12.32-37.27,13-54.41.26-6.69-3.87-13.26-10.25-16.4C321,306.51,249,297.93,249,297.93Z" id="el9xhpob6x0gd" class="animable" style="transform-origin: 306.151px 345.515px;"></path><polygon points="382.47 393.07 365.84 392.29 367.32 405.41 381.22 406.07 382.47 393.07" style="fill: rgb(255, 181, 115); transform-origin: 374.155px 399.18px;" id="elp4b6vca0qe" class="animable"></polygon><g id="eldfrrvk72ghm"><polygon points="382.47 393.08 365.83 392.29 366.66 399.64 381.77 400.36 382.47 393.08" style="opacity: 0.2; transform-origin: 374.15px 396.325px;" class="animable"></polygon></g><path d="M365.29,412.32h1.79a3.16,3.16,0,0,0,2.64-1.42h0l1,.76a3.2,3.2,0,0,0,1.95.67h19.8c.42-2.09-.89-4.81-.89-4.81s-6.16-.58-8.58-3.71a.8.8,0,0,0-.78-.31c-2.06.43-10.15,2-14.77.44a1,1,0,0,0-1.25.91A51,51,0,0,1,365.29,412.32Z" style="fill: rgb(38, 50, 56); transform-origin: 378.922px 407.909px;" id="el0wtyz517al6f" class="animable"></path><path d="M294.45,297.93l-9.58,14.58c.17,21.49,25.87,36.21,47.62,37.82,10.75.79,15.24,1.13,22.38,1.09a4,4,0,0,1,4,4c.11,11,3.23,29.35,5.57,41.16L384,398.3c3.41-17.91,6-47.13,6.65-64.27.26-6.68-5-15.18-11.16-18.71C343.25,294.61,294.45,297.93,294.45,297.93Z" style="fill: rgb(38, 50, 56); transform-origin: 337.765px 348.017px;" id="el655fya7uh3v" class="animable"></path><path d="M293.73,211.43a127.75,127.75,0,0,0-24.9,3,27.69,27.69,0,0,0-22.1,27.28c.17,28.59,2,49.55,1.6,58.08a2.47,2.47,0,0,0,2,2.56c12.33,2.28,78.1,13.5,88.12-5.93,14.82-24.24-15.12-35-23.83-69C312.37,218.58,302.86,211.36,293.73,211.43Z" style="fill: rgb(165, 42, 42); transform-origin: 294.616px 259.534px;" id="elv3te202z43t" class="animable"></path><g id="el8vij01e93ov"><path d="M293.73,211.43a127.75,127.75,0,0,0-24.9,3,27.69,27.69,0,0,0-22.1,27.28c.17,28.59,2,49.55,1.6,58.08a2.47,2.47,0,0,0,2,2.56c12.33,2.28,78.1,13.5,88.12-5.93,14.82-24.24-15.12-35-23.83-69C312.37,218.58,302.86,211.36,293.73,211.43Z" style="fill: rgb(255, 255, 255); opacity: 0.3; transform-origin: 294.616px 259.534px;" class="animable"></path></g><path d="M319.93,236.49l1.42,4.06,1.47,4.23,3,8.45c.5,1.4,1,2.79,1.55,4.17s1,2.77,1.56,4.13c1.08,2.73,2.2,5.38,3.34,8l-.76-1.2a13.51,13.51,0,0,0,1.87,2.59c.89,1.06,1.94,2.18,3,3.32,2.19,2.26,4.55,4.58,7,6.9l7.32,7.05c2.45,2.38,5,4.78,7.32,7.24l.11.12a6.55,6.55,0,0,1-7.1,10.63c-3.42-1.32-6.61-2.8-9.83-4.37-1.59-.81-3.2-1.6-4.77-2.45s-3.14-1.73-4.72-2.62c-3.12-1.82-6.21-3.74-9.3-5.94-1.56-1.09-3.1-2.26-4.69-3.59a36.52,36.52,0,0,1-5.09-5.07l-.77-1.2c-1.9-2.94-3.68-5.92-5.28-8.93q-1.2-2.26-2.34-4.53c-.74-1.53-1.45-3.05-2.14-4.59-1.4-3.06-2.64-6.17-3.81-9.3-.56-1.58-1.15-3.14-1.65-4.75l-.75-2.42c-.25-.83-.47-1.59-.73-2.56a13,13,0,0,1,24.74-7.59Z" style="fill: rgb(255, 181, 115); transform-origin: 327.419px 267.443px;" id="el3ham5532o6i" class="animable"></path><path d="M355.18,296,350,300.25c-3.53,6.15,5.16,9.32,5.16,9.32l3.56,3.21a3.57,3.57,0,0,0,4.62-.15l3.67-3a3.73,3.73,0,0,0,.93-5.11l-2.6-3.28a7.39,7.39,0,0,0-2.86-2.18Z" style="fill: rgb(255, 181, 115); transform-origin: 358.864px 304.778px;" id="el7bupp3eszcp" class="animable"></path><path d="M299.22,213.46c4.47-1.64,15.32,5.35,16.5,13.3,1.9,1.13,2.38,12.44,7,17.45s5,14,1.49,17.34c-6.53,6.18-16.84,10.95-22.21,7.89-3.52-2-6.16-14.32-8.95-22C290.3,240,291.3,216.37,299.22,213.46Z" style="fill: rgb(165, 42, 42); transform-origin: 309.11px 241.805px;" id="elkekoao1uv5" class="animable"></path><g id="elioogattwfmp"><rect x="306.39" y="364.82" width="8.58" height="27.52" style="fill: rgb(224, 224, 224); transform-origin: 310.68px 378.58px; transform: rotate(180deg);" class="animable"></rect></g><path d="M304.7,387.35h12l.85,20.88a3.94,3.94,0,0,1-3.94,4.1h-5.79a3.94,3.94,0,0,1-3.94-4.1Z" style="fill: rgb(165, 42, 42); transform-origin: 310.715px 399.84px;" id="elpgjto972pw" class="animable"></path><path d="M295.36,407.27H326a1.82,1.82,0,0,1,1.72,1.23l1.57,4.55a1.82,1.82,0,0,1-1.72,2.41H293.79a1.82,1.82,0,0,1-1.71-2.41l1.57-4.55A1.82,1.82,0,0,1,295.36,407.27Z" style="fill: rgb(38, 50, 56); transform-origin: 310.685px 411.365px;" id="el7hu9u5q2l4c" class="animable"></path><path d="M296.22,366.35h28.92a6.78,6.78,0,0,0,6.64-5.42l.92-4.42h-44l.91,4.42A6.78,6.78,0,0,0,296.22,366.35Z" style="fill: rgb(165, 42, 42); transform-origin: 310.7px 361.43px;" id="elj1brd7nm05k" class="animable"></path><g id="el0khkoutffwkn"><rect x="362.12" y="284.69" width="1" height="4.73" style="fill: rgb(165, 42, 42); transform-origin: 362.62px 287.055px; transform: rotate(-49.34deg);" class="animable"></rect></g><path d="M358.15,283.88a69.07,69.07,0,0,1-10.3-11.21l.8-.6a68,68,0,0,0,10.15,11.05Z" style="fill: rgb(165, 42, 42); transform-origin: 353.325px 277.975px;" id="ellhujz7qu2dq" class="animable"></path><path d="M266.67,214.92a1.46,1.46,0,0,1,.36-2.74C286,208.52,305,209,315.39,220.62c11.15,12.37,19.76,46.8,41.13,65.16s39.05,32.89,38.9,49.29c-12-13.24-41.35-5.9-66.44-3.69-14,1.23-20.33-7.11-23.8-23.7C301.87,291.81,296.66,229.75,266.67,214.92Z" style="fill: rgb(165, 42, 42); transform-origin: 330.639px 272.614px;" id="el2klb97imqmt" class="animable"></path><path d="M270,216.82c3.21-2,7.24-5.4,4-7s-4.9-.5-4.95,1S266.41,219,270,216.82Z" style="fill: rgb(165, 42, 42); transform-origin: 271.647px 213.143px;" id="elzhodwrozvjp" class="animable"></path><path d="M268,216.42c1.74-2.45,3.63-6.21.76-6.38s-3.75,1.16-3.33,2.25S266.09,219.16,268,216.42Z" style="fill: rgb(165, 42, 42); transform-origin: 267.785px 213.587px;" id="elwj3dff33gjq" class="animable"></path><path d="M267.09,211.81c-3.36-2.36-6.88,1.43-8.69-1.58-1.65,5.52,5.82,6.93,8.78,5.07A4.31,4.31,0,0,0,267.09,211.81Z" style="fill: rgb(165, 42, 42); transform-origin: 262.835px 213.153px;" id="eleje3cpvppr" class="animable"></path><path d="M204.39,237.47a5.1,5.1,0,0,1,3.84-1.75h67.63a5.07,5.07,0,0,1,5,4.37l9.5,66.89a49.7,49.7,0,0,0,48.88,42.6h14.36a5.08,5.08,0,0,1,0,10.16h-82A59.89,59.89,0,0,1,212.7,308.4l-9.5-66.89A5.08,5.08,0,0,1,204.39,237.47Z" style="fill: rgb(165, 42, 42); transform-origin: 280.915px 297.73px;" id="els5pef2dvy6h" class="animable"></path><g id="eldwy17fyvr"><path d="M204.39,237.47a5.1,5.1,0,0,1,3.84-1.75h67.63a5.07,5.07,0,0,1,5,4.37l9.5,66.89a49.7,49.7,0,0,0,48.88,42.6h14.36a5.08,5.08,0,0,1,0,10.16h-82A59.89,59.89,0,0,1,212.7,308.4l-9.5-66.89A5.08,5.08,0,0,1,204.39,237.47Z" style="opacity: 0.3; transform-origin: 280.915px 297.73px;" class="animable"></path></g></g><g id="freepik--Mirror--inject-144" class="animable" style="transform-origin: 377.23px 162.6px;"><rect x="332.16" y="94.78" width="90.14" height="135.64" style="fill: rgb(165, 42, 42); transform-origin: 377.23px 162.6px;" id="el1f27kacyzm6" class="animable"></rect><g id="elud5y25j0i6"><rect x="332.16" y="94.78" width="88.56" height="135.64" style="fill: rgb(255, 255, 255); opacity: 0.7; transform-origin: 376.44px 162.6px;" class="animable"></rect></g><g id="el40yb16n8odp"><g style="opacity: 0.2; transform-origin: 373.415px 195.06px;" class="animable"><g style="clip-path: url(&quot;#freepik--clip-path--inject-144&quot;); transform-origin: 373.415px 195.06px;" id="eltx9cvwch5v8" class="animable"><path d="M411.72,230.41c-1.91-7.89-9.45-15.74-21.78-18.23h0l-.38-.07c-18.78-3.57-37.58-3-47.94,8.52a52.53,52.53,0,0,0-6.51,9.79Z" style="fill: rgb(165, 42, 42); transform-origin: 373.415px 220.296px;" id="elar8ebfjwjgf" class="animable"></path><path d="M405,179.41a4.5,4.5,0,0,1-2.3,1.16,14.74,14.74,0,0,0,2-4s-2.33.81-3.51.06c1.51-1.53,3.39-4.46-.54-9.86-1.36,2.21-.67,5.48-.67,5.48s-.84-2.3-8.38-3.64-12.79-8.27-12.79-8.27a10,10,0,0,0,1.56,6.41c-3.65-1.8-7.39-1.23-12.82-7.05-1,1.43-.37,7.43,3.19,12.07-2.07.19-4,.57-6.08.75,1.62,1.43,4.7,1.65,4.7,1.65.61,4.44,3.77,4.67,4.14,7.34s-4.63,7.79-4.63,7.79a14.05,14.05,0,0,0,5.91,2.56c-4.44,6.63,3.74,13.61,3.74,13.61s7.88-1.82,13-3.33a14.48,14.48,0,0,0,9.86-12.61s1.43-.08,3.16,2.7c.68-2.63-1.28-6.47-1.28-6.47A9.22,9.22,0,0,0,405,179.41Z" style="fill: rgb(38, 50, 56); transform-origin: 384.852px 182.585px;" id="elkklpao5ynj" class="animable"></path><path d="M388.73,214.6c-2.89,3.75-11.82,4.79-18.44,4.44-4.85-.25-5.93-2.72-4.8-4.9a8,8,0,0,1,2.95-1.8,8.72,8.72,0,0,0,.51-5.84l22.32-5.63C389.54,206.43,388.11,211.07,388.73,214.6Z" style="fill: rgb(255, 181, 115); transform-origin: 378.175px 209.987px;" id="eld0be94tr7xu" class="animable"></path><path d="M372.68,173.84c-5.4,2.2-7.44,8.64-7.44,8.64a10,10,0,0,0,3.5-.67c-1.48,3.05-5.7,5.19-5.7,5.19s7.17,2.79,12.88-.33c3-1.64,3.3-11.88,3.3-11.88Z" style="fill: rgb(38, 50, 56); transform-origin: 371.13px 180.994px;" id="ele7qcchub8nt" class="animable"></path><g id="eljy4tuvw5qk"><path d="M369,206.5a8.87,8.87,0,0,1-.33,5.44c3.09,1.38,7.39,1.24,13.05-1.05,4.41-1.78,7-5.13,9.08-9.89Z" style="opacity: 0.2; transform-origin: 379.735px 206.914px;" class="animable"></path></g><path d="M396.21,190c-3.17,10-5,15.54-12,18.36-13.88,5.61-20.1-.48-20-11.28.1-9.73,5.28-24.49,16.26-26A14.49,14.49,0,0,1,396.21,190Z" style="fill: rgb(255, 181, 115); transform-origin: 380.579px 190.714px;" id="elzx0cg3qqk3b" class="animable"></path><path d="M387.45,179.21c2.5,5.57,1.35,10.2-1.16,12,.7,1.35,3.08,2.43,6,2.51-1.89,6.42-.8,8.41-.8,8.41l7.58-11.49s.31-9.61-2.21-13.23S387.45,179.21,387.45,179.21Z" style="fill: rgb(38, 50, 56); transform-origin: 392.686px 189.147px;" id="el3g1heb6gbpz" class="animable"></path><path d="M367.3,181a.49.49,0,0,0,.47-.05,3.94,3.94,0,0,1,3.58-.55.49.49,0,0,0,.65-.27.52.52,0,0,0-.27-.66,4.94,4.94,0,0,0-4.53.64.52.52,0,0,0-.13.7A.53.53,0,0,0,367.3,181Z" style="fill: rgb(38, 50, 56); transform-origin: 369.511px 180.112px;" id="el3yvtnk01m8g" class="animable"></path><path d="M380.56,181.9a.5.5,0,0,0,.29.37,3.93,3.93,0,0,1,2.39,2.72.5.5,0,0,0,.58.4.51.51,0,0,0,.41-.58,5,5,0,0,0-3-3.47.5.5,0,0,0-.66.27A.48.48,0,0,0,380.56,181.9Z" style="fill: rgb(38, 50, 56); transform-origin: 382.389px 183.349px;" id="elrw4tx957gm" class="animable"></path><path d="M370.13,186.37c-.21.83-.82,1.39-1.36,1.25s-.81-.93-.61-1.76.82-1.39,1.36-1.25S370.33,185.54,370.13,186.37Z" style="fill: rgb(38, 50, 56); transform-origin: 369.145px 186.115px;" id="elceow8rnqyi" class="animable"></path><path d="M380,188.52c-.21.83-.82,1.39-1.36,1.25s-.81-.93-.6-1.76.81-1.39,1.36-1.25S380.18,187.69,380,188.52Z" style="fill: rgb(38, 50, 56); transform-origin: 379.014px 188.265px;" id="elq0hwj97n7g" class="animable"></path><path d="M372,187.74l-1.69,7s-2.82,0-4.1-1.62C368,189.74,372,187.74,372,187.74Z" style="fill: rgb(237, 137, 62); transform-origin: 369.105px 191.24px;" id="el37wxtts436v" class="animable"></path><path d="M397.22,194.08a8.71,8.71,0,0,1-5.57,3.73c-3,.57-4.31-2.21-3.27-4.93.94-2.45,3.64-5.71,6.59-5S398.77,191.7,397.22,194.08Z" style="fill: rgb(255, 181, 115); transform-origin: 393.004px 192.833px;" id="elaga9ekpporm" class="animable"></path><path d="M373.36,199a9.81,9.81,0,0,1-1.77-.09.29.29,0,0,1-.24-.35.33.33,0,0,1,.37-.26,8.91,8.91,0,0,0,7.36-2.37.3.3,0,1,1,.44.41A9.34,9.34,0,0,1,373.36,199Z" style="fill: rgb(38, 50, 56); transform-origin: 375.472px 197.421px;" id="el4ayqd93ak7z" class="animable"></path><path d="M397.62,178.69c-5.89,2.63-15.94,2.06-19.39.84,4.67-.07,6.65-1.67,6.65-1.67s-8.25,1.28-12.31-4.75c7.16-3.66,13.35-4.78,18.7-2.49S397.62,178.69,397.62,178.69Z" style="fill: rgb(38, 50, 56); transform-origin: 385.095px 174.993px;" id="elhj06l85o02" class="animable"></path></g></g></g><g id="el3oxnt4ir0vl"><polygon points="389.56 230.41 375.61 230.41 402.07 94.78 416.01 94.78 389.56 230.41" style="fill: rgb(255, 255, 255); opacity: 0.2; transform-origin: 395.81px 162.595px;" class="animable"></polygon></g><g id="elxzd9y8ky0oe"><polygon points="370.18 230.41 356.24 230.41 382.69 94.78 396.63 94.78 370.18 230.41" style="fill: rgb(255, 255, 255); opacity: 0.2; transform-origin: 376.435px 162.595px;" class="animable"></polygon></g></g><defs>     <filter id="active" height="200%">         <feMorphology in="SourceAlpha" result="DILATED" operator="dilate" radius="2"></feMorphology>                <feFlood flood-color="#32DFEC" flood-opacity="1" result="PINK"></feFlood>        <feComposite in="PINK" in2="DILATED" operator="in" result="OUTLINE"></feComposite>        <feMerge>            <feMergeNode in="OUTLINE"></feMergeNode>            <feMergeNode in="SourceGraphic"></feMergeNode>        </feMerge>    </filter>    <filter id="hover" height="200%">        <feMorphology in="SourceAlpha" result="DILATED" operator="dilate" radius="2"></feMorphology>                <feFlood flood-color="#ff0000" flood-opacity="0.5" result="PINK"></feFlood>        <feComposite in="PINK" in2="DILATED" operator="in" result="OUTLINE"></feComposite>        <feMerge>            <feMergeNode in="OUTLINE"></feMergeNode>            <feMergeNode in="SourceGraphic"></feMergeNode>        </feMerge>            <feColorMatrix type="matrix" values="0   0   0   0   0                0   1   0   0   0                0   0   0   0   0                0   0   0   1   0 "></feColorMatrix>    </filter></defs><defs><clipPath id="freepik--clip-path--inject-144"><rect x="332.16" y="94.78" width="88.56" height="135.64" style="fill:none"></rect></clipPath></defs></svg>