<svg class="animated" id="freepik_stories-beauty-salon" xmlns="http://www.w3.org/2000/svg" viewBox="0 0 500 500" version="1.1" xmlns:xlink="http://www.w3.org/1999/xlink" xmlns:svgjs="http://svgjs.com/svgjs"><style>svg#freepik_stories-beauty-salon:not(.animated) .animable {opacity: 0;}svg#freepik_stories-beauty-salon.animated #freepik--background-complete--inject-44 {animation: 6s Infinite  linear floating;animation-delay: 0s;}svg#freepik_stories-beauty-salon.animated #freepik--character-2--inject-44 {animation: 6s Infinite  linear wind;animation-delay: 0s;}            @keyframes floating {                0% {                    opacity: 1;                    transform: translateY(0px);                }                50% {                    transform: translateY(-10px);                }                100% {                    opacity: 1;                    transform: translateY(0px);                }            }                    @keyframes wind {                0% {                    transform: rotate( 0deg );                }                25% {                    transform: rotate( 1deg );                }                75% {                    transform: rotate( -1deg );                }            }        </style><g id="freepik--background-complete--inject-44" class="animable animator-active" style="transform-origin: 250px 228.23px;"><rect y="382.4" width="500" height="0.25" style="fill: rgb(235, 235, 235); transform-origin: 250px 382.525px;" id="elrbm00oujgmn" class="animable"></rect><rect x="416.78" y="398.49" width="33.12" height="0.25" style="fill: rgb(235, 235, 235); transform-origin: 433.34px 398.615px;" id="elscq3eueo9n" class="animable"></rect><rect x="322.53" y="401.21" width="8.69" height="0.25" style="fill: rgb(235, 235, 235); transform-origin: 326.875px 401.335px;" id="el6b264pquyj5" class="animable"></rect><rect x="396.59" y="389.21" width="19.19" height="0.25" style="fill: rgb(235, 235, 235); transform-origin: 406.185px 389.335px;" id="elks6cbml8xo" class="animable"></rect><rect x="52.46" y="390.89" width="43.19" height="0.25" style="fill: rgb(235, 235, 235); transform-origin: 74.055px 391.015px;" id="el3y043ic9vzi" class="animable"></rect><rect x="104.56" y="390.89" width="6.33" height="0.25" style="fill: rgb(235, 235, 235); transform-origin: 107.725px 391.015px;" id="elh47rj66703" class="animable"></rect><rect x="131.47" y="395.11" width="93.68" height="0.25" style="fill: rgb(235, 235, 235); transform-origin: 178.31px 395.235px;" id="els5bzcpicm4" class="animable"></rect><path d="M237,337.8H43.91a5.71,5.71,0,0,1-5.7-5.71V60.66A5.71,5.71,0,0,1,43.91,55H237a5.71,5.71,0,0,1,5.71,5.71V332.09A5.71,5.71,0,0,1,237,337.8ZM43.91,55.2a5.46,5.46,0,0,0-5.45,5.46V332.09a5.46,5.46,0,0,0,5.45,5.46H237a5.47,5.47,0,0,0,5.46-5.46V60.66A5.47,5.47,0,0,0,237,55.2Z" style="fill: rgb(235, 235, 235); transform-origin: 140.46px 196.4px;" id="elmgsd2bet2ip" class="animable"></path><path d="M453.31,337.8H260.21a5.72,5.72,0,0,1-5.71-5.71V60.66A5.72,5.72,0,0,1,260.21,55h193.1A5.71,5.71,0,0,1,459,60.66V332.09A5.71,5.71,0,0,1,453.31,337.8ZM260.21,55.2a5.47,5.47,0,0,0-5.46,5.46V332.09a5.47,5.47,0,0,0,5.46,5.46h193.1a5.47,5.47,0,0,0,5.46-5.46V60.66a5.47,5.47,0,0,0-5.46-5.46Z" style="fill: rgb(235, 235, 235); transform-origin: 356.75px 196.4px;" id="elfnoje6a3kd" class="animable"></path><rect x="333.71" y="127.49" width="84.06" height="115.33" style="fill: rgb(235, 235, 235); transform-origin: 375.74px 185.155px;" id="elv5n4rsja2w" class="animable"></rect><rect x="336.71" y="130.49" width="78.06" height="109.34" style="fill: rgb(250, 250, 250); transform-origin: 375.74px 185.16px;" id="elhk6q1o76eu8" class="animable"></rect><path d="M400.51,197.39a18.2,18.2,0,0,1-1.22,3,32.24,32.24,0,0,1-2.13,3.49,16.1,16.1,0,0,1-1.49,1.83,15.68,15.68,0,0,1-1.57,1.47c-8.6,7.13-25.19,7.92-37.34,4.52a39.23,39.23,0,0,1-3.75-1.24,27.14,27.14,0,0,1-5.77-3l-.59-.42a15.86,15.86,0,0,1-1.23-1c-2.12-1.94-3.93-3.78-5.49-5.47-.6-.66-1.15-1.29-1.68-1.9s-1.06-1.27-1.54-1.86V185.7a6.67,6.67,0,0,1,3.93.57,7.17,7.17,0,0,0,10-8.66c-1.78-6.53-1.06-9.1,6.95-11.74l.73-.25h0a26.33,26.33,0,0,0,3.36-1.4c4.15-2.11,4.65-4.33,5.28-7.08,0,0,2.19-7.44,8.1-9.67a9.58,9.58,0,0,1,3.51-.64c9.33,0,13.63,6.78,15.05,9.69,0,.06.05.11.08.16.33.71.48,1.15.48,1.15a13.52,13.52,0,0,0,0,3c.4,4.18,2.33,8.26,1.67,13.94-.81,7-3.14,3.86-1.64,9.19.73,2.57,3.62,4.13,5.36,6.58A7.32,7.32,0,0,1,400.51,197.39Z" style="fill: rgb(224, 224, 224); transform-origin: 368.839px 180.237px;" id="el2uq2anqty5t" class="animable"></path><path d="M369,156.06a7,7,0,0,1-.11.8c-.36,2-2,7.27-9,8.54a14.72,14.72,0,0,1-1.55.21h0a29.49,29.49,0,0,1-6.2-.21c-4.39-.48-7.56-.83-10.67,4.85-1.29,2.35-2.88,3.79-4.74,4.29v-.74a7.51,7.51,0,0,0,4.12-3.89c3.34-6.09,6.88-5.7,11.37-5.21a25.44,25.44,0,0,0,7.56,0,14,14,0,0,0,1.94-.5,9.59,9.59,0,0,0,6.49-7.25,7,7,0,0,0,.13-.93.36.36,0,0,1,.71,0Z" style="fill: rgb(224, 224, 224); transform-origin: 352.89px 165.13px;" id="el2jq5rwux1gq" class="animable"></path><path d="M414.77,229.2v10.16c-4.38-5.22-8.78-10.63-9.91-12.68L398,214.27l-2.56-4.66-1.36-2.48-3.24-5.89s-2.14-2.52-.95-7a10.42,10.42,0,0,1,2.8-5.1,4.33,4.33,0,0,1,.88-.66c1.91.32,3.94,3.07,5.9,6.88q.51,1,1,2.07c4.07,8.71,7.74,21.06,9.42,24.37C410.51,222.9,412.39,225.75,414.77,229.2Z" style="fill: rgb(255, 255, 255); transform-origin: 402.15px 213.92px;" id="eli4zge3oixyn" class="animable"></path><path d="M394.62,239.83H382.77l8-6.35,2-1.59s.18.58.47,1.67C393.54,234.91,394.07,237.05,394.62,239.83Z" style="fill: rgb(235, 235, 235); transform-origin: 388.695px 235.86px;" id="el4x2e5s94q6" class="animable"></path><path d="M393.18,233.56a42,42,0,0,1-.78,6.27H355.21a100.71,100.71,0,0,1,3.94-10.65c.19-.43.3-.66.3-.66l33.58.29h.13A41.88,41.88,0,0,1,393.18,233.56Z" style="fill: rgb(235, 235, 235); transform-origin: 374.224px 234.175px;" id="eluzrjfzksuhp" class="animable"></path><polygon points="371.5 234.31 389.13 234.58 389.33 229.28 371.69 229.47 371.5 234.31" style="fill: rgb(224, 224, 224); transform-origin: 380.415px 231.93px;" id="elbcfncu8virt" class="animable"></polygon><polygon points="390.89 229.26 390.68 234.6 392.46 234.63 392.95 229.24 390.89 229.26" style="fill: rgb(224, 224, 224); transform-origin: 391.815px 231.935px;" id="elkh94or144re" class="animable"></polygon><polygon points="370.14 229.49 360.79 229.59 360.37 234.14 369.95 234.29 370.14 229.49" style="fill: rgb(224, 224, 224); transform-origin: 365.255px 231.89px;" id="elhbh9i44zpqv" class="animable"></polygon><rect x="378.36" y="229.66" width="6.86" height="5.2" style="fill: rgb(255, 255, 255); transform-origin: 381.79px 232.26px;" id="el0dun87qb279k" class="animable"></rect><path d="M355.2,187.9s22.16-4.88,40.45,2.24a170.16,170.16,0,0,1-2.7,39.1l-33.86.25s1.83-9.22-5.68-27.05Z" style="fill: rgb(255, 255, 255); transform-origin: 374.622px 207.879px;" id="elzo7f9i63r7" class="animable"></path><path d="M380,193.12c-7.78-1.91-9.77-5.56-9.77-5.56,3.58-2.67,3.5-7.23,3-10.13a16,16,0,0,0-.68-2.69l9.3,2.86a29,29,0,0,0-.82,4,12.25,12.25,0,0,0-.07,3c.32,2.91,1.94,3.14,1.94,3.14C384.18,191,380,193.12,380,193.12Z" style="fill: rgb(255, 255, 255); transform-origin: 376.687px 183.93px;" id="eldhyvohl6oeu" class="animable"></path><path d="M382.9,151.06c8.23,1.25,10.21,6.06,9.52,14.63-.86,10.72-4.35,17.9-14.3,14.07C364.61,174.56,369.23,149,382.9,151.06Z" style="fill: rgb(255, 255, 255); transform-origin: 381.283px 165.872px;" id="elz4bx6i0h23r" class="animable"></path><path d="M387.17,164.43a17.22,17.22,0,0,0,1.88,3.77,2.29,2.29,0,0,1-2.31.61Z" style="fill: rgb(245, 245, 245); transform-origin: 387.895px 166.668px;" id="el1d3kb1p2eds" class="animable"></path><path d="M382.23,163c-.08.67-.52,1.18-1,1.12s-.75-.66-.66-1.33.52-1.19,1-1.13S382.32,162.31,382.23,163Z" style="fill: rgb(224, 224, 224); transform-origin: 381.4px 162.89px;" id="elvqij9d7ix9k" class="animable"></path><path d="M381.38,161.66l1.55-.39S382,162.42,381.38,161.66Z" style="fill: rgb(224, 224, 224); transform-origin: 382.155px 161.595px;" id="elesq072fh0kh" class="animable"></path><path d="M390.69,163.93c-.09.68-.52,1.18-1,1.12s-.75-.65-.66-1.33.53-1.19,1-1.13S390.78,163.25,390.69,163.93Z" style="fill: rgb(224, 224, 224); transform-origin: 389.86px 163.82px;" id="elo8xv144t9as" class="animable"></path><path d="M389.84,162.6l1.55-.39S390.49,163.36,389.84,162.6Z" style="fill: rgb(224, 224, 224); transform-origin: 390.615px 162.535px;" id="elnqo2dmwm92" class="animable"></path><path d="M379.26,158.34a.39.39,0,0,1-.27-.11.35.35,0,0,1,0-.5,4.64,4.64,0,0,1,4.09-.78.36.36,0,0,1,.25.44.37.37,0,0,1-.44.24,4,4,0,0,0-3.43.62A.33.33,0,0,1,379.26,158.34Z" style="fill: rgb(224, 224, 224); transform-origin: 381.114px 157.557px;" id="el3bj85337b5i" class="animable"></path><path d="M392.23,159.38a.38.38,0,0,1-.24-.09,3.54,3.54,0,0,0-2.87-1.09.36.36,0,0,1-.14-.7,4.26,4.26,0,0,1,3.49,1.26.35.35,0,0,1,0,.5A.34.34,0,0,1,392.23,159.38Z" style="fill: rgb(224, 224, 224); transform-origin: 390.656px 158.428px;" id="elfmqtqrglt97" class="animable"></path><path d="M371.79,163.56s4.88-6.17,5.09-11.49c0,0,17.33-4.18,15.61,12.5,0,0,3.83-14.46-10.27-16.94S365,165.87,371.4,173.15C371.4,173.15,368.76,167.43,371.79,163.56Z" style="fill: rgb(224, 224, 224); transform-origin: 380.596px 160.288px;" id="el2j1dcsdepao" class="animable"></path><path d="M372.87,165.51a3.66,3.66,0,0,0-3.39-3.9c-2.59-.1-4.6,4.95,1.55,7.17C371.92,169.1,372.56,168.29,372.87,165.51Z" style="fill: rgb(255, 255, 255); transform-origin: 369.927px 165.227px;" id="eluwinj0q8jiq" class="animable"></path><path d="M381.93,169.65a.37.37,0,0,1,.31.22,5.77,5.77,0,0,0,2.42,2.56.35.35,0,0,1,.16.48.36.36,0,0,1-.48.15,6.43,6.43,0,0,1-2.76-2.92.35.35,0,0,1,.19-.46A.45.45,0,0,1,381.93,169.65Z" style="fill: rgb(224, 224, 224); transform-origin: 383.207px 171.375px;" id="eljj9r8pg1nve" class="animable"></path><path d="M394.19,156.68s-.51-7.58-2-8.68c-5.73-4.33-13.71-5.93-19.35-3.82s-5.9,12.95-5.9,12.95l4.88-.69Z" style="fill: rgb(240, 240, 240); transform-origin: 380.565px 150.193px;" id="elrtixoba3uyo" class="animable"></path><path d="M372.56,156.45c.09-.4.95-7.92,3.06-9.57s9-2.5,9-2.5,6.59,2.78,8,4.75,1.64,8.69,1.64,8.69Z" style="fill: rgb(255, 255, 255); transform-origin: 383.41px 151.1px;" id="elpd6if2rmn5o" class="animable"></path><path d="M372.56,156.45s20.4,5.16,28.44,4.82-8-5-8-5S380.47,152,372.56,156.45Z" style="fill: rgb(240, 240, 240); transform-origin: 387.908px 157.855px;" id="eljomi0gnd0p" class="animable"></path><g id="ellrh1r65vqtr"><path d="M360.4,203.44c-1.55,5.89-3.82,7.64-3.82,7.64-.71-2.36-1.92-7.71-2.15-8.89-.18-1,3.14-3,2.93-4,.85,0,2.11-1.66,3-1.58A18.18,18.18,0,0,1,360.4,203.44Z" style="fill: rgb(224, 224, 224); isolation: isolate; opacity: 0.2; transform-origin: 357.563px 203.844px;" class="animable"></path></g><path d="M357.56,193.92c0,.27,0,.55-.08.84-.57,4.64-3.48,6.2-3.48,6.2l-.45.38-6.9,5.67-.35.29-9.59,7.9V204.63a2.28,2.28,0,0,1-.3-.17l.3-.35c1-1.17,2.12-2.38,3.22-3.59a109.12,109.12,0,0,1,7.85-7.92c2.86-2.54,5.47-4.33,7.4-4.57a2.83,2.83,0,0,1,1,0S357.82,189.87,357.56,193.92Z" style="fill: rgb(255, 255, 255); transform-origin: 346.999px 201.593px;" id="eluo8e8x3azzl" class="animable"></path><path d="M363.61,186.27s3.11,5.28.6,14.5l4.46-.68s1.25-9.44-2.53-13.82Z" style="fill: rgb(224, 224, 224); transform-origin: 366.239px 193.52px;" id="el1eacri6x32u" class="animable"></path><path d="M399.49,195.32c0,1.44-.1,3.15-.2,5-.2,4.19-.59,9.2-1.27,13.93-.24,1.7-.53,3.36-.86,4.94l-2.65.38-35.27,5-2.81.4L353,210.41l-.59-2.53s-2.24-.08-5.18-.45l-.94-.13c-3.22-.46-7-1.26-9.59-2.67a2.28,2.28,0,0,1-.3-.17l.3-.35v-4l1.54-1.54,6.58-6.6s1.09.25,2.95.58c1.69.31,4,.68,6.72,1,1,.12,2,.23,3.06.32,2.39.22,5,.38,7.62.4,1.19,0,2.39,0,3.6,0a47.37,47.37,0,0,0,10.26-1.4c.78-.2,1.55-.43,2.29-.69a18.83,18.83,0,0,0,7.12-4.23,13.42,13.42,0,0,0,1.42-1.68,48.58,48.58,0,0,1,9.69,4.24S399.57,192.38,399.49,195.32Z" style="fill: rgb(240, 240, 240); transform-origin: 367.976px 205.62px;" id="elnox8u7c8srm" class="animable"></path><g id="eljtkpw08a51r"><rect x="242.16" y="101" width="80.56" height="110.23" style="fill: rgb(235, 235, 235); transform-origin: 282.44px 156.115px; transform: rotate(180deg);" class="animable"></rect></g><rect x="245.16" y="104" width="74.56" height="104.23" style="fill: rgb(250, 250, 250); transform-origin: 282.44px 156.115px;" id="elcog3p8efq3r" class="animable"></rect><path d="M299.37,160.85s-2-9.22-3.72-11.23-2.32-4.44-5.82-1.93-1.68,18.58.41,18.59a41.29,41.29,0,0,1,6.37,1Z" style="fill: rgb(240, 240, 240); transform-origin: 293.615px 156.95px;" id="elzhqsjqrjiy" class="animable"></path><path d="M247.58,149.53s-9.08,32.89,5,43.64,40.13.53,44.43,8.59S313.66,199,313.66,199s-7.25,3.55-7.52-3.83,0-14.9-10.74-21.88-5.91-2.21-4.57-23.4-24.71-30.23-35.73-17.25C255.1,132.64,245.43,133,247.58,149.53Z" style="fill: rgb(224, 224, 224); transform-origin: 279.18px 165.682px;" id="el2hf41u8ww95" class="animable"></path><path d="M290,185.33l.55,7.26.45,6,.09,1.28s1.37-.07,3.61-.28l1.9-.2c2.78-.31,6.37-.8,10.16-1.55l2-.42a64.54,64.54,0,0,0,11-3.35V171.8a141.79,141.79,0,0,0-20.35-11l-3.94,3.87-.56.55-.45.45,2.19,1.53c3.34,2.35,9.78,7,14,10.46l.62.52c2.06,1.76,3.44,3.18,3.38,3.77-.13,1.19-4.57,1.75-9.86,2.15-3.62.28-7.65.49-11,.77C292.33,185,291,185.17,290,185.33Z" style="fill: rgb(240, 240, 240); transform-origin: 304.88px 180.335px;" id="ely10hgivzswe" class="animable"></path><path d="M248.81,189c-1.22.3-2.44.63-3.65,1v18.22h51.58c0-2.63,0-5-.11-7.06,0-.61-.05-1.19-.07-1.75a62.35,62.35,0,0,0-.61-6.77c-.81-5-1.66-6.94-2.19-7.73-.32-.49-.53-.53-.53-.53s-9.82-.33-18.32.2l-.9.08c-5.17.47-10.32,1.2-15.4,2.18-1.08.21-2.16.43-3.23.66C253.17,188,251,188.47,248.81,189Z" style="fill: rgb(255, 255, 255); transform-origin: 270.95px 196.249px;" id="elcezawox764g" class="animable"></path><path d="M271.46,148.85a.31.31,0,0,0,.2-.07c9.61-6.93,7.11-13.61,7-13.89a.36.36,0,0,0-.46-.2.34.34,0,0,0-.2.46c.1.26,2.38,6.47-6.75,13.06a.34.34,0,0,0-.08.49A.35.35,0,0,0,271.46,148.85Z" style="fill: rgb(224, 224, 224); transform-origin: 275.066px 141.758px;" id="elor3uz5z71g" class="animable"></path><path d="M310.67,179a.37.37,0,0,0,.34-.23,7.68,7.68,0,0,0-.65-6.36c-1.31-2.37-4.4-5.5-11.71-6.94-6.82-1.34-6.73-2.52-6.36-7.47a52.7,52.7,0,0,0-.89-15.76c-1.12-5.57-3.63-9.5-7.48-11.7-6.77-3.86-15.15-1-15.51-.88a.36.36,0,0,0,.24.68c.08,0,8.44-2.87,14.92.83,3.66,2.08,6.06,5.86,7.13,11.21a52.38,52.38,0,0,1,.88,15.57c-.38,5.06-.5,6.76,6.94,8.22,7,1.38,10,4.35,11.22,6.59a7,7,0,0,1,.6,5.75.35.35,0,0,0,.2.46Z" style="fill: rgb(224, 224, 224); transform-origin: 289.794px 153.764px;" id="elcxgai7b03v" class="animable"></path><path d="M258.07,187.36s3.08,4.87,14,6.85c0,0,5.66-3.32,3.54-7.81,0,0-2.16-.74-2.4-5a24.15,24.15,0,0,1,1.08-7.7l-12.43-8.48s.08.37.19,1C262.71,169.89,264.29,182.06,258.07,187.36Z" style="fill: rgb(240, 240, 240); transform-origin: 267.078px 179.715px;" id="el6mov1ytcfwi" class="animable"></path><path d="M271.8,136c11.57-.43,15.52,5.63,16.81,17.52,1.6,14.86-1.31,25.56-15.89,22.91C252.91,172.8,252.59,136.67,271.8,136Z" style="fill: rgb(240, 240, 240); transform-origin: 273.313px 156.406px;" id="el668mj0osyev" class="animable"></path><path d="M281.1,153.12a24.57,24.57,0,0,0,3.55,4.67,3.19,3.19,0,0,1-3,1.42Z" style="fill: rgb(230, 230, 230); transform-origin: 282.875px 156.174px;" id="ele41gjmjrmyc" class="animable"></path><path d="M274,152.43c.06.95-.41,1.75-1,1.79s-1.2-.7-1.25-1.65.41-1.75,1-1.79S273.93,151.48,274,152.43Z" style="fill: rgb(224, 224, 224); transform-origin: 272.876px 152.5px;" id="elh21levwwzog" class="animable"></path><path d="M272.48,150.84l2-.93S273.57,151.71,272.48,150.84Z" style="fill: rgb(224, 224, 224); transform-origin: 273.48px 150.494px;" id="eln384dces1ed" class="animable"></path><path d="M285.78,151.52c.06.95-.41,1.75-1,1.79s-1.19-.7-1.25-1.65.41-1.75,1-1.78S285.72,150.58,285.78,151.52Z" style="fill: rgb(224, 224, 224); transform-origin: 284.655px 151.595px;" id="elsa98mp7sz5c" class="animable"></path><path d="M284.27,149.94l2-.94S285.36,150.8,284.27,149.94Z" style="fill: rgb(224, 224, 224); transform-origin: 285.27px 149.586px;" id="elq0rf991qdf" class="animable"></path><path d="M268.63,146.9a.51.51,0,0,0,.41-.21c1.5-2,4.46-1.73,4.49-1.73a.52.52,0,0,0,.57-.46.53.53,0,0,0-.47-.57c-.15,0-3.58-.3-5.42,2.14a.53.53,0,0,0,.11.73A.5.5,0,0,0,268.63,146.9Z" style="fill: rgb(224, 224, 224); transform-origin: 271.106px 145.409px;" id="el51mjychmyhl" class="animable"></path><path d="M286.62,145a.52.52,0,0,0,.27-1,5.9,5.9,0,0,0-5.12-.82.52.52,0,1,0,.4,1,4.93,4.93,0,0,1,4.18.74A.43.43,0,0,0,286.62,145Z" style="fill: rgb(224, 224, 224); transform-origin: 284.331px 143.965px;" id="elshvumldbyj" class="animable"></path><path d="M259.88,155.93s5.06-9.7,4-17c0,0,22.58-10.21,24.56,13,0,0,1.48-20.74-18.42-20.47s-18.75,29.35-8.16,37.65C261.83,169.12,256.75,162,259.88,155.93Z" style="fill: rgb(224, 224, 224); transform-origin: 271.409px 150.284px;" id="elu4shbhqldcc" class="animable"></path><path d="M261.85,158.3a5.07,5.07,0,0,0-5.63-4.43c-3.57.52-5,7.94,4,9.38C261.48,163.46,262.16,162.18,261.85,158.3Z" style="fill: rgb(240, 240, 240); transform-origin: 257.69px 158.553px;" id="elvbqflcbn37p" class="animable"></path><path d="M280.3,164.73a6.14,6.14,0,0,0,1.28-.11.51.51,0,0,0-.21-1c-.18,0-4.38.86-6.09-3a.5.5,0,1,0-.92.41A6.16,6.16,0,0,0,280.3,164.73Z" style="fill: rgb(224, 224, 224); transform-origin: 278.151px 162.529px;" id="elq40ds14f38" class="animable"></path><path d="M269.16,172c.5,0,1,0,1.54,0a.36.36,0,1,0,0-.71c-5.74.27-9.91-1-12.39-3.71a10.47,10.47,0,0,1-2.42-7.81.36.36,0,0,0-.3-.4.37.37,0,0,0-.41.3,11,11,0,0,0,2.61,8.39C260.14,170.68,264,172,269.16,172Z" style="fill: rgb(224, 224, 224); transform-origin: 263.117px 165.686px;" id="el6bdo0y2xpv8" class="animable"></path><polygon points="79.09 135.63 115.88 114.22 144.22 114.22 181.63 134.61 181.63 273.34 79.09 273.34 79.09 135.63" style="fill: rgb(224, 224, 224); transform-origin: 130.36px 193.78px;" id="elzisqxssgnh9" class="animable"></polygon><path d="M182.68,273.34H79.09V135.63l1-1a72.9,72.9,0,0,1,50.74-20.39h0a72.92,72.92,0,0,1,50.75,20.39l1.05,1ZM86,266.46h89.85V138.58a66.47,66.47,0,0,0-89.85,0Z" style="fill: rgb(250, 250, 250); transform-origin: 130.885px 193.79px;" id="el7zry8dlrzm2" class="animable"></path><polygon points="128.31 267.29 133.46 267.29 133.46 221.25 177.11 221.25 177.11 216.1 133.46 216.1 133.46 169.01 177.11 169.01 177.11 163.86 133.46 163.86 133.46 120.21 128.31 120.21 128.31 163.86 84.66 163.86 84.66 169.01 128.31 169.01 128.31 216.1 84.66 216.1 84.66 221.25 128.31 221.25 128.31 267.29" style="fill: rgb(240, 240, 240); transform-origin: 130.885px 193.75px;" id="el440u512ldw9" class="animable"></polygon><path d="M186.12,276.77H75.65V134.23l1-1a76.77,76.77,0,0,1,108.45,0l1,1ZM82.52,269.9h96.73V137.09a69.9,69.9,0,0,0-96.73,0Z" style="fill: rgb(240, 240, 240); transform-origin: 130.885px 193.787px;" id="elqs1ywoc32w9" class="animable"></path></g><g id="freepik--Shadow--inject-44" class="animable" style="transform-origin: 250px 416.24px;"><ellipse id="freepik--path--inject-44" cx="250" cy="416.24" rx="193.89" ry="11.32" style="fill: rgb(245, 245, 245); transform-origin: 250px 416.24px;" class="animable"></ellipse></g><g id="freepik--character-2--inject-44" class="animable" style="transform-origin: 193.781px 279.789px;"><path d="M208.15,207c-1.05.67-1.93,1.17-2.92,1.69s-1.93,1-2.92,1.49a51.32,51.32,0,0,1-6.2,2.47,33.64,33.64,0,0,1-7,1.56,20,20,0,0,1-4,.05,17,17,0,0,1-2.25-.37,12.13,12.13,0,0,1-1.37-.43,11.82,11.82,0,0,1-1.11-.49,19.9,19.9,0,0,1-3.27-2.11c-.93-.72-1.77-1.45-2.59-2.18-1.61-1.5-3.1-3-4.51-4.57a90.44,90.44,0,0,1-7.77-9.81l4.09-3.72c3.11,2.49,6.23,5.07,9.32,7.48,1.55,1.2,3.1,2.38,4.64,3.43.76.53,1.53,1,2.27,1.47a12.49,12.49,0,0,0,2,1,2.78,2.78,0,0,0,.3.09c.09,0,0,0,.08,0h.77a11.77,11.77,0,0,0,2-.27,29.69,29.69,0,0,0,4.78-1.48c1.65-.65,3.33-1.41,5-2.23.83-.4,1.67-.82,2.49-1.26l2.38-1.29Z" style="fill: rgb(206, 122, 99); transform-origin: 185.195px 202.458px;" id="elc0zvbdgxf8f" class="animable"></path><path d="M210.54,190.9c-3.69.34-19,10.56-19,10.56l6.62,11.39L211.56,207s-1.93-2.19-1-7.35A22.9,22.9,0,0,0,210.54,190.9Z" style="fill: rgb(165, 42, 42); transform-origin: 201.55px 201.875px;" id="elslgo0qyps6b" class="animable"></path><g id="elj7sz8y3ldnm"><path d="M211.56,207l-.66.29-3,1.32L204.77,210l-.12,0-1.85.79-1.87.8-2.77,1.19-6.63-11.4s3.33-2.21,7.25-4.61c1.07-.67,2.2-1.34,3.3-2h0l.2-.11a2,2,0,0,0,.23-.14c3.38-1.94,6.58-3.57,8-3.7a22.88,22.88,0,0,1,0,8.76,14.93,14.93,0,0,0-.25,2.73h0a10,10,0,0,0,.37,2.7A5.4,5.4,0,0,0,211.56,207Z" style="fill: rgb(255, 255, 255); opacity: 0.6; transform-origin: 201.545px 201.8px;" class="animable"></path></g><g id="elbg9q1hnymx"><path d="M199.8,196.78s-.88,3,.48,2.86,1.47-3,1.47-3,1.32,1.94,2.24.2-1.55-2-1.9-2h0c-1.11.65-2.23,1.32-3.31,2A4.17,4.17,0,0,0,199.8,196.78Z" style="fill: rgb(255, 255, 255); opacity: 0.6; transform-origin: 201.487px 197.242px;" class="animable"></path></g><g id="el42fge6i4f05"><path d="M198.52,208.16c.17,1.63,2.63,1.13,2.63,1.13a5.55,5.55,0,0,0-.22,2.37l1.87-.79a7.13,7.13,0,0,0,.29-1.69s.78,1.15,1.56.89l.11,0a1.41,1.41,0,0,0,.57-.64c.92-1.73-1.94-2-1.94-2s2.14-.94,1.32-2-1.93,1.13-1.93,1.13-.22-1.94-1.16-1.73c-2.47.52-.58,2.57-.58,2.57S198.36,206.53,198.52,208.16Z" style="fill: rgb(255, 255, 255); opacity: 0.6; transform-origin: 202.013px 208.237px;" class="animable"></path></g><polygon points="199.29 212.85 191.53 198.49 189.89 202.58 196.94 214.41 199.29 212.85" style="fill: rgb(165, 42, 42); transform-origin: 194.59px 206.45px;" id="elabyrpt403r9" class="animable"></polygon><g id="el4c7ke8tbq06"><polygon points="199.29 212.85 191.53 198.49 189.89 202.58 196.94 214.41 199.29 212.85" style="fill: rgb(255, 255, 255); opacity: 0.4; transform-origin: 194.59px 206.45px;" class="animable"></polygon></g><g id="el4bc2bc0fb7"><path d="M211.56,207,208,208.62c-1.66-5.15,1.83-9.38,1.83-9.38s.24,1.33.51,3.16h0c.13.83.26,1.76.37,2.7C210.76,205.84,211.5,206.3,211.56,207Z" style="opacity: 0.2; transform-origin: 209.556px 203.93px;" class="animable"></path></g><path d="M250.48,182.59c3.63,2.29,7.28,4.68,10.83,7,1.77,1.17,3.57,2.36,5.23,3.35.4.25.8.48,1.07.63l.15.08v0s0,0,0,0l-.12,0-.26,0a2.59,2.59,0,0,0-.56,0,3.05,3.05,0,0,0-.73.09,1.17,1.17,0,0,0-.45.19s.05,0,.14,0a6.33,6.33,0,0,0,.79-.57,38.07,38.07,0,0,0,4-4.14c1.35-1.57,2.66-3.23,4-4.91,2.63-3.36,5.23-6.87,7.85-10.3l4.81,2.72a118,118,0,0,1-5.91,12.06c-1.09,2-2.26,3.91-3.54,5.84a39.81,39.81,0,0,1-4.53,5.81,15.06,15.06,0,0,1-1.72,1.54,10.86,10.86,0,0,1-1.25.82,8.47,8.47,0,0,1-2,.78,6.46,6.46,0,0,1-.71.13c-.28,0-.55,0-.83.06s-.65,0-1-.07-.44-.09-.66-.14l-.32-.08-.2-.06-.38-.12-.61-.22c-.73-.28-1.32-.54-1.88-.8-2.22-1-4.17-2.11-6.14-3.22-3.91-2.2-7.62-4.55-11.3-7.08Z" style="fill: rgb(206, 122, 99); transform-origin: 265.74px 188.902px;" id="elnjkm1uoncwl" class="animable"></path><path d="M261.25,227.78l-5.44,2.63-1.74.84-25.38,12.28c-1.27-1.68-2.47-3.42-3.6-5.18-.43-.65-.83-1.3-1.24-1.95h0c-.45-.74-.88-1.47-1.31-2.21-1.83-3.17-3.47-6.38-4.92-9.55-.41-.88-.8-1.75-1.18-2.62-1.13-2.6-2.14-5.14-3-7.58-.68-1.82-1.29-3.58-1.85-5.26,0,0,0,0,0,0A139.92,139.92,0,0,1,207,192.08s1.1-.71,3.05-1.78l.57-.31c.78-.42,1.65-.86,2.58-1.3,1.21-.6,2.55-1.2,3.91-1.76a146.51,146.51,0,0,1,16-4.84c2.15-.54,4.36-1,6.33-1.3l1.84-.29c2.32-.35,4.09-.53,4.68-.59l.22,0c0,.12,0,.25.05.38s0,0,0,0,0,.2,0,.31h0a171,171,0,0,0,5.88,27.1h0c.21.66.41,1.3.62,1.92,0,.11.07.21.1.31.21.63.43,1.24.63,1.83a1.59,1.59,0,0,0,.07.2h0c.3.86.6,1.67.9,2.45h0C258.15,223.85,261.25,227.78,261.25,227.78Z" style="fill: rgb(165, 42, 42); transform-origin: 234.125px 211.72px;" id="elz73j07ngx9h" class="animable"></path><g id="elq3352haq8v"><path d="M228.69,243.54l32.56-15.76s-10.2-12.94-15-47.89c0,0-2,.19-4.9.61-2.37.36-5.33.88-8.17,1.59a146.51,146.51,0,0,0-16,4.84c-2.39,1-4.68,2.1-6.49,3.06-2.3,1.23-3.62,2.09-3.62,2.09S212.33,221.77,228.69,243.54Z" style="fill: rgb(255, 255, 255); opacity: 0.6; transform-origin: 234.16px 211.715px;" class="animable"></path></g><g id="elhloniulgd27"><path d="M238.62,205.27c2.46.54.58,2.58.58,2.58s2.68-.84,2.51.79-2.62,1.13-2.62,1.13.89,3-.47,2.86-1.47-3-1.47-3-1.33,2-2.24.21,1.94-2,1.94-2-2.14-.94-1.33-2,1.94,1.12,1.94,1.12S237.68,205.07,238.62,205.27Z" style="fill: rgb(255, 255, 255); opacity: 0.6; transform-origin: 238.224px 208.945px;" class="animable"></path></g><g id="elkp7grbpyfkn"><path d="M252,207.93a.88.88,0,0,1,.23-.21c.21.66.41,1.3.62,1.92C252.28,209.29,251.45,208.63,252,207.93Z" style="fill: rgb(255, 255, 255); opacity: 0.6; transform-origin: 252.335px 208.68px;" class="animable"></path></g><g id="elu1bcmvznmln"><path d="M253,210c.21.63.43,1.24.63,1.83-.26.34-1.38,1.66-2.19.14C250.69,210.58,252.21,210.11,253,210Z" style="fill: rgb(255, 255, 255); opacity: 0.6; transform-origin: 252.434px 211.343px;" class="animable"></path></g><g id="elmgkn316ecc"><path d="M254.55,214.44a4.08,4.08,0,0,1-.9-2.45C254,212.85,254.25,213.66,254.55,214.44Z" style="fill: rgb(255, 255, 255); opacity: 0.6; transform-origin: 254.1px 213.215px;" class="animable"></path></g><g id="el2b32io5vl7f"><path d="M215.79,211c-.17,1.63-2.62,1.12-2.62,1.12a5.87,5.87,0,0,1,.24,2.27c-.68-1.82-1.29-3.58-1.85-5.26,0,0,0,0,0,0,.11-.51.41-1.65,1.14-1.5,2.46.54.58,2.58.58,2.58S216,209.4,215.79,211Z" style="fill: rgb(255, 255, 255); opacity: 0.6; transform-origin: 213.681px 211.003px;" class="animable"></path></g><g id="elap98hrfw13v"><path d="M218.46,194.5c2.47.53.58,2.57.58,2.57s2.69-.84,2.52.8-2.62,1.12-2.62,1.12.89,3-.48,2.86-1.46-3-1.46-3-1.33,1.94-2.25.21,1.94-2,1.94-2-2.13-.94-1.32-2,1.94,1.12,1.94,1.12S217.52,194.29,218.46,194.5Z" style="fill: rgb(255, 255, 255); opacity: 0.6; transform-origin: 218.068px 198.169px;" class="animable"></path></g><g id="elkg3t5aizix"><path d="M232.85,220.39c2.46.53.58,2.57.58,2.57s2.69-.84,2.52.8-2.62,1.12-2.62,1.12.89,3-.48,2.86-1.46-3-1.46-3-1.33,1.94-2.25.2,1.94-2,1.94-2-2.14-.94-1.32-2,1.93,1.12,1.93,1.12S231.91,220.18,232.85,220.39Z" style="fill: rgb(255, 255, 255); opacity: 0.6; transform-origin: 232.458px 224.059px;" class="animable"></path></g><g id="eliwysgjwa9pi"><path d="M258.2,228.18c-.18,1.64-2.62,1.13-2.62,1.13a8.37,8.37,0,0,1,.23,1.1l-1.74.84a6.25,6.25,0,0,1-.44-2s-1.32,1.94-2.24.2,1.94-2,1.94-2-2.13-.94-1.33-2,1.94,1.12,1.94,1.12.22-1.94,1.16-1.73c2.46.53.58,2.57.58,2.57S258.36,226.55,258.2,228.18Z" style="fill: rgb(255, 255, 255); opacity: 0.6; transform-origin: 254.707px 228.037px;" class="animable"></path></g><g id="elbgwqezfb317"><path d="M223.85,236.39c-.45-.74-.88-1.47-1.31-2.21a.71.71,0,0,1,.73-.37C225.6,234.32,224,236.2,223.85,236.39Z" style="fill: rgb(255, 255, 255); opacity: 0.6; transform-origin: 223.532px 235.096px;" class="animable"></path></g><g id="elaetasr7mpwf"><path d="M226.35,237.19a1.3,1.3,0,0,1-1.26,1.16c-.43-.65-.83-1.3-1.24-1.95C224.06,236.33,226.52,235.63,226.35,237.19Z" style="fill: rgb(255, 255, 255); opacity: 0.6; transform-origin: 225.104px 237.267px;" class="animable"></path></g><g id="elem8ubppwaf5"><path d="M238.62,189.06c2.46.53.58,2.57.58,2.57s2.68-.84,2.51.8-2.62,1.12-2.62,1.12.89,3-.47,2.86-1.47-3-1.47-3-1.33,1.94-2.24.21,1.94-2,1.94-2-2.14-.94-1.33-2,1.94,1.12,1.94,1.12S237.68,188.85,238.62,189.06Z" style="fill: rgb(255, 255, 255); opacity: 0.6; transform-origin: 238.224px 192.729px;" class="animable"></path></g><g id="eldd6wglzdfe4"><path d="M246.35,180.6h0s0,.06,0,.1c-.16,1.64-2.62,1.13-2.62,1.13s.89,3-.48,2.86-1.46-3-1.46-3-1.33,2-2.25.21a1.07,1.07,0,0,1,0-1.15l1.84-.29c2.32-.35,4.09-.53,4.68-.59a.62.62,0,0,1,.27.36s0,0,0,0S246.33,180.49,246.35,180.6Z" style="fill: rgb(255, 255, 255); opacity: 0.6; transform-origin: 242.861px 182.282px;" class="animable"></path></g><g id="eln673ahqn3sf"><path d="M246.5,198.64c1.6.34.38,1.67.38,1.67s1.74-.55,1.63.51-1.7.73-1.7.73.58,1.93-.31,1.86-.95-1.92-.95-1.92-.86,1.26-1.46.13,1.26-1.31,1.26-1.31-1.38-.61-.86-1.28,1.26.73,1.26.73S245.89,198.5,246.5,198.64Z" style="fill: rgb(255, 255, 255); opacity: 0.6; transform-origin: 246.243px 201.02px;" class="animable"></path></g><g id="elvnl6e0rdmy"><path d="M240.75,229.79c1.6.35.37,1.67.37,1.67s1.75-.54,1.64.52-1.7.73-1.7.73.57,1.92-.31,1.85-.95-1.92-.95-1.92-.86,1.26-1.46.13,1.26-1.31,1.26-1.31-1.39-.61-.86-1.27,1.26.73,1.26.73S240.14,229.66,240.75,229.79Z" style="fill: rgb(255, 255, 255); opacity: 0.6; transform-origin: 240.493px 232.171px;" class="animable"></path></g><g id="el4f6lr4xtluc"><path d="M228.76,197.88c1.6.35.38,1.67.38,1.67s1.74-.54,1.63.52-1.7.73-1.7.73.57,1.92-.31,1.85-.95-1.92-.95-1.92-.86,1.26-1.46.13,1.26-1.31,1.26-1.31-1.39-.61-.86-1.27S228,199,228,199,228.15,197.75,228.76,197.88Z" style="fill: rgb(255, 255, 255); opacity: 0.6; transform-origin: 228.503px 200.261px;" class="animable"></path></g><g id="elz7md4cz9wmg"><path d="M222.89,210.25c1.59.35.37,1.67.37,1.67s1.74-.55,1.63.52-1.7.72-1.7.72.58,1.93-.3,1.86-1-1.92-1-1.92-.86,1.26-1.45.13,1.26-1.31,1.26-1.31-1.39-.61-.86-1.27,1.25.72,1.25.72S222.28,210.12,222.89,210.25Z" style="fill: rgb(255, 255, 255); opacity: 0.6; transform-origin: 222.609px 212.631px;" class="animable"></path></g><g id="eli847qrmhymq"><path d="M214.57,189.66c-.12,1.05-1.71.72-1.71.72s.58,1.92-.31,1.86-1-1.92-1-1.92-.85,1.26-1.45.13a.47.47,0,0,1-.06-.15l.57-.31c.78-.42,1.65-.86,2.58-1.3a4.15,4.15,0,0,1-.29.44C213.14,189.08,214.66,188.66,214.57,189.66Z" style="fill: rgb(255, 255, 255); opacity: 0.6; transform-origin: 212.307px 190.466px;" class="animable"></path></g><g id="elvuajadwsyxn"><path d="M245.38,218c1.59.35.37,1.67.37,1.67s1.74-.54,1.64.52-1.7.73-1.7.73.57,1.92-.31,1.85-.95-1.92-.95-1.92-.87,1.26-1.46.13,1.26-1.31,1.26-1.31-1.39-.61-.86-1.27,1.25.73,1.25.73S244.77,217.86,245.38,218Z" style="fill: rgb(255, 255, 255); opacity: 0.6; transform-origin: 245.124px 220.381px;" class="animable"></path></g><g id="ely6n8drnjcqc"><path d="M219,223.87c-.08.74-.89.79-1.35.76-.41-.88-.8-1.75-1.18-2.62.11-.22.28-.38.51-.33,1.48.32.55,1.47.41,1.66C217.55,223.29,219.06,222.88,219,223.87Z" style="fill: rgb(255, 255, 255); opacity: 0.6; transform-origin: 217.736px 223.154px;" class="animable"></path></g><path d="M167.42,191.39l-6.36-7.65-5,8.16s7.12,6.22,9.47,4.42Z" style="fill: rgb(206, 122, 99); transform-origin: 161.74px 190.193px;" id="elvf8gbhgpzx" class="animable"></path><polygon points="152.16 183.47 150.17 190.04 156.08 191.9 161.06 183.74 152.16 183.47" style="fill: rgb(206, 122, 99); transform-origin: 155.615px 187.685px;" id="elp1788fy7blj" class="animable"></polygon><polygon points="227.44 410.82 219.17 409.78 219.86 405 221.74 392.02 230.01 393.05 227.94 407.4 227.44 410.82" style="fill: rgb(159, 91, 83); transform-origin: 224.59px 401.42px;" id="ell5sgxdyhhoq" class="animable"></polygon><polygon points="271.88 411.43 263.85 411.11 263.85 409.29 263.85 409.06 263.91 397.4 263.91 397.17 263.92 392.7 271.96 393.02 271.88 411.43" style="fill: rgb(159, 91, 83); transform-origin: 267.905px 402.065px;" id="elj39ab8ubzmt" class="animable"></polygon><g id="elo5b3u6fe729"><polygon points="230.01 393.05 227.94 407.4 219.86 405 221.74 392.02 230.01 393.05" style="isolation: isolate; opacity: 0.2; transform-origin: 224.935px 399.71px;" class="animable"></polygon></g><g id="elk82q6d7he8k"><polygon points="272.07 405.49 272.06 405.49 264.04 404.56 264.03 404.56 263.88 397.81 263.89 397.81 271.93 398.52 272.06 405.28 272.07 405.49" style="isolation: isolate; opacity: 0.2; transform-origin: 267.975px 401.65px;" class="animable"></polygon></g><path d="M263.45,410h9.76a.72.72,0,0,1,.68.56l1.59,7.15a1.2,1.2,0,0,1-.92,1.41,1.1,1.1,0,0,1-.26,0c-3.16-.05-5.46-.24-9.42-.24-2.44,0-9.81.25-13.19.25s-3.81-3.33-2.43-3.64c6.19-1.34,10.85-3.22,12.84-5A2,2,0,0,1,263.45,410Z" style="fill: rgb(38, 50, 56); transform-origin: 262.014px 414.565px;" id="eldef89mxo304" class="animable"></path><path d="M219,409.75h9.76a.72.72,0,0,1,.69.55l1.58,7.16a1.17,1.17,0,0,1-.91,1.4l-.26,0c-3.16-.05-5.46-.25-9.43-.25-2.44,0-9.81.26-13.19.26s-3.81-3.33-2.43-3.64c6.2-1.35,10.86-3.22,12.84-5A1.93,1.93,0,0,1,219,409.75Z" style="fill: rgb(38, 50, 56); transform-origin: 217.566px 414.309px;" id="eleulq6tvkn1q" class="animable"></path><path d="M213.68,410.36a1,1,0,0,1,.09-.95.62.62,0,0,1,.53-.34c1-.06,2.51,1.94,2.68,2.17a.17.17,0,0,1,0,.19.17.17,0,0,1-.16.09,9.54,9.54,0,0,1-2-.36A2,2,0,0,1,213.68,410.36Zm.64-.95a.32.32,0,0,0-.26.17.64.64,0,0,0-.07.63c.22.43,1.13.77,2.47.92C215.81,410.35,214.84,409.38,214.32,409.41Z" style="fill: rgb(165, 42, 42); transform-origin: 215.304px 410.294px;" id="elyqu2xljxape" class="animable"></path><path d="M216.72,411.46c-.57-.64-1.14-2.45-.73-3.16a.65.65,0,0,1,.75-.3.88.88,0,0,1,.62.45c.49.91-.32,2.88-.36,3a.15.15,0,0,1-.13.1h-.08A.18.18,0,0,1,216.72,411.46Zm0-3.12c-.25,0-.34,0-.39.13a3.43,3.43,0,0,0,.51,2.52,3.87,3.87,0,0,0,.26-2.38.53.53,0,0,0-.3-.25Z" style="fill: rgb(165, 42, 42); transform-origin: 216.684px 409.761px;" id="elwcfwe3job79" class="animable"></path><path d="M258.18,410.36a.92.92,0,0,1,.09-.95.62.62,0,0,1,.53-.34c1-.06,2.51,1.94,2.68,2.17a.17.17,0,0,1,0,.19.17.17,0,0,1-.16.09,9.54,9.54,0,0,1-1.95-.36A2,2,0,0,1,258.18,410.36Zm.64-.95a.32.32,0,0,0-.26.17.64.64,0,0,0-.07.63c.22.43,1.13.77,2.47.92C260.31,410.35,259.34,409.38,258.82,409.41Z" style="fill: rgb(165, 42, 42); transform-origin: 259.799px 410.294px;" id="el1rrd819aekc" class="animable"></path><path d="M261.21,411.46c-.56-.64-1.13-2.45-.72-3.16a.65.65,0,0,1,.75-.3.88.88,0,0,1,.62.45c.49.91-.32,2.88-.36,3a.15.15,0,0,1-.13.1h-.08Zm0-3.12c-.25,0-.34,0-.39.13a3.43,3.43,0,0,0,.51,2.52,3.87,3.87,0,0,0,.26-2.38.52.52,0,0,0-.31-.25Z" style="fill: rgb(165, 42, 42); transform-origin: 261.184px 409.761px;" id="elhuocqftdymu" class="animable"></path><path d="M282.52,173.94l4.33-5.22,3.3,9.64s-5.42,4.95-8.64.6Z" style="fill: rgb(206, 122, 99); transform-origin: 285.83px 174.735px;" id="el7ip8qwat6u9" class="animable"></path><polygon points="294.44 168.08 296.77 176.17 290.14 178.36 286.86 168.72 294.44 168.08" style="fill: rgb(206, 122, 99); transform-origin: 291.815px 173.22px;" id="el21i5wbcb8ei" class="animable"></polygon><path d="M273.93,398.93l-11.1-2.58-9.47-119.27-5.94,30.82L230,398.07l-9.65-3L231,257.72l-2.31-14.19,32.56-15.75s9.82,7.62,14.77,27S273.93,398.93,273.93,398.93Z" style="fill: rgb(38, 50, 56); transform-origin: 249.067px 313.355px;" id="elcc78sat7mrq" class="animable"></path><polygon points="218.07 393.86 217.87 397.22 231.43 400.4 232.13 397.41 218.07 393.86" style="fill: rgb(165, 42, 42); transform-origin: 225px 397.13px;" id="elqoss7g2bjl" class="animable"></polygon><polygon points="260.87 395.84 261.97 399 273.61 399.9 274.61 396.9 260.87 395.84" style="fill: rgb(165, 42, 42); transform-origin: 267.74px 397.87px;" id="elkxhhag2cqm" class="animable"></polygon><path d="M212.33,196.93s-1.06-8.72,9.09-14.17,18.25.08,20.57,5.73l-7.54-1.57s-3.22,4.27-7.57,5.36c-9.91,2.5-10.36.57-10.36.57Z" style="fill: rgb(165, 42, 42); transform-origin: 227.144px 188.727px;" id="el7c70sya9kj4" class="animable"></path><g id="el5no90szqc6w"><path d="M212.33,196.93s-1.06-8.72,9.09-14.17,18.25.08,20.57,5.73l-7.54-1.57s-3.22,4.27-7.57,5.36c-9.91,2.5-10.36.57-10.36.57Z" style="fill: rgb(255, 255, 255); opacity: 0.4; transform-origin: 227.144px 188.727px;" class="animable"></path></g><path d="M228,166l-3.21,4.85-4.38,6.62a19.15,19.15,0,0,1,1.08,2.24c1.27,3.08.78,4.42-3.54,6.93-2.18,2.06-2.6,5.21,2.46,6.83l5.26,9.94,1.26-11.13c10.68-7.68,6.93-10.34,6.93-10.34C229.28,179.55,228.32,171.52,228,166Z" style="fill: rgb(206, 122, 99); transform-origin: 225.454px 184.705px;" id="elxncekqvcd9c" class="animable"></path><g id="el5t7c3suf7u"><path d="M220.36,177.47a19.15,19.15,0,0,1,1.08,2.24c2.05-1.09,4.26-4.29,3.89-6.61a10.83,10.83,0,0,0-.59-2.25Z" style="opacity: 0.2; transform-origin: 222.865px 175.28px;" class="animable"></path></g><path d="M228.37,166.57s2.63.45,2.93-1.07-1-3.34,0-4.05,3.43-1.51,2.86-2.84-2.45-2-1.66-3.17,2.6-3.12,1.31-3.9-2.73-2.28-2.08-3.17-1.55-4.22-3.65-3.32-2.26-1-2.67-2.53-4-1.93-4.35-.14-2.55.31-3.42-.94-1.95-1.44-3.6.13-.95,4.91-2.53,3.32-4.16-2.11-4.92-.72.29,2.53-1.43,3S202,151.37,203,151.6s1.12,1.11.25,2.38-1.74,3.18,0,3.42,1.94,1.33,1.63,1.91,1.68,2.33,3.66,1.6S228.37,166.57,228.37,166.57Z" style="fill: rgb(38, 50, 56); transform-origin: 218.253px 153.54px;" id="elr0wj4iypu4c" class="animable"></path><path d="M204.79,152.44s-1.08,10.27,4.51,13.94,4.72-15.3,4.72-15.3Z" style="fill: rgb(38, 50, 56); transform-origin: 209.388px 158.966px;" id="el2yfr6hhrnjv" class="animable"></path><path d="M225.38,173.77a9.26,9.26,0,0,1-10.46,4.07,10.3,10.3,0,0,1-6.1-4.52,10.92,10.92,0,0,1-.54-1c-2.94-6.11-4.29-17,2.11-21.35a10,10,0,0,1,14,2.51,9.93,9.93,0,0,1,1.71,4.34C227.2,165.11,228.22,169.32,225.38,173.77Z" style="fill: rgb(206, 122, 99); transform-origin: 216.523px 163.673px;" id="elhcxw8bdn6es" class="animable"></path><path d="M215.62,162.24c.16.57-.08,1.12-.46,1.21s-.8-.33-.93-.91.09-1.12.46-1.21S215.48,161.65,215.62,162.24Z" style="fill: rgb(38, 50, 56); transform-origin: 214.931px 162.39px;" id="el3eqki2pk926" class="animable"></path><path d="M209,163.68c.17.57-.08,1.13-.46,1.21s-.79-.33-.93-.91.09-1.12.47-1.21S208.9,163.13,209,163.68Z" style="fill: rgb(38, 50, 56); transform-origin: 208.311px 163.829px;" id="eldh5671j80z" class="animable"></path><path d="M211.18,163.51a21.46,21.46,0,0,1-1.7,5.6,3.47,3.47,0,0,0,2.92-.08Z" style="fill: rgb(186, 77, 60); transform-origin: 210.94px 166.452px;" id="elp9zq5hmfxg" class="animable"></path><path d="M206,161.5a.36.36,0,0,0,.35-.11,2.81,2.81,0,0,1,2.33-1,.35.35,0,1,0,.11-.69h0a3.46,3.46,0,0,0-3,1.21.35.35,0,0,0,0,.49h0A.53.53,0,0,0,206,161.5Z" style="fill: rgb(38, 50, 56); transform-origin: 207.398px 160.596px;" id="elsjdxe2obxxn" class="animable"></path><path d="M216.34,159.34a.42.42,0,0,0,.18-.11.35.35,0,0,0-.13-.48h0a3.48,3.48,0,0,0-3.2-.15.35.35,0,0,0-.14.47h0a.36.36,0,0,0,.47.15h0a2.81,2.81,0,0,1,2.54.15A.36.36,0,0,0,216.34,159.34Z" style="fill: rgb(38, 50, 56); transform-origin: 214.788px 158.833px;" id="eleaohqtu1i8n" class="animable"></path><path d="M218.85,150.07l-.4,1.48c2.52.38,2.52,3.23,2.25,4.57-.58,2.85,1.65,6.75,4,8.07,0,0-.13-1.18.9-1.07s1.59,5.2,1.59,5.2,1.21,1.12,1.77-5.51c.52-6.13-.12-11.06-1.71-13.12Z" style="fill: rgb(38, 50, 56); transform-origin: 223.794px 159.041px;" id="eltzjzwumxz6" class="animable"></path><path d="M230.47,163.06a7,7,0,0,1-3.15,4.3c-2.1,1.25-3.8-.47-3.76-2.79.06-2.06,1.19-5.27,3.57-5.56A3.12,3.12,0,0,1,230.47,163.06Z" style="fill: rgb(206, 122, 99); transform-origin: 227.089px 163.384px;" id="el434esea6yfx" class="animable"></path><path d="M213.87,171.38a21.08,21.08,0,0,1,2.25,2.25l.47-.29c2.15-1.35,2.71-2.69,2.67-3.76a3.31,3.31,0,0,0-.46-1.48,3.11,3.11,0,0,0-.53-.71,11.88,11.88,0,0,1-3.67,3.52C214.16,171.21,213.87,171.38,213.87,171.38Z" style="fill: rgb(38, 50, 56); transform-origin: 216.566px 170.51px;" id="elogisd306fw" class="animable"></path><path d="M214.6,170.91l.68.65c2-1.28,3.27-2.45,3.52-3.46a3.11,3.11,0,0,0-.53-.71A11.88,11.88,0,0,1,214.6,170.91Z" style="fill: rgb(255, 255, 255); transform-origin: 216.7px 169.475px;" id="el799rlz2uy0n" class="animable"></path><path d="M216.59,173.34c2.15-1.35,2.71-2.69,2.67-3.76a8.08,8.08,0,0,0-2.09,2A3.1,3.1,0,0,0,216.59,173.34Z" style="fill: rgb(222, 87, 83); transform-origin: 217.926px 171.46px;" id="el9nodkwd7mvg" class="animable"></path><path d="M212.52,147.45s-3.79,1.15-5.24,3.3-2,5-1.26,5,2.41-1.72,3-1.63,1.49,3.1,3.09,1.5.53-1.26,2-2.12,2.89.82,3.5.49a4.29,4.29,0,0,0,1.16-1s-2.26-.07-2.58-.68-2.4-.37-2.4-.37,2.21-1.58,3.19-1.12,1,2.12,3,1.47,5.65.17,5.2-2.48S216.57,144.38,212.52,147.45Z" style="fill: rgb(38, 50, 56); transform-origin: 215.455px 151.096px;" id="eltx2aavwyfe" class="animable"></path><path d="M214.93,168.39s1.38-2.79,2.54-2.86,6.53,6.75,6.09,8.45-3.07,4.42-5.63,3.88-6.32-6.26-6.11-7,2.05-1.46,2.05-1.46l.32.64s-1.86.46-1.79,1.43,3.71,5.38,5,5.45a1.38,1.38,0,0,0,1-2.46l.81-.54a3.55,3.55,0,0,0,1.89.75c.82-.07,1.63-.74,1.43-1.32s-3.79-6.06-4.88-6.7-2,2.3-2,2.3Z" style="fill: rgb(38, 50, 56); transform-origin: 217.699px 171.73px;" id="el7cv5w1dxubn" class="animable"></path><path d="M233.54,245.68,249.68,238a31.55,31.55,0,0,0-2.35-2.7l-14.87,7.22C232.81,243.59,233.16,244.64,233.54,245.68Z" id="elbs5bbu27oon" class="animable" style="transform-origin: 241.07px 240.49px;"></path><path d="M231.32,243.1l-2.82,1.37.86,3.18,3-1.44C232,245.18,231.67,244.14,231.32,243.1Z" id="el3tklzoge41" class="animable" style="transform-origin: 230.43px 245.375px;"></path><path d="M262.07,232.17l2.39-1.13-2.18-3-2.65,1.29C260.45,230.29,261.26,231.23,262.07,232.17Z" id="elsm3nmqh3bn7" class="animable" style="transform-origin: 262.045px 230.105px;"></path><path d="M258.46,229.93l-9.94,4.83q1.22,1.31,2.31,2.73l10.06-4.76C260.09,231.8,259.28,230.86,258.46,229.93Z" id="el3gvw3tq05at" class="animable" style="transform-origin: 254.705px 233.71px;"></path><polygon points="235.52 241.06 240.07 238.86 241.71 241.81 237.31 243.89 235.52 241.06" style="fill: rgb(255, 255, 255); transform-origin: 238.615px 241.375px;" id="elblpmhcylrxh" class="animable"></polygon><g id="el3bqy42d9lkh"><path d="M253.36,277.08l-5.94,30.82c-4.95-16.39-2.3-37.07-2.3-37.07Z" style="opacity: 0.3; transform-origin: 248.886px 289.365px;" class="animable"></path></g><path d="M246,179.91c3.69.33,19,10.55,19,10.55l-6.63,11.4-9.34-4a35.14,35.14,0,0,1-3-9.2A22.88,22.88,0,0,1,246,179.91Z" style="fill: rgb(165, 42, 42); transform-origin: 255.296px 190.885px;" id="el9eqscvx9niv" class="animable"></path><g id="elh82m7qbaqe"><path d="M265,190.46l-6.62,11.4-2.78-1.19-1.87-.8-1.85-.79-.11,0-2.74-1.17a35.13,35.13,0,0,1-3-9.21,22.83,22.83,0,0,1,0-8.75c1.44.13,4.64,1.76,8,3.7a2,2,0,0,0,.23.14l.2.11h0c1.11.65,2.23,1.32,3.31,2C261.71,188.25,265,190.46,265,190.46Z" style="fill: rgb(255, 255, 255); opacity: 0.6; transform-origin: 255.303px 190.905px;" class="animable"></path></g><g id="el5slrxqz5m34"><path d="M256.76,185.78s.89,3-.47,2.86-1.47-3-1.47-3-1.32,1.94-2.24.21,1.55-2,1.9-2h0c1.11.65,2.23,1.32,3.31,2A4,4,0,0,1,256.76,185.78Z" style="fill: rgb(255, 255, 255); opacity: 0.6; transform-origin: 255.083px 186.247px;" class="animable"></path></g><g id="elzoq9nu7w8x9"><path d="M258,197.17c-.16,1.63-2.62,1.12-2.62,1.12a5.57,5.57,0,0,1,.22,2.38l-1.87-.8a7,7,0,0,1-.29-1.68s-.79,1.14-1.56.89l-.11,0a1.41,1.41,0,0,1-.57-.64c-.92-1.74,1.94-2,1.94-2s-2.14-.94-1.32-2,1.93,1.12,1.93,1.12.22-1.94,1.15-1.73c2.47.53.58,2.57.58,2.57S258.21,195.53,258,197.17Z" style="fill: rgb(255, 255, 255); opacity: 0.6; transform-origin: 254.515px 197.242px;" class="animable"></path></g><polygon points="257.28 201.86 265.04 187.5 266.68 191.58 259.63 203.41 257.28 201.86" style="fill: rgb(165, 42, 42); transform-origin: 261.98px 195.455px;" id="el90nzhn9vqqd" class="animable"></polygon><g id="el9eqa4p8eg5r"><polygon points="257.28 201.86 265.04 187.5 266.68 191.58 259.63 203.41 257.28 201.86" style="fill: rgb(255, 255, 255); opacity: 0.4; transform-origin: 261.98px 195.455px;" class="animable"></polygon></g><path d="M307,234.57A57.12,57.12,0,0,1,305,224.4c-.44-3.33-.82-6.69-1-10.08-.3-.6-.59-1.21-.84-1.84A64.68,64.68,0,0,1,299,198.56a71.83,71.83,0,0,1-.32-15.74s0-.06,0-.09c-3-7.19-6.2-13-9.88-12.4-1.86.25-8.06,19-10.28,36-.09,7.87-.77,15.91-1.53,23.57-.63,6.29-1.51,12.54-2.47,18.82-.46,3-.66,6.27-1.26,9.27a20.69,20.69,0,0,1-1.82,5c2.51,7,8.68,12.54,8.67,12.5-.33,13.41-2.07,28.81-2,28.86s5.5,6.21,11.65,2.46c6.16-3.35,20.71,3.22,26.35-2.64,5.62-5.45-4.13-11.82,0-12.57s6-6.47,6-6.44a110.59,110.59,0,0,1-8.92-11C309.6,269.48,306.64,251.08,307,234.57Z" style="fill: rgb(165, 42, 42); transform-origin: 296.775px 239.154px;" id="elrv0gopd2ec" class="animable"></path><g id="elevbkohi78xe"><path d="M307,234.57A57.12,57.12,0,0,1,305,224.4c-.44-3.33-.82-6.69-1-10.08-.3-.6-.59-1.21-.84-1.84A64.68,64.68,0,0,1,299,198.56a71.83,71.83,0,0,1-.32-15.74s0-.06,0-.09c-3-7.2-6.2-13-9.88-12.41-1.86.25-8.06,19-10.28,36-.09,7.88-.77,15.91-1.53,23.57-.63,6.29-1.51,12.54-2.47,18.82-.46,3-.66,6.27-1.26,9.27a20.69,20.69,0,0,1-1.82,5c2.51,7,8.68,12.54,8.67,12.5-.33,13.41-2.06,28.81-2,28.87s5.49,6.2,11.65,2.45c6.17-3.34,20.71,3.21,26.35-2.64,5.62-5.45-4.13-11.83,0-12.57s6-6.48,6-6.45a109.92,109.92,0,0,1-8.93-11C309.6,269.48,306.64,251.08,307,234.57Z" style="fill: rgb(255, 255, 255); opacity: 0.8; transform-origin: 296.775px 239.146px;" class="animable"></path></g><g id="el2liu95atdty"><path d="M310.9,279.22l-.18-.48A.57.57,0,0,1,310.9,279.22Z" style="opacity: 0.2; transform-origin: 310.812px 278.98px;" class="animable"></path></g><g id="elx9l89oq9xsc"><path d="M284.6,266.05c2.89,3.84,3.16-22.65,1.7-39-2.67-16.65.17-40.6,3.42-44.74-.64-.27-8.8,28.2-7.92,35.66C280.78,224.84,278.36,259.16,284.6,266.05Z" style="opacity: 0.1; transform-origin: 285.098px 224.367px;" class="animable"></path></g><g id="el1cayefvvfe4"><path d="M315.24,286.54c-2.44.26-5,.22-6.56-.58-3.27-1.71,2.1-5.17,2.22-6.74l-.18-.48c-1.82-3.33-8.11-25.43-7.67-33.44-.42-8.67,1.57-23.63,1.72-23.58a186.61,186.61,0,0,0,1.41,25.19c.76,9.23,3.82,26.41,5.63,28.82A31.61,31.61,0,0,1,315.24,286.54Z" style="opacity: 0.1; transform-origin: 309.116px 254.201px;" class="animable"></path></g><g id="els2f86vik4u8"><path d="M322.1,285.2s-2,5.73-6,6.45,5.64,7.11,0,12.57c-5.64,5.85-20.18-.7-26.35,2.64-6.16,3.75-11.68-2.41-11.65-2.45s1.68-15.46,2-28.87q3.92,2.54,7.89,4.82c-.15,0-3.06-13.68,1.07-17.36,3.83-3.66,5.28,11.53,10.27,14.52,4.77,2.94,8.43-.09,11,1s-5.56,5.38-1.7,7.42S322.12,285.21,322.1,285.2Z" style="opacity: 0.2; transform-origin: 300.1px 285.252px;" class="animable"></path></g><path d="M86.43,416.59a92.9,92.9,0,0,1-20.59-2.26.5.5,0,0,1,.25-1c.32.09,32.56,8.16,54.36-6.9,11.16-7.71,17.75-20.15,19.6-37,2.71-24.72,4.15-54.2,5.55-82.71,2.12-43.18,4-80.48,9.59-91.57a.5.5,0,0,1,.67-.22.52.52,0,0,1,.22.68c-5.54,10.9-7.45,49.88-9.48,91.16-1.4,28.53-2.85,58-5.56,82.77-1.88,17.12-8.61,29.8-20,37.69C110.33,414.67,97.2,416.59,86.43,416.59Z" style="fill: rgb(38, 50, 56); transform-origin: 110.792px 305.734px;" id="elzd80jpnoj1" class="animable"></path><g id="el3g8d0t30trg"><path d="M86.43,416.59a92.9,92.9,0,0,1-20.59-2.26.5.5,0,0,1,.25-1c.32.09,32.56,8.16,54.36-6.9,11.16-7.71,17.75-20.15,19.6-37,2.71-24.72,4.15-54.2,5.55-82.71,2.12-43.18,4-80.48,9.59-91.57a.5.5,0,0,1,.67-.22.52.52,0,0,1,.22.68c-5.54,10.9-7.45,49.88-9.48,91.16-1.4,28.53-2.85,58-5.56,82.77-1.88,17.12-8.61,29.8-20,37.69C110.33,414.67,97.2,416.59,86.43,416.59Z" style="fill: rgb(255, 255, 255); opacity: 0.6; transform-origin: 110.792px 305.734px;" class="animable"></path></g><path d="M162.52,187.06a7.14,7.14,0,0,0,4.08-2.58A7.22,7.22,0,0,0,159.05,173l-13.94-8.62-2,2.54,10.94,10.81a7.24,7.24,0,0,0,3.92,8.85,10.05,10.05,0,0,1-5.79,6.46c-1.64.66,2.64,4,3.77,3.85C158.53,196.61,161.26,190.34,162.52,187.06Z" style="fill: rgb(165, 42, 42); transform-origin: 155.65px 180.637px;" id="elvyehry42qh" class="animable"></path><g id="elplt6ap1rcol"><path d="M164.86,182.89a4.59,4.59,0,1,1-.78-6.45A4.6,4.6,0,0,1,164.86,182.89Z" style="fill: rgb(255, 255, 255); opacity: 0.4; transform-origin: 161.249px 180.054px;" class="animable"></path></g><polygon points="147.88 166.13 144.59 162.51 141.32 166.67 145.44 169.25 147.88 166.13" style="fill: rgb(165, 42, 42); transform-origin: 144.6px 165.88px;" id="el5c8gvtht4ct" class="animable"></polygon><g id="elve5x94ozqa7"><polygon points="147.88 166.13 144.59 162.51 141.32 166.67 145.44 169.25 147.88 166.13" style="fill: rgb(255, 255, 255); opacity: 0.4; transform-origin: 144.6px 165.88px;" class="animable"></polygon></g></g><g id="freepik--Mirror--inject-44" class="animable" style="transform-origin: 377.201px 290.82px;"><polygon points="412.58 415.9 390.76 229.64 395.09 229.64 416.91 415.9 439.38 415.9 439.38 419.15 389.53 419.15 389.53 415.9 412.58 415.9" style="fill: rgb(38, 50, 56); transform-origin: 414.455px 324.395px;" id="eluovwo3mn3v8" class="animable"></polygon><g id="elae5o6d4hxec"><polygon points="412.58 415.9 390.76 229.64 395.09 229.64 416.91 415.9 439.38 415.9 439.38 419.15 389.53 419.15 389.53 415.9 412.58 415.9" style="isolation: isolate; opacity: 0.2; transform-origin: 414.455px 324.395px;" class="animable"></polygon></g><path d="M393.52,162.49h0c19.57,0,31.49,23.16,26.62,51.72L385.9,415.46c-.35,2-1.77,3.69-3.17,3.69H317c-1.4,0-2.25-1.65-1.9-3.69l34.24-201.25C354.16,185.65,374,162.49,393.52,162.49Z" style="fill: rgb(38, 50, 56); transform-origin: 368.125px 290.82px;" id="el6yl2m4s26bo" class="animable"></path><g id="elo8qva8puxng"><path d="M352.73,214.21l-34,199.92h64l34-199.92c4.26-25.05-5.84-45.57-22.63-46.65-.47,0-.94-.05-1.42-.05a24.5,24.5,0,0,0-7.19,1.12,32,32,0,0,0-5.93,2.58c-11.37,6.4-21.28,20.43-25.57,37.17Q353.24,211.25,352.73,214.21Z" style="fill: rgb(255, 255, 255); opacity: 0.7; transform-origin: 368.217px 290.82px;" class="animable"></path></g><path d="M356.05,340a5.78,5.78,0,0,1,0,.58,1.94,1.94,0,0,1,0,.24c-.36,3.32-2.85,6-5.55,6H330.17l1-6.06,1-5.95H352a3.65,3.65,0,0,1,2.17.82,5,5,0,0,1,1.72,2.89h0A6.11,6.11,0,0,1,356.05,340Z" style="fill: rgb(38, 50, 56); transform-origin: 343.114px 340.815px;" id="elxjxm5t2rnls" class="animable"></path><path d="M333.88,338a2.57,2.57,0,0,1-2.16,2.87,1.5,1.5,0,0,1-.52-.09l1-5.95,1-5.59.12-.72c0,.24,0,.48,0,.72.1,2,.22,3.92.33,5.59C333.73,336,333.81,337.07,333.88,338Z" style="fill: rgb(38, 50, 56); transform-origin: 332.551px 334.695px;" id="eljdv18rljuv8" class="animable"></path><path d="M367.55,306.53a2.77,2.77,0,0,1-2.43,2.62h0l-2.16-.06h0c-1.91,0-4.3-.09-6.89-.12h-1.2c-1.09,0-2.2,0-3.31,0-5.81,0-11.76.22-15,.83l.63-3.68.3-1.75c5.77-1,13.64-1.08,19.93-.88h0c2.95.09,5.54.23,7.41.35h0l1,.07A2.16,2.16,0,0,1,367.55,306.53Z" style="fill: rgb(38, 50, 56); transform-origin: 352.084px 306.601px;" id="elelx4ybm0ssn" class="animable"></path><path d="M369.19,401,351,398.73l2.81-25.46h-7.29l-2.81,25.45L325,401c-1.86.22-3.47,2.12-3.72,4.38l-.37,3.39h50.62l.37-3.39C372.19,403.07,371,401.17,369.19,401Z" style="fill: rgb(38, 50, 56); transform-origin: 346.427px 391.02px;" id="elbtjjkndb13o" class="animable"></path><g id="elrz8mpabqwo"><path d="M369.19,401,351,398.73l2.81-25.46h-7.29l-2.81,25.45L325,401c-1.86.22-3.47,2.12-3.72,4.38l-.37,3.39h50.62l.37-3.39C372.19,403.07,371,401.17,369.19,401Z" style="fill: rgb(255, 255, 255); isolation: isolate; opacity: 0.1; transform-origin: 346.427px 391.02px;" class="animable"></path></g><path d="M327.2,412.92a7.85,7.85,0,0,1-.24,1.21h-8.25l.93-5.47a5.45,5.45,0,0,1,1.43-1.08,4.32,4.32,0,0,1,2-.51,3.81,3.81,0,0,1,3.12,1.65A5.93,5.93,0,0,1,327.2,412.92Z" style="fill: rgb(38, 50, 56); transform-origin: 322.983px 410.6px;" id="elij681ehxjq" class="animable"></path><path d="M373.92,412.92a7.85,7.85,0,0,1-.24,1.21h-9.31a5.46,5.46,0,0,1,0-1.21,7.28,7.28,0,0,1,1.91-4.2,4.87,4.87,0,0,1,3.5-1.65,3.6,3.6,0,0,1,1.89.52A5.34,5.34,0,0,1,373.92,412.92Z" style="fill: rgb(38, 50, 56); transform-origin: 369.168px 410.6px;" id="elx4oawix933c" class="animable"></path><path d="M351.43,380.09h-3.95a2.56,2.56,0,0,1-2.6-2.92l2.79-25.34h9.8l-2.79,25.34A3.35,3.35,0,0,1,351.43,380.09Z" style="fill: rgb(38, 50, 56); transform-origin: 351.162px 365.96px;" id="elbytulpm0iro" class="animable"></path><g id="elltx210vbm58"><path d="M351.43,380.09h-3.95a2.56,2.56,0,0,1-2.6-2.92l2.79-25.34h9.8l-2.79,25.34A3.35,3.35,0,0,1,351.43,380.09Z" style="fill: rgb(255, 255, 255); isolation: isolate; opacity: 0.2; transform-origin: 351.162px 365.96px;" class="animable"></path></g><path d="M408,265.67l-.22,1.29L406,277l-.61,3.58-.67,4-1.89,11.09-.22,1.26v0l-1.12,6.57-.93,5.46-4.44,26.07h0l-1.82,10.69h0c-.29.36-.58.71-.88,1a22.66,22.66,0,0,1-2.09,2.07c-.42.37-.85.71-1.29,1-.22.17-.45.33-.67.48a20,20,0,0,1-2.08,1.24c-.29.15-.59.3-.89.43a16.26,16.26,0,0,1-6.56,1.45H329l1.15-6.71,1-6.06,1-5.95,1-5.59h22.47v0s0-.1.07-.19l.14-.38c0-.08.06-.16.09-.26l.38-1.05c.09-.25.18-.51.29-.8.18-.5.38-1.07.61-1.69.07-.2.14-.4.22-.61,1.06-2.95,2.53-7,4.25-11.8l.52-1.45.23-.63.44-1.23v0c.5-1.38,1-2.81,1.54-4.27l.34-1,2.36-6.54.17-.49.17-.45,2.44-6.79L376.62,271a9,9,0,0,1,1.52-2.7,3.27,3.27,0,0,1,.3-.35,5,5,0,0,1,.4-.4h0l.19-.18.2-.18h0l.4-.32h0l.42-.28h0a7.1,7.1,0,0,1,1-.47,4.5,4.5,0,0,1,.48-.16,4.05,4.05,0,0,1,.47-.12,4.13,4.13,0,0,1,.49-.07l.31,0H408Z" style="fill: rgb(38, 50, 56); transform-origin: 368.5px 309.53px;" id="elqfye6ti55wr" class="animable"></path><g id="el5pv2bswkws9"><path d="M408,265.67l-.22,1.29L406,277l-.61,3.58-.67,4-1.89,11.09-.22,1.26v0l-1.12,6.57-.93,5.46-4.44,26.07h0l-1.82,10.69h0c-.29.36-.58.71-.88,1a22.66,22.66,0,0,1-2.09,2.07c-.42.37-.85.71-1.29,1-.22.17-.45.33-.67.48a18.39,18.39,0,0,1-2.08,1.24c-.29.15-.59.3-.89.43a15.65,15.65,0,0,1-1.83.7,15.3,15.3,0,0,1-4.73.76H329l1.15-6.71,1-6.06,1-5.95,1-5.59h22.47v0s0-.1.07-.19l.14-.38c0-.08.06-.16.09-.26l.38-1.05c.09-.25.18-.51.29-.8.18-.5.38-1.07.61-1.69.07-.2.14-.4.22-.61,1.06-2.95,2.53-7,4.25-11.8l.52-1.45.23-.63.44-1.23v0c.5-1.38,1-2.81,1.54-4.27l.34-1,2.36-6.54.17-.49.17-.45,2.44-6.79L376.62,271a9,9,0,0,1,1.52-2.7,3.27,3.27,0,0,1,.3-.35,5,5,0,0,1,.4-.4h0l.19-.18.2-.18h0l.4-.32h0l.42-.28h0a7.1,7.1,0,0,1,1-.47,4.5,4.5,0,0,1,.48-.16,4.05,4.05,0,0,1,.47-.12,4.13,4.13,0,0,1,.49-.07l.31,0H408Z" style="fill: rgb(255, 255, 255); opacity: 0.6; transform-origin: 368.5px 309.535px;" class="animable"></path></g><g id="elhk84q28uh1n"><path d="M407.73,267,406,277l-.61,3.58-.67,4-1.89,11.09-.22,1.26v0l-2,6.54L399,309l-7.89,25.83-2.45,8a16.59,16.59,0,0,0,.1-1.84,14.17,14.17,0,0,0-1.34-6.17,10.45,10.45,0,0,0-3-3.8h0a8.64,8.64,0,0,0-5.28-1.78h-23.4v0s0-.1.07-.19l.14-.38c0-.08.06-.16.09-.26l.38-1.05c.09-.25.18-.51.29-.8.18-.5.38-1.07.61-1.69.07-.2.14-.4.22-.61,1.06-2.95,2.53-7,4.25-11.8.18-.47.35-1,.53-1.45l.22-.63.45-1.23v0c.5-1.38,1-2.81,1.54-4.27.12-.32.24-.64.35-1,.77-2.12,1.56-4.31,2.36-6.54l.18-.49.16-.45,2.45-6.79L376.65,271a9.43,9.43,0,0,1,1.5-2.68,7.45,7.45,0,0,1,.71-.77l.19-.18.2-.18h0l.4-.32h0l.42-.28h0a7.1,7.1,0,0,1,1-.47,4.5,4.5,0,0,1,.48-.16,4.05,4.05,0,0,1,.47-.12,4.13,4.13,0,0,1,.49-.07l.31,0h21.62A4.72,4.72,0,0,1,407.73,267Z" style="isolation: isolate; opacity: 0.2; transform-origin: 381.735px 304.299px;" class="animable"></path></g><path d="M408.16,264.45l-.21,1.22-.22,1.29L406,277l-.61,3.58-.67,4-1.89,11.09c-1.65-.38-3-.8-3.16-1.53-.41-2-.36-3.36-5.94-1.18s-2.81-3-9.4-3.34l-1.55-.07c-4.53-.18-10-.07-12.87,0h0l-2,.06,8.21-18.47a13,13,0,0,1,1.78-2.92,9.34,9.34,0,0,1,7-3.79Z" style="fill: rgb(165, 42, 42); transform-origin: 388.035px 280.05px;" id="eld9tf1oqbhsm" class="animable"></path><g id="el6avpndoaz66"><path d="M408.16,264.45l-.21,1.22-.22,1.29L406,277l-.61,3.58-.67,4-1.89,11.09c-1.65-.38-3-.8-3.16-1.53-.41-2-.36-3.36-5.94-1.18s-2.81-3-9.4-3.34l-1.55-.07c-4.53-.18-10-.07-12.87,0h0l-2,.06,8.21-18.47a13,13,0,0,1,1.78-2.92,9.34,9.34,0,0,1,7-3.79Z" style="fill: rgb(255, 255, 255); opacity: 0.8; transform-origin: 388.035px 280.05px;" class="animable"></path></g><path d="M363.75,234.15l.76-5.8,4,4.48s-1.13,4.44-3.49,5.34l-.38-.45A4.64,4.64,0,0,1,363.75,234.15Z" style="fill: rgb(255, 181, 115); transform-origin: 366.099px 233.26px;" id="elhw36aj62c5f" class="animable"></path><polygon points="367.13 223.83 371 226.85 368.52 232.84 364.51 228.35 367.13 223.83" style="fill: rgb(255, 181, 115); transform-origin: 367.755px 228.335px;" id="elw26wga9iv9l" class="animable"></polygon><path d="M375.25,222.46a13.16,13.16,0,0,1-5.58,7.45c-4.71,3.2-1.73,8.26-2.81,12.36s-7.56,8.57-3.65,11.6l3.79,1.56s-3.6-3-3.15-5.31c1-5,4.46-5.86,4.94-8.6.89-5.06-2.67-7.86.11-9S375.53,227.14,375.25,222.46Z" style="fill: rgb(38, 50, 56); transform-origin: 368.617px 238.945px;" id="el79lc44dww1q" class="animable"></path><path d="M360.54,250.32a1.78,1.78,0,0,1-.9-.25.2.2,0,0,1-.08-.27.2.2,0,0,1,.28-.08,1.51,1.51,0,0,0,1.92-.4,4.12,4.12,0,0,0,.29-4.9c-1.44-2.26-3.1-8.7-1-12.45,1.07-1.92,2.94-2.85,5.57-2.85h.15c2.89,0,5.1-.77,6.55-2.28a7.16,7.16,0,0,0,1.87-4.83.2.2,0,0,1,.19-.21.2.2,0,0,1,.22.19,7.53,7.53,0,0,1-2,5.13c-1.54,1.59-3.84,2.4-6.85,2.4h-.25c-2.42,0-4.14.89-5.11,2.64-2.05,3.69-.23,10.11,1,12a4.48,4.48,0,0,1-.34,5.39A2.09,2.09,0,0,1,360.54,250.32Z" style="fill: rgb(38, 50, 56); transform-origin: 367.568px 236.06px;" id="elwd8xioce75q" class="animable"></path><path d="M356.38,251.1a.21.21,0,0,1-.16-.08.19.19,0,0,1,0-.28,6.49,6.49,0,0,0,1.65-1.73,5.17,5.17,0,0,0,.22-2.13c0-.19,0-.38,0-.56,0-.46,0-.92,0-1.38a39.06,39.06,0,0,1,.11-4.7c.41-4.16,2.48-7.64,5.4-9.07a13,13,0,0,1,3.84-1l1-.16a7.79,7.79,0,0,0,4.49-2.12.2.2,0,0,1,.29.28,8.08,8.08,0,0,1-4.7,2.23l-1,.17a12.5,12.5,0,0,0-3.72,1c-2.8,1.38-4.78,4.73-5.18,8.75a40.32,40.32,0,0,0-.11,4.65c0,.46,0,.92,0,1.39,0,.17,0,.36,0,.55a5.16,5.16,0,0,1-.26,2.31,6.58,6.58,0,0,1-1.77,1.88A.17.17,0,0,1,356.38,251.1Z" style="fill: rgb(38, 50, 56); transform-origin: 364.717px 239.468px;" id="el4qyhhgfnftp" class="animable"></path><path d="M394.13,216.84a7.31,7.31,0,0,0-7.32-5.29c-6,0-11.57,4.41-11.9,10.06s-3.73,5.12-4.91,10.59.82,6.89.71,9.19-2.47,1.58-4.49,5.47-4.62,9.36,1.34,16.6,25.23,6,29.88,1.58,5.45-12.88,1.68-15.18-.07-1.94.92-7.06-2.53-7.06-1.79-11.13S401.14,217.2,394.13,216.84Z" style="fill: rgb(38, 50, 56); transform-origin: 382.693px 240.084px;" id="elz4cvxe7fjgq" class="animable"></path><path d="M369.37,262.33c-1,.09-1.75.14-2.61.15s-1.67,0-2.51,0a42.33,42.33,0,0,1-5-.43,36.86,36.86,0,0,1-5-1,31.29,31.29,0,0,1-5-1.86l-.08,0a3.87,3.87,0,0,1-.73-.45,5.1,5.1,0,0,1-1.61-2.4,5.6,5.6,0,0,1-.19-2.18,8.44,8.44,0,0,1,.76-2.59,19.15,19.15,0,0,1,2-3.27,48.33,48.33,0,0,1,4.46-5.09c1.55-1.56,3.14-3,4.77-4.47s3.28-2.79,5-4.11a2,2,0,0,1,2.72,2.89l0,0c-1.35,1.58-2.74,3.18-4.06,4.79s-2.66,3.22-3.91,4.85A55.58,55.58,0,0,0,355,252a12.37,12.37,0,0,0-1.13,2.24c-.11.3-.13.56-.1.47a1.36,1.36,0,0,0-.06-.61A2.38,2.38,0,0,0,353,253l-.82-.49a29.73,29.73,0,0,0,3.87,1.06c1.36.25,2.73.47,4.14.59s2.83.21,4.26.24c.72,0,1.44,0,2.15,0l2-.07h.23a4,4,0,0,1,.51,8Z" style="fill: rgb(233, 179, 118); transform-origin: 359.846px 248.365px;" id="eldw0nnpsz2yh" class="animable"></path><path d="M385.58,325.29c0,.25-.05.5-.09.74a22.81,22.81,0,0,1-1.16,5,16.63,16.63,0,0,1-1.37,3c-.17.29-.34.57-.52.84-.08.11-.16.23-.25.34a.83.83,0,0,1-.12.16l-.34.44c-.15.2-.32.39-.49.58a5.39,5.39,0,0,1-.54.53,2.05,2.05,0,0,1-.27.25,5.07,5.07,0,0,1-.45.36l-.09.07a10.32,10.32,0,0,1-3.15,1.51,15.13,15.13,0,0,1-3.6.6,30.25,30.25,0,0,1-7.57-.65h0c-1.34-.26-2.71-.59-4.09-1-2.42-.67-4.88-1.49-7.27-2.38l-2.17-.82h0l-.73-.29c-4.81-1.91-9.19-3.94-12.33-5.31a22.21,22.21,0,0,0-4.37-1.61h0a1.19,1.19,0,0,0-.25,0c-.23,0-.57.3-1,.83l.32-1.91.4-2.36,2.44-14.34.63-3.68a61.33,61.33,0,0,1,14.4,1.92l.69.19c1.13.27,2.05.54,2.7.74h0c.44.13.75.22.9.28l.11,0h0a.32.32,0,0,1,0-.09L356,309c.12-.54.38-1.71.71-3a1.94,1.94,0,0,1,.05-.2q0-.21.12-.48c.14-.59.29-1.2.45-1.78.26-1,.52-1.88.75-2.54v0c0-.11.07-.21.11-.31.89-2.33,4.67-3.17,8.94-3.32h0a79.71,79.71,0,0,1,14.31,1.14s.8,2.17,1.72,5.52c.42,1.54.86,3.34,1.26,5.29A53.82,53.82,0,0,1,385.58,325.29Z" style="fill: rgb(235, 179, 118); transform-origin: 359.549px 318.55px;" id="elhydr7p5tq8w" class="animable"></path><path d="M365.53,339c-.14,0-.65,0-2.35-.09l-.6,0-.52,0H362l-.54,0-.39,0h-.26l-2.16-.11-.62,0-.84,0h-.12l-.58,0-.61,0-2.16-.11h0l-1-.06-1.45-.08-9.42-.53s-.08,3.48-.21,9.06c0,2-.1,4.25-.16,6.71h0c-.31,12.61-.78,30.59-1.28,45.62-.11,3.37-.22,6.59-.33,9.57a1.28,1.28,0,0,0,0,.19c0,.67-.05,1.33-.08,2l-4.72.33-.36-2.07a3.67,3.67,0,0,0-.07-.42c-.33-2-.83-5-1.45-8.73-1.44-8.75-3.46-21.34-5.18-33.16v0c-.19-1.26-.37-2.52-.54-3.76h0l.22-1.26s0,0,0,0l1.39-8.21h0l1.15-6.71,1-6.06,1-5.95,1-5.59.12-.72h0l0-.06h0l.32-1.91.4-2.36.27-.09a86,86,0,0,0,7.8,5.16l.76.45.88.51c.39.22.78.45,1.19.67l.8.44.93.5c.57.3,1.16.61,1.76.9.41.22.84.43,1.27.63s1,.5,1.58.74h0c2.13,1,4.39,1.92,6.74,2.75.49.18,1,.35,1.48.51.33.11.66.22,1,.31l1,.31.94.27c.53.15,1.07.29,1.61.42Z" style="fill: rgb(235, 179, 118); transform-origin: 346.5px 367.97px;" id="ely7ixqqglfpq" class="animable"></path><g id="el655m78436jq"><path d="M327.86,364.29c.06.73.09,1.57.09,2.5-.19-1.26-.37-2.52-.54-3.76h0l.22-1.26C327.7,362.58,327.78,363.43,327.86,364.29Z" style="isolation: isolate; opacity: 0.2; transform-origin: 327.68px 364.28px;" class="animable"></path></g><g id="el7r5kfokbl2c"><path d="M365.53,339c-.14,0-.65,0-2.35-.09l-.6,0-.52,0H362l-.54,0-.39,0h-.26l-2.16-.11-.62,0-.84,0h-.12l-.58,0-.61,0-2.16-.12h0l-1-.05h0c-.13,0-.65-.13-1.44-.33a40,40,0,0,1-8.6-3.23,20.73,20.73,0,0,1-7-5.59,10.59,10.59,0,0,1-1.05-1.61h0a11.11,11.11,0,0,1-.61-1.25l-.32.15.4-2.36.27-.09a86,86,0,0,0,7.8,5.16l.76.45.88.51c.39.22.78.45,1.19.67l.8.44.93.5c.57.3,1.16.61,1.76.9.41.22.84.43,1.27.63s1,.51,1.58.75c2.13,1,4.39,1.92,6.74,2.75.49.18,1,.35,1.48.51.33.11.66.22,1,.31s.67.22,1,.32l.94.26c.53.15,1.07.29,1.61.42Z" style="isolation: isolate; opacity: 0.2; transform-origin: 349.615px 331.66px;" class="animable"></path></g><path d="M333.76,409.9h0a7,7,0,0,0-.35-1.17,2.17,2.17,0,0,0-.84-1.13.8.8,0,0,0-.83,0,.79.79,0,0,0-.48.66.71.71,0,0,0,.12.43,2.59,2.59,0,0,0,.75.72,2.28,2.28,0,0,0-1.45.22,1,1,0,0,0-.4.53c-.14.47,0,.71.08.84a.7.7,0,0,0,.52.18,6.54,6.54,0,0,0,2.4-.83l.37-.21h0a.08.08,0,0,0,0,0,.18.18,0,0,0,.05-.07.09.09,0,0,0,0-.05.28.28,0,0,0,0-.09Zm-3.16.8s-.09-.1,0-.41a.54.54,0,0,1,.21-.28,3.47,3.47,0,0,1,2.27,0C332.09,410.55,330.87,411,330.6,410.7Zm1.28-2a.75.75,0,0,1-.29-.46c0-.11.17-.21.26-.26a.64.64,0,0,1,.31-.09.61.61,0,0,1,.25.06,1.59,1.59,0,0,1,.59.75,5.44,5.44,0,0,1,.33.92A6.16,6.16,0,0,1,331.88,408.72Z" style="fill: rgb(38, 50, 56); transform-origin: 331.99px 409.333px;" id="elgeqvlbw7fv" class="animable"></path><path d="M340.77,414.13H328.58a27.62,27.62,0,0,0,4.7-3.75l.48-.48h0c.45-.45.71-.74.71-.74h.18a46.83,46.83,0,0,1,5.16-.23c.64,0,1.07.11,1.06.28A45.34,45.34,0,0,0,340.77,414.13Z" style="fill: rgb(38, 50, 56); transform-origin: 334.725px 411.529px;" id="eloazjdp5q6we" class="animable"></path><path d="M381.71,296l-22.38.51s-2.17,7.47-2.63,9.4-.78,3.34-.78,3.34h0L351.49,308l-.29,32.82c8.66-1.25,24,2.12,30-4.54C391.36,325.21,381.71,296,381.71,296Z" style="fill: rgb(165, 42, 42); transform-origin: 368.526px 318.41px;" id="el8raquzagp7" class="animable"></path><g id="elvdmsoea02n"><path d="M355.92,309.29l12.16,3.2s-6.4-4.69-11.38-6.54C356.25,307.76,355.92,309.29,355.92,309.29Z" style="isolation: isolate; opacity: 0.3; transform-origin: 362px 309.22px;" class="animable"></path></g><path d="M359.35,297.24l22.37-1.2a58.5,58.5,0,0,1,3-13.23c1.59-4.72,3.92-10.63,7.43-19.31,1.17-2.88.83-5.83-.6-7.62a4.47,4.47,0,0,0-2.62-1.66c-.91-.2-1.89-.38-2.9-.54a60.56,60.56,0,0,0-10.72-.93c-1.19,0-2.43.1-3.62.2-4.29.36-8.38,6-9.38,11.18a114.69,114.69,0,0,0-2,11.93C359.51,281.9,360.27,287.65,359.35,297.24Z" style="fill: rgb(165, 42, 42); transform-origin: 376.103px 274.995px;" id="el8gi6oczgsbs" class="animable"></path><path d="M387.83,238.65c-1.65,4.2-5.7,13.49.44,15.42,0,0-7.36,5.23-18.14,11.57a20.54,20.54,0,0,1,2.34-12.9c6.25.8,7.1-4.37,7.19-7.73Z" style="fill: rgb(235, 179, 118); transform-origin: 379.092px 252.145px;" id="el3cln2saxoux" class="animable"></path><g id="el9pvvq2r6hvk"><path d="M384.5,241.25,379.66,245a15.71,15.71,0,0,1-.21,2.38,6.49,6.49,0,0,0,4.6-3.83A8.12,8.12,0,0,0,384.5,241.25Z" style="opacity: 0.2; transform-origin: 381.975px 244.315px;" class="animable"></path></g><path d="M402,279.17a33.26,33.26,0,0,1-4.6,1.95,9.59,9.59,0,0,1-1,.27c-.34-1.15-.63-2.34-.89-3.54-.35-1.72-.64-3.47-.89-5.24s-.42-3.56-.57-5.36a2.64,2.64,0,0,1,0-.28c-.05-.43-.08-.87-.11-1.3s-.06-.82-.08-1.22c-.05-.87-.09-1.71-.13-2.52v-.11a4.07,4.07,0,0,0-.79-2.19,4,4,0,0,0-5.76-.71h0a4,4,0,0,0-1.46,3.05v0c0,.84,0,1.65.07,2.44,0,.41,0,.82.07,1.22.05.76.11,1.53.17,2.3,0,.18,0,.37.06.55q.25,2.66.72,5.31c.13.76.28,1.52.44,2.28.25,1.19.54,2.38.86,3.57a45.35,45.35,0,0,0,2.05,5.82l.07.17a3.12,3.12,0,0,0,.3.53,5.39,5.39,0,0,0,1.5,1.43,5.54,5.54,0,0,0,1.71.73,6.93,6.93,0,0,0,2.65.09,14,14,0,0,0,3.49-1.06,32.94,32.94,0,0,0,4.92-2.8l.67-4L406,277C404.68,277.79,403.33,278.51,402,279.17Zm-6.42,2.32c-.19,0-.28-.06-.09,0l.13,0Z" style="fill: rgb(233, 179, 118); transform-origin: 395.86px 273.252px;" id="eliy8976q4c6f" class="animable"></path><path d="M386,218.31c-6-1.1-8.87,2.58-11.09,10.25-2.78,9.6-2.64,16.8,5.36,16.1C391.16,243.72,396,220.13,386,218.31Z" style="fill: rgb(235, 179, 118); transform-origin: 382.363px 231.413px;" id="elr8jvwiiky3n" class="animable"></path><path d="M378.93,228.85a17.93,17.93,0,0,1-2.46,2.81,1.53,1.53,0,0,0,1.39,1.14Z" style="fill: rgb(213, 135, 69); transform-origin: 377.7px 230.825px;" id="elvqvap0i2cii" class="animable"></path><path d="M382.75,228.91c-.15.62,0,1.17.32,1.24s.71-.37.87-1,0-1.17-.32-1.24S382.91,228.29,382.75,228.91Z" style="fill: rgb(38, 50, 56); transform-origin: 383.347px 229.03px;" id="elaq216zqpay" class="animable"></path><path d="M383.75,228l-.94-.75S383.07,228.47,383.75,228Z" style="fill: rgb(38, 50, 56); transform-origin: 383.28px 227.679px;" id="elkfl42pe8if" class="animable"></path><path d="M376.68,227.48c-.15.62,0,1.17.32,1.24s.72-.37.87-1,0-1.17-.32-1.24S376.84,226.86,376.68,227.48Z" style="fill: rgb(38, 50, 56); transform-origin: 377.275px 227.6px;" id="elt7qvs6hd9f" class="animable"></path><path d="M377.68,226.55l-.93-.75S377,227,377.68,226.55Z" style="fill: rgb(38, 50, 56); transform-origin: 377.215px 226.225px;" id="eldxfczx09cz6" class="animable"></path><path d="M386.35,225.63a.28.28,0,0,1-.27-.19A2.36,2.36,0,0,0,384,224a.29.29,0,0,1-.29-.3.28.28,0,0,1,.3-.28,2.92,2.92,0,0,1,2.61,1.8.3.3,0,0,1-.17.38Z" style="fill: rgb(46, 53, 58); transform-origin: 385.174px 224.525px;" id="elinjnndpm7t" class="animable"></path><path d="M377.17,223.08a.29.29,0,0,1-.14-.55,2.71,2.71,0,0,1,2.85-.16.29.29,0,0,1,.06.41.28.28,0,0,1-.4.06,2.2,2.2,0,0,0-2.23.2A.25.25,0,0,1,377.17,223.08Z" style="fill: rgb(46, 53, 58); transform-origin: 378.434px 222.56px;" id="elopfo639k5w" class="animable"></path><path d="M378.05,235.92a23.08,23.08,0,0,1,.11,2.74l.39,0a3.28,3.28,0,0,0,3.25-1.39,3.63,3.63,0,0,0,.47-1.29,3,3,0,0,0,.06-.78,7.58,7.58,0,0,1-3.66.71C378.29,235.94,378.05,235.92,378.05,235.92Z" style="fill: rgb(38, 50, 56); transform-origin: 380.192px 236.952px;" id="el1cvnh3xjp1z" class="animable"></path><path d="M378.67,235.94l.05.81c1.69.08,2.93-.14,3.55-.74a3,3,0,0,0,.06-.78A7.58,7.58,0,0,1,378.67,235.94Z" style="fill: rgb(255, 255, 255); transform-origin: 380.502px 235.998px;" id="elfhcsux0e0hc" class="animable"></path><path d="M378.55,238.69a3.28,3.28,0,0,0,3.25-1.39,5.35,5.35,0,0,0-2.08.38A2.79,2.79,0,0,0,378.55,238.69Z" style="fill: rgb(222, 87, 83); transform-origin: 380.175px 238.017px;" id="el4r3fcl8kr6" class="animable"></path><path d="M389.7,232.2s-1.39-6.7.13-11.4c0,0-10.52-8.27-14.58,6.76,0,0,1.92-13.66,12.32-12.07s6,20.52-.61,25.18C387,240.67,390.55,236.38,389.7,232.2Z" style="fill: rgb(38, 50, 56); transform-origin: 384.514px 228.016px;" id="el85m9a63ut0c" class="animable"></path><path d="M392.88,218.34s-3.79-5.81-8.32-5.3-5.07,7.69.14,11,5.76,6.93,5.76,6.93l6-5Z" style="fill: rgb(38, 50, 56); transform-origin: 388.718px 221.989px;" id="elgt511c5ts96" class="animable"></path><path d="M391.48,231.5l-.38-.14s.57-1.83-3-3.91-7.78-4.62-7.65-8.58,2.29-4,2.39-4v.4c-.1,0-1.86,0-2,3.57-.12,3.73,3.9,6.11,7.46,8.22C392.19,229.37,391.51,231.41,391.48,231.5Z" style="fill: rgb(38, 50, 56); transform-origin: 385.995px 223.185px;" id="elht8i5g6w4w" class="animable"></path><path d="M388.35,233.61c.32-1.21,1.79-3.08,3.54-2.5s1.59,5.54-3.31,5.85C387.88,237,387.69,236.12,388.35,233.61Z" style="fill: rgb(235, 179, 118); transform-origin: 390.424px 233.981px;" id="el90pv3uyi01c" class="animable"></path><path d="M384.32,268.62a54.47,54.47,0,0,0,.44,14.19c1.59-4.72,3.92-10.63,7.43-19.31,1.17-2.88.83-5.83-.6-7.62C391.35,255.87,385.54,255.87,384.32,268.62Z" style="fill: rgb(235, 179, 118); transform-origin: 388.473px 269.345px;" id="elvu12cu5p09s" class="animable"></path><path d="M396.14,335.06h0l-1.82,10.69h0l-.16,1a3.51,3.51,0,0,1-.72.07H364.81c-2.47,0-4.28-2.26-4.28-5.19a7.67,7.67,0,0,1,.05-.82l0-.2a7.11,7.11,0,0,1,.47-1.8,5.51,5.51,0,0,1,.36-.78.16.16,0,0,1,0-.07h0a5.59,5.59,0,0,1,4.65-3.14h28.62A3.77,3.77,0,0,1,396.14,335.06Z" style="fill: rgb(38, 50, 56); transform-origin: 378.335px 340.819px;" id="el77mjezc0kq" class="animable"></path><path d="M401.51,303.53l-.93,5.46L399,309c-4.63,0-9.88,0-14.1.25l-.42,0c-3.31.21-5.92.57-7,1.14-1.69.9-1.57,10.61-1.14,18.82.1,2,.22,3.92.33,5.59.08,1.2.16,2.27.23,3.17a2.94,2.94,0,0,1-.12,1.07,1.66,1.66,0,0,1-.06.16,2.32,2.32,0,0,1-2,1.64,1.57,1.57,0,0,1-1.36-.77,1.89,1.89,0,0,1-.2-.43,2.16,2.16,0,0,1-.12-.53c-.11-1.06-.27-2.55-.43-4.31s-.33-3.57-.48-5.59c-.61-8.21-1-18.26.61-21.31,1.11-2.15,5.27-3.33,10.45-3.94l.63-.07a128.47,128.47,0,0,1,16.83-.39Z" style="fill: rgb(38, 50, 56); transform-origin: 386.555px 322.112px;" id="elt2r8aqurere" class="animable"></path><g id="elzelyxswq27"><path d="M416.71,214.21l-8.55,50.24-.21,1.22-.22,1.29L406,277l-.61,3.58-.67,4-1.89,11.09-.22,1.26v0l-1.12,6.57-.93,5.46-4.44,26.07h0l-1.82,10.69h0l-.16,1-11.47,67.39h-64l.93-5.47L327.41,363h0l.22-1.26s0,0,0,0l1.39-8.21h0l1.15-6.71,1-6.06,1-5.95,1-5.59.12-.72h0l0-.06h0l.32-1.91.4-2.36,2.44-14.34.63-3.68.3-1.75,15.34-90.16q.51-3,1.24-5.83c4.29-16.74,14.2-30.77,25.57-37.17a32,32,0,0,1,5.93-2.58,24.5,24.5,0,0,1,7.19-1.12c.48,0,.95,0,1.42.05C410.87,168.64,421,189.16,416.71,214.21Z" style="fill: rgb(255, 255, 255); opacity: 0.2; transform-origin: 368.182px 290.825px;" class="animable"></path></g><g id="elwn4jvzfunch"><path d="M394.08,167.56,414.87,225l1.84-10.82C421,189.16,410.87,168.64,394.08,167.56Z" style="fill: rgb(255, 255, 255); opacity: 0.5; transform-origin: 405.887px 196.28px;" class="animable"></path></g><g id="ellwmc1zj77li"><polygon points="325.15 376.3 318.75 413.87 318.85 414.13 338.83 414.13 325.15 376.3" style="fill: rgb(255, 255, 255); opacity: 0.5; transform-origin: 328.79px 395.215px;" class="animable"></polygon></g><g id="elywwqkhplrz"><path d="M379.54,171.21l30.25,83.64L412,242l-26.52-73.32A32,32,0,0,0,379.54,171.21Z" style="fill: rgb(255, 255, 255); opacity: 0.5; transform-origin: 395.77px 211.765px;" class="animable"></path></g><g id="elgp4ip5q03ra"><polygon points="331.63 338.2 329.43 351.11 352.23 414.13 359.1 414.13 331.63 338.2" style="fill: rgb(255, 255, 255); opacity: 0.5; transform-origin: 344.265px 376.165px;" class="animable"></polygon></g><g id="ela02q39cyrpv"><path d="M352.73,214.21l0,.18,43.51,120.27,1.1-6.46L354,208.38Q353.24,211.25,352.73,214.21Z" style="fill: rgb(255, 255, 255); opacity: 0.5; transform-origin: 375.035px 271.52px;" class="animable"></path></g></g><g id="freepik--character-1--inject-44" class="animable" style="transform-origin: 168.667px 315.372px;"><rect x="165.51" y="334.8" width="47.14" height="12.02" rx="6.01" style="fill: rgb(38, 50, 56); transform-origin: 189.08px 340.81px;" id="el1jb0osu4n2w" class="animable"></rect><path d="M195.31,340.84a2.36,2.36,0,0,0,2.3-1.73c1.65-6.16,6.88-26.62,4.59-31.21-2.93-5.87-34.58-4.51-43.74-4a2.62,2.62,0,0,0-2.47,2.62h0a2.62,2.62,0,0,0,2.68,2.62c8.31-.2,33.34-.64,37.41,1.24,2.75,1.27-1.34,20.27-3,27.58a2.34,2.34,0,0,0,2.26,2.87Z" style="fill: rgb(38, 50, 56); transform-origin: 179.38px 322.117px;" id="elyjviyakjwyp" class="animable"></path><path d="M141.18,401l22.58-2.22V373.27h8.94v25.45L195.37,401a4.4,4.4,0,0,1,4,4.38v3.39H137.21v-3.39A4.4,4.4,0,0,1,141.18,401Z" style="fill: rgb(38, 50, 56); transform-origin: 168.29px 391.02px;" id="el2myyt30bvrn" class="animable"></path><g id="elieranguna8i"><path d="M141.18,401l22.58-2.22V373.27h8.94v25.45L195.37,401a4.4,4.4,0,0,1,4,4.38v3.39H137.21v-3.39A4.4,4.4,0,0,1,141.18,401Z" style="fill: rgb(255, 255, 255); isolation: isolate; opacity: 0.1; transform-origin: 168.29px 391.02px;" class="animable"></path></g><path d="M191.1,412.92a5.85,5.85,0,1,0,5.85-5.85A5.85,5.85,0,0,0,191.1,412.92Z" style="fill: rgb(38, 50, 56); transform-origin: 196.95px 412.92px;" id="elgmzk4y652vq" class="animable"></path><path d="M145.45,412.92a5.85,5.85,0,1,1-5.85-5.85A5.85,5.85,0,0,1,145.45,412.92Z" style="fill: rgb(38, 50, 56); transform-origin: 139.6px 412.92px;" id="elvii5ybzsm3l" class="animable"></path><g id="elckcikk9rvyd"><path d="M165.45,351.83H171a3.24,3.24,0,0,1,3.24,3.24v25a0,0,0,0,1,0,0h-12a0,0,0,0,1,0,0v-25A3.24,3.24,0,0,1,165.45,351.83Z" style="fill: rgb(38, 50, 56); transform-origin: 168.24px 365.95px; transform: rotate(180deg);" class="animable"></path></g><g id="elhcrfzfymovn"><path d="M165.45,351.83H171a3.24,3.24,0,0,1,3.24,3.24v25a0,0,0,0,1,0,0h-12a0,0,0,0,1,0,0v-25A3.24,3.24,0,0,1,165.45,351.83Z" style="fill: rgb(255, 255, 255); isolation: isolate; opacity: 0.2; transform-origin: 168.24px 365.95px; transform: rotate(180deg);" class="animable"></path></g><path d="M212,329.21H167.55L149.67,271a7.5,7.5,0,0,0-7.16-5.29H105.23A7.49,7.49,0,0,0,98,275l15.32,62a21.84,21.84,0,0,0,21.21,16.61h77.86a12.16,12.16,0,0,0,12.14-12.74A12.38,12.38,0,0,0,212,329.21Z" style="fill: rgb(38, 50, 56); transform-origin: 161.162px 309.66px;" id="elcxcgpdnmho5" class="animable"></path><g id="eldg41c8dkct5"><path d="M212,329.21H167.54L149.67,271a7.5,7.5,0,0,0-7.16-5.29H105.23A7.49,7.49,0,0,0,98,275l15.32,62a21.85,21.85,0,0,0,21.21,16.61h77.86a12.17,12.17,0,0,0,12.12-13A12.36,12.36,0,0,0,212,329.21Z" style="fill: rgb(255, 255, 255); opacity: 0.6; transform-origin: 161.159px 309.66px;" class="animable"></path></g><g id="elhrwv2o8ddjk"><path d="M108.94,274.9l16.28,67.91h0a13.6,13.6,0,0,1,13.6-13.6h28.72S157.16,295.4,149.63,271a7.47,7.47,0,0,0-7.15-5.28H116.21A7.48,7.48,0,0,0,108.94,274.9Z" style="isolation: isolate; opacity: 0.2; transform-origin: 138.142px 304.265px;" class="animable"></path></g><path d="M157.77,289.63s-12-.38-20.12,0-5.44,5.52-12,3.34-6.68-.86-7.45,1.18-12.72,1.65-12.2,4.6-8.14,4.64-8.14,4.64,1.19-11.71.68-18.39c-.2-2.73-.84-6.66-1.53-10.36a8.62,8.62,0,0,1,8.47-10.19h34.72a10.79,10.79,0,0,1,10,6.71Z" style="fill: rgb(165, 42, 42); transform-origin: 127.318px 283.92px;" id="elu73ifne16h" class="animable"></path><g id="elepbh2jc4ca6"><path d="M157.77,289.63s-12-.38-20.12,0-5.44,5.52-12,3.34-6.68-.86-7.45,1.18-12.72,1.65-12.2,4.6-8.14,4.64-8.14,4.64,1.19-11.71.68-18.39c-.2-2.73-.84-6.66-1.53-10.36a8.62,8.62,0,0,1,8.47-10.19h34.72a10.79,10.79,0,0,1,10,6.71Z" style="fill: rgb(255, 255, 255); opacity: 0.8; transform-origin: 127.318px 283.92px;" class="animable"></path></g><path d="M170.45,234.15l-.14-5.8-5.54,4.48s.8,4.44,3.57,5.34l.52-.45A4.56,4.56,0,0,0,170.45,234.15Z" style="fill: rgb(255, 181, 115); transform-origin: 167.611px 233.26px;" id="elv1jm0uzxk5" class="animable"></path><polygon points="167.7 223.83 162.54 226.85 164.77 232.84 170.31 228.35 167.7 223.83" style="fill: rgb(255, 181, 115); transform-origin: 166.425px 228.335px;" id="elpzrqga4mue" class="animable"></polygon><path d="M104.3,273l-5.75-.81,3.52,6.2s4.5-.06,5.85-2.65l-.36-.59A4.56,4.56,0,0,0,104.3,273Z" style="fill: rgb(255, 181, 115); transform-origin: 103.235px 275.29px;" id="ell08xm8khak" class="animable"></path><polygon points="93.67 273.97 95.81 279.55 102.07 278.34 98.55 272.14 93.67 273.97" style="fill: rgb(255, 181, 115); transform-origin: 97.87px 275.845px;" id="el5yitkw1ugun" class="animable"></polygon><path d="M157.92,222.46s.5,4.25,5.84,7.45,1,8.26,1.78,12.36,8.11,8.57,2.91,11.6l-4.86,1.56s4.82-3,4.57-5.31c-.55-5-4.68-5.86-4.9-8.6-.4-5.06,4.35-7.86,1.1-9S156.94,227.14,157.92,222.46Z" style="fill: rgb(38, 50, 56); transform-origin: 164.037px 238.945px;" id="el3oobgpzybt2" class="animable"></path><path d="M172.24,250.34a2.56,2.56,0,0,1-2.1-1.13,4,4,0,0,1,.65-5.05c1.88-2,4.65-8,3-11.65-.88-2-3-3-6.21-3h-.19c-4,0-6.92-1-8.52-2.9a6,6,0,0,1-1.29-4.68.22.22,0,0,1,.26-.18.23.23,0,0,1,.18.26,5.68,5.68,0,0,0,1.2,4.32c1.54,1.85,4.37,2.79,8.36,2.74,3.4,0,5.66,1.06,6.62,3.23,1.69,3.81-1.17,10-3.11,12.13a3.58,3.58,0,0,0-.62,4.49,2.09,2.09,0,0,0,2.65.74.22.22,0,0,1,.3.12.22.22,0,0,1-.12.29A2.69,2.69,0,0,1,172.24,250.34Z" style="fill: rgb(38, 50, 56); transform-origin: 166.114px 236.043px;" id="eln8i8v1rcd9k" class="animable"></path><path d="M177.23,251.12a.24.24,0,0,1-.12,0,6.37,6.37,0,0,1-1.94-1.91,4.36,4.36,0,0,1,0-2.35c0-.19.07-.37.1-.54.06-.47.13-.93.2-1.39a32.75,32.75,0,0,0,.5-4.64c.06-4-1.92-7.34-5.15-8.71a16.87,16.87,0,0,0-4.45-1l-1.23-.16a9.65,9.65,0,0,1-5.47-2.24.21.21,0,0,1,0-.31.22.22,0,0,1,.31,0,9.27,9.27,0,0,0,5.22,2.12l1.22.16a17.08,17.08,0,0,1,4.57,1c3.41,1.44,5.48,4.94,5.43,9.12a36.32,36.32,0,0,1-.5,4.7c-.08.46-.15.93-.21,1.39,0,.18-.06.37-.1.56a4,4,0,0,0,0,2.1,5.8,5.8,0,0,0,1.77,1.7.24.24,0,0,1,.07.31A.23.23,0,0,1,177.23,251.12Z" style="fill: rgb(38, 50, 56); transform-origin: 168.541px 239.467px;" id="el2c8gv6p016e" class="animable"></path><path d="M135.5,216.84s2.3-5.29,9.71-5.29,13.6,4.41,13.25,10.06,3.88,5.12,4.59,10.59-2,6.89-2.12,9.19,2.82,1.58,4.77,5.47,4.41,9.36-3.89,16.6-31.78,6-36.9,1.58-4.94-12.88,0-15.18.35-1.94-.18-7.06,4.06-7.06,3.71-11.13S126.85,217.2,135.5,216.84Z" style="fill: rgb(38, 50, 56); transform-origin: 144.378px 240.087px;" id="eluesj6b3fvzq" class="animable"></path><path d="M161.07,253.9l2.61.06c.9,0,1.81,0,2.71,0,1.82,0,3.62-.12,5.42-.24s3.56-.35,5.31-.6,3.43-.65,5.09-1.09l-.78.36a2.27,2.27,0,0,0-.76.82,2.22,2.22,0,0,0-.3,1c0,.44.07.27,0,.06a9.54,9.54,0,0,0-1-2.1,48.54,48.54,0,0,0-3.62-4.87c-1.34-1.63-2.76-3.24-4.19-4.84s-2.93-3.2-4.37-4.78l0,0a2.21,2.21,0,0,1,2.86-3.34c1.9,1.27,3.65,2.61,5.44,4s3.47,2.86,5.15,4.41a45.62,45.62,0,0,1,4.84,5.18,16.53,16.53,0,0,1,2.2,3.6,7.27,7.27,0,0,1,.63,3.26,5.51,5.51,0,0,1-.76,2.56,5.75,5.75,0,0,1-1.93,2,3.36,3.36,0,0,1-.6.3l-.17.06a45.26,45.26,0,0,1-6,1.81,53.82,53.82,0,0,1-6.09,1c-2,.25-4,.39-6.08.44-1,0-2,0-3,0s-2-.06-3.14-.16a4.44,4.44,0,0,1,.46-8.87Z" style="fill: rgb(233, 179, 118); transform-origin: 172.322px 248.453px;" id="elwy54n87qe8m" class="animable"></path><path d="M230,391.26l-4.92.94s-26.88-64.44-31.16-64.62-47.87,19.85-58.79,8.74S140,298.44,140,298.44s26.27-3.75,28.25,2.18a41,41,0,0,1,1.12,5.33c.29,1.81.5,3.34.5,3.34h0c.81-.21,27.19-7,37.58,0C218.05,316.43,230,391.26,230,391.26Z" style="fill: rgb(235, 179, 118); transform-origin: 180.641px 344.735px;" id="elj1w4bvjwpxa" class="animable"></path><path d="M154,339s1.78,0,29.34-1.24c0,0-5.12,47.34-7.36,73.13l5.75.33s23.18-67,23-75.82-10.27-11.34-10.27-11.34S174.8,335.39,154,339Z" style="fill: rgb(235, 179, 118); transform-origin: 179.366px 367.64px;" id="eltfzvrvp14zl" class="animable"></path><g id="el8534p8ie19"><path d="M196.88,364.29c4.51-18.13,6.77-27.55,4.51-31.93a13.56,13.56,0,0,0-6.84-6c-5.87,9.14-24.17,11.94-24.65,12h0c-13.58.6-15.61.62-15.85.62a119.9,119.9,0,0,0,24.17-7.21,145.64,145.64,0,0,0,16.23-7.73s10.06,2.57,10.27,11.35c.09,3.58-3.74,16.92-8.28,31.43A23.12,23.12,0,0,1,196.88,364.29Z" style="isolation: isolate; opacity: 0.2; transform-origin: 179.386px 345.43px;" class="animable"></path></g><path d="M233.79,388.76a13.44,13.44,0,0,1-2.47-.29l-.07,0h0l-.06-.06a.08.08,0,0,1,0,0,.2.2,0,0,1,0-.1c0-.09.23-2,1.16-2.69a1.21,1.21,0,0,1,1-.22c.39.09.61.26.65.53s-.37.93-.91,1.41a3.24,3.24,0,0,1,1.76-.22.84.84,0,0,1,.53.42.76.76,0,0,1,0,.86A2,2,0,0,1,233.79,388.76Zm-1.81-.59c1.24.2,2.74.29,3-.09,0,0,.1-.14,0-.42a.44.44,0,0,0-.28-.21A5,5,0,0,0,232,388.17Zm1-2.45a.76.76,0,0,0-.47.16,3.37,3.37,0,0,0-.91,1.95c1-.7,2-1.55,1.91-1.9,0-.11-.22-.17-.34-.19Z" style="fill: rgb(38, 50, 56); transform-origin: 233.348px 387.085px;" id="elb0rtpd5qjor" class="animable"></path><path d="M186.81,411.21a9.59,9.59,0,0,1-3.26-1h0l0,0a.16.16,0,0,1,0-.07h0a.09.09,0,0,1,0-.05h0a.14.14,0,0,1,0-.09c0-.09.71-1.9,1.78-2.33a1.16,1.16,0,0,1,1,0q.54.25.51.66c0,.41-.6.82-1.24,1.15a3.21,3.21,0,0,1,1.76.22.82.82,0,0,1,.41.53.74.74,0,0,1-.2.84A1.11,1.11,0,0,1,186.81,411.21Zm-2.54-1.16c1.15.5,2.58.95,2.95.65,0,0,.14-.1.06-.41a.43.43,0,0,0-.22-.28A5.19,5.19,0,0,0,184.27,410.05Zm1.42-2.14a.85.85,0,0,0-.31.06,3.38,3.38,0,0,0-1.36,1.67c1.16-.43,2.29-1,2.32-1.38,0-.11-.18-.21-.28-.26A.87.87,0,0,0,185.69,407.91Z" style="fill: rgb(38, 50, 56); transform-origin: 185.684px 409.392px;" id="ellw2ipzkczbf" class="animable"></path><path d="M222.62,389.66c-.14-.63,7.61-2,7.61-2s5.84,3.65,10.65,3.62,2.93,3.32-2.16,4.55l-12.6,3C222.5,399.76,224,396.13,222.62,389.66Z" style="fill: rgb(38, 50, 56); transform-origin: 233.141px 393.317px;" id="elohfd3mbqs7h" class="animable"></path><path d="M174.83,409.19c0-.64,7.86,0,7.86,0s4.76,5,9.44,6.12,2,4-3.22,3.88L176,419C172.23,419,174.59,415.81,174.83,409.19Z" style="fill: rgb(38, 50, 56); transform-origin: 184.214px 414.05px;" id="elughwyta98cd" class="animable"></path><path d="M140,296l27.41.51s1.65,7.47,2,9.4.5,3.34.5,3.34h0l5.58-1.24-4.09,32.82c-10.46-1.25-29.7,2.12-36.25-4.54C124.22,325.21,140,296,140,296Z" style="fill: rgb(165, 42, 42); transform-origin: 153.392px 318.415px;" id="elu2onpvrh1bn" class="animable"></path><g id="eln8zarpcb0ac"><path d="M169.89,309.29l-15.37,3.2S163,307.8,169.39,306C169.68,307.76,169.89,309.29,169.89,309.29Z" style="isolation: isolate; opacity: 0.3; transform-origin: 162.205px 309.245px;" class="animable"></path></g><path d="M167.31,297.24,140,296a46.22,46.22,0,0,0-2-13.23c-1.31-4.72-3.37-10.63-6.5-19.31a6.92,6.92,0,0,1,1.77-7.62,6.67,6.67,0,0,1,3.43-1.66c1.16-.2,2.38-.38,3.64-.54a93.43,93.43,0,0,1,13.29-.93c1.45,0,3,.1,4.41.2,5.22.36,9.48,6,10,11.18a90,90,0,0,1,.89,11.93C169.19,281.9,167.47,287.65,167.31,297.24Z" style="fill: rgb(165, 42, 42); transform-origin: 149.991px 274.975px;" id="ell60o1kvdcx" class="animable"></path><path d="M140.28,238.65c1.46,4.2,5.18,13.49-2.63,15.42,0,0,8.33,5.23,20.7,11.57a16.26,16.26,0,0,0-1.12-12.9c-7.78.8-8.12-4.37-7.77-7.73Z" style="fill: rgb(235, 179, 118); transform-origin: 148.42px 252.145px;" id="el3y6va51acw" class="animable"></path><g id="elphlgxcty7cr"><path d="M144,241.25l5.43,3.75a14.63,14.63,0,0,0-.07,2.38c-1.86-.13-4.65-1.95-5.12-3.83A6.53,6.53,0,0,1,144,241.25Z" style="opacity: 0.2; transform-origin: 146.706px 244.315px;" class="animable"></path></g><path d="M139.26,262.63c-.16,1.15-.33,2.12-.55,3.15s-.44,2-.69,3c-.51,2-1.1,4-1.79,6a59.85,59.85,0,0,1-2.41,5.84,44.88,44.88,0,0,1-3.21,5.65l-.09.14a3.67,3.67,0,0,1-.44.52,6.64,6.64,0,0,1-3.3,1.77,8.25,8.25,0,0,1-2.7.14,15.78,15.78,0,0,1-3.92-.93,37.35,37.35,0,0,1-6.15-3c-1.88-1.13-3.67-2.33-5.4-3.6s-3.38-2.57-5-4a2.22,2.22,0,0,1,2.48-3.63l.06,0c1.78.91,3.61,1.88,5.43,2.75s3.65,1.74,5.47,2.5a36.34,36.34,0,0,0,5.32,1.85,8.42,8.42,0,0,0,2.17.29c.26,0,.43-.06.4-.07a1,1,0,0,0-.6.31l-.52.67a47.17,47.17,0,0,0,2.25-4.81c.65-1.68,1.27-3.4,1.8-5.17s1-3.56,1.46-5.37.83-3.69,1.15-5.35l0-.16a4.44,4.44,0,0,1,8.76,1.47Z" style="fill: rgb(233, 179, 118); transform-origin: 121.094px 273.154px;" id="el65bim0ys9ym" class="animable"></path><path d="M145.24,218.31c7.53-1.1,10.54,2.58,12.23,10.25,2.1,9.6.95,16.8-8.76,16.1C135.51,243.72,132.74,220.13,145.24,218.31Z" style="fill: rgb(235, 179, 118); transform-origin: 147.776px 231.413px;" id="eljg0suwqhv8" class="animable"></path><path d="M152.54,228.85a16.19,16.19,0,0,0,2.64,2.81,2.09,2.09,0,0,1-1.86,1.14Z" style="fill: rgb(213, 135, 69); transform-origin: 153.86px 230.825px;" id="elsmennphv9e" class="animable"></path><path d="M147.84,228.91c.1.62-.14,1.17-.56,1.24s-.82-.37-.93-1,.14-1.17.56-1.24S147.73,228.29,147.84,228.91Z" style="fill: rgb(38, 50, 56); transform-origin: 147.093px 229.03px;" id="elnclii8dr3ro" class="animable"></path><path d="M146.74,228l1.25-.75S147.51,228.47,146.74,228Z" style="fill: rgb(38, 50, 56); transform-origin: 147.365px 227.679px;" id="ellpaaf5ywjsd" class="animable"></path><path d="M155.48,227.48c.1.62-.14,1.17-.55,1.24s-.83-.37-.94-1,.15-1.17.56-1.24S155.38,226.86,155.48,227.48Z" style="fill: rgb(38, 50, 56); transform-origin: 154.734px 227.6px;" id="el7vc05yqm2fo" class="animable"></path><path d="M154.38,226.55l1.25-.75S155.16,227,154.38,226.55Z" style="fill: rgb(38, 50, 56); transform-origin: 155.005px 226.225px;" id="eljptyeoqc0l" class="animable"></path><path d="M143.91,225.66a.34.34,0,0,1-.17,0,.32.32,0,0,1-.11-.44A4.21,4.21,0,0,1,147,223.4h0a.32.32,0,0,1,0,.64,3.69,3.69,0,0,0-2.83,1.46A.32.32,0,0,1,143.91,225.66Z" style="fill: rgb(46, 53, 58); transform-origin: 145.452px 224.535px;" id="elmnf0xtuu69" class="animable"></path><path d="M155.52,223.11l-.14,0a3.23,3.23,0,0,0-2.79-.19.33.33,0,0,1-.44-.13.32.32,0,0,1,.13-.44,3.87,3.87,0,0,1,3.38.17.34.34,0,0,1,.16.44A.35.35,0,0,1,155.52,223.11Z" style="fill: rgb(46, 53, 58); transform-origin: 153.979px 222.576px;" id="elnd1rakh5kx" class="animable"></path><path d="M152.66,235.92a18.33,18.33,0,0,0-.5,2.74l-.49,0c-2.23.1-3.29-.59-3.79-1.39a2.73,2.73,0,0,1-.41-1.29,2.48,2.48,0,0,1,0-.78,10.52,10.52,0,0,0,4.4.71C152.36,235.94,152.66,235.92,152.66,235.92Z" style="fill: rgb(38, 50, 56); transform-origin: 150.05px 236.935px;" id="el82vkfjer7oj" class="animable"></path><path d="M151.9,235.94l-.17.81c-2.09.08-3.58-.14-4.26-.74a2.48,2.48,0,0,1,0-.78A10.52,10.52,0,0,0,151.9,235.94Z" style="fill: rgb(255, 255, 255); transform-origin: 149.67px 235.998px;" id="el1ksjbxifl47" class="animable"></path><path d="M151.67,238.69c-2.23.1-3.29-.59-3.79-1.39a7.44,7.44,0,0,1,2.49.38A2.74,2.74,0,0,1,151.67,238.69Z" style="fill: rgb(222, 87, 83); transform-origin: 149.775px 237.999px;" id="el91h2ue6zbbr" class="animable"></path><path d="M138.86,232.2s2.62-6.7,1.39-11.4c0,0,14-8.27,17,6.76,0,0-.5-13.66-13.49-12.07s-10.17,20.52-2.66,25.18C141.08,240.67,137.25,236.38,138.86,232.2Z" style="fill: rgb(38, 50, 56); transform-origin: 145.996px 228.016px;" id="eldvzphghvvm6" class="animable"></path><path d="M136.84,218.34s5.44-5.81,10.92-5.3,5.19,7.69-1.66,11-8,6.93-8,6.93l-6.65-5Z" style="fill: rgb(38, 50, 56); transform-origin: 141.516px 221.989px;" id="elac46ezfr6lg" class="animable"></path><path d="M136.8,231.5c0-.09-.59-2.16,4.42-4.43,4.65-2.11,9.92-4.5,10.28-8.21a3.69,3.69,0,0,0-.65-2.91,1.86,1.86,0,0,0-1.3-.61h0v-.45a2.31,2.31,0,0,1,1.63.75,4.06,4.06,0,0,1,.77,3.26c-.38,4-5.78,6.42-10.54,8.58-4.59,2.08-4.17,3.87-4.17,3.89Z" style="fill: rgb(38, 50, 56); transform-origin: 144.402px 223.195px;" id="elxy1cuvh1pr" class="animable"></path><path d="M140.33,233.61a3.34,3.34,0,0,0-4-2.5c-2.3.59-2.71,5.54,3.26,5.85C140.45,237,140.8,236.12,140.33,233.61Z" style="fill: rgb(235, 179, 118); transform-origin: 137.652px 233.993px;" id="el0gamd5x0adw" class="animable"></path><path d="M140.54,268.62a46.52,46.52,0,0,1-2.47,14.19c-1.31-4.72-3.37-10.63-6.5-19.31a6.92,6.92,0,0,1,1.77-7.62C133.64,255.87,140.76,255.87,140.54,268.62Z" style="fill: rgb(235, 179, 118); transform-origin: 135.82px 269.345px;" id="elmpoo3kohowi" class="animable"></path><rect x="112.76" y="334.8" width="47.14" height="12.02" rx="6.01" style="fill: rgb(38, 50, 56); transform-origin: 136.33px 340.81px;" id="eloxr1vu462jc" class="animable"></rect><path d="M142.56,340.84a2.34,2.34,0,0,0,2.29-1.73c1.66-6.16,6.89-26.62,4.6-31.21-2.93-5.87-34.58-4.51-43.74-4a2.62,2.62,0,0,0-2.47,2.62h0a2.61,2.61,0,0,0,2.67,2.62c8.32-.2,33.35-.64,37.41,1.24,2.76,1.27-1.33,20.27-3,27.58a2.34,2.34,0,0,0,2.26,2.87Z" style="fill: rgb(38, 50, 56); transform-origin: 126.63px 322.117px;" id="elk6oiqggum9" class="animable"></path></g><g id="freepik--Plant--inject-44" class="animable" style="transform-origin: 82.1382px 377.797px;"><path d="M74.45,344.87c.21,1.47-3.78,2.43-7,3,.26,2.66,2,5.36,4.49,7.88,3.09-1.74,7.49-4,8.3-3.47s-3.62,3.53-6.44,5.24a58,58,0,0,0,6.39,4.84c1.38-1.29,3-2.43,4-1.81s.73,2.63.24,4.42c3.36,1.95,5.87,3.14,5.87,3.14a67.56,67.56,0,0,0,2.24-9.52c-.17-.34-.33-.68-.49-1-.54-1.26,0-1.79.88-2a33.63,33.63,0,0,0,.06-6.87c-3.8-.8-8.42-2.27-6.69-4.55,1-1.37,3-1.53,4.94-1.18a8.61,8.61,0,0,0-.94-1.28c-6.91-7.62-11.74,0-11.74,0-4-3.35-9.66-2.44-10.88,2.79C69.87,343.91,74.19,343.05,74.45,344.87Z" style="fill: rgb(165, 42, 42); transform-origin: 80.2936px 353.217px;" id="elu3x7dr00ojl" class="animable"></path><g id="elylezliij34"><path d="M74.45,344.87c.21,1.47-3.78,2.43-7,3,.26,2.66,2,5.36,4.49,7.88,3.09-1.74,7.49-4,8.3-3.47s-3.62,3.53-6.44,5.24a58,58,0,0,0,6.39,4.84c1.38-1.29,3-2.43,4-1.81s.73,2.63.24,4.42c3.36,1.95,5.87,3.14,5.87,3.14a67.56,67.56,0,0,0,2.24-9.52c-.17-.34-.33-.68-.49-1-.54-1.26,0-1.79.88-2a33.63,33.63,0,0,0,.06-6.87c-3.8-.8-8.42-2.27-6.69-4.55,1-1.37,3-1.53,4.94-1.18a8.61,8.61,0,0,0-.94-1.28c-6.91-7.62-11.74,0-11.74,0-4-3.35-9.66-2.44-10.88,2.79C69.87,343.91,74.19,343.05,74.45,344.87Z" style="fill: rgb(255, 255, 255); isolation: isolate; opacity: 0.3; transform-origin: 80.2936px 353.217px;" class="animable"></path></g><path d="M83.07,400.85l-1-.08c0-.52,4.09-51.53-7.36-56.33a3.88,3.88,0,0,0-3.47.08c-4.13,2.15-6.12,11.08-6.14,11.18l-1-.22c.08-.38,2.1-9.48,6.65-11.84a4.85,4.85,0,0,1,4.32-.13C87.22,348.6,83.25,398.72,83.07,400.85Z" style="fill: rgb(165, 42, 42); transform-origin: 73.9655px 371.958px;" id="elkgt8k359nc" class="animable"></path><path d="M84.52,399.75c-.21-2.3-4.88-56.27,3.86-62,2.09-1.37,4-1.67,5.55-.86,4.13,2.08,4.67,10.91,4.69,11.28l-1,.06c0-.09-.53-8.63-4.14-10.45-1.25-.63-2.78-.36-4.55.81-8.25,5.4-3.47,60.51-3.42,61.07Z" style="fill: rgb(165, 42, 42); transform-origin: 90.8535px 368.097px;" id="elww5k0u4ztx" class="animable"></path><path d="M85.83,404.11c-.07-1.76-1.51-43.07,6.45-46.69a5.59,5.59,0,0,1,4.73,0c5.46,2.41,8.84,12.58,9,13l-1,.31c0-.1-3.37-10.18-8.42-12.4a4.54,4.54,0,0,0-3.91,0c-6.11,2.78-6.31,34-5.87,45.74Z" style="fill: rgb(165, 42, 42); transform-origin: 95.8477px 380.502px;" id="elhr2b55l0zr" class="animable"></path><path d="M83.8,402.22l-1-.11c1.4-12.3,4.08-45.06-.3-49a1.71,1.71,0,0,0-1.79-.56c-2.93,1.13-4.72,11.79-5.16,15.8l-1-.11c.16-1.54,1.76-15.07,5.79-16.62a2.65,2.65,0,0,1,2.82.74C88.84,357.44,84,400.39,83.8,402.22Z" style="fill: rgb(165, 42, 42); transform-origin: 80.2311px 376.85px;" id="el4ukoit1nze7" class="animable"></path><polygon points="67.12 378.91 103.04 378.91 100.04 419.15 70.12 419.15 67.12 378.91" style="fill: rgb(38, 50, 56); transform-origin: 85.08px 399.03px;" id="el9qt8t8a9njw" class="animable"></polygon><g id="elyk55ppue1q"><polygon points="78.03 378.91 79.03 419.15 100.04 419.15 103.04 378.91 78.03 378.91" style="fill: rgb(255, 255, 255); isolation: isolate; opacity: 0.2; transform-origin: 90.535px 399.03px;" class="animable"></polygon></g><path d="M72,364.14c-.37,1-3.16.21-5.36-.57-.75,1.74-.58,4,.07,6.4,2.5,0,6,.08,6.31.71s-3.44.93-5.77,1a41.47,41.47,0,0,0,2.28,5.18c1.3-.33,2.69-.47,3.07.24s-.45,1.87-1.37,2.81c1.4,2.35,2.54,3.95,2.54,3.95a48.12,48.12,0,0,0,4.65-5.11c0-.26,0-.53,0-.8.1-1,.6-1.11,1.21-.91a23,23,0,0,0,2.39-4.21c-2.07-1.8-4.41-4.29-2.56-5.1,1.11-.49,2.34.07,3.45,1a5.11,5.11,0,0,0-.14-1.11c-1.65-7.07-7.24-4-7.24-4-1.33-3.45-5.12-4.82-7.66-2C69.52,362,72.47,362.93,72,364.14Z" style="fill: rgb(165, 42, 42); transform-origin: 74.5281px 371.982px;" id="elrdovi292q1c" class="animable"></path><g id="elh7qojxcq0ee"><path d="M72,364.14c-.37,1-3.16.21-5.36-.57-.75,1.74-.58,4,.07,6.4,2.5,0,6,.08,6.31.71s-3.44.93-5.77,1a41.47,41.47,0,0,0,2.28,5.18c1.3-.33,2.69-.47,3.07.24s-.45,1.87-1.37,2.81c1.4,2.35,2.54,3.95,2.54,3.95a48.12,48.12,0,0,0,4.65-5.11c0-.26,0-.53,0-.8.1-1,.6-1.11,1.21-.91a23,23,0,0,0,2.39-4.21c-2.07-1.8-4.41-4.29-2.56-5.1,1.11-.49,2.34.07,3.45,1a5.11,5.11,0,0,0-.14-1.11c-1.65-7.07-7.24-4-7.24-4-1.33-3.45-5.12-4.82-7.66-2C69.52,362,72.47,362.93,72,364.14Z" style="fill: rgb(255, 255, 255); isolation: isolate; opacity: 0.3; transform-origin: 74.5281px 371.982px;" class="animable"></path></g><path d="M98.69,368.92a13.57,13.57,0,0,0-3.29.69,7.93,7.93,0,0,1-.48-2.38c-.23-7.24,5-4.19,7.7-6.32a5.9,5.9,0,0,1,4.58-1.43,11,11,0,0,0-.62,1.24,1.15,1.15,0,0,0,.88,1.55,3.4,3.4,0,0,0,2-.24,3.77,3.77,0,0,0,.52-.37,10,10,0,0,1,1,2.43,13.43,13.43,0,0,1,.47,3.09c-.4.1-.81.21-1.21.35a1.13,1.13,0,0,0-.45,1.72,5.3,5.3,0,0,0,1.49,1.05,16.9,16.9,0,0,1-.91,3.39l-.37.06c-.26.05-.52.12-.78.19l-.43.16a1.16,1.16,0,0,0-.68.88,1.12,1.12,0,0,0,.43,1,3.61,3.61,0,0,0,.53.33,8,8,0,0,1-2.87,2.9,30.08,30.08,0,0,1-3-1.62c.22-.29.43-.58.64-.88a1.7,1.7,0,0,0,.3-1.14,1.57,1.57,0,0,0-.58-1,1.62,1.62,0,0,0-1.14-.31,1.57,1.57,0,0,0-1,.59c-.24.36-.51.7-.77,1a19.11,19.11,0,0,1-3.68-3.57l.11,0a12.77,12.77,0,0,1,2-.34,1.54,1.54,0,1,0-.39-3.05Z" style="fill: rgb(165, 42, 42); transform-origin: 103.181px 369.325px;" id="eltay9xo4mpt" class="animable"></path><g id="el19a8iqvsrvt"><path d="M98.69,368.92a13.57,13.57,0,0,0-3.29.69,7.93,7.93,0,0,1-.48-2.38c-.23-7.24,5-4.19,7.7-6.32a5.9,5.9,0,0,1,4.58-1.43,11,11,0,0,0-.62,1.24,1.15,1.15,0,0,0,.88,1.55,3.4,3.4,0,0,0,2-.24,3.77,3.77,0,0,0,.52-.37,10,10,0,0,1,1,2.43,13.43,13.43,0,0,1,.47,3.09c-.4.1-.81.21-1.21.35a1.13,1.13,0,0,0-.45,1.72,5.3,5.3,0,0,0,1.49,1.05,16.9,16.9,0,0,1-.91,3.39l-.37.06c-.26.05-.52.12-.78.19l-.43.16a1.16,1.16,0,0,0-.68.88,1.12,1.12,0,0,0,.43,1,3.61,3.61,0,0,0,.53.33,8,8,0,0,1-2.87,2.9,30.08,30.08,0,0,1-3-1.62c.22-.29.43-.58.64-.88a1.7,1.7,0,0,0,.3-1.14,1.57,1.57,0,0,0-.58-1,1.62,1.62,0,0,0-1.14-.31,1.57,1.57,0,0,0-1,.59c-.24.36-.51.7-.77,1a19.11,19.11,0,0,1-3.68-3.57l.11,0a12.77,12.77,0,0,1,2-.34,1.54,1.54,0,1,0-.39-3.05Z" style="fill: rgb(255, 255, 255); isolation: isolate; opacity: 0.5; transform-origin: 103.181px 369.325px;" class="animable"></path></g><path d="M100.76,343.94a9,9,0,0,1,2-1.08,5.17,5.17,0,0,0-.79-1.46c-3.06-3.91-4.45,0-6.82.06a4,4,0,0,0-3,1.26,6.68,6.68,0,0,1,.87.37.77.77,0,0,1,.22,1.2,2.3,2.3,0,0,1-1.17.77,3.27,3.27,0,0,1-.44,0,6.64,6.64,0,0,0,.54,1.71,9.55,9.55,0,0,0,1.12,1.83,6.86,6.86,0,0,1,.78-.35.78.78,0,0,1,1,.71,3.51,3.51,0,0,1-.33,1.2,11.75,11.75,0,0,0,2,1.39l.22-.13.5-.25a1.42,1.42,0,0,1,.29-.1.77.77,0,0,1,1,.9,3.31,3.31,0,0,1-.14.41,5.5,5.5,0,0,0,2.78.26,20.83,20.83,0,0,0,.9-2.19c-.24-.05-.49-.11-.72-.18a1.16,1.16,0,0,1-.66-.46,1,1,0,0,1-.14-.8,1,1,0,0,1,1.25-.8l.86.21a13.11,13.11,0,0,0,.37-3.49l-.08,0a8,8,0,0,0-1.22.72,1.05,1.05,0,0,1-1.13-1.78Z" style="fill: rgb(165, 42, 42); transform-origin: 97.4427px 346.189px;" id="elc7o6zq0uv2p" class="animable"></path><g id="el6pmcvfhyo0u"><path d="M100.76,343.94a9,9,0,0,1,2-1.08,5.17,5.17,0,0,0-.79-1.46c-3.06-3.91-4.45,0-6.82.06a4,4,0,0,0-3,1.26,6.68,6.68,0,0,1,.87.37.77.77,0,0,1,.22,1.2,2.3,2.3,0,0,1-1.17.77,3.27,3.27,0,0,1-.44,0,6.64,6.64,0,0,0,.54,1.71,9.55,9.55,0,0,0,1.12,1.83,6.86,6.86,0,0,1,.78-.35.78.78,0,0,1,1,.71,3.51,3.51,0,0,1-.33,1.2,11.75,11.75,0,0,0,2,1.39l.22-.13.5-.25a1.42,1.42,0,0,1,.29-.1.77.77,0,0,1,1,.9,3.31,3.31,0,0,1-.14.41,5.5,5.5,0,0,0,2.78.26,20.83,20.83,0,0,0,.9-2.19c-.24-.05-.49-.11-.72-.18a1.16,1.16,0,0,1-.66-.46,1,1,0,0,1-.14-.8,1,1,0,0,1,1.25-.8l.86.21a13.11,13.11,0,0,0,.37-3.49l-.08,0a8,8,0,0,0-1.22.72,1.05,1.05,0,0,1-1.13-1.78Z" style="fill: rgb(255, 255, 255); isolation: isolate; opacity: 0.3; transform-origin: 97.4427px 346.189px;" class="animable"></path></g><path d="M71.49,351.19c-.21,1.47,3.77,2.44,7,3-.27,2.67-2,5.37-4.5,7.89-3.08-1.74-7.49-4-8.3-3.48s3.62,3.53,6.44,5.24a55.49,55.49,0,0,1-6.38,4.84c-1.39-1.29-3-2.42-4-1.81s-.73,2.64-.24,4.42c-3.35,2-5.87,3.15-5.87,3.15a67.5,67.5,0,0,1-2.24-9.53c.17-.33.34-.67.49-1,.54-1.25,0-1.78-.88-2A33.52,33.52,0,0,1,53,355c3.8-.8,8.42-2.28,6.69-4.55-1.05-1.38-3-1.53-5-1.19A8.61,8.61,0,0,1,55.7,348c6.92-7.62,11.74,0,11.74,0,4-3.35,9.66-2.44,10.88,2.79C76.07,350.23,71.75,349.37,71.49,351.19Z" style="fill: rgb(165, 42, 42); transform-origin: 65.6582px 359.527px;" id="elkgjo7n19kpa" class="animable"></path><g id="el8rh6ucdirx"><path d="M71.49,351.19c-.21,1.47,3.77,2.44,7,3-.27,2.67-2,5.37-4.5,7.89-3.08-1.74-7.49-4-8.3-3.48s3.62,3.53,6.44,5.24a55.49,55.49,0,0,1-6.38,4.84c-1.39-1.29-3-2.42-4-1.81s-.73,2.64-.24,4.42c-3.35,2-5.87,3.15-5.87,3.15a67.5,67.5,0,0,1-2.24-9.53c.17-.33.34-.67.49-1,.54-1.25,0-1.78-.88-2A33.52,33.52,0,0,1,53,355c3.8-.8,8.42-2.28,6.69-4.55-1.05-1.38-3-1.53-5-1.19A8.61,8.61,0,0,1,55.7,348c6.92-7.62,11.74,0,11.74,0,4-3.35,9.66-2.44,10.88,2.79C76.07,350.23,71.75,349.37,71.49,351.19Z" style="fill: rgb(255, 255, 255); isolation: isolate; opacity: 0.5; transform-origin: 65.6582px 359.527px;" class="animable"></path></g></g><defs>     <filter id="active" height="200%">         <feMorphology in="SourceAlpha" result="DILATED" operator="dilate" radius="2"></feMorphology>                <feFlood flood-color="#32DFEC" flood-opacity="1" result="PINK"></feFlood>        <feComposite in="PINK" in2="DILATED" operator="in" result="OUTLINE"></feComposite>        <feMerge>            <feMergeNode in="OUTLINE"></feMergeNode>            <feMergeNode in="SourceGraphic"></feMergeNode>        </feMerge>    </filter>    <filter id="hover" height="200%">        <feMorphology in="SourceAlpha" result="DILATED" operator="dilate" radius="2"></feMorphology>                <feFlood flood-color="#ff0000" flood-opacity="0.5" result="PINK"></feFlood>        <feComposite in="PINK" in2="DILATED" operator="in" result="OUTLINE"></feComposite>        <feMerge>            <feMergeNode in="OUTLINE"></feMergeNode>            <feMergeNode in="SourceGraphic"></feMergeNode>        </feMerge>            <feColorMatrix type="matrix" values="0   0   0   0   0                0   1   0   0   0                0   0   0   0   0                0   0   0   1   0 "></feColorMatrix>    </filter></defs></svg>